G04 #@! TF.GenerationSoftware,KiCad,Pcbnew,5.0.2-bee76a0~70~ubuntu18.04.1*
G04 #@! TF.CreationDate,2019-03-17T15:09:20+09:00*
G04 #@! TF.ProjectId,LeonardoBB,4c656f6e-6172-4646-9f42-422e6b696361,rev?*
G04 #@! TF.SameCoordinates,Original*
G04 #@! TF.FileFunction,Soldermask,Bot*
G04 #@! TF.FilePolarity,Negative*
%FSLAX46Y46*%
G04 Gerber Fmt 4.6, Leading zero omitted, Abs format (unit mm)*
G04 Created by KiCad (PCBNEW 5.0.2-bee76a0~70~ubuntu18.04.1) date 2019年03月17日 15時09分20秒*
%MOMM*%
%LPD*%
G01*
G04 APERTURE LIST*
%ADD10C,0.100000*%
G04 APERTURE END LIST*
D10*
G36*
X164975256Y-122991298D02*
X165081579Y-123012447D01*
X165382042Y-123136903D01*
X165384432Y-123138500D01*
X165652454Y-123317587D01*
X165882413Y-123547546D01*
X165882415Y-123547549D01*
X166063097Y-123817958D01*
X166183297Y-124108145D01*
X166187553Y-124118422D01*
X166251000Y-124437389D01*
X166251000Y-124762611D01*
X166223006Y-124903344D01*
X166187553Y-125081579D01*
X166063097Y-125382042D01*
X166028065Y-125434471D01*
X165882413Y-125652454D01*
X165652454Y-125882413D01*
X165652451Y-125882415D01*
X165382042Y-126063097D01*
X165081579Y-126187553D01*
X164975256Y-126208702D01*
X164762611Y-126251000D01*
X164437389Y-126251000D01*
X164224744Y-126208702D01*
X164118421Y-126187553D01*
X163817958Y-126063097D01*
X163547549Y-125882415D01*
X163547546Y-125882413D01*
X163317587Y-125652454D01*
X163171935Y-125434471D01*
X163136903Y-125382042D01*
X163012447Y-125081579D01*
X162976994Y-124903344D01*
X162949000Y-124762611D01*
X162949000Y-124437389D01*
X163012447Y-124118422D01*
X163016704Y-124108145D01*
X163136903Y-123817958D01*
X163317585Y-123547549D01*
X163317587Y-123547546D01*
X163547546Y-123317587D01*
X163815568Y-123138500D01*
X163817958Y-123136903D01*
X164118421Y-123012447D01*
X164224744Y-122991298D01*
X164437389Y-122949000D01*
X164762611Y-122949000D01*
X164975256Y-122991298D01*
X164975256Y-122991298D01*
G37*
G36*
X123775256Y-122991298D02*
X123881579Y-123012447D01*
X124182042Y-123136903D01*
X124184432Y-123138500D01*
X124452454Y-123317587D01*
X124682413Y-123547546D01*
X124682415Y-123547549D01*
X124863097Y-123817958D01*
X124983297Y-124108145D01*
X124987553Y-124118422D01*
X125051000Y-124437389D01*
X125051000Y-124762611D01*
X125023006Y-124903344D01*
X124987553Y-125081579D01*
X124863097Y-125382042D01*
X124828065Y-125434471D01*
X124682413Y-125652454D01*
X124452454Y-125882413D01*
X124452451Y-125882415D01*
X124182042Y-126063097D01*
X123881579Y-126187553D01*
X123775256Y-126208702D01*
X123562611Y-126251000D01*
X123237389Y-126251000D01*
X123024744Y-126208702D01*
X122918421Y-126187553D01*
X122617958Y-126063097D01*
X122347549Y-125882415D01*
X122347546Y-125882413D01*
X122117587Y-125652454D01*
X121971935Y-125434471D01*
X121936903Y-125382042D01*
X121812447Y-125081579D01*
X121776994Y-124903344D01*
X121749000Y-124762611D01*
X121749000Y-124437389D01*
X121812447Y-124118422D01*
X121816704Y-124108145D01*
X121936903Y-123817958D01*
X122117585Y-123547549D01*
X122117587Y-123547546D01*
X122347546Y-123317587D01*
X122615568Y-123138500D01*
X122617958Y-123136903D01*
X122918421Y-123012447D01*
X123024744Y-122991298D01*
X123237389Y-122949000D01*
X123562611Y-122949000D01*
X123775256Y-122991298D01*
X123775256Y-122991298D01*
G37*
G36*
X131247618Y-124070920D02*
X131329427Y-124095737D01*
X131370333Y-124108145D01*
X131470491Y-124161681D01*
X131483426Y-124168595D01*
X131582553Y-124249947D01*
X131663905Y-124349074D01*
X131663906Y-124349076D01*
X131724355Y-124462167D01*
X131724356Y-124462170D01*
X131761580Y-124584882D01*
X131771000Y-124680527D01*
X131771000Y-125444473D01*
X131761580Y-125540118D01*
X131736763Y-125621927D01*
X131724355Y-125662833D01*
X131670819Y-125762991D01*
X131663905Y-125775926D01*
X131582553Y-125875053D01*
X131582551Y-125875055D01*
X131533609Y-125915220D01*
X131483425Y-125956405D01*
X131430782Y-125984543D01*
X131370332Y-126016855D01*
X131329426Y-126029263D01*
X131247617Y-126054080D01*
X131120000Y-126066649D01*
X130992382Y-126054080D01*
X130910573Y-126029263D01*
X130869667Y-126016855D01*
X130756576Y-125956406D01*
X130756574Y-125956405D01*
X130657447Y-125875053D01*
X130652809Y-125869401D01*
X130576096Y-125775926D01*
X130576095Y-125775924D01*
X130515646Y-125662833D01*
X130515645Y-125662832D01*
X130478421Y-125540119D01*
X130478420Y-125540117D01*
X130469000Y-125444472D01*
X130469000Y-124680527D01*
X130478420Y-124584882D01*
X130515645Y-124462168D01*
X130576096Y-124349074D01*
X130657448Y-124249947D01*
X130756575Y-124168595D01*
X130769510Y-124161681D01*
X130869668Y-124108145D01*
X130910574Y-124095737D01*
X130992383Y-124070920D01*
X131120000Y-124058351D01*
X131247618Y-124070920D01*
X131247618Y-124070920D01*
G37*
G36*
X138247617Y-124070920D02*
X138329426Y-124095737D01*
X138370332Y-124108145D01*
X138430782Y-124140457D01*
X138483425Y-124168595D01*
X138582553Y-124249947D01*
X138663905Y-124349074D01*
X138663906Y-124349076D01*
X138724355Y-124462167D01*
X138724356Y-124462170D01*
X138761580Y-124584882D01*
X138771000Y-124680527D01*
X138771000Y-125444473D01*
X138761580Y-125540118D01*
X138736763Y-125621927D01*
X138724355Y-125662833D01*
X138670819Y-125762991D01*
X138663905Y-125775926D01*
X138582553Y-125875053D01*
X138483426Y-125956405D01*
X138483424Y-125956406D01*
X138370333Y-126016855D01*
X138329427Y-126029263D01*
X138247618Y-126054080D01*
X138120000Y-126066649D01*
X137992383Y-126054080D01*
X137910574Y-126029263D01*
X137869668Y-126016855D01*
X137756577Y-125956406D01*
X137756575Y-125956405D01*
X137657448Y-125875053D01*
X137576096Y-125775926D01*
X137515645Y-125662832D01*
X137478420Y-125540118D01*
X137469000Y-125444473D01*
X137469000Y-124680528D01*
X137478420Y-124584883D01*
X137511189Y-124476857D01*
X137515645Y-124462168D01*
X137573997Y-124353000D01*
X137576095Y-124349075D01*
X137657447Y-124249947D01*
X137756574Y-124168595D01*
X137769509Y-124161681D01*
X137869667Y-124108145D01*
X137910573Y-124095737D01*
X137992382Y-124070920D01*
X138120000Y-124058351D01*
X138247617Y-124070920D01*
X138247617Y-124070920D01*
G37*
G36*
X135787591Y-125018085D02*
X135821569Y-125028393D01*
X135852887Y-125045133D01*
X135880339Y-125067661D01*
X135902867Y-125095113D01*
X135919607Y-125126431D01*
X135929915Y-125160409D01*
X135934000Y-125201890D01*
X135934000Y-125878110D01*
X135929915Y-125919591D01*
X135919607Y-125953569D01*
X135902867Y-125984887D01*
X135880339Y-126012339D01*
X135852887Y-126034867D01*
X135821569Y-126051607D01*
X135787591Y-126061915D01*
X135746110Y-126066000D01*
X135144890Y-126066000D01*
X135103409Y-126061915D01*
X135069431Y-126051607D01*
X135038113Y-126034867D01*
X135010661Y-126012339D01*
X134988133Y-125984887D01*
X134971393Y-125953569D01*
X134961085Y-125919591D01*
X134957000Y-125878110D01*
X134957000Y-125201890D01*
X134961085Y-125160409D01*
X134971393Y-125126431D01*
X134988133Y-125095113D01*
X135010661Y-125067661D01*
X135038113Y-125045133D01*
X135069431Y-125028393D01*
X135103409Y-125018085D01*
X135144890Y-125014000D01*
X135746110Y-125014000D01*
X135787591Y-125018085D01*
X135787591Y-125018085D01*
G37*
G36*
X134212591Y-125018085D02*
X134246569Y-125028393D01*
X134277887Y-125045133D01*
X134305339Y-125067661D01*
X134327867Y-125095113D01*
X134344607Y-125126431D01*
X134354915Y-125160409D01*
X134359000Y-125201890D01*
X134359000Y-125878110D01*
X134354915Y-125919591D01*
X134344607Y-125953569D01*
X134327867Y-125984887D01*
X134305339Y-126012339D01*
X134277887Y-126034867D01*
X134246569Y-126051607D01*
X134212591Y-126061915D01*
X134171110Y-126066000D01*
X133569890Y-126066000D01*
X133528409Y-126061915D01*
X133494431Y-126051607D01*
X133463113Y-126034867D01*
X133435661Y-126012339D01*
X133413133Y-125984887D01*
X133396393Y-125953569D01*
X133386085Y-125919591D01*
X133382000Y-125878110D01*
X133382000Y-125201890D01*
X133386085Y-125160409D01*
X133396393Y-125126431D01*
X133413133Y-125095113D01*
X133435661Y-125067661D01*
X133463113Y-125045133D01*
X133494431Y-125028393D01*
X133528409Y-125018085D01*
X133569890Y-125014000D01*
X134171110Y-125014000D01*
X134212591Y-125018085D01*
X134212591Y-125018085D01*
G37*
G36*
X155272142Y-123932242D02*
X155420102Y-123993530D01*
X155487130Y-124038317D01*
X155535925Y-124070920D01*
X155553258Y-124082502D01*
X155666498Y-124195742D01*
X155755470Y-124328898D01*
X155816758Y-124476858D01*
X155848000Y-124633925D01*
X155848000Y-124794075D01*
X155816758Y-124951142D01*
X155790721Y-125014000D01*
X155755471Y-125099100D01*
X155666499Y-125232257D01*
X155553257Y-125345499D01*
X155498569Y-125382040D01*
X155420102Y-125434470D01*
X155420101Y-125434471D01*
X155420100Y-125434471D01*
X155395953Y-125444473D01*
X155272142Y-125495758D01*
X155115075Y-125527000D01*
X154954925Y-125527000D01*
X154797858Y-125495758D01*
X154674047Y-125444473D01*
X154649900Y-125434471D01*
X154649899Y-125434471D01*
X154649898Y-125434470D01*
X154571431Y-125382040D01*
X154516743Y-125345499D01*
X154403501Y-125232257D01*
X154314529Y-125099100D01*
X154279279Y-125014000D01*
X154253242Y-124951142D01*
X154222000Y-124794075D01*
X154222000Y-124633925D01*
X154253242Y-124476858D01*
X154314530Y-124328898D01*
X154403502Y-124195742D01*
X154516742Y-124082502D01*
X154534076Y-124070920D01*
X154582870Y-124038317D01*
X154649898Y-123993530D01*
X154797858Y-123932242D01*
X154954925Y-123901000D01*
X155115075Y-123901000D01*
X155272142Y-123932242D01*
X155272142Y-123932242D01*
G37*
G36*
X151272142Y-123932242D02*
X151420102Y-123993530D01*
X151487130Y-124038317D01*
X151535925Y-124070920D01*
X151553258Y-124082502D01*
X151666498Y-124195742D01*
X151755470Y-124328898D01*
X151816758Y-124476858D01*
X151848000Y-124633925D01*
X151848000Y-124794075D01*
X151816758Y-124951142D01*
X151790721Y-125014000D01*
X151755471Y-125099100D01*
X151666499Y-125232257D01*
X151553257Y-125345499D01*
X151498569Y-125382040D01*
X151420102Y-125434470D01*
X151420101Y-125434471D01*
X151420100Y-125434471D01*
X151395953Y-125444473D01*
X151272142Y-125495758D01*
X151115075Y-125527000D01*
X150954925Y-125527000D01*
X150797858Y-125495758D01*
X150674047Y-125444473D01*
X150649900Y-125434471D01*
X150649899Y-125434471D01*
X150649898Y-125434470D01*
X150571431Y-125382040D01*
X150516743Y-125345499D01*
X150403501Y-125232257D01*
X150314529Y-125099100D01*
X150279279Y-125014000D01*
X150253242Y-124951142D01*
X150222000Y-124794075D01*
X150222000Y-124633925D01*
X150253242Y-124476858D01*
X150314530Y-124328898D01*
X150403502Y-124195742D01*
X150516742Y-124082502D01*
X150534076Y-124070920D01*
X150582870Y-124038317D01*
X150649898Y-123993530D01*
X150797858Y-123932242D01*
X150954925Y-123901000D01*
X151115075Y-123901000D01*
X151272142Y-123932242D01*
X151272142Y-123932242D01*
G37*
G36*
X153272142Y-123932242D02*
X153420102Y-123993530D01*
X153487130Y-124038317D01*
X153535925Y-124070920D01*
X153553258Y-124082502D01*
X153666498Y-124195742D01*
X153755470Y-124328898D01*
X153816758Y-124476858D01*
X153848000Y-124633925D01*
X153848000Y-124794075D01*
X153816758Y-124951142D01*
X153790721Y-125014000D01*
X153755471Y-125099100D01*
X153666499Y-125232257D01*
X153553257Y-125345499D01*
X153498569Y-125382040D01*
X153420102Y-125434470D01*
X153420101Y-125434471D01*
X153420100Y-125434471D01*
X153395953Y-125444473D01*
X153272142Y-125495758D01*
X153115075Y-125527000D01*
X152954925Y-125527000D01*
X152797858Y-125495758D01*
X152674047Y-125444473D01*
X152649900Y-125434471D01*
X152649899Y-125434471D01*
X152649898Y-125434470D01*
X152571431Y-125382040D01*
X152516743Y-125345499D01*
X152403501Y-125232257D01*
X152314529Y-125099100D01*
X152279279Y-125014000D01*
X152253242Y-124951142D01*
X152222000Y-124794075D01*
X152222000Y-124633925D01*
X152253242Y-124476858D01*
X152314530Y-124328898D01*
X152403502Y-124195742D01*
X152516742Y-124082502D01*
X152534076Y-124070920D01*
X152582870Y-124038317D01*
X152649898Y-123993530D01*
X152797858Y-123932242D01*
X152954925Y-123901000D01*
X153115075Y-123901000D01*
X153272142Y-123932242D01*
X153272142Y-123932242D01*
G37*
G36*
X157848000Y-125527000D02*
X156222000Y-125527000D01*
X156222000Y-123901000D01*
X157848000Y-123901000D01*
X157848000Y-125527000D01*
X157848000Y-125527000D01*
G37*
G36*
X141838136Y-124372253D02*
X141929312Y-124410019D01*
X142011372Y-124464850D01*
X142081150Y-124534628D01*
X142135981Y-124616688D01*
X142173747Y-124707864D01*
X142193000Y-124804656D01*
X142193000Y-124903344D01*
X142173747Y-125000136D01*
X142135981Y-125091312D01*
X142081150Y-125173372D01*
X142011372Y-125243150D01*
X141929312Y-125297981D01*
X141838136Y-125335747D01*
X141741344Y-125355000D01*
X141642656Y-125355000D01*
X141545864Y-125335747D01*
X141454688Y-125297981D01*
X141372628Y-125243150D01*
X141302850Y-125173372D01*
X141248019Y-125091312D01*
X141210253Y-125000136D01*
X141191000Y-124903344D01*
X141191000Y-124804656D01*
X141210253Y-124707864D01*
X141248019Y-124616688D01*
X141302850Y-124534628D01*
X141372628Y-124464850D01*
X141454688Y-124410019D01*
X141545864Y-124372253D01*
X141642656Y-124353000D01*
X141741344Y-124353000D01*
X141838136Y-124372253D01*
X141838136Y-124372253D01*
G37*
G36*
X144838136Y-124372253D02*
X144929312Y-124410019D01*
X145011372Y-124464850D01*
X145081150Y-124534628D01*
X145135981Y-124616688D01*
X145173747Y-124707864D01*
X145193000Y-124804656D01*
X145193000Y-124903344D01*
X145173747Y-125000136D01*
X145135981Y-125091312D01*
X145081150Y-125173372D01*
X145011372Y-125243150D01*
X144929312Y-125297981D01*
X144838136Y-125335747D01*
X144741344Y-125355000D01*
X144642656Y-125355000D01*
X144545864Y-125335747D01*
X144454688Y-125297981D01*
X144372628Y-125243150D01*
X144302850Y-125173372D01*
X144248019Y-125091312D01*
X144210253Y-125000136D01*
X144191000Y-124903344D01*
X144191000Y-124804656D01*
X144210253Y-124707864D01*
X144248019Y-124616688D01*
X144302850Y-124534628D01*
X144372628Y-124464850D01*
X144454688Y-124410019D01*
X144545864Y-124372253D01*
X144642656Y-124353000D01*
X144741344Y-124353000D01*
X144838136Y-124372253D01*
X144838136Y-124372253D01*
G37*
G36*
X132346349Y-121616320D02*
X132346352Y-121616321D01*
X132346351Y-121616321D01*
X132487574Y-121674817D01*
X132487575Y-121674818D01*
X132614674Y-121759743D01*
X132722757Y-121867826D01*
X132722759Y-121867829D01*
X132807683Y-121994926D01*
X132852927Y-122104157D01*
X132866180Y-122136151D01*
X132896000Y-122286069D01*
X132896000Y-122438931D01*
X132866180Y-122588849D01*
X132866179Y-122588851D01*
X132807683Y-122730074D01*
X132807682Y-122730075D01*
X132722757Y-122857174D01*
X132614674Y-122965257D01*
X132614671Y-122965259D01*
X132487574Y-123050183D01*
X132378343Y-123095427D01*
X132346349Y-123108680D01*
X132196431Y-123138500D01*
X132043569Y-123138500D01*
X131893651Y-123108680D01*
X131861657Y-123095427D01*
X131752426Y-123050183D01*
X131625329Y-122965259D01*
X131625326Y-122965257D01*
X131517243Y-122857174D01*
X131432318Y-122730075D01*
X131432317Y-122730074D01*
X131373821Y-122588851D01*
X131373820Y-122588849D01*
X131344000Y-122438931D01*
X131344000Y-122286069D01*
X131373820Y-122136151D01*
X131387073Y-122104157D01*
X131432317Y-121994926D01*
X131517241Y-121867829D01*
X131517243Y-121867826D01*
X131625326Y-121759743D01*
X131752425Y-121674818D01*
X131752426Y-121674817D01*
X131893649Y-121616321D01*
X131893648Y-121616321D01*
X131893651Y-121616320D01*
X132043569Y-121586500D01*
X132196431Y-121586500D01*
X132346349Y-121616320D01*
X132346349Y-121616320D01*
G37*
G36*
X137346349Y-121616320D02*
X137346352Y-121616321D01*
X137346351Y-121616321D01*
X137487574Y-121674817D01*
X137487575Y-121674818D01*
X137614674Y-121759743D01*
X137722757Y-121867826D01*
X137722759Y-121867829D01*
X137807683Y-121994926D01*
X137852927Y-122104157D01*
X137866180Y-122136151D01*
X137896000Y-122286069D01*
X137896000Y-122438931D01*
X137866180Y-122588849D01*
X137866179Y-122588851D01*
X137807683Y-122730074D01*
X137807682Y-122730075D01*
X137722757Y-122857174D01*
X137614674Y-122965257D01*
X137614671Y-122965259D01*
X137487574Y-123050183D01*
X137378343Y-123095427D01*
X137346349Y-123108680D01*
X137196431Y-123138500D01*
X137043569Y-123138500D01*
X136893651Y-123108680D01*
X136861657Y-123095427D01*
X136752426Y-123050183D01*
X136625329Y-122965259D01*
X136625326Y-122965257D01*
X136517243Y-122857174D01*
X136432318Y-122730075D01*
X136432317Y-122730074D01*
X136373821Y-122588851D01*
X136373820Y-122588849D01*
X136344000Y-122438931D01*
X136344000Y-122286069D01*
X136373820Y-122136151D01*
X136387073Y-122104157D01*
X136432317Y-121994926D01*
X136517241Y-121867829D01*
X136517243Y-121867826D01*
X136625326Y-121759743D01*
X136752425Y-121674818D01*
X136752426Y-121674817D01*
X136893649Y-121616321D01*
X136893648Y-121616321D01*
X136893651Y-121616320D01*
X137043569Y-121586500D01*
X137196431Y-121586500D01*
X137346349Y-121616320D01*
X137346349Y-121616320D01*
G37*
G36*
X125851000Y-120151000D02*
X124049000Y-120151000D01*
X124049000Y-118349000D01*
X125851000Y-118349000D01*
X125851000Y-120151000D01*
X125851000Y-120151000D01*
G37*
G36*
X163951000Y-120151000D02*
X162149000Y-120151000D01*
X162149000Y-118349000D01*
X163951000Y-118349000D01*
X163951000Y-120151000D01*
X163951000Y-120151000D01*
G37*
G36*
X125060442Y-115815518D02*
X125126627Y-115822037D01*
X125239853Y-115856384D01*
X125296467Y-115873557D01*
X125435087Y-115947652D01*
X125452991Y-115957222D01*
X125488729Y-115986552D01*
X125590186Y-116069814D01*
X125673448Y-116171271D01*
X125702778Y-116207009D01*
X125702779Y-116207011D01*
X125786443Y-116363533D01*
X125786443Y-116363534D01*
X125837963Y-116533373D01*
X125855359Y-116710000D01*
X125837963Y-116886627D01*
X125803616Y-116999853D01*
X125786443Y-117056467D01*
X125712348Y-117195087D01*
X125702778Y-117212991D01*
X125673448Y-117248729D01*
X125590186Y-117350186D01*
X125488729Y-117433448D01*
X125452991Y-117462778D01*
X125452989Y-117462779D01*
X125296467Y-117546443D01*
X125239853Y-117563616D01*
X125126627Y-117597963D01*
X125060442Y-117604482D01*
X124994260Y-117611000D01*
X124905740Y-117611000D01*
X124839558Y-117604482D01*
X124773373Y-117597963D01*
X124660147Y-117563616D01*
X124603533Y-117546443D01*
X124447011Y-117462779D01*
X124447009Y-117462778D01*
X124411271Y-117433448D01*
X124309814Y-117350186D01*
X124226552Y-117248729D01*
X124197222Y-117212991D01*
X124187652Y-117195087D01*
X124113557Y-117056467D01*
X124096384Y-116999853D01*
X124062037Y-116886627D01*
X124044641Y-116710000D01*
X124062037Y-116533373D01*
X124113557Y-116363534D01*
X124113557Y-116363533D01*
X124197221Y-116207011D01*
X124197222Y-116207009D01*
X124226552Y-116171271D01*
X124309814Y-116069814D01*
X124411271Y-115986552D01*
X124447009Y-115957222D01*
X124464913Y-115947652D01*
X124603533Y-115873557D01*
X124660147Y-115856384D01*
X124773373Y-115822037D01*
X124839558Y-115815518D01*
X124905740Y-115809000D01*
X124994260Y-115809000D01*
X125060442Y-115815518D01*
X125060442Y-115815518D01*
G37*
G36*
X163160442Y-115815518D02*
X163226627Y-115822037D01*
X163339853Y-115856384D01*
X163396467Y-115873557D01*
X163535087Y-115947652D01*
X163552991Y-115957222D01*
X163588729Y-115986552D01*
X163690186Y-116069814D01*
X163773448Y-116171271D01*
X163802778Y-116207009D01*
X163802779Y-116207011D01*
X163886443Y-116363533D01*
X163886443Y-116363534D01*
X163937963Y-116533373D01*
X163955359Y-116710000D01*
X163937963Y-116886627D01*
X163903616Y-116999853D01*
X163886443Y-117056467D01*
X163812348Y-117195087D01*
X163802778Y-117212991D01*
X163773448Y-117248729D01*
X163690186Y-117350186D01*
X163588729Y-117433448D01*
X163552991Y-117462778D01*
X163552989Y-117462779D01*
X163396467Y-117546443D01*
X163339853Y-117563616D01*
X163226627Y-117597963D01*
X163160442Y-117604482D01*
X163094260Y-117611000D01*
X163005740Y-117611000D01*
X162939558Y-117604482D01*
X162873373Y-117597963D01*
X162760147Y-117563616D01*
X162703533Y-117546443D01*
X162547011Y-117462779D01*
X162547009Y-117462778D01*
X162511271Y-117433448D01*
X162409814Y-117350186D01*
X162326552Y-117248729D01*
X162297222Y-117212991D01*
X162287652Y-117195087D01*
X162213557Y-117056467D01*
X162196384Y-116999853D01*
X162162037Y-116886627D01*
X162144641Y-116710000D01*
X162162037Y-116533373D01*
X162213557Y-116363534D01*
X162213557Y-116363533D01*
X162297221Y-116207011D01*
X162297222Y-116207009D01*
X162326552Y-116171271D01*
X162409814Y-116069814D01*
X162511271Y-115986552D01*
X162547009Y-115957222D01*
X162564913Y-115947652D01*
X162703533Y-115873557D01*
X162760147Y-115856384D01*
X162873373Y-115822037D01*
X162939558Y-115815518D01*
X163005740Y-115809000D01*
X163094260Y-115809000D01*
X163160442Y-115815518D01*
X163160442Y-115815518D01*
G37*
G36*
X163160443Y-113275519D02*
X163226627Y-113282037D01*
X163339853Y-113316384D01*
X163396467Y-113333557D01*
X163535087Y-113407652D01*
X163552991Y-113417222D01*
X163588729Y-113446552D01*
X163690186Y-113529814D01*
X163773448Y-113631271D01*
X163802778Y-113667009D01*
X163802779Y-113667011D01*
X163886443Y-113823533D01*
X163886443Y-113823534D01*
X163937963Y-113993373D01*
X163955359Y-114170000D01*
X163937963Y-114346627D01*
X163903616Y-114459853D01*
X163886443Y-114516467D01*
X163812348Y-114655087D01*
X163802778Y-114672991D01*
X163773448Y-114708729D01*
X163690186Y-114810186D01*
X163588729Y-114893448D01*
X163552991Y-114922778D01*
X163552989Y-114922779D01*
X163396467Y-115006443D01*
X163339853Y-115023616D01*
X163226627Y-115057963D01*
X163160443Y-115064481D01*
X163094260Y-115071000D01*
X163005740Y-115071000D01*
X162939557Y-115064481D01*
X162873373Y-115057963D01*
X162760147Y-115023616D01*
X162703533Y-115006443D01*
X162547011Y-114922779D01*
X162547009Y-114922778D01*
X162511271Y-114893448D01*
X162409814Y-114810186D01*
X162326552Y-114708729D01*
X162297222Y-114672991D01*
X162287652Y-114655087D01*
X162213557Y-114516467D01*
X162196384Y-114459853D01*
X162162037Y-114346627D01*
X162144641Y-114170000D01*
X162162037Y-113993373D01*
X162213557Y-113823534D01*
X162213557Y-113823533D01*
X162297221Y-113667011D01*
X162297222Y-113667009D01*
X162326552Y-113631271D01*
X162409814Y-113529814D01*
X162511271Y-113446552D01*
X162547009Y-113417222D01*
X162564913Y-113407652D01*
X162703533Y-113333557D01*
X162760147Y-113316384D01*
X162873373Y-113282037D01*
X162939557Y-113275519D01*
X163005740Y-113269000D01*
X163094260Y-113269000D01*
X163160443Y-113275519D01*
X163160443Y-113275519D01*
G37*
G36*
X125060443Y-113275519D02*
X125126627Y-113282037D01*
X125239853Y-113316384D01*
X125296467Y-113333557D01*
X125435087Y-113407652D01*
X125452991Y-113417222D01*
X125488729Y-113446552D01*
X125590186Y-113529814D01*
X125673448Y-113631271D01*
X125702778Y-113667009D01*
X125702779Y-113667011D01*
X125786443Y-113823533D01*
X125786443Y-113823534D01*
X125837963Y-113993373D01*
X125855359Y-114170000D01*
X125837963Y-114346627D01*
X125803616Y-114459853D01*
X125786443Y-114516467D01*
X125712348Y-114655087D01*
X125702778Y-114672991D01*
X125673448Y-114708729D01*
X125590186Y-114810186D01*
X125488729Y-114893448D01*
X125452991Y-114922778D01*
X125452989Y-114922779D01*
X125296467Y-115006443D01*
X125239853Y-115023616D01*
X125126627Y-115057963D01*
X125060443Y-115064481D01*
X124994260Y-115071000D01*
X124905740Y-115071000D01*
X124839557Y-115064481D01*
X124773373Y-115057963D01*
X124660147Y-115023616D01*
X124603533Y-115006443D01*
X124447011Y-114922779D01*
X124447009Y-114922778D01*
X124411271Y-114893448D01*
X124309814Y-114810186D01*
X124226552Y-114708729D01*
X124197222Y-114672991D01*
X124187652Y-114655087D01*
X124113557Y-114516467D01*
X124096384Y-114459853D01*
X124062037Y-114346627D01*
X124044641Y-114170000D01*
X124062037Y-113993373D01*
X124113557Y-113823534D01*
X124113557Y-113823533D01*
X124197221Y-113667011D01*
X124197222Y-113667009D01*
X124226552Y-113631271D01*
X124309814Y-113529814D01*
X124411271Y-113446552D01*
X124447009Y-113417222D01*
X124464913Y-113407652D01*
X124603533Y-113333557D01*
X124660147Y-113316384D01*
X124773373Y-113282037D01*
X124839557Y-113275519D01*
X124905740Y-113269000D01*
X124994260Y-113269000D01*
X125060443Y-113275519D01*
X125060443Y-113275519D01*
G37*
G36*
X163160443Y-110735519D02*
X163226627Y-110742037D01*
X163339853Y-110776384D01*
X163396467Y-110793557D01*
X163535087Y-110867652D01*
X163552991Y-110877222D01*
X163588729Y-110906552D01*
X163690186Y-110989814D01*
X163773448Y-111091271D01*
X163802778Y-111127009D01*
X163802779Y-111127011D01*
X163886443Y-111283533D01*
X163886443Y-111283534D01*
X163937963Y-111453373D01*
X163955359Y-111630000D01*
X163937963Y-111806627D01*
X163903616Y-111919853D01*
X163886443Y-111976467D01*
X163812348Y-112115087D01*
X163802778Y-112132991D01*
X163773448Y-112168729D01*
X163690186Y-112270186D01*
X163588729Y-112353448D01*
X163552991Y-112382778D01*
X163552989Y-112382779D01*
X163396467Y-112466443D01*
X163339853Y-112483616D01*
X163226627Y-112517963D01*
X163160443Y-112524481D01*
X163094260Y-112531000D01*
X163005740Y-112531000D01*
X162939557Y-112524481D01*
X162873373Y-112517963D01*
X162760147Y-112483616D01*
X162703533Y-112466443D01*
X162547011Y-112382779D01*
X162547009Y-112382778D01*
X162511271Y-112353448D01*
X162409814Y-112270186D01*
X162326552Y-112168729D01*
X162297222Y-112132991D01*
X162287652Y-112115087D01*
X162213557Y-111976467D01*
X162196384Y-111919853D01*
X162162037Y-111806627D01*
X162144641Y-111630000D01*
X162162037Y-111453373D01*
X162213557Y-111283534D01*
X162213557Y-111283533D01*
X162297221Y-111127011D01*
X162297222Y-111127009D01*
X162326552Y-111091271D01*
X162409814Y-110989814D01*
X162511271Y-110906552D01*
X162547009Y-110877222D01*
X162564913Y-110867652D01*
X162703533Y-110793557D01*
X162760147Y-110776384D01*
X162873373Y-110742037D01*
X162939557Y-110735519D01*
X163005740Y-110729000D01*
X163094260Y-110729000D01*
X163160443Y-110735519D01*
X163160443Y-110735519D01*
G37*
G36*
X125060443Y-110735519D02*
X125126627Y-110742037D01*
X125239853Y-110776384D01*
X125296467Y-110793557D01*
X125435087Y-110867652D01*
X125452991Y-110877222D01*
X125488729Y-110906552D01*
X125590186Y-110989814D01*
X125673448Y-111091271D01*
X125702778Y-111127009D01*
X125702779Y-111127011D01*
X125786443Y-111283533D01*
X125786443Y-111283534D01*
X125837963Y-111453373D01*
X125855359Y-111630000D01*
X125837963Y-111806627D01*
X125803616Y-111919853D01*
X125786443Y-111976467D01*
X125712348Y-112115087D01*
X125702778Y-112132991D01*
X125673448Y-112168729D01*
X125590186Y-112270186D01*
X125488729Y-112353448D01*
X125452991Y-112382778D01*
X125452989Y-112382779D01*
X125296467Y-112466443D01*
X125239853Y-112483616D01*
X125126627Y-112517963D01*
X125060443Y-112524481D01*
X124994260Y-112531000D01*
X124905740Y-112531000D01*
X124839557Y-112524481D01*
X124773373Y-112517963D01*
X124660147Y-112483616D01*
X124603533Y-112466443D01*
X124447011Y-112382779D01*
X124447009Y-112382778D01*
X124411271Y-112353448D01*
X124309814Y-112270186D01*
X124226552Y-112168729D01*
X124197222Y-112132991D01*
X124187652Y-112115087D01*
X124113557Y-111976467D01*
X124096384Y-111919853D01*
X124062037Y-111806627D01*
X124044641Y-111630000D01*
X124062037Y-111453373D01*
X124113557Y-111283534D01*
X124113557Y-111283533D01*
X124197221Y-111127011D01*
X124197222Y-111127009D01*
X124226552Y-111091271D01*
X124309814Y-110989814D01*
X124411271Y-110906552D01*
X124447009Y-110877222D01*
X124464913Y-110867652D01*
X124603533Y-110793557D01*
X124660147Y-110776384D01*
X124773373Y-110742037D01*
X124839557Y-110735519D01*
X124905740Y-110729000D01*
X124994260Y-110729000D01*
X125060443Y-110735519D01*
X125060443Y-110735519D01*
G37*
G36*
X163160443Y-108195519D02*
X163226627Y-108202037D01*
X163339853Y-108236384D01*
X163396467Y-108253557D01*
X163535087Y-108327652D01*
X163552991Y-108337222D01*
X163588729Y-108366552D01*
X163690186Y-108449814D01*
X163773448Y-108551271D01*
X163802778Y-108587009D01*
X163802779Y-108587011D01*
X163886443Y-108743533D01*
X163886443Y-108743534D01*
X163937963Y-108913373D01*
X163955359Y-109090000D01*
X163937963Y-109266627D01*
X163903616Y-109379853D01*
X163886443Y-109436467D01*
X163812348Y-109575087D01*
X163802778Y-109592991D01*
X163773448Y-109628729D01*
X163690186Y-109730186D01*
X163588729Y-109813448D01*
X163552991Y-109842778D01*
X163552989Y-109842779D01*
X163396467Y-109926443D01*
X163339853Y-109943616D01*
X163226627Y-109977963D01*
X163160443Y-109984481D01*
X163094260Y-109991000D01*
X163005740Y-109991000D01*
X162939557Y-109984481D01*
X162873373Y-109977963D01*
X162760147Y-109943616D01*
X162703533Y-109926443D01*
X162547011Y-109842779D01*
X162547009Y-109842778D01*
X162511271Y-109813448D01*
X162409814Y-109730186D01*
X162326552Y-109628729D01*
X162297222Y-109592991D01*
X162287652Y-109575087D01*
X162213557Y-109436467D01*
X162196384Y-109379853D01*
X162162037Y-109266627D01*
X162144641Y-109090000D01*
X162162037Y-108913373D01*
X162213557Y-108743534D01*
X162213557Y-108743533D01*
X162297221Y-108587011D01*
X162297222Y-108587009D01*
X162326552Y-108551271D01*
X162409814Y-108449814D01*
X162511271Y-108366552D01*
X162547009Y-108337222D01*
X162564913Y-108327652D01*
X162703533Y-108253557D01*
X162760147Y-108236384D01*
X162873373Y-108202037D01*
X162939557Y-108195519D01*
X163005740Y-108189000D01*
X163094260Y-108189000D01*
X163160443Y-108195519D01*
X163160443Y-108195519D01*
G37*
G36*
X125060443Y-108195519D02*
X125126627Y-108202037D01*
X125239853Y-108236384D01*
X125296467Y-108253557D01*
X125435087Y-108327652D01*
X125452991Y-108337222D01*
X125488729Y-108366552D01*
X125590186Y-108449814D01*
X125673448Y-108551271D01*
X125702778Y-108587009D01*
X125702779Y-108587011D01*
X125786443Y-108743533D01*
X125786443Y-108743534D01*
X125837963Y-108913373D01*
X125855359Y-109090000D01*
X125837963Y-109266627D01*
X125803616Y-109379853D01*
X125786443Y-109436467D01*
X125712348Y-109575087D01*
X125702778Y-109592991D01*
X125673448Y-109628729D01*
X125590186Y-109730186D01*
X125488729Y-109813448D01*
X125452991Y-109842778D01*
X125452989Y-109842779D01*
X125296467Y-109926443D01*
X125239853Y-109943616D01*
X125126627Y-109977963D01*
X125060443Y-109984481D01*
X124994260Y-109991000D01*
X124905740Y-109991000D01*
X124839557Y-109984481D01*
X124773373Y-109977963D01*
X124660147Y-109943616D01*
X124603533Y-109926443D01*
X124447011Y-109842779D01*
X124447009Y-109842778D01*
X124411271Y-109813448D01*
X124309814Y-109730186D01*
X124226552Y-109628729D01*
X124197222Y-109592991D01*
X124187652Y-109575087D01*
X124113557Y-109436467D01*
X124096384Y-109379853D01*
X124062037Y-109266627D01*
X124044641Y-109090000D01*
X124062037Y-108913373D01*
X124113557Y-108743534D01*
X124113557Y-108743533D01*
X124197221Y-108587011D01*
X124197222Y-108587009D01*
X124226552Y-108551271D01*
X124309814Y-108449814D01*
X124411271Y-108366552D01*
X124447009Y-108337222D01*
X124464913Y-108327652D01*
X124603533Y-108253557D01*
X124660147Y-108236384D01*
X124773373Y-108202037D01*
X124839557Y-108195519D01*
X124905740Y-108189000D01*
X124994260Y-108189000D01*
X125060443Y-108195519D01*
X125060443Y-108195519D01*
G37*
G36*
X125060443Y-105655519D02*
X125126627Y-105662037D01*
X125239853Y-105696384D01*
X125296467Y-105713557D01*
X125435087Y-105787652D01*
X125452991Y-105797222D01*
X125488729Y-105826552D01*
X125590186Y-105909814D01*
X125673448Y-106011271D01*
X125702778Y-106047009D01*
X125702779Y-106047011D01*
X125786443Y-106203533D01*
X125786443Y-106203534D01*
X125837963Y-106373373D01*
X125855359Y-106550000D01*
X125837963Y-106726627D01*
X125803616Y-106839853D01*
X125786443Y-106896467D01*
X125712348Y-107035087D01*
X125702778Y-107052991D01*
X125673448Y-107088729D01*
X125590186Y-107190186D01*
X125488729Y-107273448D01*
X125452991Y-107302778D01*
X125452989Y-107302779D01*
X125296467Y-107386443D01*
X125239853Y-107403616D01*
X125126627Y-107437963D01*
X125060443Y-107444481D01*
X124994260Y-107451000D01*
X124905740Y-107451000D01*
X124839557Y-107444481D01*
X124773373Y-107437963D01*
X124660147Y-107403616D01*
X124603533Y-107386443D01*
X124447011Y-107302779D01*
X124447009Y-107302778D01*
X124411271Y-107273448D01*
X124309814Y-107190186D01*
X124226552Y-107088729D01*
X124197222Y-107052991D01*
X124187652Y-107035087D01*
X124113557Y-106896467D01*
X124096384Y-106839853D01*
X124062037Y-106726627D01*
X124044641Y-106550000D01*
X124062037Y-106373373D01*
X124113557Y-106203534D01*
X124113557Y-106203533D01*
X124197221Y-106047011D01*
X124197222Y-106047009D01*
X124226552Y-106011271D01*
X124309814Y-105909814D01*
X124411271Y-105826552D01*
X124447009Y-105797222D01*
X124464913Y-105787652D01*
X124603533Y-105713557D01*
X124660147Y-105696384D01*
X124773373Y-105662037D01*
X124839557Y-105655519D01*
X124905740Y-105649000D01*
X124994260Y-105649000D01*
X125060443Y-105655519D01*
X125060443Y-105655519D01*
G37*
G36*
X163160443Y-105655519D02*
X163226627Y-105662037D01*
X163339853Y-105696384D01*
X163396467Y-105713557D01*
X163535087Y-105787652D01*
X163552991Y-105797222D01*
X163588729Y-105826552D01*
X163690186Y-105909814D01*
X163773448Y-106011271D01*
X163802778Y-106047009D01*
X163802779Y-106047011D01*
X163886443Y-106203533D01*
X163886443Y-106203534D01*
X163937963Y-106373373D01*
X163955359Y-106550000D01*
X163937963Y-106726627D01*
X163903616Y-106839853D01*
X163886443Y-106896467D01*
X163812348Y-107035087D01*
X163802778Y-107052991D01*
X163773448Y-107088729D01*
X163690186Y-107190186D01*
X163588729Y-107273448D01*
X163552991Y-107302778D01*
X163552989Y-107302779D01*
X163396467Y-107386443D01*
X163339853Y-107403616D01*
X163226627Y-107437963D01*
X163160443Y-107444481D01*
X163094260Y-107451000D01*
X163005740Y-107451000D01*
X162939557Y-107444481D01*
X162873373Y-107437963D01*
X162760147Y-107403616D01*
X162703533Y-107386443D01*
X162547011Y-107302779D01*
X162547009Y-107302778D01*
X162511271Y-107273448D01*
X162409814Y-107190186D01*
X162326552Y-107088729D01*
X162297222Y-107052991D01*
X162287652Y-107035087D01*
X162213557Y-106896467D01*
X162196384Y-106839853D01*
X162162037Y-106726627D01*
X162144641Y-106550000D01*
X162162037Y-106373373D01*
X162213557Y-106203534D01*
X162213557Y-106203533D01*
X162297221Y-106047011D01*
X162297222Y-106047009D01*
X162326552Y-106011271D01*
X162409814Y-105909814D01*
X162511271Y-105826552D01*
X162547009Y-105797222D01*
X162564913Y-105787652D01*
X162703533Y-105713557D01*
X162760147Y-105696384D01*
X162873373Y-105662037D01*
X162939557Y-105655519D01*
X163005740Y-105649000D01*
X163094260Y-105649000D01*
X163160443Y-105655519D01*
X163160443Y-105655519D01*
G37*
G36*
X125060443Y-103115519D02*
X125126627Y-103122037D01*
X125239853Y-103156384D01*
X125296467Y-103173557D01*
X125435087Y-103247652D01*
X125452991Y-103257222D01*
X125488729Y-103286552D01*
X125590186Y-103369814D01*
X125673448Y-103471271D01*
X125702778Y-103507009D01*
X125702779Y-103507011D01*
X125786443Y-103663533D01*
X125786443Y-103663534D01*
X125837963Y-103833373D01*
X125855359Y-104010000D01*
X125837963Y-104186627D01*
X125803616Y-104299853D01*
X125786443Y-104356467D01*
X125712348Y-104495087D01*
X125702778Y-104512991D01*
X125673448Y-104548729D01*
X125590186Y-104650186D01*
X125488729Y-104733448D01*
X125452991Y-104762778D01*
X125452989Y-104762779D01*
X125296467Y-104846443D01*
X125239853Y-104863616D01*
X125126627Y-104897963D01*
X125060442Y-104904482D01*
X124994260Y-104911000D01*
X124905740Y-104911000D01*
X124839558Y-104904482D01*
X124773373Y-104897963D01*
X124660147Y-104863616D01*
X124603533Y-104846443D01*
X124447011Y-104762779D01*
X124447009Y-104762778D01*
X124411271Y-104733448D01*
X124309814Y-104650186D01*
X124226552Y-104548729D01*
X124197222Y-104512991D01*
X124187652Y-104495087D01*
X124113557Y-104356467D01*
X124096384Y-104299853D01*
X124062037Y-104186627D01*
X124044641Y-104010000D01*
X124062037Y-103833373D01*
X124113557Y-103663534D01*
X124113557Y-103663533D01*
X124197221Y-103507011D01*
X124197222Y-103507009D01*
X124226552Y-103471271D01*
X124309814Y-103369814D01*
X124411271Y-103286552D01*
X124447009Y-103257222D01*
X124464913Y-103247652D01*
X124603533Y-103173557D01*
X124660147Y-103156384D01*
X124773373Y-103122037D01*
X124839557Y-103115519D01*
X124905740Y-103109000D01*
X124994260Y-103109000D01*
X125060443Y-103115519D01*
X125060443Y-103115519D01*
G37*
G36*
X163160443Y-103115519D02*
X163226627Y-103122037D01*
X163339853Y-103156384D01*
X163396467Y-103173557D01*
X163535087Y-103247652D01*
X163552991Y-103257222D01*
X163588729Y-103286552D01*
X163690186Y-103369814D01*
X163773448Y-103471271D01*
X163802778Y-103507009D01*
X163802779Y-103507011D01*
X163886443Y-103663533D01*
X163886443Y-103663534D01*
X163937963Y-103833373D01*
X163955359Y-104010000D01*
X163937963Y-104186627D01*
X163903616Y-104299853D01*
X163886443Y-104356467D01*
X163812348Y-104495087D01*
X163802778Y-104512991D01*
X163773448Y-104548729D01*
X163690186Y-104650186D01*
X163588729Y-104733448D01*
X163552991Y-104762778D01*
X163552989Y-104762779D01*
X163396467Y-104846443D01*
X163339853Y-104863616D01*
X163226627Y-104897963D01*
X163160442Y-104904482D01*
X163094260Y-104911000D01*
X163005740Y-104911000D01*
X162939558Y-104904482D01*
X162873373Y-104897963D01*
X162760147Y-104863616D01*
X162703533Y-104846443D01*
X162547011Y-104762779D01*
X162547009Y-104762778D01*
X162511271Y-104733448D01*
X162409814Y-104650186D01*
X162326552Y-104548729D01*
X162297222Y-104512991D01*
X162287652Y-104495087D01*
X162213557Y-104356467D01*
X162196384Y-104299853D01*
X162162037Y-104186627D01*
X162144641Y-104010000D01*
X162162037Y-103833373D01*
X162213557Y-103663534D01*
X162213557Y-103663533D01*
X162297221Y-103507011D01*
X162297222Y-103507009D01*
X162326552Y-103471271D01*
X162409814Y-103369814D01*
X162511271Y-103286552D01*
X162547009Y-103257222D01*
X162564913Y-103247652D01*
X162703533Y-103173557D01*
X162760147Y-103156384D01*
X162873373Y-103122037D01*
X162939557Y-103115519D01*
X163005740Y-103109000D01*
X163094260Y-103109000D01*
X163160443Y-103115519D01*
X163160443Y-103115519D01*
G37*
G36*
X163160442Y-100575518D02*
X163226627Y-100582037D01*
X163339853Y-100616384D01*
X163396467Y-100633557D01*
X163535087Y-100707652D01*
X163552991Y-100717222D01*
X163588729Y-100746552D01*
X163690186Y-100829814D01*
X163773448Y-100931271D01*
X163802778Y-100967009D01*
X163802779Y-100967011D01*
X163886443Y-101123533D01*
X163886443Y-101123534D01*
X163937963Y-101293373D01*
X163955359Y-101470000D01*
X163937963Y-101646627D01*
X163903616Y-101759853D01*
X163886443Y-101816467D01*
X163812348Y-101955087D01*
X163802778Y-101972991D01*
X163773448Y-102008729D01*
X163690186Y-102110186D01*
X163588729Y-102193448D01*
X163552991Y-102222778D01*
X163552989Y-102222779D01*
X163396467Y-102306443D01*
X163339853Y-102323616D01*
X163226627Y-102357963D01*
X163160443Y-102364481D01*
X163094260Y-102371000D01*
X163005740Y-102371000D01*
X162939557Y-102364481D01*
X162873373Y-102357963D01*
X162760147Y-102323616D01*
X162703533Y-102306443D01*
X162547011Y-102222779D01*
X162547009Y-102222778D01*
X162511271Y-102193448D01*
X162409814Y-102110186D01*
X162326552Y-102008729D01*
X162297222Y-101972991D01*
X162287652Y-101955087D01*
X162213557Y-101816467D01*
X162196384Y-101759853D01*
X162162037Y-101646627D01*
X162144641Y-101470000D01*
X162162037Y-101293373D01*
X162213557Y-101123534D01*
X162213557Y-101123533D01*
X162297221Y-100967011D01*
X162297222Y-100967009D01*
X162326552Y-100931271D01*
X162409814Y-100829814D01*
X162511271Y-100746552D01*
X162547009Y-100717222D01*
X162564913Y-100707652D01*
X162703533Y-100633557D01*
X162760147Y-100616384D01*
X162873373Y-100582037D01*
X162939558Y-100575518D01*
X163005740Y-100569000D01*
X163094260Y-100569000D01*
X163160442Y-100575518D01*
X163160442Y-100575518D01*
G37*
G36*
X125060442Y-100575518D02*
X125126627Y-100582037D01*
X125239853Y-100616384D01*
X125296467Y-100633557D01*
X125435087Y-100707652D01*
X125452991Y-100717222D01*
X125488729Y-100746552D01*
X125590186Y-100829814D01*
X125673448Y-100931271D01*
X125702778Y-100967009D01*
X125702779Y-100967011D01*
X125786443Y-101123533D01*
X125786443Y-101123534D01*
X125837963Y-101293373D01*
X125855359Y-101470000D01*
X125837963Y-101646627D01*
X125803616Y-101759853D01*
X125786443Y-101816467D01*
X125712348Y-101955087D01*
X125702778Y-101972991D01*
X125673448Y-102008729D01*
X125590186Y-102110186D01*
X125488729Y-102193448D01*
X125452991Y-102222778D01*
X125452989Y-102222779D01*
X125296467Y-102306443D01*
X125239853Y-102323616D01*
X125126627Y-102357963D01*
X125060443Y-102364481D01*
X124994260Y-102371000D01*
X124905740Y-102371000D01*
X124839557Y-102364481D01*
X124773373Y-102357963D01*
X124660147Y-102323616D01*
X124603533Y-102306443D01*
X124447011Y-102222779D01*
X124447009Y-102222778D01*
X124411271Y-102193448D01*
X124309814Y-102110186D01*
X124226552Y-102008729D01*
X124197222Y-101972991D01*
X124187652Y-101955087D01*
X124113557Y-101816467D01*
X124096384Y-101759853D01*
X124062037Y-101646627D01*
X124044641Y-101470000D01*
X124062037Y-101293373D01*
X124113557Y-101123534D01*
X124113557Y-101123533D01*
X124197221Y-100967011D01*
X124197222Y-100967009D01*
X124226552Y-100931271D01*
X124309814Y-100829814D01*
X124411271Y-100746552D01*
X124447009Y-100717222D01*
X124464913Y-100707652D01*
X124603533Y-100633557D01*
X124660147Y-100616384D01*
X124773373Y-100582037D01*
X124839558Y-100575518D01*
X124905740Y-100569000D01*
X124994260Y-100569000D01*
X125060442Y-100575518D01*
X125060442Y-100575518D01*
G37*
G36*
X125060442Y-98035518D02*
X125126627Y-98042037D01*
X125239853Y-98076384D01*
X125296467Y-98093557D01*
X125435087Y-98167652D01*
X125452991Y-98177222D01*
X125488729Y-98206552D01*
X125590186Y-98289814D01*
X125673448Y-98391271D01*
X125702778Y-98427009D01*
X125702779Y-98427011D01*
X125786443Y-98583533D01*
X125786443Y-98583534D01*
X125837963Y-98753373D01*
X125855359Y-98930000D01*
X125837963Y-99106627D01*
X125803616Y-99219853D01*
X125786443Y-99276467D01*
X125712348Y-99415087D01*
X125702778Y-99432991D01*
X125673448Y-99468729D01*
X125590186Y-99570186D01*
X125488729Y-99653448D01*
X125452991Y-99682778D01*
X125452989Y-99682779D01*
X125296467Y-99766443D01*
X125239853Y-99783616D01*
X125126627Y-99817963D01*
X125060443Y-99824481D01*
X124994260Y-99831000D01*
X124905740Y-99831000D01*
X124839558Y-99824482D01*
X124773373Y-99817963D01*
X124660147Y-99783616D01*
X124603533Y-99766443D01*
X124447011Y-99682779D01*
X124447009Y-99682778D01*
X124411271Y-99653448D01*
X124309814Y-99570186D01*
X124226552Y-99468729D01*
X124197222Y-99432991D01*
X124187652Y-99415087D01*
X124113557Y-99276467D01*
X124096384Y-99219853D01*
X124062037Y-99106627D01*
X124044641Y-98930000D01*
X124062037Y-98753373D01*
X124113557Y-98583534D01*
X124113557Y-98583533D01*
X124197221Y-98427011D01*
X124197222Y-98427009D01*
X124226552Y-98391271D01*
X124309814Y-98289814D01*
X124411271Y-98206552D01*
X124447009Y-98177222D01*
X124464913Y-98167652D01*
X124603533Y-98093557D01*
X124660147Y-98076384D01*
X124773373Y-98042037D01*
X124839558Y-98035518D01*
X124905740Y-98029000D01*
X124994260Y-98029000D01*
X125060442Y-98035518D01*
X125060442Y-98035518D01*
G37*
G36*
X163160442Y-98035518D02*
X163226627Y-98042037D01*
X163339853Y-98076384D01*
X163396467Y-98093557D01*
X163535087Y-98167652D01*
X163552991Y-98177222D01*
X163588729Y-98206552D01*
X163690186Y-98289814D01*
X163773448Y-98391271D01*
X163802778Y-98427009D01*
X163802779Y-98427011D01*
X163886443Y-98583533D01*
X163886443Y-98583534D01*
X163937963Y-98753373D01*
X163955359Y-98930000D01*
X163937963Y-99106627D01*
X163903616Y-99219853D01*
X163886443Y-99276467D01*
X163812348Y-99415087D01*
X163802778Y-99432991D01*
X163773448Y-99468729D01*
X163690186Y-99570186D01*
X163588729Y-99653448D01*
X163552991Y-99682778D01*
X163552989Y-99682779D01*
X163396467Y-99766443D01*
X163339853Y-99783616D01*
X163226627Y-99817963D01*
X163160443Y-99824481D01*
X163094260Y-99831000D01*
X163005740Y-99831000D01*
X162939558Y-99824482D01*
X162873373Y-99817963D01*
X162760147Y-99783616D01*
X162703533Y-99766443D01*
X162547011Y-99682779D01*
X162547009Y-99682778D01*
X162511271Y-99653448D01*
X162409814Y-99570186D01*
X162326552Y-99468729D01*
X162297222Y-99432991D01*
X162287652Y-99415087D01*
X162213557Y-99276467D01*
X162196384Y-99219853D01*
X162162037Y-99106627D01*
X162144641Y-98930000D01*
X162162037Y-98753373D01*
X162213557Y-98583534D01*
X162213557Y-98583533D01*
X162297221Y-98427011D01*
X162297222Y-98427009D01*
X162326552Y-98391271D01*
X162409814Y-98289814D01*
X162511271Y-98206552D01*
X162547009Y-98177222D01*
X162564913Y-98167652D01*
X162703533Y-98093557D01*
X162760147Y-98076384D01*
X162873373Y-98042037D01*
X162939558Y-98035518D01*
X163005740Y-98029000D01*
X163094260Y-98029000D01*
X163160442Y-98035518D01*
X163160442Y-98035518D01*
G37*
G36*
X163160443Y-95495519D02*
X163226627Y-95502037D01*
X163339853Y-95536384D01*
X163396467Y-95553557D01*
X163535087Y-95627652D01*
X163552991Y-95637222D01*
X163588729Y-95666552D01*
X163690186Y-95749814D01*
X163773448Y-95851271D01*
X163802778Y-95887009D01*
X163802779Y-95887011D01*
X163886443Y-96043533D01*
X163886443Y-96043534D01*
X163937963Y-96213373D01*
X163955359Y-96390000D01*
X163937963Y-96566627D01*
X163903616Y-96679853D01*
X163886443Y-96736467D01*
X163812348Y-96875087D01*
X163802778Y-96892991D01*
X163773448Y-96928729D01*
X163690186Y-97030186D01*
X163588729Y-97113448D01*
X163552991Y-97142778D01*
X163552989Y-97142779D01*
X163396467Y-97226443D01*
X163339853Y-97243616D01*
X163226627Y-97277963D01*
X163160443Y-97284481D01*
X163094260Y-97291000D01*
X163005740Y-97291000D01*
X162939558Y-97284482D01*
X162873373Y-97277963D01*
X162760147Y-97243616D01*
X162703533Y-97226443D01*
X162547011Y-97142779D01*
X162547009Y-97142778D01*
X162511271Y-97113448D01*
X162409814Y-97030186D01*
X162326552Y-96928729D01*
X162297222Y-96892991D01*
X162287652Y-96875087D01*
X162213557Y-96736467D01*
X162196384Y-96679853D01*
X162162037Y-96566627D01*
X162144641Y-96390000D01*
X162162037Y-96213373D01*
X162213557Y-96043534D01*
X162213557Y-96043533D01*
X162297221Y-95887011D01*
X162297222Y-95887009D01*
X162326552Y-95851271D01*
X162409814Y-95749814D01*
X162511271Y-95666552D01*
X162547009Y-95637222D01*
X162564913Y-95627652D01*
X162703533Y-95553557D01*
X162760147Y-95536384D01*
X162873373Y-95502037D01*
X162939558Y-95495518D01*
X163005740Y-95489000D01*
X163094260Y-95489000D01*
X163160443Y-95495519D01*
X163160443Y-95495519D01*
G37*
G36*
X125060443Y-95495519D02*
X125126627Y-95502037D01*
X125239853Y-95536384D01*
X125296467Y-95553557D01*
X125435087Y-95627652D01*
X125452991Y-95637222D01*
X125488729Y-95666552D01*
X125590186Y-95749814D01*
X125673448Y-95851271D01*
X125702778Y-95887009D01*
X125702779Y-95887011D01*
X125786443Y-96043533D01*
X125786443Y-96043534D01*
X125837963Y-96213373D01*
X125855359Y-96390000D01*
X125837963Y-96566627D01*
X125803616Y-96679853D01*
X125786443Y-96736467D01*
X125712348Y-96875087D01*
X125702778Y-96892991D01*
X125673448Y-96928729D01*
X125590186Y-97030186D01*
X125488729Y-97113448D01*
X125452991Y-97142778D01*
X125452989Y-97142779D01*
X125296467Y-97226443D01*
X125239853Y-97243616D01*
X125126627Y-97277963D01*
X125060443Y-97284481D01*
X124994260Y-97291000D01*
X124905740Y-97291000D01*
X124839558Y-97284482D01*
X124773373Y-97277963D01*
X124660147Y-97243616D01*
X124603533Y-97226443D01*
X124447011Y-97142779D01*
X124447009Y-97142778D01*
X124411271Y-97113448D01*
X124309814Y-97030186D01*
X124226552Y-96928729D01*
X124197222Y-96892991D01*
X124187652Y-96875087D01*
X124113557Y-96736467D01*
X124096384Y-96679853D01*
X124062037Y-96566627D01*
X124044641Y-96390000D01*
X124062037Y-96213373D01*
X124113557Y-96043534D01*
X124113557Y-96043533D01*
X124197221Y-95887011D01*
X124197222Y-95887009D01*
X124226552Y-95851271D01*
X124309814Y-95749814D01*
X124411271Y-95666552D01*
X124447009Y-95637222D01*
X124464913Y-95627652D01*
X124603533Y-95553557D01*
X124660147Y-95536384D01*
X124773373Y-95502037D01*
X124839558Y-95495518D01*
X124905740Y-95489000D01*
X124994260Y-95489000D01*
X125060443Y-95495519D01*
X125060443Y-95495519D01*
G37*
G36*
X163160442Y-92955518D02*
X163226627Y-92962037D01*
X163339853Y-92996384D01*
X163396467Y-93013557D01*
X163535087Y-93087652D01*
X163552991Y-93097222D01*
X163588729Y-93126552D01*
X163690186Y-93209814D01*
X163773448Y-93311271D01*
X163802778Y-93347009D01*
X163802779Y-93347011D01*
X163886443Y-93503533D01*
X163886443Y-93503534D01*
X163937963Y-93673373D01*
X163955359Y-93850000D01*
X163937963Y-94026627D01*
X163903616Y-94139853D01*
X163886443Y-94196467D01*
X163812348Y-94335087D01*
X163802778Y-94352991D01*
X163773448Y-94388729D01*
X163690186Y-94490186D01*
X163588729Y-94573448D01*
X163552991Y-94602778D01*
X163552989Y-94602779D01*
X163396467Y-94686443D01*
X163339853Y-94703616D01*
X163226627Y-94737963D01*
X163160442Y-94744482D01*
X163094260Y-94751000D01*
X163005740Y-94751000D01*
X162939557Y-94744481D01*
X162873373Y-94737963D01*
X162760147Y-94703616D01*
X162703533Y-94686443D01*
X162547011Y-94602779D01*
X162547009Y-94602778D01*
X162511271Y-94573448D01*
X162409814Y-94490186D01*
X162326552Y-94388729D01*
X162297222Y-94352991D01*
X162287652Y-94335087D01*
X162213557Y-94196467D01*
X162196384Y-94139853D01*
X162162037Y-94026627D01*
X162144641Y-93850000D01*
X162162037Y-93673373D01*
X162213557Y-93503534D01*
X162213557Y-93503533D01*
X162297221Y-93347011D01*
X162297222Y-93347009D01*
X162326552Y-93311271D01*
X162409814Y-93209814D01*
X162511271Y-93126552D01*
X162547009Y-93097222D01*
X162564913Y-93087652D01*
X162703533Y-93013557D01*
X162760147Y-92996384D01*
X162873373Y-92962037D01*
X162939558Y-92955518D01*
X163005740Y-92949000D01*
X163094260Y-92949000D01*
X163160442Y-92955518D01*
X163160442Y-92955518D01*
G37*
G36*
X125060442Y-92955518D02*
X125126627Y-92962037D01*
X125239853Y-92996384D01*
X125296467Y-93013557D01*
X125435087Y-93087652D01*
X125452991Y-93097222D01*
X125488729Y-93126552D01*
X125590186Y-93209814D01*
X125673448Y-93311271D01*
X125702778Y-93347009D01*
X125702779Y-93347011D01*
X125786443Y-93503533D01*
X125786443Y-93503534D01*
X125837963Y-93673373D01*
X125855359Y-93850000D01*
X125837963Y-94026627D01*
X125803616Y-94139853D01*
X125786443Y-94196467D01*
X125712348Y-94335087D01*
X125702778Y-94352991D01*
X125673448Y-94388729D01*
X125590186Y-94490186D01*
X125488729Y-94573448D01*
X125452991Y-94602778D01*
X125452989Y-94602779D01*
X125296467Y-94686443D01*
X125239853Y-94703616D01*
X125126627Y-94737963D01*
X125060442Y-94744482D01*
X124994260Y-94751000D01*
X124905740Y-94751000D01*
X124839557Y-94744481D01*
X124773373Y-94737963D01*
X124660147Y-94703616D01*
X124603533Y-94686443D01*
X124447011Y-94602779D01*
X124447009Y-94602778D01*
X124411271Y-94573448D01*
X124309814Y-94490186D01*
X124226552Y-94388729D01*
X124197222Y-94352991D01*
X124187652Y-94335087D01*
X124113557Y-94196467D01*
X124096384Y-94139853D01*
X124062037Y-94026627D01*
X124044641Y-93850000D01*
X124062037Y-93673373D01*
X124113557Y-93503534D01*
X124113557Y-93503533D01*
X124197221Y-93347011D01*
X124197222Y-93347009D01*
X124226552Y-93311271D01*
X124309814Y-93209814D01*
X124411271Y-93126552D01*
X124447009Y-93097222D01*
X124464913Y-93087652D01*
X124603533Y-93013557D01*
X124660147Y-92996384D01*
X124773373Y-92962037D01*
X124839558Y-92955518D01*
X124905740Y-92949000D01*
X124994260Y-92949000D01*
X125060442Y-92955518D01*
X125060442Y-92955518D01*
G37*
G36*
X125060442Y-90415518D02*
X125126627Y-90422037D01*
X125239853Y-90456384D01*
X125296467Y-90473557D01*
X125435087Y-90547652D01*
X125452991Y-90557222D01*
X125488729Y-90586552D01*
X125590186Y-90669814D01*
X125673448Y-90771271D01*
X125702778Y-90807009D01*
X125702779Y-90807011D01*
X125786443Y-90963533D01*
X125786443Y-90963534D01*
X125837963Y-91133373D01*
X125855359Y-91310000D01*
X125837963Y-91486627D01*
X125803616Y-91599853D01*
X125786443Y-91656467D01*
X125712348Y-91795087D01*
X125702778Y-91812991D01*
X125673448Y-91848729D01*
X125590186Y-91950186D01*
X125488729Y-92033448D01*
X125452991Y-92062778D01*
X125452989Y-92062779D01*
X125296467Y-92146443D01*
X125239853Y-92163616D01*
X125126627Y-92197963D01*
X125060442Y-92204482D01*
X124994260Y-92211000D01*
X124905740Y-92211000D01*
X124839558Y-92204482D01*
X124773373Y-92197963D01*
X124660147Y-92163616D01*
X124603533Y-92146443D01*
X124447011Y-92062779D01*
X124447009Y-92062778D01*
X124411271Y-92033448D01*
X124309814Y-91950186D01*
X124226552Y-91848729D01*
X124197222Y-91812991D01*
X124187652Y-91795087D01*
X124113557Y-91656467D01*
X124096384Y-91599853D01*
X124062037Y-91486627D01*
X124044641Y-91310000D01*
X124062037Y-91133373D01*
X124113557Y-90963534D01*
X124113557Y-90963533D01*
X124197221Y-90807011D01*
X124197222Y-90807009D01*
X124226552Y-90771271D01*
X124309814Y-90669814D01*
X124411271Y-90586552D01*
X124447009Y-90557222D01*
X124464913Y-90547652D01*
X124603533Y-90473557D01*
X124660147Y-90456384D01*
X124773373Y-90422037D01*
X124839558Y-90415518D01*
X124905740Y-90409000D01*
X124994260Y-90409000D01*
X125060442Y-90415518D01*
X125060442Y-90415518D01*
G37*
G36*
X163160442Y-90415518D02*
X163226627Y-90422037D01*
X163339853Y-90456384D01*
X163396467Y-90473557D01*
X163535087Y-90547652D01*
X163552991Y-90557222D01*
X163588729Y-90586552D01*
X163690186Y-90669814D01*
X163773448Y-90771271D01*
X163802778Y-90807009D01*
X163802779Y-90807011D01*
X163886443Y-90963533D01*
X163886443Y-90963534D01*
X163937963Y-91133373D01*
X163955359Y-91310000D01*
X163937963Y-91486627D01*
X163903616Y-91599853D01*
X163886443Y-91656467D01*
X163812348Y-91795087D01*
X163802778Y-91812991D01*
X163773448Y-91848729D01*
X163690186Y-91950186D01*
X163588729Y-92033448D01*
X163552991Y-92062778D01*
X163552989Y-92062779D01*
X163396467Y-92146443D01*
X163339853Y-92163616D01*
X163226627Y-92197963D01*
X163160443Y-92204481D01*
X163094260Y-92211000D01*
X163005740Y-92211000D01*
X162939558Y-92204482D01*
X162873373Y-92197963D01*
X162760147Y-92163616D01*
X162703533Y-92146443D01*
X162547011Y-92062779D01*
X162547009Y-92062778D01*
X162511271Y-92033448D01*
X162409814Y-91950186D01*
X162326552Y-91848729D01*
X162297222Y-91812991D01*
X162287652Y-91795087D01*
X162213557Y-91656467D01*
X162196384Y-91599853D01*
X162162037Y-91486627D01*
X162144641Y-91310000D01*
X162162037Y-91133373D01*
X162213557Y-90963534D01*
X162213557Y-90963533D01*
X162297221Y-90807011D01*
X162297222Y-90807009D01*
X162326552Y-90771271D01*
X162409814Y-90669814D01*
X162511271Y-90586552D01*
X162547009Y-90557222D01*
X162564913Y-90547652D01*
X162703533Y-90473557D01*
X162760147Y-90456384D01*
X162873373Y-90422037D01*
X162939557Y-90415519D01*
X163005740Y-90409000D01*
X163094260Y-90409000D01*
X163160442Y-90415518D01*
X163160442Y-90415518D01*
G37*
G36*
X125060442Y-87875518D02*
X125126627Y-87882037D01*
X125239853Y-87916384D01*
X125296467Y-87933557D01*
X125435087Y-88007652D01*
X125452991Y-88017222D01*
X125488729Y-88046552D01*
X125590186Y-88129814D01*
X125673448Y-88231271D01*
X125702778Y-88267009D01*
X125702779Y-88267011D01*
X125786443Y-88423533D01*
X125786443Y-88423534D01*
X125837963Y-88593373D01*
X125855359Y-88770000D01*
X125837963Y-88946627D01*
X125803616Y-89059853D01*
X125786443Y-89116467D01*
X125712348Y-89255087D01*
X125702778Y-89272991D01*
X125673448Y-89308729D01*
X125590186Y-89410186D01*
X125488729Y-89493448D01*
X125452991Y-89522778D01*
X125452989Y-89522779D01*
X125296467Y-89606443D01*
X125239853Y-89623616D01*
X125126627Y-89657963D01*
X125060442Y-89664482D01*
X124994260Y-89671000D01*
X124905740Y-89671000D01*
X124839558Y-89664482D01*
X124773373Y-89657963D01*
X124660147Y-89623616D01*
X124603533Y-89606443D01*
X124447011Y-89522779D01*
X124447009Y-89522778D01*
X124411271Y-89493448D01*
X124309814Y-89410186D01*
X124226552Y-89308729D01*
X124197222Y-89272991D01*
X124187652Y-89255087D01*
X124113557Y-89116467D01*
X124096384Y-89059853D01*
X124062037Y-88946627D01*
X124044641Y-88770000D01*
X124062037Y-88593373D01*
X124113557Y-88423534D01*
X124113557Y-88423533D01*
X124197221Y-88267011D01*
X124197222Y-88267009D01*
X124226552Y-88231271D01*
X124309814Y-88129814D01*
X124411271Y-88046552D01*
X124447009Y-88017222D01*
X124464913Y-88007652D01*
X124603533Y-87933557D01*
X124660147Y-87916384D01*
X124773373Y-87882037D01*
X124839558Y-87875518D01*
X124905740Y-87869000D01*
X124994260Y-87869000D01*
X125060442Y-87875518D01*
X125060442Y-87875518D01*
G37*
G36*
X163160442Y-87875518D02*
X163226627Y-87882037D01*
X163339853Y-87916384D01*
X163396467Y-87933557D01*
X163535087Y-88007652D01*
X163552991Y-88017222D01*
X163588729Y-88046552D01*
X163690186Y-88129814D01*
X163773448Y-88231271D01*
X163802778Y-88267009D01*
X163802779Y-88267011D01*
X163886443Y-88423533D01*
X163886443Y-88423534D01*
X163937963Y-88593373D01*
X163955359Y-88770000D01*
X163937963Y-88946627D01*
X163903616Y-89059853D01*
X163886443Y-89116467D01*
X163812348Y-89255087D01*
X163802778Y-89272991D01*
X163773448Y-89308729D01*
X163690186Y-89410186D01*
X163588729Y-89493448D01*
X163552991Y-89522778D01*
X163552989Y-89522779D01*
X163396467Y-89606443D01*
X163339853Y-89623616D01*
X163226627Y-89657963D01*
X163160442Y-89664482D01*
X163094260Y-89671000D01*
X163005740Y-89671000D01*
X162939558Y-89664482D01*
X162873373Y-89657963D01*
X162760147Y-89623616D01*
X162703533Y-89606443D01*
X162547011Y-89522779D01*
X162547009Y-89522778D01*
X162511271Y-89493448D01*
X162409814Y-89410186D01*
X162326552Y-89308729D01*
X162297222Y-89272991D01*
X162287652Y-89255087D01*
X162213557Y-89116467D01*
X162196384Y-89059853D01*
X162162037Y-88946627D01*
X162144641Y-88770000D01*
X162162037Y-88593373D01*
X162213557Y-88423534D01*
X162213557Y-88423533D01*
X162297221Y-88267011D01*
X162297222Y-88267009D01*
X162326552Y-88231271D01*
X162409814Y-88129814D01*
X162511271Y-88046552D01*
X162547009Y-88017222D01*
X162564913Y-88007652D01*
X162703533Y-87933557D01*
X162760147Y-87916384D01*
X162873373Y-87882037D01*
X162939558Y-87875518D01*
X163005740Y-87869000D01*
X163094260Y-87869000D01*
X163160442Y-87875518D01*
X163160442Y-87875518D01*
G37*
G36*
X125060443Y-85335519D02*
X125126627Y-85342037D01*
X125239853Y-85376384D01*
X125296467Y-85393557D01*
X125435087Y-85467652D01*
X125452991Y-85477222D01*
X125488729Y-85506552D01*
X125590186Y-85589814D01*
X125673448Y-85691271D01*
X125702778Y-85727009D01*
X125702779Y-85727011D01*
X125786443Y-85883533D01*
X125786443Y-85883534D01*
X125837963Y-86053373D01*
X125855359Y-86230000D01*
X125837963Y-86406627D01*
X125803616Y-86519853D01*
X125786443Y-86576467D01*
X125712348Y-86715087D01*
X125702778Y-86732991D01*
X125673448Y-86768729D01*
X125590186Y-86870186D01*
X125488729Y-86953448D01*
X125452991Y-86982778D01*
X125452989Y-86982779D01*
X125296467Y-87066443D01*
X125239853Y-87083616D01*
X125126627Y-87117963D01*
X125060443Y-87124481D01*
X124994260Y-87131000D01*
X124905740Y-87131000D01*
X124839557Y-87124481D01*
X124773373Y-87117963D01*
X124660147Y-87083616D01*
X124603533Y-87066443D01*
X124447011Y-86982779D01*
X124447009Y-86982778D01*
X124411271Y-86953448D01*
X124309814Y-86870186D01*
X124226552Y-86768729D01*
X124197222Y-86732991D01*
X124187652Y-86715087D01*
X124113557Y-86576467D01*
X124096384Y-86519853D01*
X124062037Y-86406627D01*
X124044641Y-86230000D01*
X124062037Y-86053373D01*
X124113557Y-85883534D01*
X124113557Y-85883533D01*
X124197221Y-85727011D01*
X124197222Y-85727009D01*
X124226552Y-85691271D01*
X124309814Y-85589814D01*
X124411271Y-85506552D01*
X124447009Y-85477222D01*
X124464913Y-85467652D01*
X124603533Y-85393557D01*
X124660147Y-85376384D01*
X124773373Y-85342037D01*
X124839557Y-85335519D01*
X124905740Y-85329000D01*
X124994260Y-85329000D01*
X125060443Y-85335519D01*
X125060443Y-85335519D01*
G37*
G36*
X163160443Y-85335519D02*
X163226627Y-85342037D01*
X163339853Y-85376384D01*
X163396467Y-85393557D01*
X163535087Y-85467652D01*
X163552991Y-85477222D01*
X163588729Y-85506552D01*
X163690186Y-85589814D01*
X163773448Y-85691271D01*
X163802778Y-85727009D01*
X163802779Y-85727011D01*
X163886443Y-85883533D01*
X163886443Y-85883534D01*
X163937963Y-86053373D01*
X163955359Y-86230000D01*
X163937963Y-86406627D01*
X163903616Y-86519853D01*
X163886443Y-86576467D01*
X163812348Y-86715087D01*
X163802778Y-86732991D01*
X163773448Y-86768729D01*
X163690186Y-86870186D01*
X163588729Y-86953448D01*
X163552991Y-86982778D01*
X163552989Y-86982779D01*
X163396467Y-87066443D01*
X163339853Y-87083616D01*
X163226627Y-87117963D01*
X163160443Y-87124481D01*
X163094260Y-87131000D01*
X163005740Y-87131000D01*
X162939557Y-87124481D01*
X162873373Y-87117963D01*
X162760147Y-87083616D01*
X162703533Y-87066443D01*
X162547011Y-86982779D01*
X162547009Y-86982778D01*
X162511271Y-86953448D01*
X162409814Y-86870186D01*
X162326552Y-86768729D01*
X162297222Y-86732991D01*
X162287652Y-86715087D01*
X162213557Y-86576467D01*
X162196384Y-86519853D01*
X162162037Y-86406627D01*
X162144641Y-86230000D01*
X162162037Y-86053373D01*
X162213557Y-85883534D01*
X162213557Y-85883533D01*
X162297221Y-85727011D01*
X162297222Y-85727009D01*
X162326552Y-85691271D01*
X162409814Y-85589814D01*
X162511271Y-85506552D01*
X162547009Y-85477222D01*
X162564913Y-85467652D01*
X162703533Y-85393557D01*
X162760147Y-85376384D01*
X162873373Y-85342037D01*
X162939557Y-85335519D01*
X163005740Y-85329000D01*
X163094260Y-85329000D01*
X163160443Y-85335519D01*
X163160443Y-85335519D01*
G37*
G36*
X163160442Y-82795518D02*
X163226627Y-82802037D01*
X163339853Y-82836384D01*
X163396467Y-82853557D01*
X163535087Y-82927652D01*
X163552991Y-82937222D01*
X163588729Y-82966552D01*
X163690186Y-83049814D01*
X163773448Y-83151271D01*
X163802778Y-83187009D01*
X163802779Y-83187011D01*
X163886443Y-83343533D01*
X163886443Y-83343534D01*
X163937963Y-83513373D01*
X163955359Y-83690000D01*
X163937963Y-83866627D01*
X163903616Y-83979853D01*
X163886443Y-84036467D01*
X163812348Y-84175087D01*
X163802778Y-84192991D01*
X163773448Y-84228729D01*
X163690186Y-84330186D01*
X163588729Y-84413448D01*
X163552991Y-84442778D01*
X163552989Y-84442779D01*
X163396467Y-84526443D01*
X163339853Y-84543616D01*
X163226627Y-84577963D01*
X163160443Y-84584481D01*
X163094260Y-84591000D01*
X163005740Y-84591000D01*
X162939557Y-84584481D01*
X162873373Y-84577963D01*
X162760147Y-84543616D01*
X162703533Y-84526443D01*
X162547011Y-84442779D01*
X162547009Y-84442778D01*
X162511271Y-84413448D01*
X162409814Y-84330186D01*
X162326552Y-84228729D01*
X162297222Y-84192991D01*
X162287652Y-84175087D01*
X162213557Y-84036467D01*
X162196384Y-83979853D01*
X162162037Y-83866627D01*
X162144641Y-83690000D01*
X162162037Y-83513373D01*
X162213557Y-83343534D01*
X162213557Y-83343533D01*
X162297221Y-83187011D01*
X162297222Y-83187009D01*
X162326552Y-83151271D01*
X162409814Y-83049814D01*
X162511271Y-82966552D01*
X162547009Y-82937222D01*
X162564913Y-82927652D01*
X162703533Y-82853557D01*
X162760147Y-82836384D01*
X162873373Y-82802037D01*
X162939558Y-82795518D01*
X163005740Y-82789000D01*
X163094260Y-82789000D01*
X163160442Y-82795518D01*
X163160442Y-82795518D01*
G37*
G36*
X125060442Y-82795518D02*
X125126627Y-82802037D01*
X125239853Y-82836384D01*
X125296467Y-82853557D01*
X125435087Y-82927652D01*
X125452991Y-82937222D01*
X125488729Y-82966552D01*
X125590186Y-83049814D01*
X125673448Y-83151271D01*
X125702778Y-83187009D01*
X125702779Y-83187011D01*
X125786443Y-83343533D01*
X125786443Y-83343534D01*
X125837963Y-83513373D01*
X125855359Y-83690000D01*
X125837963Y-83866627D01*
X125803616Y-83979853D01*
X125786443Y-84036467D01*
X125712348Y-84175087D01*
X125702778Y-84192991D01*
X125673448Y-84228729D01*
X125590186Y-84330186D01*
X125488729Y-84413448D01*
X125452991Y-84442778D01*
X125452989Y-84442779D01*
X125296467Y-84526443D01*
X125239853Y-84543616D01*
X125126627Y-84577963D01*
X125060443Y-84584481D01*
X124994260Y-84591000D01*
X124905740Y-84591000D01*
X124839557Y-84584481D01*
X124773373Y-84577963D01*
X124660147Y-84543616D01*
X124603533Y-84526443D01*
X124447011Y-84442779D01*
X124447009Y-84442778D01*
X124411271Y-84413448D01*
X124309814Y-84330186D01*
X124226552Y-84228729D01*
X124197222Y-84192991D01*
X124187652Y-84175087D01*
X124113557Y-84036467D01*
X124096384Y-83979853D01*
X124062037Y-83866627D01*
X124044641Y-83690000D01*
X124062037Y-83513373D01*
X124113557Y-83343534D01*
X124113557Y-83343533D01*
X124197221Y-83187011D01*
X124197222Y-83187009D01*
X124226552Y-83151271D01*
X124309814Y-83049814D01*
X124411271Y-82966552D01*
X124447009Y-82937222D01*
X124464913Y-82927652D01*
X124603533Y-82853557D01*
X124660147Y-82836384D01*
X124773373Y-82802037D01*
X124839558Y-82795518D01*
X124905740Y-82789000D01*
X124994260Y-82789000D01*
X125060442Y-82795518D01*
X125060442Y-82795518D01*
G37*
G36*
X125060443Y-80255519D02*
X125126627Y-80262037D01*
X125239853Y-80296384D01*
X125296467Y-80313557D01*
X125435087Y-80387652D01*
X125452991Y-80397222D01*
X125488729Y-80426552D01*
X125590186Y-80509814D01*
X125673448Y-80611271D01*
X125702778Y-80647009D01*
X125702779Y-80647011D01*
X125786443Y-80803533D01*
X125786443Y-80803534D01*
X125837963Y-80973373D01*
X125855359Y-81150000D01*
X125837963Y-81326627D01*
X125803616Y-81439853D01*
X125786443Y-81496467D01*
X125712348Y-81635087D01*
X125702778Y-81652991D01*
X125673448Y-81688729D01*
X125590186Y-81790186D01*
X125488729Y-81873448D01*
X125452991Y-81902778D01*
X125452989Y-81902779D01*
X125296467Y-81986443D01*
X125239853Y-82003616D01*
X125126627Y-82037963D01*
X125060442Y-82044482D01*
X124994260Y-82051000D01*
X124905740Y-82051000D01*
X124839558Y-82044482D01*
X124773373Y-82037963D01*
X124660147Y-82003616D01*
X124603533Y-81986443D01*
X124447011Y-81902779D01*
X124447009Y-81902778D01*
X124411271Y-81873448D01*
X124309814Y-81790186D01*
X124226552Y-81688729D01*
X124197222Y-81652991D01*
X124187652Y-81635087D01*
X124113557Y-81496467D01*
X124096384Y-81439853D01*
X124062037Y-81326627D01*
X124044641Y-81150000D01*
X124062037Y-80973373D01*
X124113557Y-80803534D01*
X124113557Y-80803533D01*
X124197221Y-80647011D01*
X124197222Y-80647009D01*
X124226552Y-80611271D01*
X124309814Y-80509814D01*
X124411271Y-80426552D01*
X124447009Y-80397222D01*
X124464913Y-80387652D01*
X124603533Y-80313557D01*
X124660147Y-80296384D01*
X124773373Y-80262037D01*
X124839557Y-80255519D01*
X124905740Y-80249000D01*
X124994260Y-80249000D01*
X125060443Y-80255519D01*
X125060443Y-80255519D01*
G37*
G36*
X163160443Y-80255519D02*
X163226627Y-80262037D01*
X163339853Y-80296384D01*
X163396467Y-80313557D01*
X163535087Y-80387652D01*
X163552991Y-80397222D01*
X163588729Y-80426552D01*
X163690186Y-80509814D01*
X163773448Y-80611271D01*
X163802778Y-80647009D01*
X163802779Y-80647011D01*
X163886443Y-80803533D01*
X163886443Y-80803534D01*
X163937963Y-80973373D01*
X163955359Y-81150000D01*
X163937963Y-81326627D01*
X163903616Y-81439853D01*
X163886443Y-81496467D01*
X163812348Y-81635087D01*
X163802778Y-81652991D01*
X163773448Y-81688729D01*
X163690186Y-81790186D01*
X163588729Y-81873448D01*
X163552991Y-81902778D01*
X163552989Y-81902779D01*
X163396467Y-81986443D01*
X163339853Y-82003616D01*
X163226627Y-82037963D01*
X163160442Y-82044482D01*
X163094260Y-82051000D01*
X163005740Y-82051000D01*
X162939558Y-82044482D01*
X162873373Y-82037963D01*
X162760147Y-82003616D01*
X162703533Y-81986443D01*
X162547011Y-81902779D01*
X162547009Y-81902778D01*
X162511271Y-81873448D01*
X162409814Y-81790186D01*
X162326552Y-81688729D01*
X162297222Y-81652991D01*
X162287652Y-81635087D01*
X162213557Y-81496467D01*
X162196384Y-81439853D01*
X162162037Y-81326627D01*
X162144641Y-81150000D01*
X162162037Y-80973373D01*
X162213557Y-80803534D01*
X162213557Y-80803533D01*
X162297221Y-80647011D01*
X162297222Y-80647009D01*
X162326552Y-80611271D01*
X162409814Y-80509814D01*
X162511271Y-80426552D01*
X162547009Y-80397222D01*
X162564913Y-80387652D01*
X162703533Y-80313557D01*
X162760147Y-80296384D01*
X162873373Y-80262037D01*
X162939557Y-80255519D01*
X163005740Y-80249000D01*
X163094260Y-80249000D01*
X163160443Y-80255519D01*
X163160443Y-80255519D01*
G37*
G36*
X163160442Y-77715518D02*
X163226627Y-77722037D01*
X163339853Y-77756384D01*
X163396467Y-77773557D01*
X163535087Y-77847652D01*
X163552991Y-77857222D01*
X163588729Y-77886552D01*
X163690186Y-77969814D01*
X163773448Y-78071271D01*
X163802778Y-78107009D01*
X163802779Y-78107011D01*
X163886443Y-78263533D01*
X163886443Y-78263534D01*
X163937963Y-78433373D01*
X163955359Y-78610000D01*
X163937963Y-78786627D01*
X163903616Y-78899853D01*
X163886443Y-78956467D01*
X163812348Y-79095087D01*
X163802778Y-79112991D01*
X163773448Y-79148729D01*
X163690186Y-79250186D01*
X163588729Y-79333448D01*
X163552991Y-79362778D01*
X163552989Y-79362779D01*
X163396467Y-79446443D01*
X163339853Y-79463616D01*
X163226627Y-79497963D01*
X163160442Y-79504482D01*
X163094260Y-79511000D01*
X163005740Y-79511000D01*
X162939558Y-79504482D01*
X162873373Y-79497963D01*
X162760147Y-79463616D01*
X162703533Y-79446443D01*
X162547011Y-79362779D01*
X162547009Y-79362778D01*
X162511271Y-79333448D01*
X162409814Y-79250186D01*
X162326552Y-79148729D01*
X162297222Y-79112991D01*
X162287652Y-79095087D01*
X162213557Y-78956467D01*
X162196384Y-78899853D01*
X162162037Y-78786627D01*
X162144641Y-78610000D01*
X162162037Y-78433373D01*
X162213557Y-78263534D01*
X162213557Y-78263533D01*
X162297221Y-78107011D01*
X162297222Y-78107009D01*
X162326552Y-78071271D01*
X162409814Y-77969814D01*
X162511271Y-77886552D01*
X162547009Y-77857222D01*
X162564913Y-77847652D01*
X162703533Y-77773557D01*
X162760147Y-77756384D01*
X162873373Y-77722037D01*
X162939558Y-77715518D01*
X163005740Y-77709000D01*
X163094260Y-77709000D01*
X163160442Y-77715518D01*
X163160442Y-77715518D01*
G37*
G36*
X125060442Y-77715518D02*
X125126627Y-77722037D01*
X125239853Y-77756384D01*
X125296467Y-77773557D01*
X125435087Y-77847652D01*
X125452991Y-77857222D01*
X125488729Y-77886552D01*
X125590186Y-77969814D01*
X125673448Y-78071271D01*
X125702778Y-78107009D01*
X125702779Y-78107011D01*
X125786443Y-78263533D01*
X125786443Y-78263534D01*
X125837963Y-78433373D01*
X125855359Y-78610000D01*
X125837963Y-78786627D01*
X125803616Y-78899853D01*
X125786443Y-78956467D01*
X125712348Y-79095087D01*
X125702778Y-79112991D01*
X125673448Y-79148729D01*
X125590186Y-79250186D01*
X125488729Y-79333448D01*
X125452991Y-79362778D01*
X125452989Y-79362779D01*
X125296467Y-79446443D01*
X125239853Y-79463616D01*
X125126627Y-79497963D01*
X125060442Y-79504482D01*
X124994260Y-79511000D01*
X124905740Y-79511000D01*
X124839558Y-79504482D01*
X124773373Y-79497963D01*
X124660147Y-79463616D01*
X124603533Y-79446443D01*
X124447011Y-79362779D01*
X124447009Y-79362778D01*
X124411271Y-79333448D01*
X124309814Y-79250186D01*
X124226552Y-79148729D01*
X124197222Y-79112991D01*
X124187652Y-79095087D01*
X124113557Y-78956467D01*
X124096384Y-78899853D01*
X124062037Y-78786627D01*
X124044641Y-78610000D01*
X124062037Y-78433373D01*
X124113557Y-78263534D01*
X124113557Y-78263533D01*
X124197221Y-78107011D01*
X124197222Y-78107009D01*
X124226552Y-78071271D01*
X124309814Y-77969814D01*
X124411271Y-77886552D01*
X124447009Y-77857222D01*
X124464913Y-77847652D01*
X124603533Y-77773557D01*
X124660147Y-77756384D01*
X124773373Y-77722037D01*
X124839558Y-77715518D01*
X124905740Y-77709000D01*
X124994260Y-77709000D01*
X125060442Y-77715518D01*
X125060442Y-77715518D01*
G37*
G36*
X123775256Y-71791298D02*
X123881579Y-71812447D01*
X124182042Y-71936903D01*
X124448852Y-72115180D01*
X124452454Y-72117587D01*
X124682413Y-72347546D01*
X124863098Y-72617960D01*
X124987553Y-72918422D01*
X125051000Y-73237389D01*
X125051000Y-73562611D01*
X124987553Y-73881578D01*
X124863098Y-74182040D01*
X124682413Y-74452454D01*
X124452454Y-74682413D01*
X124452451Y-74682415D01*
X124182042Y-74863097D01*
X123881579Y-74987553D01*
X123775256Y-75008702D01*
X123562611Y-75051000D01*
X123237389Y-75051000D01*
X123024744Y-75008702D01*
X122918421Y-74987553D01*
X122617958Y-74863097D01*
X122347549Y-74682415D01*
X122347546Y-74682413D01*
X122117587Y-74452454D01*
X121936902Y-74182040D01*
X121812447Y-73881578D01*
X121749000Y-73562611D01*
X121749000Y-73237389D01*
X121812447Y-72918422D01*
X121936902Y-72617960D01*
X122117587Y-72347546D01*
X122347546Y-72117587D01*
X122351148Y-72115180D01*
X122617958Y-71936903D01*
X122918421Y-71812447D01*
X123024744Y-71791298D01*
X123237389Y-71749000D01*
X123562611Y-71749000D01*
X123775256Y-71791298D01*
X123775256Y-71791298D01*
G37*
G36*
X164975256Y-71791298D02*
X165081579Y-71812447D01*
X165382042Y-71936903D01*
X165648852Y-72115180D01*
X165652454Y-72117587D01*
X165882413Y-72347546D01*
X166063098Y-72617960D01*
X166187553Y-72918422D01*
X166251000Y-73237389D01*
X166251000Y-73562611D01*
X166187553Y-73881578D01*
X166063098Y-74182040D01*
X165882413Y-74452454D01*
X165652454Y-74682413D01*
X165652451Y-74682415D01*
X165382042Y-74863097D01*
X165081579Y-74987553D01*
X164975256Y-75008702D01*
X164762611Y-75051000D01*
X164437389Y-75051000D01*
X164224744Y-75008702D01*
X164118421Y-74987553D01*
X163817958Y-74863097D01*
X163547549Y-74682415D01*
X163547546Y-74682413D01*
X163317587Y-74452454D01*
X163136902Y-74182040D01*
X163012447Y-73881578D01*
X162949000Y-73562611D01*
X162949000Y-73237389D01*
X163012447Y-72918422D01*
X163136902Y-72617960D01*
X163317587Y-72347546D01*
X163547546Y-72117587D01*
X163551148Y-72115180D01*
X163817958Y-71936903D01*
X164118421Y-71812447D01*
X164224744Y-71791298D01*
X164437389Y-71749000D01*
X164762611Y-71749000D01*
X164975256Y-71791298D01*
X164975256Y-71791298D01*
G37*
M02*
