G04 #@! TF.GenerationSoftware,KiCad,Pcbnew,5.0.2-bee76a0~70~ubuntu18.04.1*
G04 #@! TF.CreationDate,2019-03-18T22:27:49+09:00*
G04 #@! TF.ProjectId,LeonardoBB,4c656f6e-6172-4646-9f42-422e6b696361,rev?*
G04 #@! TF.SameCoordinates,Original*
G04 #@! TF.FileFunction,Legend,Top*
G04 #@! TF.FilePolarity,Positive*
%FSLAX46Y46*%
G04 Gerber Fmt 4.6, Leading zero omitted, Abs format (unit mm)*
G04 Created by KiCad (PCBNEW 5.0.2-bee76a0~70~ubuntu18.04.1) date 2019年03月18日 22時27分49秒*
%MOMM*%
%LPD*%
G01*
G04 APERTURE LIST*
%ADD10C,0.250000*%
%ADD11C,0.500000*%
%ADD12C,0.120000*%
%ADD13C,0.150000*%
G04 APERTURE END LIST*
D10*
X128030676Y-100604580D02*
X128030676Y-99604580D01*
X128459247Y-100604580D02*
X128459247Y-100080771D01*
X128411628Y-99985533D01*
X128316390Y-99937914D01*
X128173533Y-99937914D01*
X128078295Y-99985533D01*
X128030676Y-100033152D01*
X128792580Y-99937914D02*
X129173533Y-99937914D01*
X128935438Y-99604580D02*
X128935438Y-100461723D01*
X128983057Y-100556961D01*
X129078295Y-100604580D01*
X129173533Y-100604580D01*
X129364009Y-99937914D02*
X129744961Y-99937914D01*
X129506866Y-99604580D02*
X129506866Y-100461723D01*
X129554485Y-100556961D01*
X129649723Y-100604580D01*
X129744961Y-100604580D01*
X130078295Y-99937914D02*
X130078295Y-100937914D01*
X130078295Y-99985533D02*
X130173533Y-99937914D01*
X130364009Y-99937914D01*
X130459247Y-99985533D01*
X130506866Y-100033152D01*
X130554485Y-100128390D01*
X130554485Y-100414104D01*
X130506866Y-100509342D01*
X130459247Y-100556961D01*
X130364009Y-100604580D01*
X130173533Y-100604580D01*
X130078295Y-100556961D01*
X130935438Y-100556961D02*
X131030676Y-100604580D01*
X131221152Y-100604580D01*
X131316390Y-100556961D01*
X131364009Y-100461723D01*
X131364009Y-100414104D01*
X131316390Y-100318866D01*
X131221152Y-100271247D01*
X131078295Y-100271247D01*
X130983057Y-100223628D01*
X130935438Y-100128390D01*
X130935438Y-100080771D01*
X130983057Y-99985533D01*
X131078295Y-99937914D01*
X131221152Y-99937914D01*
X131316390Y-99985533D01*
X131792580Y-100509342D02*
X131840200Y-100556961D01*
X131792580Y-100604580D01*
X131744961Y-100556961D01*
X131792580Y-100509342D01*
X131792580Y-100604580D01*
X131792580Y-99985533D02*
X131840200Y-100033152D01*
X131792580Y-100080771D01*
X131744961Y-100033152D01*
X131792580Y-99985533D01*
X131792580Y-100080771D01*
X132983057Y-99556961D02*
X132125914Y-100842676D01*
X134030676Y-99556961D02*
X133173533Y-100842676D01*
X134792580Y-99937914D02*
X134792580Y-100747438D01*
X134744961Y-100842676D01*
X134697342Y-100890295D01*
X134602104Y-100937914D01*
X134459247Y-100937914D01*
X134364009Y-100890295D01*
X134792580Y-100556961D02*
X134697342Y-100604580D01*
X134506866Y-100604580D01*
X134411628Y-100556961D01*
X134364009Y-100509342D01*
X134316390Y-100414104D01*
X134316390Y-100128390D01*
X134364009Y-100033152D01*
X134411628Y-99985533D01*
X134506866Y-99937914D01*
X134697342Y-99937914D01*
X134792580Y-99985533D01*
X135268771Y-100604580D02*
X135268771Y-99937914D01*
X135268771Y-99604580D02*
X135221152Y-99652200D01*
X135268771Y-99699819D01*
X135316390Y-99652200D01*
X135268771Y-99604580D01*
X135268771Y-99699819D01*
X135602104Y-99937914D02*
X135983057Y-99937914D01*
X135744961Y-99604580D02*
X135744961Y-100461723D01*
X135792580Y-100556961D01*
X135887819Y-100604580D01*
X135983057Y-100604580D01*
X136316390Y-100604580D02*
X136316390Y-99604580D01*
X136744961Y-100604580D02*
X136744961Y-100080771D01*
X136697342Y-99985533D01*
X136602104Y-99937914D01*
X136459247Y-99937914D01*
X136364009Y-99985533D01*
X136316390Y-100033152D01*
X137649723Y-99937914D02*
X137649723Y-100604580D01*
X137221152Y-99937914D02*
X137221152Y-100461723D01*
X137268771Y-100556961D01*
X137364009Y-100604580D01*
X137506866Y-100604580D01*
X137602104Y-100556961D01*
X137649723Y-100509342D01*
X138125914Y-100604580D02*
X138125914Y-99604580D01*
X138125914Y-99985533D02*
X138221152Y-99937914D01*
X138411628Y-99937914D01*
X138506866Y-99985533D01*
X138554485Y-100033152D01*
X138602104Y-100128390D01*
X138602104Y-100414104D01*
X138554485Y-100509342D01*
X138506866Y-100556961D01*
X138411628Y-100604580D01*
X138221152Y-100604580D01*
X138125914Y-100556961D01*
X139030676Y-100509342D02*
X139078295Y-100556961D01*
X139030676Y-100604580D01*
X138983057Y-100556961D01*
X139030676Y-100509342D01*
X139030676Y-100604580D01*
X139935438Y-100556961D02*
X139840200Y-100604580D01*
X139649723Y-100604580D01*
X139554485Y-100556961D01*
X139506866Y-100509342D01*
X139459247Y-100414104D01*
X139459247Y-100128390D01*
X139506866Y-100033152D01*
X139554485Y-99985533D01*
X139649723Y-99937914D01*
X139840200Y-99937914D01*
X139935438Y-99985533D01*
X140506866Y-100604580D02*
X140411628Y-100556961D01*
X140364009Y-100509342D01*
X140316390Y-100414104D01*
X140316390Y-100128390D01*
X140364009Y-100033152D01*
X140411628Y-99985533D01*
X140506866Y-99937914D01*
X140649723Y-99937914D01*
X140744961Y-99985533D01*
X140792580Y-100033152D01*
X140840200Y-100128390D01*
X140840200Y-100414104D01*
X140792580Y-100509342D01*
X140744961Y-100556961D01*
X140649723Y-100604580D01*
X140506866Y-100604580D01*
X141268771Y-100604580D02*
X141268771Y-99937914D01*
X141268771Y-100033152D02*
X141316390Y-99985533D01*
X141411628Y-99937914D01*
X141554485Y-99937914D01*
X141649723Y-99985533D01*
X141697342Y-100080771D01*
X141697342Y-100604580D01*
X141697342Y-100080771D02*
X141744961Y-99985533D01*
X141840200Y-99937914D01*
X141983057Y-99937914D01*
X142078295Y-99985533D01*
X142125914Y-100080771D01*
X142125914Y-100604580D01*
X143316390Y-99556961D02*
X142459247Y-100842676D01*
X144078295Y-100604580D02*
X144078295Y-100080771D01*
X144030676Y-99985533D01*
X143935438Y-99937914D01*
X143744961Y-99937914D01*
X143649723Y-99985533D01*
X144078295Y-100556961D02*
X143983057Y-100604580D01*
X143744961Y-100604580D01*
X143649723Y-100556961D01*
X143602104Y-100461723D01*
X143602104Y-100366485D01*
X143649723Y-100271247D01*
X143744961Y-100223628D01*
X143983057Y-100223628D01*
X144078295Y-100176009D01*
X144506866Y-100556961D02*
X144602104Y-100604580D01*
X144792580Y-100604580D01*
X144887819Y-100556961D01*
X144935438Y-100461723D01*
X144935438Y-100414104D01*
X144887819Y-100318866D01*
X144792580Y-100271247D01*
X144649723Y-100271247D01*
X144554485Y-100223628D01*
X144506866Y-100128390D01*
X144506866Y-100080771D01*
X144554485Y-99985533D01*
X144649723Y-99937914D01*
X144792580Y-99937914D01*
X144887819Y-99985533D01*
X145792580Y-99937914D02*
X145792580Y-100604580D01*
X145364009Y-99937914D02*
X145364009Y-100461723D01*
X145411628Y-100556961D01*
X145506866Y-100604580D01*
X145649723Y-100604580D01*
X145744961Y-100556961D01*
X145792580Y-100509342D01*
X146268771Y-100604580D02*
X146268771Y-99604580D01*
X146364009Y-100223628D02*
X146649723Y-100604580D01*
X146649723Y-99937914D02*
X146268771Y-100318866D01*
X147078295Y-100604580D02*
X147078295Y-99937914D01*
X147078295Y-99604580D02*
X147030676Y-99652200D01*
X147078295Y-99699819D01*
X147125914Y-99652200D01*
X147078295Y-99604580D01*
X147078295Y-99699819D01*
X147983057Y-100604580D02*
X147983057Y-100080771D01*
X147935438Y-99985533D01*
X147840200Y-99937914D01*
X147649723Y-99937914D01*
X147554485Y-99985533D01*
X147983057Y-100556961D02*
X147887819Y-100604580D01*
X147649723Y-100604580D01*
X147554485Y-100556961D01*
X147506866Y-100461723D01*
X147506866Y-100366485D01*
X147554485Y-100271247D01*
X147649723Y-100223628D01*
X147887819Y-100223628D01*
X147983057Y-100176009D01*
X148887819Y-100604580D02*
X148887819Y-100080771D01*
X148840200Y-99985533D01*
X148744961Y-99937914D01*
X148554485Y-99937914D01*
X148459247Y-99985533D01*
X148887819Y-100556961D02*
X148792580Y-100604580D01*
X148554485Y-100604580D01*
X148459247Y-100556961D01*
X148411628Y-100461723D01*
X148411628Y-100366485D01*
X148459247Y-100271247D01*
X148554485Y-100223628D01*
X148792580Y-100223628D01*
X148887819Y-100176009D01*
X149792580Y-100604580D02*
X149792580Y-100080771D01*
X149744961Y-99985533D01*
X149649723Y-99937914D01*
X149459247Y-99937914D01*
X149364009Y-99985533D01*
X149792580Y-100556961D02*
X149697342Y-100604580D01*
X149459247Y-100604580D01*
X149364009Y-100556961D01*
X149316390Y-100461723D01*
X149316390Y-100366485D01*
X149364009Y-100271247D01*
X149459247Y-100223628D01*
X149697342Y-100223628D01*
X149792580Y-100176009D01*
X150983057Y-99556961D02*
X150125914Y-100842676D01*
X151792580Y-100604580D02*
X151316390Y-100604580D01*
X151316390Y-99604580D01*
X152506866Y-100556961D02*
X152411628Y-100604580D01*
X152221152Y-100604580D01*
X152125914Y-100556961D01*
X152078295Y-100461723D01*
X152078295Y-100080771D01*
X152125914Y-99985533D01*
X152221152Y-99937914D01*
X152411628Y-99937914D01*
X152506866Y-99985533D01*
X152554485Y-100080771D01*
X152554485Y-100176009D01*
X152078295Y-100271247D01*
X153125914Y-100604580D02*
X153030676Y-100556961D01*
X152983057Y-100509342D01*
X152935438Y-100414104D01*
X152935438Y-100128390D01*
X152983057Y-100033152D01*
X153030676Y-99985533D01*
X153125914Y-99937914D01*
X153268771Y-99937914D01*
X153364009Y-99985533D01*
X153411628Y-100033152D01*
X153459247Y-100128390D01*
X153459247Y-100414104D01*
X153411628Y-100509342D01*
X153364009Y-100556961D01*
X153268771Y-100604580D01*
X153125914Y-100604580D01*
X153887819Y-99937914D02*
X153887819Y-100604580D01*
X153887819Y-100033152D02*
X153935438Y-99985533D01*
X154030676Y-99937914D01*
X154173533Y-99937914D01*
X154268771Y-99985533D01*
X154316390Y-100080771D01*
X154316390Y-100604580D01*
X155221152Y-100604580D02*
X155221152Y-100080771D01*
X155173533Y-99985533D01*
X155078295Y-99937914D01*
X154887819Y-99937914D01*
X154792580Y-99985533D01*
X155221152Y-100556961D02*
X155125914Y-100604580D01*
X154887819Y-100604580D01*
X154792580Y-100556961D01*
X154744961Y-100461723D01*
X154744961Y-100366485D01*
X154792580Y-100271247D01*
X154887819Y-100223628D01*
X155125914Y-100223628D01*
X155221152Y-100176009D01*
X155697342Y-100604580D02*
X155697342Y-99937914D01*
X155697342Y-100128390D02*
X155744961Y-100033152D01*
X155792580Y-99985533D01*
X155887819Y-99937914D01*
X155983057Y-99937914D01*
X156744961Y-100604580D02*
X156744961Y-99604580D01*
X156744961Y-100556961D02*
X156649723Y-100604580D01*
X156459247Y-100604580D01*
X156364009Y-100556961D01*
X156316390Y-100509342D01*
X156268771Y-100414104D01*
X156268771Y-100128390D01*
X156316390Y-100033152D01*
X156364009Y-99985533D01*
X156459247Y-99937914D01*
X156649723Y-99937914D01*
X156744961Y-99985533D01*
X157364009Y-100604580D02*
X157268771Y-100556961D01*
X157221152Y-100509342D01*
X157173533Y-100414104D01*
X157173533Y-100128390D01*
X157221152Y-100033152D01*
X157268771Y-99985533D01*
X157364009Y-99937914D01*
X157506866Y-99937914D01*
X157602104Y-99985533D01*
X157649723Y-100033152D01*
X157697342Y-100128390D01*
X157697342Y-100414104D01*
X157649723Y-100509342D01*
X157602104Y-100556961D01*
X157506866Y-100604580D01*
X157364009Y-100604580D01*
X158459247Y-100080771D02*
X158602104Y-100128390D01*
X158649723Y-100176009D01*
X158697342Y-100271247D01*
X158697342Y-100414104D01*
X158649723Y-100509342D01*
X158602104Y-100556961D01*
X158506866Y-100604580D01*
X158125914Y-100604580D01*
X158125914Y-99604580D01*
X158459247Y-99604580D01*
X158554485Y-99652200D01*
X158602104Y-99699819D01*
X158649723Y-99795057D01*
X158649723Y-99890295D01*
X158602104Y-99985533D01*
X158554485Y-100033152D01*
X158459247Y-100080771D01*
X158125914Y-100080771D01*
X159459247Y-100080771D02*
X159602104Y-100128390D01*
X159649723Y-100176009D01*
X159697342Y-100271247D01*
X159697342Y-100414104D01*
X159649723Y-100509342D01*
X159602104Y-100556961D01*
X159506866Y-100604580D01*
X159125914Y-100604580D01*
X159125914Y-99604580D01*
X159459247Y-99604580D01*
X159554485Y-99652200D01*
X159602104Y-99699819D01*
X159649723Y-99795057D01*
X159649723Y-99890295D01*
X159602104Y-99985533D01*
X159554485Y-100033152D01*
X159459247Y-100080771D01*
X159125914Y-100080771D01*
X150938409Y-98318580D02*
X150605076Y-97842390D01*
X150366980Y-98318580D02*
X150366980Y-97318580D01*
X150747933Y-97318580D01*
X150843171Y-97366200D01*
X150890790Y-97413819D01*
X150938409Y-97509057D01*
X150938409Y-97651914D01*
X150890790Y-97747152D01*
X150843171Y-97794771D01*
X150747933Y-97842390D01*
X150366980Y-97842390D01*
X151747933Y-98270961D02*
X151652695Y-98318580D01*
X151462219Y-98318580D01*
X151366980Y-98270961D01*
X151319361Y-98175723D01*
X151319361Y-97794771D01*
X151366980Y-97699533D01*
X151462219Y-97651914D01*
X151652695Y-97651914D01*
X151747933Y-97699533D01*
X151795552Y-97794771D01*
X151795552Y-97890009D01*
X151319361Y-97985247D01*
X152128885Y-97651914D02*
X152366980Y-98318580D01*
X152605076Y-97651914D01*
X153700314Y-97413819D02*
X153747933Y-97366200D01*
X153843171Y-97318580D01*
X154081266Y-97318580D01*
X154176504Y-97366200D01*
X154224123Y-97413819D01*
X154271742Y-97509057D01*
X154271742Y-97604295D01*
X154224123Y-97747152D01*
X153652695Y-98318580D01*
X154271742Y-98318580D01*
X154890790Y-97318580D02*
X154986028Y-97318580D01*
X155081266Y-97366200D01*
X155128885Y-97413819D01*
X155176504Y-97509057D01*
X155224123Y-97699533D01*
X155224123Y-97937628D01*
X155176504Y-98128104D01*
X155128885Y-98223342D01*
X155081266Y-98270961D01*
X154986028Y-98318580D01*
X154890790Y-98318580D01*
X154795552Y-98270961D01*
X154747933Y-98223342D01*
X154700314Y-98128104D01*
X154652695Y-97937628D01*
X154652695Y-97699533D01*
X154700314Y-97509057D01*
X154747933Y-97413819D01*
X154795552Y-97366200D01*
X154890790Y-97318580D01*
X156176504Y-98318580D02*
X155605076Y-98318580D01*
X155890790Y-98318580D02*
X155890790Y-97318580D01*
X155795552Y-97461438D01*
X155700314Y-97556676D01*
X155605076Y-97604295D01*
X156652695Y-98318580D02*
X156843171Y-98318580D01*
X156938409Y-98270961D01*
X156986028Y-98223342D01*
X157081266Y-98080485D01*
X157128885Y-97890009D01*
X157128885Y-97509057D01*
X157081266Y-97413819D01*
X157033647Y-97366200D01*
X156938409Y-97318580D01*
X156747933Y-97318580D01*
X156652695Y-97366200D01*
X156605076Y-97413819D01*
X156557457Y-97509057D01*
X156557457Y-97747152D01*
X156605076Y-97842390D01*
X156652695Y-97890009D01*
X156747933Y-97937628D01*
X156938409Y-97937628D01*
X157033647Y-97890009D01*
X157081266Y-97842390D01*
X157128885Y-97747152D01*
X157557457Y-98223342D02*
X157605076Y-98270961D01*
X157557457Y-98318580D01*
X157509838Y-98270961D01*
X157557457Y-98223342D01*
X157557457Y-98318580D01*
X158224123Y-97318580D02*
X158319361Y-97318580D01*
X158414600Y-97366200D01*
X158462219Y-97413819D01*
X158509838Y-97509057D01*
X158557457Y-97699533D01*
X158557457Y-97937628D01*
X158509838Y-98128104D01*
X158462219Y-98223342D01*
X158414600Y-98270961D01*
X158319361Y-98318580D01*
X158224123Y-98318580D01*
X158128885Y-98270961D01*
X158081266Y-98223342D01*
X158033647Y-98128104D01*
X157986028Y-97937628D01*
X157986028Y-97699533D01*
X158033647Y-97509057D01*
X158081266Y-97413819D01*
X158128885Y-97366200D01*
X158224123Y-97318580D01*
X158890790Y-97318580D02*
X159509838Y-97318580D01*
X159176504Y-97699533D01*
X159319361Y-97699533D01*
X159414600Y-97747152D01*
X159462219Y-97794771D01*
X159509838Y-97890009D01*
X159509838Y-98128104D01*
X159462219Y-98223342D01*
X159414600Y-98270961D01*
X159319361Y-98318580D01*
X159033647Y-98318580D01*
X158938409Y-98270961D01*
X158890790Y-98223342D01*
D11*
X129305409Y-98209752D02*
X128114933Y-98209752D01*
X128114933Y-95709752D01*
X131091123Y-98090704D02*
X130853028Y-98209752D01*
X130376838Y-98209752D01*
X130138742Y-98090704D01*
X130019695Y-97852609D01*
X130019695Y-96900228D01*
X130138742Y-96662133D01*
X130376838Y-96543085D01*
X130853028Y-96543085D01*
X131091123Y-96662133D01*
X131210171Y-96900228D01*
X131210171Y-97138323D01*
X130019695Y-97376419D01*
X132638742Y-98209752D02*
X132400647Y-98090704D01*
X132281600Y-97971657D01*
X132162552Y-97733561D01*
X132162552Y-97019276D01*
X132281600Y-96781180D01*
X132400647Y-96662133D01*
X132638742Y-96543085D01*
X132995885Y-96543085D01*
X133233980Y-96662133D01*
X133353028Y-96781180D01*
X133472076Y-97019276D01*
X133472076Y-97733561D01*
X133353028Y-97971657D01*
X133233980Y-98090704D01*
X132995885Y-98209752D01*
X132638742Y-98209752D01*
X134543504Y-96543085D02*
X134543504Y-98209752D01*
X134543504Y-96781180D02*
X134662552Y-96662133D01*
X134900647Y-96543085D01*
X135257790Y-96543085D01*
X135495885Y-96662133D01*
X135614933Y-96900228D01*
X135614933Y-98209752D01*
X137876838Y-98209752D02*
X137876838Y-96900228D01*
X137757790Y-96662133D01*
X137519695Y-96543085D01*
X137043504Y-96543085D01*
X136805409Y-96662133D01*
X137876838Y-98090704D02*
X137638742Y-98209752D01*
X137043504Y-98209752D01*
X136805409Y-98090704D01*
X136686361Y-97852609D01*
X136686361Y-97614514D01*
X136805409Y-97376419D01*
X137043504Y-97257371D01*
X137638742Y-97257371D01*
X137876838Y-97138323D01*
X139067314Y-98209752D02*
X139067314Y-96543085D01*
X139067314Y-97019276D02*
X139186361Y-96781180D01*
X139305409Y-96662133D01*
X139543504Y-96543085D01*
X139781600Y-96543085D01*
X141686361Y-98209752D02*
X141686361Y-95709752D01*
X141686361Y-98090704D02*
X141448266Y-98209752D01*
X140972076Y-98209752D01*
X140733980Y-98090704D01*
X140614933Y-97971657D01*
X140495885Y-97733561D01*
X140495885Y-97019276D01*
X140614933Y-96781180D01*
X140733980Y-96662133D01*
X140972076Y-96543085D01*
X141448266Y-96543085D01*
X141686361Y-96662133D01*
X143233980Y-98209752D02*
X142995885Y-98090704D01*
X142876838Y-97971657D01*
X142757790Y-97733561D01*
X142757790Y-97019276D01*
X142876838Y-96781180D01*
X142995885Y-96662133D01*
X143233980Y-96543085D01*
X143591123Y-96543085D01*
X143829219Y-96662133D01*
X143948266Y-96781180D01*
X144067314Y-97019276D01*
X144067314Y-97733561D01*
X143948266Y-97971657D01*
X143829219Y-98090704D01*
X143591123Y-98209752D01*
X143233980Y-98209752D01*
X145972076Y-96900228D02*
X146329219Y-97019276D01*
X146448266Y-97138323D01*
X146567314Y-97376419D01*
X146567314Y-97733561D01*
X146448266Y-97971657D01*
X146329219Y-98090704D01*
X146091123Y-98209752D01*
X145138742Y-98209752D01*
X145138742Y-95709752D01*
X145972076Y-95709752D01*
X146210171Y-95828800D01*
X146329219Y-95947847D01*
X146448266Y-96185942D01*
X146448266Y-96424038D01*
X146329219Y-96662133D01*
X146210171Y-96781180D01*
X145972076Y-96900228D01*
X145138742Y-96900228D01*
X148472076Y-96900228D02*
X148829219Y-97019276D01*
X148948266Y-97138323D01*
X149067314Y-97376419D01*
X149067314Y-97733561D01*
X148948266Y-97971657D01*
X148829219Y-98090704D01*
X148591123Y-98209752D01*
X147638742Y-98209752D01*
X147638742Y-95709752D01*
X148472076Y-95709752D01*
X148710171Y-95828800D01*
X148829219Y-95947847D01*
X148948266Y-96185942D01*
X148948266Y-96424038D01*
X148829219Y-96662133D01*
X148710171Y-96781180D01*
X148472076Y-96900228D01*
X147638742Y-96900228D01*
D12*
G04 #@! TO.C,C9*
X134439422Y-103748000D02*
X134956578Y-103748000D01*
X134439422Y-105168000D02*
X134956578Y-105168000D01*
G04 #@! TO.C,C8*
X130947422Y-117931000D02*
X131464578Y-117931000D01*
X130947422Y-116511000D02*
X131464578Y-116511000D01*
G04 #@! TO.C,D1*
X129632000Y-112777000D02*
X129632000Y-116077000D01*
X129632000Y-116077000D02*
X135032000Y-116077000D01*
X129632000Y-112777000D02*
X135032000Y-112777000D01*
G04 #@! TO.C,DZ1*
X132869000Y-117374000D02*
X132869000Y-119659000D01*
X132869000Y-119659000D02*
X134339000Y-119659000D01*
X134339000Y-119659000D02*
X134339000Y-117374000D01*
G04 #@! TO.C,DZ2*
X138784000Y-119621000D02*
X138784000Y-117336000D01*
X137314000Y-119621000D02*
X138784000Y-119621000D01*
X137314000Y-117336000D02*
X137314000Y-119621000D01*
G04 #@! TO.C,FB1*
X141497578Y-103748000D02*
X140980422Y-103748000D01*
X141497578Y-105168000D02*
X140980422Y-105168000D01*
G04 #@! TO.C,Q1*
X139972000Y-117426000D02*
X139972000Y-116476000D01*
X142572000Y-117426000D02*
X139972000Y-117426000D01*
X139972000Y-115176000D02*
X139972000Y-114376000D01*
G04 #@! TO.C,Q2*
X157161000Y-119588000D02*
X159061000Y-119588000D01*
X158561000Y-117268000D02*
X157161000Y-117268000D01*
G04 #@! TO.C,R1*
X144147000Y-115770779D02*
X144147000Y-115445221D01*
X143127000Y-115770779D02*
X143127000Y-115445221D01*
G04 #@! TO.C,R2*
X136078000Y-117985221D02*
X136078000Y-118310779D01*
X137098000Y-117985221D02*
X137098000Y-118310779D01*
G04 #@! TO.C,R3*
X135574000Y-118336779D02*
X135574000Y-118011221D01*
X134554000Y-118336779D02*
X134554000Y-118011221D01*
G04 #@! TO.C,R4*
X151763000Y-104772779D02*
X151763000Y-104447221D01*
X152783000Y-104772779D02*
X152783000Y-104447221D01*
G04 #@! TO.C,R5*
X130799221Y-118426000D02*
X131124779Y-118426000D01*
X130799221Y-119446000D02*
X131124779Y-119446000D01*
G04 #@! TO.C,R6*
X151509000Y-122100221D02*
X151509000Y-122425779D01*
X152529000Y-122100221D02*
X152529000Y-122425779D01*
G04 #@! TO.C,R7*
X143063079Y-120499600D02*
X142737521Y-120499600D01*
X143063079Y-119479600D02*
X142737521Y-119479600D01*
G04 #@! TO.C,R8*
X154938000Y-118488779D02*
X154938000Y-118163221D01*
X155958000Y-118488779D02*
X155958000Y-118163221D01*
G04 #@! TO.C,R9*
X156335000Y-121510779D02*
X156335000Y-121185221D01*
X157355000Y-121510779D02*
X157355000Y-121185221D01*
G04 #@! TO.C,R10*
X155831000Y-121536779D02*
X155831000Y-121211221D01*
X154811000Y-121536779D02*
X154811000Y-121211221D01*
G04 #@! TO.C,SW1*
X144592000Y-123404000D02*
X144792000Y-123404000D01*
X141792000Y-127544000D02*
X141992000Y-127754000D01*
X143092000Y-127544000D02*
X142892000Y-127754000D01*
X141792000Y-126254000D02*
X141792000Y-127544000D01*
X141992000Y-127754000D02*
X142892000Y-127754000D01*
X143092000Y-127544000D02*
X143092000Y-126254000D01*
X140342000Y-126254000D02*
X146042000Y-126254000D01*
X141592000Y-123404000D02*
X143292000Y-123404000D01*
X139742000Y-124454000D02*
X139742000Y-125244000D01*
X146642000Y-125244000D02*
X146642000Y-124454000D01*
G04 #@! TO.C,U1*
X150171000Y-104876000D02*
X150896000Y-104876000D01*
X150896000Y-104876000D02*
X150896000Y-105601000D01*
X144401000Y-112096000D02*
X143676000Y-112096000D01*
X143676000Y-112096000D02*
X143676000Y-111371000D01*
X150171000Y-112096000D02*
X150896000Y-112096000D01*
X150896000Y-112096000D02*
X150896000Y-111371000D01*
X144401000Y-104876000D02*
X143676000Y-104876000D01*
G04 #@! TO.C,U3*
X135832000Y-112440000D02*
X135832000Y-111180000D01*
X135832000Y-105620000D02*
X135832000Y-106880000D01*
X132072000Y-112440000D02*
X135832000Y-112440000D01*
X129822000Y-105620000D02*
X135832000Y-105620000D01*
G04 #@! TO.C,U4*
X155056000Y-113434000D02*
X156856000Y-113434000D01*
X156856000Y-110214000D02*
X154406000Y-110214000D01*
G04 #@! TO.C,Y1*
X148896000Y-118377000D02*
X148896000Y-115227000D01*
X148896000Y-115227000D02*
X144896000Y-115227000D01*
G04 #@! TO.C,J1*
X130720000Y-122062500D02*
X131170000Y-122062500D01*
X130720000Y-123912500D02*
X130720000Y-122062500D01*
X138520000Y-126462500D02*
X138520000Y-126212500D01*
X130720000Y-126462500D02*
X130720000Y-126212500D01*
X138520000Y-123912500D02*
X138520000Y-122062500D01*
X138520000Y-122062500D02*
X138070000Y-122062500D01*
X132920000Y-121512500D02*
X133370000Y-121512500D01*
X132920000Y-121512500D02*
X132920000Y-121962500D01*
G04 #@! TO.C,U2*
X148828000Y-122346200D02*
X146828000Y-122346200D01*
X147828000Y-119106200D02*
X144828000Y-119106200D01*
G04 #@! TO.C,C9*
D13*
X134554133Y-103475600D02*
X134520800Y-103508933D01*
X134420800Y-103542266D01*
X134354133Y-103542266D01*
X134254133Y-103508933D01*
X134187466Y-103442266D01*
X134154133Y-103375600D01*
X134120800Y-103242266D01*
X134120800Y-103142266D01*
X134154133Y-103008933D01*
X134187466Y-102942266D01*
X134254133Y-102875600D01*
X134354133Y-102842266D01*
X134420800Y-102842266D01*
X134520800Y-102875600D01*
X134554133Y-102908933D01*
X134887466Y-103542266D02*
X135020800Y-103542266D01*
X135087466Y-103508933D01*
X135120800Y-103475600D01*
X135187466Y-103375600D01*
X135220800Y-103242266D01*
X135220800Y-102975600D01*
X135187466Y-102908933D01*
X135154133Y-102875600D01*
X135087466Y-102842266D01*
X134954133Y-102842266D01*
X134887466Y-102875600D01*
X134854133Y-102908933D01*
X134820800Y-102975600D01*
X134820800Y-103142266D01*
X134854133Y-103208933D01*
X134887466Y-103242266D01*
X134954133Y-103275600D01*
X135087466Y-103275600D01*
X135154133Y-103242266D01*
X135187466Y-103208933D01*
X135220800Y-103142266D01*
G04 #@! TO.C,C1*
X147609733Y-113991200D02*
X147576400Y-114024533D01*
X147476400Y-114057866D01*
X147409733Y-114057866D01*
X147309733Y-114024533D01*
X147243066Y-113957866D01*
X147209733Y-113891200D01*
X147176400Y-113757866D01*
X147176400Y-113657866D01*
X147209733Y-113524533D01*
X147243066Y-113457866D01*
X147309733Y-113391200D01*
X147409733Y-113357866D01*
X147476400Y-113357866D01*
X147576400Y-113391200D01*
X147609733Y-113424533D01*
X148276400Y-114057866D02*
X147876400Y-114057866D01*
X148076400Y-114057866D02*
X148076400Y-113357866D01*
X148009733Y-113457866D01*
X147943066Y-113524533D01*
X147876400Y-113557866D01*
G04 #@! TO.C,C2*
X145653933Y-114042000D02*
X145620600Y-114075333D01*
X145520600Y-114108666D01*
X145453933Y-114108666D01*
X145353933Y-114075333D01*
X145287266Y-114008666D01*
X145253933Y-113942000D01*
X145220600Y-113808666D01*
X145220600Y-113708666D01*
X145253933Y-113575333D01*
X145287266Y-113508666D01*
X145353933Y-113442000D01*
X145453933Y-113408666D01*
X145520600Y-113408666D01*
X145620600Y-113442000D01*
X145653933Y-113475333D01*
X145920600Y-113475333D02*
X145953933Y-113442000D01*
X146020600Y-113408666D01*
X146187266Y-113408666D01*
X146253933Y-113442000D01*
X146287266Y-113475333D01*
X146320600Y-113542000D01*
X146320600Y-113608666D01*
X146287266Y-113708666D01*
X145887266Y-114108666D01*
X146320600Y-114108666D01*
G04 #@! TO.C,C3*
X144891933Y-103120000D02*
X144858600Y-103153333D01*
X144758600Y-103186666D01*
X144691933Y-103186666D01*
X144591933Y-103153333D01*
X144525266Y-103086666D01*
X144491933Y-103020000D01*
X144458600Y-102886666D01*
X144458600Y-102786666D01*
X144491933Y-102653333D01*
X144525266Y-102586666D01*
X144591933Y-102520000D01*
X144691933Y-102486666D01*
X144758600Y-102486666D01*
X144858600Y-102520000D01*
X144891933Y-102553333D01*
X145125266Y-102486666D02*
X145558600Y-102486666D01*
X145325266Y-102753333D01*
X145425266Y-102753333D01*
X145491933Y-102786666D01*
X145525266Y-102820000D01*
X145558600Y-102886666D01*
X145558600Y-103053333D01*
X145525266Y-103120000D01*
X145491933Y-103153333D01*
X145425266Y-103186666D01*
X145225266Y-103186666D01*
X145158600Y-103153333D01*
X145125266Y-103120000D01*
G04 #@! TO.C,C4*
X141846333Y-109673200D02*
X141813000Y-109706533D01*
X141713000Y-109739866D01*
X141646333Y-109739866D01*
X141546333Y-109706533D01*
X141479666Y-109639866D01*
X141446333Y-109573200D01*
X141413000Y-109439866D01*
X141413000Y-109339866D01*
X141446333Y-109206533D01*
X141479666Y-109139866D01*
X141546333Y-109073200D01*
X141646333Y-109039866D01*
X141713000Y-109039866D01*
X141813000Y-109073200D01*
X141846333Y-109106533D01*
X142446333Y-109273200D02*
X142446333Y-109739866D01*
X142279666Y-109006533D02*
X142113000Y-109506533D01*
X142546333Y-109506533D01*
G04 #@! TO.C,C5*
X131582333Y-121382600D02*
X131549000Y-121415933D01*
X131449000Y-121449266D01*
X131382333Y-121449266D01*
X131282333Y-121415933D01*
X131215666Y-121349266D01*
X131182333Y-121282600D01*
X131149000Y-121149266D01*
X131149000Y-121049266D01*
X131182333Y-120915933D01*
X131215666Y-120849266D01*
X131282333Y-120782600D01*
X131382333Y-120749266D01*
X131449000Y-120749266D01*
X131549000Y-120782600D01*
X131582333Y-120815933D01*
X132215666Y-120749266D02*
X131882333Y-120749266D01*
X131849000Y-121082600D01*
X131882333Y-121049266D01*
X131949000Y-121015933D01*
X132115666Y-121015933D01*
X132182333Y-121049266D01*
X132215666Y-121082600D01*
X132249000Y-121149266D01*
X132249000Y-121315933D01*
X132215666Y-121382600D01*
X132182333Y-121415933D01*
X132115666Y-121449266D01*
X131949000Y-121449266D01*
X131882333Y-121415933D01*
X131849000Y-121382600D01*
G04 #@! TO.C,C6*
X140421533Y-107031600D02*
X140388200Y-107064933D01*
X140288200Y-107098266D01*
X140221533Y-107098266D01*
X140121533Y-107064933D01*
X140054866Y-106998266D01*
X140021533Y-106931600D01*
X139988200Y-106798266D01*
X139988200Y-106698266D01*
X140021533Y-106564933D01*
X140054866Y-106498266D01*
X140121533Y-106431600D01*
X140221533Y-106398266D01*
X140288200Y-106398266D01*
X140388200Y-106431600D01*
X140421533Y-106464933D01*
X141021533Y-106398266D02*
X140888200Y-106398266D01*
X140821533Y-106431600D01*
X140788200Y-106464933D01*
X140721533Y-106564933D01*
X140688200Y-106698266D01*
X140688200Y-106964933D01*
X140721533Y-107031600D01*
X140754866Y-107064933D01*
X140821533Y-107098266D01*
X140954866Y-107098266D01*
X141021533Y-107064933D01*
X141054866Y-107031600D01*
X141088200Y-106964933D01*
X141088200Y-106798266D01*
X141054866Y-106731600D01*
X141021533Y-106698266D01*
X140954866Y-106664933D01*
X140821533Y-106664933D01*
X140754866Y-106698266D01*
X140721533Y-106731600D01*
X140688200Y-106798266D01*
G04 #@! TO.C,C7*
X151938800Y-117947266D02*
X151972133Y-117980600D01*
X152005466Y-118080600D01*
X152005466Y-118147266D01*
X151972133Y-118247266D01*
X151905466Y-118313933D01*
X151838800Y-118347266D01*
X151705466Y-118380600D01*
X151605466Y-118380600D01*
X151472133Y-118347266D01*
X151405466Y-118313933D01*
X151338800Y-118247266D01*
X151305466Y-118147266D01*
X151305466Y-118080600D01*
X151338800Y-117980600D01*
X151372133Y-117947266D01*
X151305466Y-117713933D02*
X151305466Y-117247266D01*
X152005466Y-117547266D01*
G04 #@! TO.C,C8*
X129383600Y-117439266D02*
X129416933Y-117472600D01*
X129450266Y-117572600D01*
X129450266Y-117639266D01*
X129416933Y-117739266D01*
X129350266Y-117805933D01*
X129283600Y-117839266D01*
X129150266Y-117872600D01*
X129050266Y-117872600D01*
X128916933Y-117839266D01*
X128850266Y-117805933D01*
X128783600Y-117739266D01*
X128750266Y-117639266D01*
X128750266Y-117572600D01*
X128783600Y-117472600D01*
X128816933Y-117439266D01*
X129050266Y-117039266D02*
X129016933Y-117105933D01*
X128983600Y-117139266D01*
X128916933Y-117172600D01*
X128883600Y-117172600D01*
X128816933Y-117139266D01*
X128783600Y-117105933D01*
X128750266Y-117039266D01*
X128750266Y-116905933D01*
X128783600Y-116839266D01*
X128816933Y-116805933D01*
X128883600Y-116772600D01*
X128916933Y-116772600D01*
X128983600Y-116805933D01*
X129016933Y-116839266D01*
X129050266Y-116905933D01*
X129050266Y-117039266D01*
X129083600Y-117105933D01*
X129116933Y-117139266D01*
X129183600Y-117172600D01*
X129316933Y-117172600D01*
X129383600Y-117139266D01*
X129416933Y-117105933D01*
X129450266Y-117039266D01*
X129450266Y-116905933D01*
X129416933Y-116839266D01*
X129383600Y-116805933D01*
X129316933Y-116772600D01*
X129183600Y-116772600D01*
X129116933Y-116805933D01*
X129083600Y-116839266D01*
X129050266Y-116905933D01*
G04 #@! TO.C,C10*
X131579200Y-104288400D02*
X131545866Y-104321733D01*
X131445866Y-104355066D01*
X131379200Y-104355066D01*
X131279200Y-104321733D01*
X131212533Y-104255066D01*
X131179200Y-104188400D01*
X131145866Y-104055066D01*
X131145866Y-103955066D01*
X131179200Y-103821733D01*
X131212533Y-103755066D01*
X131279200Y-103688400D01*
X131379200Y-103655066D01*
X131445866Y-103655066D01*
X131545866Y-103688400D01*
X131579200Y-103721733D01*
X132245866Y-104355066D02*
X131845866Y-104355066D01*
X132045866Y-104355066D02*
X132045866Y-103655066D01*
X131979200Y-103755066D01*
X131912533Y-103821733D01*
X131845866Y-103855066D01*
X132679200Y-103655066D02*
X132745866Y-103655066D01*
X132812533Y-103688400D01*
X132845866Y-103721733D01*
X132879200Y-103788400D01*
X132912533Y-103921733D01*
X132912533Y-104088400D01*
X132879200Y-104221733D01*
X132845866Y-104288400D01*
X132812533Y-104321733D01*
X132745866Y-104355066D01*
X132679200Y-104355066D01*
X132612533Y-104321733D01*
X132579200Y-104288400D01*
X132545866Y-104221733D01*
X132512533Y-104088400D01*
X132512533Y-103921733D01*
X132545866Y-103788400D01*
X132579200Y-103721733D01*
X132612533Y-103688400D01*
X132679200Y-103655066D01*
G04 #@! TO.C,C12*
X156100000Y-115413600D02*
X156066666Y-115446933D01*
X155966666Y-115480266D01*
X155900000Y-115480266D01*
X155800000Y-115446933D01*
X155733333Y-115380266D01*
X155700000Y-115313600D01*
X155666666Y-115180266D01*
X155666666Y-115080266D01*
X155700000Y-114946933D01*
X155733333Y-114880266D01*
X155800000Y-114813600D01*
X155900000Y-114780266D01*
X155966666Y-114780266D01*
X156066666Y-114813600D01*
X156100000Y-114846933D01*
X156766666Y-115480266D02*
X156366666Y-115480266D01*
X156566666Y-115480266D02*
X156566666Y-114780266D01*
X156500000Y-114880266D01*
X156433333Y-114946933D01*
X156366666Y-114980266D01*
X157033333Y-114846933D02*
X157066666Y-114813600D01*
X157133333Y-114780266D01*
X157300000Y-114780266D01*
X157366666Y-114813600D01*
X157400000Y-114846933D01*
X157433333Y-114913600D01*
X157433333Y-114980266D01*
X157400000Y-115080266D01*
X157000000Y-115480266D01*
X157433333Y-115480266D01*
G04 #@! TO.C,C13*
X156090200Y-108530200D02*
X156056866Y-108563533D01*
X155956866Y-108596866D01*
X155890200Y-108596866D01*
X155790200Y-108563533D01*
X155723533Y-108496866D01*
X155690200Y-108430200D01*
X155656866Y-108296866D01*
X155656866Y-108196866D01*
X155690200Y-108063533D01*
X155723533Y-107996866D01*
X155790200Y-107930200D01*
X155890200Y-107896866D01*
X155956866Y-107896866D01*
X156056866Y-107930200D01*
X156090200Y-107963533D01*
X156756866Y-108596866D02*
X156356866Y-108596866D01*
X156556866Y-108596866D02*
X156556866Y-107896866D01*
X156490200Y-107996866D01*
X156423533Y-108063533D01*
X156356866Y-108096866D01*
X156990200Y-107896866D02*
X157423533Y-107896866D01*
X157190200Y-108163533D01*
X157290200Y-108163533D01*
X157356866Y-108196866D01*
X157390200Y-108230200D01*
X157423533Y-108296866D01*
X157423533Y-108463533D01*
X157390200Y-108530200D01*
X157356866Y-108563533D01*
X157290200Y-108596866D01*
X157090200Y-108596866D01*
X157023533Y-108563533D01*
X156990200Y-108530200D01*
G04 #@! TO.C,D1*
X129323266Y-114969066D02*
X128623266Y-114969066D01*
X128623266Y-114802400D01*
X128656600Y-114702400D01*
X128723266Y-114635733D01*
X128789933Y-114602400D01*
X128923266Y-114569066D01*
X129023266Y-114569066D01*
X129156600Y-114602400D01*
X129223266Y-114635733D01*
X129289933Y-114702400D01*
X129323266Y-114802400D01*
X129323266Y-114969066D01*
X129323266Y-113902400D02*
X129323266Y-114302400D01*
X129323266Y-114102400D02*
X128623266Y-114102400D01*
X128723266Y-114169066D01*
X128789933Y-114235733D01*
X128823266Y-114302400D01*
G04 #@! TO.C,DZ1*
X134504866Y-121398400D02*
X133804866Y-121398400D01*
X133804866Y-121231733D01*
X133838200Y-121131733D01*
X133904866Y-121065066D01*
X133971533Y-121031733D01*
X134104866Y-120998400D01*
X134204866Y-120998400D01*
X134338200Y-121031733D01*
X134404866Y-121065066D01*
X134471533Y-121131733D01*
X134504866Y-121231733D01*
X134504866Y-121398400D01*
X133804866Y-120765066D02*
X133804866Y-120298400D01*
X134504866Y-120765066D01*
X134504866Y-120298400D01*
X134504866Y-119665066D02*
X134504866Y-120065066D01*
X134504866Y-119865066D02*
X133804866Y-119865066D01*
X133904866Y-119931733D01*
X133971533Y-119998400D01*
X134004866Y-120065066D01*
G04 #@! TO.C,DZ2*
X138695866Y-121550800D02*
X137995866Y-121550800D01*
X137995866Y-121384133D01*
X138029200Y-121284133D01*
X138095866Y-121217466D01*
X138162533Y-121184133D01*
X138295866Y-121150800D01*
X138395866Y-121150800D01*
X138529200Y-121184133D01*
X138595866Y-121217466D01*
X138662533Y-121284133D01*
X138695866Y-121384133D01*
X138695866Y-121550800D01*
X137995866Y-120917466D02*
X137995866Y-120450800D01*
X138695866Y-120917466D01*
X138695866Y-120450800D01*
X138062533Y-120217466D02*
X138029200Y-120184133D01*
X137995866Y-120117466D01*
X137995866Y-119950800D01*
X138029200Y-119884133D01*
X138062533Y-119850800D01*
X138129200Y-119817466D01*
X138195866Y-119817466D01*
X138295866Y-119850800D01*
X138695866Y-120250800D01*
X138695866Y-119817466D01*
G04 #@! TO.C,FB1*
X140691466Y-103175600D02*
X140458133Y-103175600D01*
X140458133Y-103542266D02*
X140458133Y-102842266D01*
X140791466Y-102842266D01*
X141291466Y-103175600D02*
X141391466Y-103208933D01*
X141424800Y-103242266D01*
X141458133Y-103308933D01*
X141458133Y-103408933D01*
X141424800Y-103475600D01*
X141391466Y-103508933D01*
X141324800Y-103542266D01*
X141058133Y-103542266D01*
X141058133Y-102842266D01*
X141291466Y-102842266D01*
X141358133Y-102875600D01*
X141391466Y-102908933D01*
X141424800Y-102975600D01*
X141424800Y-103042266D01*
X141391466Y-103108933D01*
X141358133Y-103142266D01*
X141291466Y-103175600D01*
X141058133Y-103175600D01*
X142124800Y-103542266D02*
X141724800Y-103542266D01*
X141924800Y-103542266D02*
X141924800Y-102842266D01*
X141858133Y-102942266D01*
X141791466Y-103008933D01*
X141724800Y-103042266D01*
G04 #@! TO.C,Q1*
X140928733Y-118442533D02*
X140862066Y-118409200D01*
X140795400Y-118342533D01*
X140695400Y-118242533D01*
X140628733Y-118209200D01*
X140562066Y-118209200D01*
X140595400Y-118375866D02*
X140528733Y-118342533D01*
X140462066Y-118275866D01*
X140428733Y-118142533D01*
X140428733Y-117909200D01*
X140462066Y-117775866D01*
X140528733Y-117709200D01*
X140595400Y-117675866D01*
X140728733Y-117675866D01*
X140795400Y-117709200D01*
X140862066Y-117775866D01*
X140895400Y-117909200D01*
X140895400Y-118142533D01*
X140862066Y-118275866D01*
X140795400Y-118342533D01*
X140728733Y-118375866D01*
X140595400Y-118375866D01*
X141562066Y-118375866D02*
X141162066Y-118375866D01*
X141362066Y-118375866D02*
X141362066Y-117675866D01*
X141295400Y-117775866D01*
X141228733Y-117842533D01*
X141162066Y-117875866D01*
G04 #@! TO.C,Q2*
X158302333Y-120550733D02*
X158235666Y-120517400D01*
X158169000Y-120450733D01*
X158069000Y-120350733D01*
X158002333Y-120317400D01*
X157935666Y-120317400D01*
X157969000Y-120484066D02*
X157902333Y-120450733D01*
X157835666Y-120384066D01*
X157802333Y-120250733D01*
X157802333Y-120017400D01*
X157835666Y-119884066D01*
X157902333Y-119817400D01*
X157969000Y-119784066D01*
X158102333Y-119784066D01*
X158169000Y-119817400D01*
X158235666Y-119884066D01*
X158269000Y-120017400D01*
X158269000Y-120250733D01*
X158235666Y-120384066D01*
X158169000Y-120450733D01*
X158102333Y-120484066D01*
X157969000Y-120484066D01*
X158535666Y-119850733D02*
X158569000Y-119817400D01*
X158635666Y-119784066D01*
X158802333Y-119784066D01*
X158869000Y-119817400D01*
X158902333Y-119850733D01*
X158935666Y-119917400D01*
X158935666Y-119984066D01*
X158902333Y-120084066D01*
X158502333Y-120484066D01*
X158935666Y-120484066D01*
G04 #@! TO.C,R1*
X143979066Y-117845666D02*
X143645733Y-118079000D01*
X143979066Y-118245666D02*
X143279066Y-118245666D01*
X143279066Y-117979000D01*
X143312400Y-117912333D01*
X143345733Y-117879000D01*
X143412400Y-117845666D01*
X143512400Y-117845666D01*
X143579066Y-117879000D01*
X143612400Y-117912333D01*
X143645733Y-117979000D01*
X143645733Y-118245666D01*
X143979066Y-117179000D02*
X143979066Y-117579000D01*
X143979066Y-117379000D02*
X143279066Y-117379000D01*
X143379066Y-117445666D01*
X143445733Y-117512333D01*
X143479066Y-117579000D01*
G04 #@! TO.C,R2*
X136867066Y-120436466D02*
X136533733Y-120669800D01*
X136867066Y-120836466D02*
X136167066Y-120836466D01*
X136167066Y-120569800D01*
X136200400Y-120503133D01*
X136233733Y-120469800D01*
X136300400Y-120436466D01*
X136400400Y-120436466D01*
X136467066Y-120469800D01*
X136500400Y-120503133D01*
X136533733Y-120569800D01*
X136533733Y-120836466D01*
X136233733Y-120169800D02*
X136200400Y-120136466D01*
X136167066Y-120069800D01*
X136167066Y-119903133D01*
X136200400Y-119836466D01*
X136233733Y-119803133D01*
X136300400Y-119769800D01*
X136367066Y-119769800D01*
X136467066Y-119803133D01*
X136867066Y-120203133D01*
X136867066Y-119769800D01*
G04 #@! TO.C,R3*
X135495466Y-120461866D02*
X135162133Y-120695200D01*
X135495466Y-120861866D02*
X134795466Y-120861866D01*
X134795466Y-120595200D01*
X134828800Y-120528533D01*
X134862133Y-120495200D01*
X134928800Y-120461866D01*
X135028800Y-120461866D01*
X135095466Y-120495200D01*
X135128800Y-120528533D01*
X135162133Y-120595200D01*
X135162133Y-120861866D01*
X134795466Y-120228533D02*
X134795466Y-119795200D01*
X135062133Y-120028533D01*
X135062133Y-119928533D01*
X135095466Y-119861866D01*
X135128800Y-119828533D01*
X135195466Y-119795200D01*
X135362133Y-119795200D01*
X135428800Y-119828533D01*
X135462133Y-119861866D01*
X135495466Y-119928533D01*
X135495466Y-120128533D01*
X135462133Y-120195200D01*
X135428800Y-120228533D01*
G04 #@! TO.C,R4*
X153732666Y-104637666D02*
X153399333Y-104871000D01*
X153732666Y-105037666D02*
X153032666Y-105037666D01*
X153032666Y-104771000D01*
X153066000Y-104704333D01*
X153099333Y-104671000D01*
X153166000Y-104637666D01*
X153266000Y-104637666D01*
X153332666Y-104671000D01*
X153366000Y-104704333D01*
X153399333Y-104771000D01*
X153399333Y-105037666D01*
X153266000Y-104037666D02*
X153732666Y-104037666D01*
X152999333Y-104204333D02*
X153499333Y-104371000D01*
X153499333Y-103937666D01*
G04 #@! TO.C,R5*
X130007533Y-120484066D02*
X129774200Y-120150733D01*
X129607533Y-120484066D02*
X129607533Y-119784066D01*
X129874200Y-119784066D01*
X129940866Y-119817400D01*
X129974200Y-119850733D01*
X130007533Y-119917400D01*
X130007533Y-120017400D01*
X129974200Y-120084066D01*
X129940866Y-120117400D01*
X129874200Y-120150733D01*
X129607533Y-120150733D01*
X130640866Y-119784066D02*
X130307533Y-119784066D01*
X130274200Y-120117400D01*
X130307533Y-120084066D01*
X130374200Y-120050733D01*
X130540866Y-120050733D01*
X130607533Y-120084066D01*
X130640866Y-120117400D01*
X130674200Y-120184066D01*
X130674200Y-120350733D01*
X130640866Y-120417400D01*
X130607533Y-120450733D01*
X130540866Y-120484066D01*
X130374200Y-120484066D01*
X130307533Y-120450733D01*
X130274200Y-120417400D01*
G04 #@! TO.C,R6*
X153529466Y-121757266D02*
X153196133Y-121990600D01*
X153529466Y-122157266D02*
X152829466Y-122157266D01*
X152829466Y-121890600D01*
X152862800Y-121823933D01*
X152896133Y-121790600D01*
X152962800Y-121757266D01*
X153062800Y-121757266D01*
X153129466Y-121790600D01*
X153162800Y-121823933D01*
X153196133Y-121890600D01*
X153196133Y-122157266D01*
X152829466Y-121157266D02*
X152829466Y-121290600D01*
X152862800Y-121357266D01*
X152896133Y-121390600D01*
X152996133Y-121457266D01*
X153129466Y-121490600D01*
X153396133Y-121490600D01*
X153462800Y-121457266D01*
X153496133Y-121423933D01*
X153529466Y-121357266D01*
X153529466Y-121223933D01*
X153496133Y-121157266D01*
X153462800Y-121123933D01*
X153396133Y-121090600D01*
X153229466Y-121090600D01*
X153162800Y-121123933D01*
X153129466Y-121157266D01*
X153096133Y-121223933D01*
X153096133Y-121357266D01*
X153129466Y-121423933D01*
X153162800Y-121457266D01*
X153229466Y-121490600D01*
G04 #@! TO.C,R7*
X143367933Y-121525466D02*
X143134600Y-121192133D01*
X142967933Y-121525466D02*
X142967933Y-120825466D01*
X143234600Y-120825466D01*
X143301266Y-120858800D01*
X143334600Y-120892133D01*
X143367933Y-120958800D01*
X143367933Y-121058800D01*
X143334600Y-121125466D01*
X143301266Y-121158800D01*
X143234600Y-121192133D01*
X142967933Y-121192133D01*
X143601266Y-120825466D02*
X144067933Y-120825466D01*
X143767933Y-121525466D01*
G04 #@! TO.C,R8*
X154697866Y-118455266D02*
X154364533Y-118688600D01*
X154697866Y-118855266D02*
X153997866Y-118855266D01*
X153997866Y-118588600D01*
X154031200Y-118521933D01*
X154064533Y-118488600D01*
X154131200Y-118455266D01*
X154231200Y-118455266D01*
X154297866Y-118488600D01*
X154331200Y-118521933D01*
X154364533Y-118588600D01*
X154364533Y-118855266D01*
X154297866Y-118055266D02*
X154264533Y-118121933D01*
X154231200Y-118155266D01*
X154164533Y-118188600D01*
X154131200Y-118188600D01*
X154064533Y-118155266D01*
X154031200Y-118121933D01*
X153997866Y-118055266D01*
X153997866Y-117921933D01*
X154031200Y-117855266D01*
X154064533Y-117821933D01*
X154131200Y-117788600D01*
X154164533Y-117788600D01*
X154231200Y-117821933D01*
X154264533Y-117855266D01*
X154297866Y-117921933D01*
X154297866Y-118055266D01*
X154331200Y-118121933D01*
X154364533Y-118155266D01*
X154431200Y-118188600D01*
X154564533Y-118188600D01*
X154631200Y-118155266D01*
X154664533Y-118121933D01*
X154697866Y-118055266D01*
X154697866Y-117921933D01*
X154664533Y-117855266D01*
X154631200Y-117821933D01*
X154564533Y-117788600D01*
X154431200Y-117788600D01*
X154364533Y-117821933D01*
X154331200Y-117855266D01*
X154297866Y-117921933D01*
G04 #@! TO.C,R9*
X158406266Y-121477866D02*
X158072933Y-121711200D01*
X158406266Y-121877866D02*
X157706266Y-121877866D01*
X157706266Y-121611200D01*
X157739600Y-121544533D01*
X157772933Y-121511200D01*
X157839600Y-121477866D01*
X157939600Y-121477866D01*
X158006266Y-121511200D01*
X158039600Y-121544533D01*
X158072933Y-121611200D01*
X158072933Y-121877866D01*
X158406266Y-121144533D02*
X158406266Y-121011200D01*
X158372933Y-120944533D01*
X158339600Y-120911200D01*
X158239600Y-120844533D01*
X158106266Y-120811200D01*
X157839600Y-120811200D01*
X157772933Y-120844533D01*
X157739600Y-120877866D01*
X157706266Y-120944533D01*
X157706266Y-121077866D01*
X157739600Y-121144533D01*
X157772933Y-121177866D01*
X157839600Y-121211200D01*
X158006266Y-121211200D01*
X158072933Y-121177866D01*
X158106266Y-121144533D01*
X158139600Y-121077866D01*
X158139600Y-120944533D01*
X158106266Y-120877866D01*
X158072933Y-120844533D01*
X158006266Y-120811200D01*
G04 #@! TO.C,R10*
X154621666Y-122090600D02*
X154288333Y-122323933D01*
X154621666Y-122490600D02*
X153921666Y-122490600D01*
X153921666Y-122223933D01*
X153955000Y-122157266D01*
X153988333Y-122123933D01*
X154055000Y-122090600D01*
X154155000Y-122090600D01*
X154221666Y-122123933D01*
X154255000Y-122157266D01*
X154288333Y-122223933D01*
X154288333Y-122490600D01*
X154621666Y-121423933D02*
X154621666Y-121823933D01*
X154621666Y-121623933D02*
X153921666Y-121623933D01*
X154021666Y-121690600D01*
X154088333Y-121757266D01*
X154121666Y-121823933D01*
X153921666Y-120990600D02*
X153921666Y-120923933D01*
X153955000Y-120857266D01*
X153988333Y-120823933D01*
X154055000Y-120790600D01*
X154188333Y-120757266D01*
X154355000Y-120757266D01*
X154488333Y-120790600D01*
X154555000Y-120823933D01*
X154588333Y-120857266D01*
X154621666Y-120923933D01*
X154621666Y-120990600D01*
X154588333Y-121057266D01*
X154555000Y-121090600D01*
X154488333Y-121123933D01*
X154355000Y-121157266D01*
X154188333Y-121157266D01*
X154055000Y-121123933D01*
X153988333Y-121090600D01*
X153955000Y-121057266D01*
X153921666Y-120990600D01*
G04 #@! TO.C,SW1*
X141560666Y-122584333D02*
X141660666Y-122617666D01*
X141827333Y-122617666D01*
X141894000Y-122584333D01*
X141927333Y-122551000D01*
X141960666Y-122484333D01*
X141960666Y-122417666D01*
X141927333Y-122351000D01*
X141894000Y-122317666D01*
X141827333Y-122284333D01*
X141694000Y-122251000D01*
X141627333Y-122217666D01*
X141594000Y-122184333D01*
X141560666Y-122117666D01*
X141560666Y-122051000D01*
X141594000Y-121984333D01*
X141627333Y-121951000D01*
X141694000Y-121917666D01*
X141860666Y-121917666D01*
X141960666Y-121951000D01*
X142194000Y-121917666D02*
X142360666Y-122617666D01*
X142494000Y-122117666D01*
X142627333Y-122617666D01*
X142794000Y-121917666D01*
X143427333Y-122617666D02*
X143027333Y-122617666D01*
X143227333Y-122617666D02*
X143227333Y-121917666D01*
X143160666Y-122017666D01*
X143094000Y-122084333D01*
X143027333Y-122117666D01*
G04 #@! TO.C,U1*
X146964466Y-103604266D02*
X146964466Y-104170933D01*
X146997800Y-104237600D01*
X147031133Y-104270933D01*
X147097800Y-104304266D01*
X147231133Y-104304266D01*
X147297800Y-104270933D01*
X147331133Y-104237600D01*
X147364466Y-104170933D01*
X147364466Y-103604266D01*
X148064466Y-104304266D02*
X147664466Y-104304266D01*
X147864466Y-104304266D02*
X147864466Y-103604266D01*
X147797800Y-103704266D01*
X147731133Y-103770933D01*
X147664466Y-103804266D01*
G04 #@! TO.C,U3*
X136118666Y-105763266D02*
X136118666Y-106329933D01*
X136152000Y-106396600D01*
X136185333Y-106429933D01*
X136252000Y-106463266D01*
X136385333Y-106463266D01*
X136452000Y-106429933D01*
X136485333Y-106396600D01*
X136518666Y-106329933D01*
X136518666Y-105763266D01*
X136785333Y-105763266D02*
X137218666Y-105763266D01*
X136985333Y-106029933D01*
X137085333Y-106029933D01*
X137152000Y-106063266D01*
X137185333Y-106096600D01*
X137218666Y-106163266D01*
X137218666Y-106329933D01*
X137185333Y-106396600D01*
X137152000Y-106429933D01*
X137085333Y-106463266D01*
X136885333Y-106463266D01*
X136818666Y-106429933D01*
X136785333Y-106396600D01*
G04 #@! TO.C,U4*
X154381266Y-109319266D02*
X154381266Y-109885933D01*
X154414600Y-109952600D01*
X154447933Y-109985933D01*
X154514600Y-110019266D01*
X154647933Y-110019266D01*
X154714600Y-109985933D01*
X154747933Y-109952600D01*
X154781266Y-109885933D01*
X154781266Y-109319266D01*
X155414600Y-109552600D02*
X155414600Y-110019266D01*
X155247933Y-109285933D02*
X155081266Y-109785933D01*
X155514600Y-109785933D01*
G04 #@! TO.C,Y1*
X149487733Y-117122533D02*
X149821066Y-117122533D01*
X149121066Y-117355866D02*
X149487733Y-117122533D01*
X149121066Y-116889200D01*
X149821066Y-116289200D02*
X149821066Y-116689200D01*
X149821066Y-116489200D02*
X149121066Y-116489200D01*
X149221066Y-116555866D01*
X149287733Y-116622533D01*
X149321066Y-116689200D01*
G04 #@! TO.C,J1*
X129763866Y-122171666D02*
X129763866Y-122671666D01*
X129730533Y-122771666D01*
X129663866Y-122838333D01*
X129563866Y-122871666D01*
X129497200Y-122871666D01*
X130463866Y-122871666D02*
X130063866Y-122871666D01*
X130263866Y-122871666D02*
X130263866Y-122171666D01*
X130197200Y-122271666D01*
X130130533Y-122338333D01*
X130063866Y-122371666D01*
G04 #@! TO.C,U2*
X147193066Y-122527266D02*
X147193066Y-123093933D01*
X147226400Y-123160600D01*
X147259733Y-123193933D01*
X147326400Y-123227266D01*
X147459733Y-123227266D01*
X147526400Y-123193933D01*
X147559733Y-123160600D01*
X147593066Y-123093933D01*
X147593066Y-122527266D01*
X147893066Y-122593933D02*
X147926400Y-122560600D01*
X147993066Y-122527266D01*
X148159733Y-122527266D01*
X148226400Y-122560600D01*
X148259733Y-122593933D01*
X148293066Y-122660600D01*
X148293066Y-122727266D01*
X148259733Y-122827266D01*
X147859733Y-123227266D01*
X148293066Y-123227266D01*
G04 #@! TD*
M02*
