G04 #@! TF.GenerationSoftware,KiCad,Pcbnew,5.0.2-bee76a0~70~ubuntu18.04.1*
G04 #@! TF.CreationDate,2019-03-18T22:27:49+09:00*
G04 #@! TF.ProjectId,LeonardoBB,4c656f6e-6172-4646-9f42-422e6b696361,rev?*
G04 #@! TF.SameCoordinates,Original*
G04 #@! TF.FileFunction,Paste,Bot*
G04 #@! TF.FilePolarity,Positive*
%FSLAX46Y46*%
G04 Gerber Fmt 4.6, Leading zero omitted, Abs format (unit mm)*
G04 Created by KiCad (PCBNEW 5.0.2-bee76a0~70~ubuntu18.04.1) date 2019年03月18日 22時27分49秒*
%MOMM*%
%LPD*%
G01*
G04 APERTURE LIST*
%ADD10C,0.100000*%
%ADD11C,0.875000*%
%ADD12R,1.050000X0.650000*%
G04 APERTURE END LIST*
D10*
G04 #@! TO.C,D2*
G36*
X135164891Y-125078253D02*
X135186126Y-125081403D01*
X135206950Y-125086619D01*
X135227162Y-125093851D01*
X135246568Y-125103030D01*
X135264981Y-125114066D01*
X135282224Y-125126854D01*
X135298130Y-125141270D01*
X135312546Y-125157176D01*
X135325334Y-125174419D01*
X135336370Y-125192832D01*
X135345549Y-125212238D01*
X135352781Y-125232450D01*
X135357997Y-125253274D01*
X135361147Y-125274509D01*
X135362200Y-125295950D01*
X135362200Y-125808450D01*
X135361147Y-125829891D01*
X135357997Y-125851126D01*
X135352781Y-125871950D01*
X135345549Y-125892162D01*
X135336370Y-125911568D01*
X135325334Y-125929981D01*
X135312546Y-125947224D01*
X135298130Y-125963130D01*
X135282224Y-125977546D01*
X135264981Y-125990334D01*
X135246568Y-126001370D01*
X135227162Y-126010549D01*
X135206950Y-126017781D01*
X135186126Y-126022997D01*
X135164891Y-126026147D01*
X135143450Y-126027200D01*
X134705950Y-126027200D01*
X134684509Y-126026147D01*
X134663274Y-126022997D01*
X134642450Y-126017781D01*
X134622238Y-126010549D01*
X134602832Y-126001370D01*
X134584419Y-125990334D01*
X134567176Y-125977546D01*
X134551270Y-125963130D01*
X134536854Y-125947224D01*
X134524066Y-125929981D01*
X134513030Y-125911568D01*
X134503851Y-125892162D01*
X134496619Y-125871950D01*
X134491403Y-125851126D01*
X134488253Y-125829891D01*
X134487200Y-125808450D01*
X134487200Y-125295950D01*
X134488253Y-125274509D01*
X134491403Y-125253274D01*
X134496619Y-125232450D01*
X134503851Y-125212238D01*
X134513030Y-125192832D01*
X134524066Y-125174419D01*
X134536854Y-125157176D01*
X134551270Y-125141270D01*
X134567176Y-125126854D01*
X134584419Y-125114066D01*
X134602832Y-125103030D01*
X134622238Y-125093851D01*
X134642450Y-125086619D01*
X134663274Y-125081403D01*
X134684509Y-125078253D01*
X134705950Y-125077200D01*
X135143450Y-125077200D01*
X135164891Y-125078253D01*
X135164891Y-125078253D01*
G37*
D11*
X134924700Y-125552200D03*
D10*
G36*
X136739891Y-125078253D02*
X136761126Y-125081403D01*
X136781950Y-125086619D01*
X136802162Y-125093851D01*
X136821568Y-125103030D01*
X136839981Y-125114066D01*
X136857224Y-125126854D01*
X136873130Y-125141270D01*
X136887546Y-125157176D01*
X136900334Y-125174419D01*
X136911370Y-125192832D01*
X136920549Y-125212238D01*
X136927781Y-125232450D01*
X136932997Y-125253274D01*
X136936147Y-125274509D01*
X136937200Y-125295950D01*
X136937200Y-125808450D01*
X136936147Y-125829891D01*
X136932997Y-125851126D01*
X136927781Y-125871950D01*
X136920549Y-125892162D01*
X136911370Y-125911568D01*
X136900334Y-125929981D01*
X136887546Y-125947224D01*
X136873130Y-125963130D01*
X136857224Y-125977546D01*
X136839981Y-125990334D01*
X136821568Y-126001370D01*
X136802162Y-126010549D01*
X136781950Y-126017781D01*
X136761126Y-126022997D01*
X136739891Y-126026147D01*
X136718450Y-126027200D01*
X136280950Y-126027200D01*
X136259509Y-126026147D01*
X136238274Y-126022997D01*
X136217450Y-126017781D01*
X136197238Y-126010549D01*
X136177832Y-126001370D01*
X136159419Y-125990334D01*
X136142176Y-125977546D01*
X136126270Y-125963130D01*
X136111854Y-125947224D01*
X136099066Y-125929981D01*
X136088030Y-125911568D01*
X136078851Y-125892162D01*
X136071619Y-125871950D01*
X136066403Y-125851126D01*
X136063253Y-125829891D01*
X136062200Y-125808450D01*
X136062200Y-125295950D01*
X136063253Y-125274509D01*
X136066403Y-125253274D01*
X136071619Y-125232450D01*
X136078851Y-125212238D01*
X136088030Y-125192832D01*
X136099066Y-125174419D01*
X136111854Y-125157176D01*
X136126270Y-125141270D01*
X136142176Y-125126854D01*
X136159419Y-125114066D01*
X136177832Y-125103030D01*
X136197238Y-125093851D01*
X136217450Y-125086619D01*
X136238274Y-125081403D01*
X136259509Y-125078253D01*
X136280950Y-125077200D01*
X136718450Y-125077200D01*
X136739891Y-125078253D01*
X136739891Y-125078253D01*
G37*
D11*
X136499700Y-125552200D03*
G04 #@! TD*
D12*
G04 #@! TO.C,SW2*
X132623200Y-123664400D03*
X128473200Y-123664400D03*
X132623200Y-125814400D03*
X128473200Y-125814400D03*
G04 #@! TD*
M02*
