M48
;DRILL file {KiCad 5.0.2-bee76a0~70~ubuntu18.04.1} date 2019年02月14日 01時12分18秒
;FORMAT={-:-/ absolute / inch / decimal}
FMAT,2
INCH,TZ
T1C0.0157
T2C0.0256
T3C0.0276
T4C0.0300
T5C0.0394
%
G90
G05
T1
X5.065Y-4.2
X5.2497Y-4.73
X5.265Y-4.3
X5.4785Y-4.6927
X5.5375Y-4.73
X5.5691Y-4.3721
X5.6025Y-4.0275
X5.6096Y-4.7678
X5.6121Y-4.3751
X5.6134Y-4.4257
X5.655Y-4.1035
X5.6581Y-4.1435
X5.6714Y-4.3989
X5.6886Y-4.4584
X5.7396Y-4.4536
X5.7987Y-4.2711
X5.8011Y-4.7882
X5.8439Y-4.7069
X5.855Y-4.8188
X5.895Y-5.0075
X5.9014Y-4.8077
X5.91Y-4.065
X5.9259Y-4.1354
X5.9761Y-4.3591
X6.0275Y-4.8325
X6.0802Y-4.7172
X6.0854Y-4.5974
X6.1413Y-4.4025
X6.3124Y-4.8768
T4
X5.9463Y-4.91
X6.025Y-4.91
X6.1037Y-4.91
X6.1825Y-4.91
T5
X6.4193Y-3.0949
X6.4193Y-3.1949
X6.4193Y-3.2949
X6.4193Y-3.3949
X6.4193Y-3.4949
X6.4193Y-3.5949
X6.4193Y-3.6949
X6.4193Y-3.7949
X6.4193Y-3.8949
X6.4193Y-3.9949
X6.4193Y-4.0949
X6.4193Y-4.1949
X6.4193Y-4.2949
X6.4193Y-4.3949
X6.4193Y-4.4949
X6.4193Y-4.5949
X6.4193Y-4.6949
X4.9193Y-3.0949
X4.9193Y-3.1949
X4.9193Y-3.2949
X4.9193Y-3.3949
X4.9193Y-3.4949
X4.9193Y-3.5949
X4.9193Y-3.6949
X4.9193Y-3.7949
X4.9193Y-3.8949
X4.9193Y-3.9949
X4.9193Y-4.0949
X4.9193Y-4.1949
X4.9193Y-4.2949
X4.9193Y-4.3949
X4.9193Y-4.4949
X4.9193Y-4.5949
X4.9193Y-4.6949
T2
X5.2037Y-4.8087G85X5.2037Y-4.7929
G05
X5.3943Y-4.8087G85X5.3943Y-4.7929
G05
T3
X5.1915Y-4.9287G85X5.1915Y-4.9091
G05
X5.4065Y-4.9287G85X5.4065Y-4.9091
G05
T0
M30
