G04 #@! TF.GenerationSoftware,KiCad,Pcbnew,5.0.2-bee76a0~70~ubuntu18.04.1*
G04 #@! TF.CreationDate,2019-03-18T22:27:49+09:00*
G04 #@! TF.ProjectId,LeonardoBB,4c656f6e-6172-4646-9f42-422e6b696361,rev?*
G04 #@! TF.SameCoordinates,Original*
G04 #@! TF.FileFunction,Soldermask,Top*
G04 #@! TF.FilePolarity,Negative*
%FSLAX46Y46*%
G04 Gerber Fmt 4.6, Leading zero omitted, Abs format (unit mm)*
G04 Created by KiCad (PCBNEW 5.0.2-bee76a0~70~ubuntu18.04.1) date 2019年03月18日 22時27分49秒*
%MOMM*%
%LPD*%
G01*
G04 APERTURE LIST*
%ADD10C,0.100000*%
G04 APERTURE END LIST*
D10*
G36*
X138145862Y-124060898D02*
X138158114Y-124061500D01*
X138231405Y-124061500D01*
X138248165Y-124070458D01*
X138259695Y-124074584D01*
X138370331Y-124108145D01*
X138483425Y-124168595D01*
X138582553Y-124249947D01*
X138663905Y-124349074D01*
X138663906Y-124349076D01*
X138724355Y-124462167D01*
X138724356Y-124462170D01*
X138761580Y-124584882D01*
X138766410Y-124633925D01*
X138771000Y-124680526D01*
X138771000Y-125378000D01*
X138773402Y-125402386D01*
X138780515Y-125425835D01*
X138792066Y-125447446D01*
X138807612Y-125466388D01*
X138826554Y-125481934D01*
X138848165Y-125493485D01*
X138871614Y-125500598D01*
X138896000Y-125503000D01*
X140093000Y-125503000D01*
X140093000Y-126405000D01*
X138991000Y-126405000D01*
X138991000Y-125626503D01*
X138988598Y-125602117D01*
X138981485Y-125578668D01*
X138969934Y-125557057D01*
X138954388Y-125538115D01*
X138935446Y-125522569D01*
X138913835Y-125511018D01*
X138890386Y-125503905D01*
X138866000Y-125501503D01*
X138841614Y-125503905D01*
X138818165Y-125511018D01*
X138796554Y-125522569D01*
X138777612Y-125538115D01*
X138762066Y-125557057D01*
X138750515Y-125578668D01*
X138746382Y-125590218D01*
X138724355Y-125662833D01*
X138670819Y-125762991D01*
X138663905Y-125775926D01*
X138582553Y-125875053D01*
X138483426Y-125956405D01*
X138483424Y-125956406D01*
X138370333Y-126016855D01*
X138322882Y-126031249D01*
X138259711Y-126050412D01*
X138237076Y-126059788D01*
X138231520Y-126063500D01*
X138158114Y-126063500D01*
X138145862Y-126064102D01*
X138120000Y-126066649D01*
X138094138Y-126064102D01*
X138081886Y-126063500D01*
X136869000Y-126063500D01*
X136869000Y-124061500D01*
X138081886Y-124061500D01*
X138094138Y-124060898D01*
X138120000Y-124058351D01*
X138145862Y-124060898D01*
X138145862Y-124060898D01*
G37*
G36*
X147393000Y-126405000D02*
X146291000Y-126405000D01*
X146291000Y-125503000D01*
X147393000Y-125503000D01*
X147393000Y-126405000D01*
X147393000Y-126405000D01*
G37*
G36*
X164975256Y-122991298D02*
X165081579Y-123012447D01*
X165382042Y-123136903D01*
X165384432Y-123138500D01*
X165652454Y-123317587D01*
X165882413Y-123547546D01*
X165882415Y-123547549D01*
X166063097Y-123817958D01*
X166183297Y-124108145D01*
X166187553Y-124118422D01*
X166251000Y-124437389D01*
X166251000Y-124762611D01*
X166223006Y-124903344D01*
X166187553Y-125081579D01*
X166063097Y-125382042D01*
X165966239Y-125527000D01*
X165882413Y-125652454D01*
X165652454Y-125882413D01*
X165652451Y-125882415D01*
X165382042Y-126063097D01*
X165081579Y-126187553D01*
X164975256Y-126208702D01*
X164762611Y-126251000D01*
X164437389Y-126251000D01*
X164224744Y-126208702D01*
X164118421Y-126187553D01*
X163817958Y-126063097D01*
X163547549Y-125882415D01*
X163547546Y-125882413D01*
X163317587Y-125652454D01*
X163233761Y-125527000D01*
X163136903Y-125382042D01*
X163012447Y-125081579D01*
X162976994Y-124903344D01*
X162949000Y-124762611D01*
X162949000Y-124437389D01*
X163012447Y-124118422D01*
X163016704Y-124108145D01*
X163136903Y-123817958D01*
X163317585Y-123547549D01*
X163317587Y-123547546D01*
X163547546Y-123317587D01*
X163815568Y-123138500D01*
X163817958Y-123136903D01*
X164118421Y-123012447D01*
X164224744Y-122991298D01*
X164437389Y-122949000D01*
X164762611Y-122949000D01*
X164975256Y-122991298D01*
X164975256Y-122991298D01*
G37*
G36*
X123775256Y-122991298D02*
X123881579Y-123012447D01*
X124182042Y-123136903D01*
X124184432Y-123138500D01*
X124452454Y-123317587D01*
X124682413Y-123547546D01*
X124682415Y-123547549D01*
X124863097Y-123817958D01*
X124983297Y-124108145D01*
X124987553Y-124118422D01*
X125051000Y-124437389D01*
X125051000Y-124762611D01*
X125023006Y-124903344D01*
X124987553Y-125081579D01*
X124863097Y-125382042D01*
X124766239Y-125527000D01*
X124682413Y-125652454D01*
X124452454Y-125882413D01*
X124452451Y-125882415D01*
X124182042Y-126063097D01*
X123881579Y-126187553D01*
X123775256Y-126208702D01*
X123562611Y-126251000D01*
X123237389Y-126251000D01*
X123024744Y-126208702D01*
X122918421Y-126187553D01*
X122617958Y-126063097D01*
X122347549Y-125882415D01*
X122347546Y-125882413D01*
X122117587Y-125652454D01*
X122033761Y-125527000D01*
X121936903Y-125382042D01*
X121812447Y-125081579D01*
X121776994Y-124903344D01*
X121749000Y-124762611D01*
X121749000Y-124437389D01*
X121812447Y-124118422D01*
X121816704Y-124108145D01*
X121936903Y-123817958D01*
X122117585Y-123547549D01*
X122117587Y-123547546D01*
X122347546Y-123317587D01*
X122615568Y-123138500D01*
X122617958Y-123136903D01*
X122918421Y-123012447D01*
X123024744Y-122991298D01*
X123237389Y-122949000D01*
X123562611Y-122949000D01*
X123775256Y-122991298D01*
X123775256Y-122991298D01*
G37*
G36*
X131145862Y-124060898D02*
X131158114Y-124061500D01*
X132371000Y-124061500D01*
X132371000Y-126063500D01*
X131158114Y-126063500D01*
X131145862Y-126064102D01*
X131120000Y-126066649D01*
X131094138Y-126064102D01*
X131081886Y-126063500D01*
X131008593Y-126063500D01*
X130991835Y-126054543D01*
X130980292Y-126050413D01*
X130917118Y-126031249D01*
X130869667Y-126016855D01*
X130756576Y-125956406D01*
X130756574Y-125956405D01*
X130657447Y-125875053D01*
X130576095Y-125775925D01*
X130515646Y-125662833D01*
X130515645Y-125662832D01*
X130493618Y-125590218D01*
X130478420Y-125540117D01*
X130469000Y-125444472D01*
X130469000Y-124680527D01*
X130478420Y-124584882D01*
X130515645Y-124462168D01*
X130576096Y-124349074D01*
X130657448Y-124249947D01*
X130756575Y-124168595D01*
X130869669Y-124108145D01*
X130980295Y-124074587D01*
X131002924Y-124065214D01*
X131008482Y-124061500D01*
X131081886Y-124061500D01*
X131094138Y-124060898D01*
X131120000Y-124058351D01*
X131145862Y-124060898D01*
X131145862Y-124060898D01*
G37*
G36*
X136421000Y-126063500D02*
X134819000Y-126063500D01*
X134819000Y-124061500D01*
X136421000Y-124061500D01*
X136421000Y-126063500D01*
X136421000Y-126063500D01*
G37*
G36*
X134421000Y-126063500D02*
X132819000Y-126063500D01*
X132819000Y-124061500D01*
X134421000Y-124061500D01*
X134421000Y-126063500D01*
X134421000Y-126063500D01*
G37*
G36*
X153272142Y-123932242D02*
X153420102Y-123993530D01*
X153487130Y-124038317D01*
X153541419Y-124074591D01*
X153553258Y-124082502D01*
X153666498Y-124195742D01*
X153755470Y-124328898D01*
X153816758Y-124476858D01*
X153848000Y-124633925D01*
X153848000Y-124794075D01*
X153816758Y-124951142D01*
X153769354Y-125065583D01*
X153755471Y-125099100D01*
X153666499Y-125232257D01*
X153553257Y-125345499D01*
X153504615Y-125378000D01*
X153420102Y-125434470D01*
X153420101Y-125434471D01*
X153420100Y-125434471D01*
X153395953Y-125444473D01*
X153272142Y-125495758D01*
X153115075Y-125527000D01*
X152954925Y-125527000D01*
X152797858Y-125495758D01*
X152674047Y-125444473D01*
X152649900Y-125434471D01*
X152649899Y-125434471D01*
X152649898Y-125434470D01*
X152565385Y-125378000D01*
X152516743Y-125345499D01*
X152403501Y-125232257D01*
X152314529Y-125099100D01*
X152300646Y-125065583D01*
X152253242Y-124951142D01*
X152222000Y-124794075D01*
X152222000Y-124633925D01*
X152253242Y-124476858D01*
X152314530Y-124328898D01*
X152403502Y-124195742D01*
X152516742Y-124082502D01*
X152528582Y-124074591D01*
X152582870Y-124038317D01*
X152649898Y-123993530D01*
X152797858Y-123932242D01*
X152954925Y-123901000D01*
X153115075Y-123901000D01*
X153272142Y-123932242D01*
X153272142Y-123932242D01*
G37*
G36*
X151272142Y-123932242D02*
X151420102Y-123993530D01*
X151487130Y-124038317D01*
X151541419Y-124074591D01*
X151553258Y-124082502D01*
X151666498Y-124195742D01*
X151755470Y-124328898D01*
X151816758Y-124476858D01*
X151848000Y-124633925D01*
X151848000Y-124794075D01*
X151816758Y-124951142D01*
X151769354Y-125065583D01*
X151755471Y-125099100D01*
X151666499Y-125232257D01*
X151553257Y-125345499D01*
X151504615Y-125378000D01*
X151420102Y-125434470D01*
X151420101Y-125434471D01*
X151420100Y-125434471D01*
X151395953Y-125444473D01*
X151272142Y-125495758D01*
X151115075Y-125527000D01*
X150954925Y-125527000D01*
X150797858Y-125495758D01*
X150674047Y-125444473D01*
X150649900Y-125434471D01*
X150649899Y-125434471D01*
X150649898Y-125434470D01*
X150565385Y-125378000D01*
X150516743Y-125345499D01*
X150403501Y-125232257D01*
X150314529Y-125099100D01*
X150300646Y-125065583D01*
X150253242Y-124951142D01*
X150222000Y-124794075D01*
X150222000Y-124633925D01*
X150253242Y-124476858D01*
X150314530Y-124328898D01*
X150403502Y-124195742D01*
X150516742Y-124082502D01*
X150528582Y-124074591D01*
X150582870Y-124038317D01*
X150649898Y-123993530D01*
X150797858Y-123932242D01*
X150954925Y-123901000D01*
X151115075Y-123901000D01*
X151272142Y-123932242D01*
X151272142Y-123932242D01*
G37*
G36*
X155272142Y-123932242D02*
X155420102Y-123993530D01*
X155487130Y-124038317D01*
X155541419Y-124074591D01*
X155553258Y-124082502D01*
X155666498Y-124195742D01*
X155755470Y-124328898D01*
X155816758Y-124476858D01*
X155848000Y-124633925D01*
X155848000Y-124794075D01*
X155816758Y-124951142D01*
X155769354Y-125065583D01*
X155755471Y-125099100D01*
X155666499Y-125232257D01*
X155553257Y-125345499D01*
X155504615Y-125378000D01*
X155420102Y-125434470D01*
X155420101Y-125434471D01*
X155420100Y-125434471D01*
X155395953Y-125444473D01*
X155272142Y-125495758D01*
X155115075Y-125527000D01*
X154954925Y-125527000D01*
X154797858Y-125495758D01*
X154674047Y-125444473D01*
X154649900Y-125434471D01*
X154649899Y-125434471D01*
X154649898Y-125434470D01*
X154565385Y-125378000D01*
X154516743Y-125345499D01*
X154403501Y-125232257D01*
X154314529Y-125099100D01*
X154300646Y-125065583D01*
X154253242Y-124951142D01*
X154222000Y-124794075D01*
X154222000Y-124633925D01*
X154253242Y-124476858D01*
X154314530Y-124328898D01*
X154403502Y-124195742D01*
X154516742Y-124082502D01*
X154528582Y-124074591D01*
X154582870Y-124038317D01*
X154649898Y-123993530D01*
X154797858Y-123932242D01*
X154954925Y-123901000D01*
X155115075Y-123901000D01*
X155272142Y-123932242D01*
X155272142Y-123932242D01*
G37*
G36*
X157848000Y-125527000D02*
X156222000Y-125527000D01*
X156222000Y-123901000D01*
X157848000Y-123901000D01*
X157848000Y-125527000D01*
X157848000Y-125527000D01*
G37*
G36*
X144838136Y-124372253D02*
X144929312Y-124410019D01*
X145011372Y-124464850D01*
X145081150Y-124534628D01*
X145135981Y-124616688D01*
X145173747Y-124707864D01*
X145193000Y-124804656D01*
X145193000Y-124903344D01*
X145173747Y-125000136D01*
X145135981Y-125091312D01*
X145081150Y-125173372D01*
X145011372Y-125243150D01*
X144929312Y-125297981D01*
X144838136Y-125335747D01*
X144741344Y-125355000D01*
X144642656Y-125355000D01*
X144545864Y-125335747D01*
X144454688Y-125297981D01*
X144372628Y-125243150D01*
X144302850Y-125173372D01*
X144248019Y-125091312D01*
X144210253Y-125000136D01*
X144191000Y-124903344D01*
X144191000Y-124804656D01*
X144210253Y-124707864D01*
X144248019Y-124616688D01*
X144302850Y-124534628D01*
X144372628Y-124464850D01*
X144454688Y-124410019D01*
X144545864Y-124372253D01*
X144642656Y-124353000D01*
X144741344Y-124353000D01*
X144838136Y-124372253D01*
X144838136Y-124372253D01*
G37*
G36*
X141838136Y-124372253D02*
X141929312Y-124410019D01*
X142011372Y-124464850D01*
X142081150Y-124534628D01*
X142135981Y-124616688D01*
X142173747Y-124707864D01*
X142193000Y-124804656D01*
X142193000Y-124903344D01*
X142173747Y-125000136D01*
X142135981Y-125091312D01*
X142081150Y-125173372D01*
X142011372Y-125243150D01*
X141929312Y-125297981D01*
X141838136Y-125335747D01*
X141741344Y-125355000D01*
X141642656Y-125355000D01*
X141545864Y-125335747D01*
X141454688Y-125297981D01*
X141372628Y-125243150D01*
X141302850Y-125173372D01*
X141248019Y-125091312D01*
X141210253Y-125000136D01*
X141191000Y-124903344D01*
X141191000Y-124804656D01*
X141210253Y-124707864D01*
X141248019Y-124616688D01*
X141302850Y-124534628D01*
X141372628Y-124464850D01*
X141454688Y-124410019D01*
X141545864Y-124372253D01*
X141642656Y-124353000D01*
X141741344Y-124353000D01*
X141838136Y-124372253D01*
X141838136Y-124372253D01*
G37*
G36*
X140093000Y-124195000D02*
X138991000Y-124195000D01*
X138991000Y-123293000D01*
X140093000Y-123293000D01*
X140093000Y-124195000D01*
X140093000Y-124195000D01*
G37*
G36*
X147393000Y-124195000D02*
X146291000Y-124195000D01*
X146291000Y-123293000D01*
X147393000Y-123293000D01*
X147393000Y-124195000D01*
X147393000Y-124195000D01*
G37*
G36*
X145843000Y-123895000D02*
X145041000Y-123895000D01*
X145041000Y-122293000D01*
X145843000Y-122293000D01*
X145843000Y-123895000D01*
X145843000Y-123895000D01*
G37*
G36*
X141343000Y-123895000D02*
X140541000Y-123895000D01*
X140541000Y-122293000D01*
X141343000Y-122293000D01*
X141343000Y-123895000D01*
X141343000Y-123895000D01*
G37*
G36*
X144343000Y-123895000D02*
X143541000Y-123895000D01*
X143541000Y-122293000D01*
X144343000Y-122293000D01*
X144343000Y-123895000D01*
X144343000Y-123895000D01*
G37*
G36*
X152398591Y-122566085D02*
X152432569Y-122576393D01*
X152463887Y-122593133D01*
X152491339Y-122615661D01*
X152513867Y-122643113D01*
X152530607Y-122674431D01*
X152540915Y-122708409D01*
X152545000Y-122749890D01*
X152545000Y-123351110D01*
X152540915Y-123392591D01*
X152530607Y-123426569D01*
X152513867Y-123457887D01*
X152491339Y-123485339D01*
X152463887Y-123507867D01*
X152432569Y-123524607D01*
X152398591Y-123534915D01*
X152357110Y-123539000D01*
X151680890Y-123539000D01*
X151639409Y-123534915D01*
X151605431Y-123524607D01*
X151574113Y-123507867D01*
X151546661Y-123485339D01*
X151524133Y-123457887D01*
X151507393Y-123426569D01*
X151497085Y-123392591D01*
X151493000Y-123351110D01*
X151493000Y-122749890D01*
X151497085Y-122708409D01*
X151507393Y-122674431D01*
X151524133Y-122643113D01*
X151546661Y-122615661D01*
X151574113Y-122593133D01*
X151605431Y-122576393D01*
X151639409Y-122566085D01*
X151680890Y-122562000D01*
X152357110Y-122562000D01*
X152398591Y-122566085D01*
X152398591Y-122566085D01*
G37*
G36*
X132346349Y-121616320D02*
X132346352Y-121616321D01*
X132346351Y-121616321D01*
X132487574Y-121674817D01*
X132591920Y-121744539D01*
X132614674Y-121759743D01*
X132722757Y-121867826D01*
X132722759Y-121867829D01*
X132807683Y-121994926D01*
X132808701Y-121997384D01*
X132828515Y-122045220D01*
X132840067Y-122066831D01*
X132855612Y-122085773D01*
X132874554Y-122101318D01*
X132896165Y-122112869D01*
X132919614Y-122119982D01*
X132944000Y-122122384D01*
X132968387Y-122119982D01*
X132991836Y-122112869D01*
X133013447Y-122101317D01*
X133032389Y-122085772D01*
X133047934Y-122066830D01*
X133059485Y-122045219D01*
X133066598Y-122021770D01*
X133069000Y-121997384D01*
X133069000Y-121636500D01*
X136171000Y-121636500D01*
X136171000Y-121997384D01*
X136173402Y-122021770D01*
X136180515Y-122045219D01*
X136192066Y-122066830D01*
X136207612Y-122085772D01*
X136226554Y-122101318D01*
X136248165Y-122112869D01*
X136271614Y-122119982D01*
X136296000Y-122122384D01*
X136320386Y-122119982D01*
X136343835Y-122112869D01*
X136365446Y-122101318D01*
X136384388Y-122085772D01*
X136399934Y-122066830D01*
X136411485Y-122045220D01*
X136431299Y-121997384D01*
X136432317Y-121994926D01*
X136517241Y-121867829D01*
X136517243Y-121867826D01*
X136625326Y-121759743D01*
X136648080Y-121744539D01*
X136752426Y-121674817D01*
X136893649Y-121616321D01*
X136893648Y-121616321D01*
X136893651Y-121616320D01*
X137043569Y-121586500D01*
X137196431Y-121586500D01*
X137346349Y-121616320D01*
X137346352Y-121616321D01*
X137346351Y-121616321D01*
X137487574Y-121674817D01*
X137591920Y-121744539D01*
X137614674Y-121759743D01*
X137722757Y-121867826D01*
X137722759Y-121867829D01*
X137807683Y-121994926D01*
X137808701Y-121997384D01*
X137866180Y-122136151D01*
X137896000Y-122286069D01*
X137896000Y-122438931D01*
X137866180Y-122588849D01*
X137859321Y-122605408D01*
X137807683Y-122730074D01*
X137723905Y-122855456D01*
X137722757Y-122857174D01*
X137614674Y-122965257D01*
X137614671Y-122965259D01*
X137487574Y-123050183D01*
X137395068Y-123088500D01*
X137346349Y-123108680D01*
X137196431Y-123138500D01*
X137043569Y-123138500D01*
X136893651Y-123108680D01*
X136844932Y-123088500D01*
X136752426Y-123050183D01*
X136625329Y-122965259D01*
X136625326Y-122965257D01*
X136517243Y-122857174D01*
X136516095Y-122855456D01*
X136432317Y-122730074D01*
X136411484Y-122679778D01*
X136399933Y-122658169D01*
X136384388Y-122639227D01*
X136365446Y-122623682D01*
X136343835Y-122612131D01*
X136320386Y-122605018D01*
X136296000Y-122602616D01*
X136271613Y-122605018D01*
X136248164Y-122612131D01*
X136226553Y-122623683D01*
X136207611Y-122639228D01*
X136192066Y-122658170D01*
X136180515Y-122679781D01*
X136173402Y-122703230D01*
X136171000Y-122727616D01*
X136171000Y-123088500D01*
X133069000Y-123088500D01*
X133069000Y-122727616D01*
X133066598Y-122703230D01*
X133059485Y-122679781D01*
X133047934Y-122658170D01*
X133032388Y-122639228D01*
X133013446Y-122623682D01*
X132991835Y-122612131D01*
X132968386Y-122605018D01*
X132944000Y-122602616D01*
X132919614Y-122605018D01*
X132896165Y-122612131D01*
X132874554Y-122623682D01*
X132855612Y-122639228D01*
X132840066Y-122658170D01*
X132828516Y-122679778D01*
X132807683Y-122730074D01*
X132723905Y-122855456D01*
X132722757Y-122857174D01*
X132614674Y-122965257D01*
X132614671Y-122965259D01*
X132487574Y-123050183D01*
X132395068Y-123088500D01*
X132346349Y-123108680D01*
X132196431Y-123138500D01*
X132043569Y-123138500D01*
X131893651Y-123108680D01*
X131844932Y-123088500D01*
X131752426Y-123050183D01*
X131625329Y-122965259D01*
X131625326Y-122965257D01*
X131517243Y-122857174D01*
X131516095Y-122855456D01*
X131432317Y-122730074D01*
X131380679Y-122605408D01*
X131373820Y-122588849D01*
X131344000Y-122438931D01*
X131344000Y-122286069D01*
X131373820Y-122136151D01*
X131431299Y-121997384D01*
X131432317Y-121994926D01*
X131517241Y-121867829D01*
X131517243Y-121867826D01*
X131625326Y-121759743D01*
X131648080Y-121744539D01*
X131752426Y-121674817D01*
X131893649Y-121616321D01*
X131893648Y-121616321D01*
X131893651Y-121616320D01*
X132043569Y-121586500D01*
X132196431Y-121586500D01*
X132346349Y-121616320D01*
X132346349Y-121616320D01*
G37*
G36*
X155700591Y-121677085D02*
X155734569Y-121687393D01*
X155765887Y-121704133D01*
X155793339Y-121726661D01*
X155815867Y-121754113D01*
X155832607Y-121785431D01*
X155842915Y-121819409D01*
X155847000Y-121860890D01*
X155847000Y-122462110D01*
X155842915Y-122503591D01*
X155832607Y-122537569D01*
X155815867Y-122568887D01*
X155793339Y-122596339D01*
X155765887Y-122618867D01*
X155734569Y-122635607D01*
X155700591Y-122645915D01*
X155659110Y-122650000D01*
X154982890Y-122650000D01*
X154941409Y-122645915D01*
X154907431Y-122635607D01*
X154876113Y-122618867D01*
X154848661Y-122596339D01*
X154826133Y-122568887D01*
X154809393Y-122537569D01*
X154799085Y-122503591D01*
X154795000Y-122462110D01*
X154795000Y-121860890D01*
X154799085Y-121819409D01*
X154809393Y-121785431D01*
X154826133Y-121754113D01*
X154848661Y-121726661D01*
X154876113Y-121704133D01*
X154907431Y-121687393D01*
X154941409Y-121677085D01*
X154982890Y-121673000D01*
X155659110Y-121673000D01*
X155700591Y-121677085D01*
X155700591Y-121677085D01*
G37*
G36*
X157224591Y-121651085D02*
X157258569Y-121661393D01*
X157289887Y-121678133D01*
X157317339Y-121700661D01*
X157339867Y-121728113D01*
X157356607Y-121759431D01*
X157366915Y-121793409D01*
X157371000Y-121834890D01*
X157371000Y-122436110D01*
X157366915Y-122477591D01*
X157356607Y-122511569D01*
X157339867Y-122542887D01*
X157317339Y-122570339D01*
X157289887Y-122592867D01*
X157258569Y-122609607D01*
X157224591Y-122619915D01*
X157183110Y-122624000D01*
X156506890Y-122624000D01*
X156465409Y-122619915D01*
X156431431Y-122609607D01*
X156400113Y-122592867D01*
X156372661Y-122570339D01*
X156350133Y-122542887D01*
X156333393Y-122511569D01*
X156323085Y-122477591D01*
X156319000Y-122436110D01*
X156319000Y-121834890D01*
X156323085Y-121793409D01*
X156333393Y-121759431D01*
X156350133Y-121728113D01*
X156372661Y-121700661D01*
X156400113Y-121678133D01*
X156431431Y-121661393D01*
X156465409Y-121651085D01*
X156506890Y-121647000D01*
X157183110Y-121647000D01*
X157224591Y-121651085D01*
X157224591Y-121651085D01*
G37*
G36*
X146404000Y-121977200D02*
X144852000Y-121977200D01*
X144852000Y-119475200D01*
X146404000Y-119475200D01*
X146404000Y-121977200D01*
X146404000Y-121977200D01*
G37*
G36*
X150804000Y-121977200D02*
X149252000Y-121977200D01*
X149252000Y-119475200D01*
X150804000Y-119475200D01*
X150804000Y-121977200D01*
X150804000Y-121977200D01*
G37*
G36*
X152398591Y-120991085D02*
X152432569Y-121001393D01*
X152463887Y-121018133D01*
X152491339Y-121040661D01*
X152513867Y-121068113D01*
X152530607Y-121099431D01*
X152540915Y-121133409D01*
X152545000Y-121174890D01*
X152545000Y-121776110D01*
X152540915Y-121817591D01*
X152530607Y-121851569D01*
X152513867Y-121882887D01*
X152491339Y-121910339D01*
X152463887Y-121932867D01*
X152432569Y-121949607D01*
X152398591Y-121959915D01*
X152357110Y-121964000D01*
X151680890Y-121964000D01*
X151639409Y-121959915D01*
X151605431Y-121949607D01*
X151574113Y-121932867D01*
X151546661Y-121910339D01*
X151524133Y-121882887D01*
X151507393Y-121851569D01*
X151497085Y-121817591D01*
X151493000Y-121776110D01*
X151493000Y-121174890D01*
X151497085Y-121133409D01*
X151507393Y-121099431D01*
X151524133Y-121068113D01*
X151546661Y-121040661D01*
X151574113Y-121018133D01*
X151605431Y-121001393D01*
X151639409Y-120991085D01*
X151680890Y-120987000D01*
X152357110Y-120987000D01*
X152398591Y-120991085D01*
X152398591Y-120991085D01*
G37*
G36*
X155700591Y-120102085D02*
X155734569Y-120112393D01*
X155765887Y-120129133D01*
X155793339Y-120151661D01*
X155815867Y-120179113D01*
X155832607Y-120210431D01*
X155842915Y-120244409D01*
X155847000Y-120285890D01*
X155847000Y-120887110D01*
X155842915Y-120928591D01*
X155832607Y-120962569D01*
X155815867Y-120993887D01*
X155793339Y-121021339D01*
X155765887Y-121043867D01*
X155734569Y-121060607D01*
X155700591Y-121070915D01*
X155659110Y-121075000D01*
X154982890Y-121075000D01*
X154941409Y-121070915D01*
X154907431Y-121060607D01*
X154876113Y-121043867D01*
X154848661Y-121021339D01*
X154826133Y-120993887D01*
X154809393Y-120962569D01*
X154799085Y-120928591D01*
X154795000Y-120887110D01*
X154795000Y-120285890D01*
X154799085Y-120244409D01*
X154809393Y-120210431D01*
X154826133Y-120179113D01*
X154848661Y-120151661D01*
X154876113Y-120129133D01*
X154907431Y-120112393D01*
X154941409Y-120102085D01*
X154982890Y-120098000D01*
X155659110Y-120098000D01*
X155700591Y-120102085D01*
X155700591Y-120102085D01*
G37*
G36*
X157224591Y-120076085D02*
X157258569Y-120086393D01*
X157289887Y-120103133D01*
X157317339Y-120125661D01*
X157339867Y-120153113D01*
X157356607Y-120184431D01*
X157366915Y-120218409D01*
X157371000Y-120259890D01*
X157371000Y-120861110D01*
X157366915Y-120902591D01*
X157356607Y-120936569D01*
X157339867Y-120967887D01*
X157317339Y-120995339D01*
X157289887Y-121017867D01*
X157258569Y-121034607D01*
X157224591Y-121044915D01*
X157183110Y-121049000D01*
X156506890Y-121049000D01*
X156465409Y-121044915D01*
X156431431Y-121034607D01*
X156400113Y-121017867D01*
X156372661Y-120995339D01*
X156350133Y-120967887D01*
X156333393Y-120936569D01*
X156323085Y-120902591D01*
X156319000Y-120861110D01*
X156319000Y-120259890D01*
X156323085Y-120218409D01*
X156333393Y-120184431D01*
X156350133Y-120153113D01*
X156372661Y-120125661D01*
X156400113Y-120103133D01*
X156431431Y-120086393D01*
X156465409Y-120076085D01*
X156506890Y-120072000D01*
X157183110Y-120072000D01*
X157224591Y-120076085D01*
X157224591Y-120076085D01*
G37*
G36*
X142454891Y-119467685D02*
X142488869Y-119477993D01*
X142520187Y-119494733D01*
X142547639Y-119517261D01*
X142570167Y-119544713D01*
X142586907Y-119576031D01*
X142597215Y-119610009D01*
X142601300Y-119651490D01*
X142601300Y-120327710D01*
X142597215Y-120369191D01*
X142586907Y-120403169D01*
X142570167Y-120434487D01*
X142547639Y-120461939D01*
X142520187Y-120484467D01*
X142488869Y-120501207D01*
X142454891Y-120511515D01*
X142413410Y-120515600D01*
X141812190Y-120515600D01*
X141770709Y-120511515D01*
X141736731Y-120501207D01*
X141705413Y-120484467D01*
X141677961Y-120461939D01*
X141655433Y-120434487D01*
X141638693Y-120403169D01*
X141628385Y-120369191D01*
X141624300Y-120327710D01*
X141624300Y-119651490D01*
X141628385Y-119610009D01*
X141638693Y-119576031D01*
X141655433Y-119544713D01*
X141677961Y-119517261D01*
X141705413Y-119494733D01*
X141736731Y-119477993D01*
X141770709Y-119467685D01*
X141812190Y-119463600D01*
X142413410Y-119463600D01*
X142454891Y-119467685D01*
X142454891Y-119467685D01*
G37*
G36*
X144029891Y-119467685D02*
X144063869Y-119477993D01*
X144095187Y-119494733D01*
X144122639Y-119517261D01*
X144145167Y-119544713D01*
X144161907Y-119576031D01*
X144172215Y-119610009D01*
X144176300Y-119651490D01*
X144176300Y-120327710D01*
X144172215Y-120369191D01*
X144161907Y-120403169D01*
X144145167Y-120434487D01*
X144122639Y-120461939D01*
X144095187Y-120484467D01*
X144063869Y-120501207D01*
X144029891Y-120511515D01*
X143988410Y-120515600D01*
X143387190Y-120515600D01*
X143345709Y-120511515D01*
X143311731Y-120501207D01*
X143280413Y-120484467D01*
X143252961Y-120461939D01*
X143230433Y-120434487D01*
X143213693Y-120403169D01*
X143203385Y-120369191D01*
X143199300Y-120327710D01*
X143199300Y-119651490D01*
X143203385Y-119610009D01*
X143213693Y-119576031D01*
X143230433Y-119544713D01*
X143252961Y-119517261D01*
X143280413Y-119494733D01*
X143311731Y-119477993D01*
X143345709Y-119467685D01*
X143387190Y-119463600D01*
X143988410Y-119463600D01*
X144029891Y-119467685D01*
X144029891Y-119467685D01*
G37*
G36*
X132671938Y-119773716D02*
X132692556Y-119779970D01*
X132711556Y-119790126D01*
X132728208Y-119803792D01*
X132741874Y-119820444D01*
X132752030Y-119839444D01*
X132758284Y-119860062D01*
X132761000Y-119887640D01*
X132761000Y-120396360D01*
X132758284Y-120423938D01*
X132752030Y-120444556D01*
X132741874Y-120463556D01*
X132728208Y-120480208D01*
X132711556Y-120493874D01*
X132692556Y-120504030D01*
X132671938Y-120510284D01*
X132644360Y-120513000D01*
X132185640Y-120513000D01*
X132158062Y-120510284D01*
X132137444Y-120504030D01*
X132118444Y-120493874D01*
X132101792Y-120480208D01*
X132088126Y-120463556D01*
X132077970Y-120444556D01*
X132071716Y-120423938D01*
X132069000Y-120396360D01*
X132069000Y-119887640D01*
X132071716Y-119860062D01*
X132077970Y-119839444D01*
X132088126Y-119820444D01*
X132101792Y-119803792D01*
X132118444Y-119790126D01*
X132137444Y-119779970D01*
X132158062Y-119773716D01*
X132185640Y-119771000D01*
X132644360Y-119771000D01*
X132671938Y-119773716D01*
X132671938Y-119773716D01*
G37*
G36*
X131701938Y-119773716D02*
X131722556Y-119779970D01*
X131741556Y-119790126D01*
X131758208Y-119803792D01*
X131771874Y-119820444D01*
X131782030Y-119839444D01*
X131788284Y-119860062D01*
X131791000Y-119887640D01*
X131791000Y-120396360D01*
X131788284Y-120423938D01*
X131782030Y-120444556D01*
X131771874Y-120463556D01*
X131758208Y-120480208D01*
X131741556Y-120493874D01*
X131722556Y-120504030D01*
X131701938Y-120510284D01*
X131674360Y-120513000D01*
X131215640Y-120513000D01*
X131188062Y-120510284D01*
X131167444Y-120504030D01*
X131148444Y-120493874D01*
X131131792Y-120480208D01*
X131118126Y-120463556D01*
X131107970Y-120444556D01*
X131101716Y-120423938D01*
X131099000Y-120396360D01*
X131099000Y-119887640D01*
X131101716Y-119860062D01*
X131107970Y-119839444D01*
X131118126Y-119820444D01*
X131131792Y-119803792D01*
X131148444Y-119790126D01*
X131167444Y-119779970D01*
X131188062Y-119773716D01*
X131215640Y-119771000D01*
X131674360Y-119771000D01*
X131701938Y-119773716D01*
X131701938Y-119773716D01*
G37*
G36*
X151919938Y-119608216D02*
X151940556Y-119614470D01*
X151959556Y-119624626D01*
X151976208Y-119638292D01*
X151989874Y-119654944D01*
X152000030Y-119673944D01*
X152006284Y-119694562D01*
X152009000Y-119722140D01*
X152009000Y-120180860D01*
X152006284Y-120208438D01*
X152000030Y-120229056D01*
X151989874Y-120248056D01*
X151976208Y-120264708D01*
X151959556Y-120278374D01*
X151940556Y-120288530D01*
X151919938Y-120294784D01*
X151892360Y-120297500D01*
X151383640Y-120297500D01*
X151356062Y-120294784D01*
X151335444Y-120288530D01*
X151316444Y-120278374D01*
X151299792Y-120264708D01*
X151286126Y-120248056D01*
X151275970Y-120229056D01*
X151269716Y-120208438D01*
X151267000Y-120180860D01*
X151267000Y-119722140D01*
X151269716Y-119694562D01*
X151275970Y-119673944D01*
X151286126Y-119654944D01*
X151299792Y-119638292D01*
X151316444Y-119624626D01*
X151335444Y-119614470D01*
X151356062Y-119608216D01*
X151383640Y-119605500D01*
X151892360Y-119605500D01*
X151919938Y-119608216D01*
X151919938Y-119608216D01*
G37*
G36*
X163951000Y-120151000D02*
X162149000Y-120151000D01*
X162149000Y-118349000D01*
X163951000Y-118349000D01*
X163951000Y-120151000D01*
X163951000Y-120151000D01*
G37*
G36*
X125851000Y-120151000D02*
X124049000Y-120151000D01*
X124049000Y-118349000D01*
X125851000Y-118349000D01*
X125851000Y-120151000D01*
X125851000Y-120151000D01*
G37*
G36*
X155827591Y-118629085D02*
X155861569Y-118639393D01*
X155892887Y-118656133D01*
X155920339Y-118678661D01*
X155942867Y-118706113D01*
X155959607Y-118737431D01*
X155969915Y-118771409D01*
X155974000Y-118812890D01*
X155974000Y-119414110D01*
X155969915Y-119455591D01*
X155959607Y-119489569D01*
X155942867Y-119520887D01*
X155920339Y-119548339D01*
X155892887Y-119570867D01*
X155861569Y-119587607D01*
X155827591Y-119597915D01*
X155786110Y-119602000D01*
X155109890Y-119602000D01*
X155068409Y-119597915D01*
X155034431Y-119587607D01*
X155003113Y-119570867D01*
X154975661Y-119548339D01*
X154953133Y-119520887D01*
X154936393Y-119489569D01*
X154926085Y-119455591D01*
X154922000Y-119414110D01*
X154922000Y-118812890D01*
X154926085Y-118771409D01*
X154936393Y-118737431D01*
X154953133Y-118706113D01*
X154975661Y-118678661D01*
X155003113Y-118656133D01*
X155034431Y-118639393D01*
X155068409Y-118629085D01*
X155109890Y-118625000D01*
X155786110Y-118625000D01*
X155827591Y-118629085D01*
X155827591Y-118629085D01*
G37*
G36*
X130516591Y-118414085D02*
X130550569Y-118424393D01*
X130581887Y-118441133D01*
X130609339Y-118463661D01*
X130631867Y-118491113D01*
X130648607Y-118522431D01*
X130658915Y-118556409D01*
X130663000Y-118597890D01*
X130663000Y-119274110D01*
X130658915Y-119315591D01*
X130648607Y-119349569D01*
X130631867Y-119380887D01*
X130609339Y-119408339D01*
X130581887Y-119430867D01*
X130550569Y-119447607D01*
X130516591Y-119457915D01*
X130475110Y-119462000D01*
X129873890Y-119462000D01*
X129832409Y-119457915D01*
X129798431Y-119447607D01*
X129767113Y-119430867D01*
X129739661Y-119408339D01*
X129717133Y-119380887D01*
X129700393Y-119349569D01*
X129690085Y-119315591D01*
X129686000Y-119274110D01*
X129686000Y-118597890D01*
X129690085Y-118556409D01*
X129700393Y-118522431D01*
X129717133Y-118491113D01*
X129739661Y-118463661D01*
X129767113Y-118441133D01*
X129798431Y-118424393D01*
X129832409Y-118414085D01*
X129873890Y-118410000D01*
X130475110Y-118410000D01*
X130516591Y-118414085D01*
X130516591Y-118414085D01*
G37*
G36*
X132091591Y-118414085D02*
X132125569Y-118424393D01*
X132156887Y-118441133D01*
X132184339Y-118463661D01*
X132206867Y-118491113D01*
X132223607Y-118522431D01*
X132233915Y-118556409D01*
X132238000Y-118597890D01*
X132238000Y-119274110D01*
X132233915Y-119315591D01*
X132223607Y-119349569D01*
X132206867Y-119380887D01*
X132184339Y-119408339D01*
X132156887Y-119430867D01*
X132125569Y-119447607D01*
X132091591Y-119457915D01*
X132050110Y-119462000D01*
X131448890Y-119462000D01*
X131407409Y-119457915D01*
X131373431Y-119447607D01*
X131342113Y-119430867D01*
X131314661Y-119408339D01*
X131292133Y-119380887D01*
X131275393Y-119349569D01*
X131265085Y-119315591D01*
X131261000Y-119274110D01*
X131261000Y-118597890D01*
X131265085Y-118556409D01*
X131275393Y-118522431D01*
X131292133Y-118491113D01*
X131314661Y-118463661D01*
X131342113Y-118441133D01*
X131373431Y-118424393D01*
X131407409Y-118414085D01*
X131448890Y-118410000D01*
X132050110Y-118410000D01*
X132091591Y-118414085D01*
X132091591Y-118414085D01*
G37*
G36*
X133983591Y-118477085D02*
X134017569Y-118487393D01*
X134048887Y-118504133D01*
X134076339Y-118526661D01*
X134098867Y-118554113D01*
X134115607Y-118585431D01*
X134125915Y-118619409D01*
X134130000Y-118660890D01*
X134130000Y-119262110D01*
X134125915Y-119303591D01*
X134115607Y-119337569D01*
X134098867Y-119368887D01*
X134076339Y-119396339D01*
X134048887Y-119418867D01*
X134017569Y-119435607D01*
X133983591Y-119445915D01*
X133942110Y-119450000D01*
X133265890Y-119450000D01*
X133224409Y-119445915D01*
X133190431Y-119435607D01*
X133159113Y-119418867D01*
X133131661Y-119396339D01*
X133109133Y-119368887D01*
X133092393Y-119337569D01*
X133082085Y-119303591D01*
X133078000Y-119262110D01*
X133078000Y-118660890D01*
X133082085Y-118619409D01*
X133092393Y-118585431D01*
X133109133Y-118554113D01*
X133131661Y-118526661D01*
X133159113Y-118504133D01*
X133190431Y-118487393D01*
X133224409Y-118477085D01*
X133265890Y-118473000D01*
X133942110Y-118473000D01*
X133983591Y-118477085D01*
X133983591Y-118477085D01*
G37*
G36*
X135443591Y-118477085D02*
X135477569Y-118487393D01*
X135508887Y-118504133D01*
X135536339Y-118526661D01*
X135558867Y-118554113D01*
X135575607Y-118585431D01*
X135585915Y-118619409D01*
X135590000Y-118660890D01*
X135590000Y-119262110D01*
X135585915Y-119303591D01*
X135575607Y-119337569D01*
X135558867Y-119368887D01*
X135536339Y-119396339D01*
X135508887Y-119418867D01*
X135477569Y-119435607D01*
X135443591Y-119445915D01*
X135402110Y-119450000D01*
X134725890Y-119450000D01*
X134684409Y-119445915D01*
X134650431Y-119435607D01*
X134619113Y-119418867D01*
X134591661Y-119396339D01*
X134569133Y-119368887D01*
X134552393Y-119337569D01*
X134542085Y-119303591D01*
X134538000Y-119262110D01*
X134538000Y-118660890D01*
X134542085Y-118619409D01*
X134552393Y-118585431D01*
X134569133Y-118554113D01*
X134591661Y-118526661D01*
X134619113Y-118504133D01*
X134650431Y-118487393D01*
X134684409Y-118477085D01*
X134725890Y-118473000D01*
X135402110Y-118473000D01*
X135443591Y-118477085D01*
X135443591Y-118477085D01*
G37*
G36*
X136967591Y-118451085D02*
X137001569Y-118461393D01*
X137032887Y-118478133D01*
X137060339Y-118500661D01*
X137082867Y-118528113D01*
X137099607Y-118559431D01*
X137109915Y-118593409D01*
X137114000Y-118634890D01*
X137114000Y-119236110D01*
X137109915Y-119277591D01*
X137099607Y-119311569D01*
X137082867Y-119342887D01*
X137060339Y-119370339D01*
X137032887Y-119392867D01*
X137001569Y-119409607D01*
X136967591Y-119419915D01*
X136926110Y-119424000D01*
X136249890Y-119424000D01*
X136208409Y-119419915D01*
X136174431Y-119409607D01*
X136143113Y-119392867D01*
X136115661Y-119370339D01*
X136093133Y-119342887D01*
X136076393Y-119311569D01*
X136066085Y-119277591D01*
X136062000Y-119236110D01*
X136062000Y-118634890D01*
X136066085Y-118593409D01*
X136076393Y-118559431D01*
X136093133Y-118528113D01*
X136115661Y-118500661D01*
X136143113Y-118478133D01*
X136174431Y-118461393D01*
X136208409Y-118451085D01*
X136249890Y-118447000D01*
X136926110Y-118447000D01*
X136967591Y-118451085D01*
X136967591Y-118451085D01*
G37*
G36*
X138428591Y-118439085D02*
X138462569Y-118449393D01*
X138493887Y-118466133D01*
X138521339Y-118488661D01*
X138543867Y-118516113D01*
X138560607Y-118547431D01*
X138570915Y-118581409D01*
X138575000Y-118622890D01*
X138575000Y-119224110D01*
X138570915Y-119265591D01*
X138560607Y-119299569D01*
X138543867Y-119330887D01*
X138521339Y-119358339D01*
X138493887Y-119380867D01*
X138462569Y-119397607D01*
X138428591Y-119407915D01*
X138387110Y-119412000D01*
X137710890Y-119412000D01*
X137669409Y-119407915D01*
X137635431Y-119397607D01*
X137604113Y-119380867D01*
X137576661Y-119358339D01*
X137554133Y-119330887D01*
X137537393Y-119299569D01*
X137527085Y-119265591D01*
X137523000Y-119224110D01*
X137523000Y-118622890D01*
X137527085Y-118581409D01*
X137537393Y-118547431D01*
X137554133Y-118516113D01*
X137576661Y-118488661D01*
X137604113Y-118466133D01*
X137635431Y-118449393D01*
X137669409Y-118439085D01*
X137710890Y-118435000D01*
X138387110Y-118435000D01*
X138428591Y-118439085D01*
X138428591Y-118439085D01*
G37*
G36*
X159187000Y-119329000D02*
X158435000Y-119329000D01*
X158435000Y-117527000D01*
X159187000Y-117527000D01*
X159187000Y-119329000D01*
X159187000Y-119329000D01*
G37*
G36*
X157287000Y-119329000D02*
X156535000Y-119329000D01*
X156535000Y-117527000D01*
X157287000Y-117527000D01*
X157287000Y-119329000D01*
X157287000Y-119329000D01*
G37*
G36*
X151919938Y-118638216D02*
X151940556Y-118644470D01*
X151959556Y-118654626D01*
X151976208Y-118668292D01*
X151989874Y-118684944D01*
X152000030Y-118703944D01*
X152006284Y-118724562D01*
X152009000Y-118752140D01*
X152009000Y-119210860D01*
X152006284Y-119238438D01*
X152000030Y-119259056D01*
X151989874Y-119278056D01*
X151976208Y-119294708D01*
X151959556Y-119308374D01*
X151940556Y-119318530D01*
X151919938Y-119324784D01*
X151892360Y-119327500D01*
X151383640Y-119327500D01*
X151356062Y-119324784D01*
X151335444Y-119318530D01*
X151316444Y-119308374D01*
X151299792Y-119294708D01*
X151286126Y-119278056D01*
X151275970Y-119259056D01*
X151269716Y-119238438D01*
X151267000Y-119210860D01*
X151267000Y-118752140D01*
X151269716Y-118724562D01*
X151275970Y-118703944D01*
X151286126Y-118684944D01*
X151299792Y-118668292D01*
X151316444Y-118654626D01*
X151335444Y-118644470D01*
X151356062Y-118638216D01*
X151383640Y-118635500D01*
X151892360Y-118635500D01*
X151919938Y-118638216D01*
X151919938Y-118638216D01*
G37*
G36*
X146547000Y-118228000D02*
X145045000Y-118228000D01*
X145045000Y-116976000D01*
X146547000Y-116976000D01*
X146547000Y-118228000D01*
X146547000Y-118228000D01*
G37*
G36*
X148747000Y-118228000D02*
X147245000Y-118228000D01*
X147245000Y-116976000D01*
X148747000Y-116976000D01*
X148747000Y-118228000D01*
X148747000Y-118228000D01*
G37*
G36*
X155827591Y-117054085D02*
X155861569Y-117064393D01*
X155892887Y-117081133D01*
X155920339Y-117103661D01*
X155942867Y-117131113D01*
X155959607Y-117162431D01*
X155969915Y-117196409D01*
X155974000Y-117237890D01*
X155974000Y-117839110D01*
X155969915Y-117880591D01*
X155959607Y-117914569D01*
X155942867Y-117945887D01*
X155920339Y-117973339D01*
X155892887Y-117995867D01*
X155861569Y-118012607D01*
X155827591Y-118022915D01*
X155786110Y-118027000D01*
X155109890Y-118027000D01*
X155068409Y-118022915D01*
X155034431Y-118012607D01*
X155003113Y-117995867D01*
X154975661Y-117973339D01*
X154953133Y-117945887D01*
X154936393Y-117914569D01*
X154926085Y-117880591D01*
X154922000Y-117839110D01*
X154922000Y-117237890D01*
X154926085Y-117196409D01*
X154936393Y-117162431D01*
X154953133Y-117131113D01*
X154975661Y-117103661D01*
X155003113Y-117081133D01*
X155034431Y-117064393D01*
X155068409Y-117054085D01*
X155109890Y-117050000D01*
X155786110Y-117050000D01*
X155827591Y-117054085D01*
X155827591Y-117054085D01*
G37*
G36*
X130640466Y-116474565D02*
X130679137Y-116486296D01*
X130714779Y-116505348D01*
X130746017Y-116530983D01*
X130771652Y-116562221D01*
X130790704Y-116597863D01*
X130802435Y-116636534D01*
X130807000Y-116682888D01*
X130807000Y-117759112D01*
X130802435Y-117805466D01*
X130790704Y-117844137D01*
X130771652Y-117879779D01*
X130746017Y-117911017D01*
X130714779Y-117936652D01*
X130679137Y-117955704D01*
X130640466Y-117967435D01*
X130594112Y-117972000D01*
X129942888Y-117972000D01*
X129896534Y-117967435D01*
X129857863Y-117955704D01*
X129822221Y-117936652D01*
X129790983Y-117911017D01*
X129765348Y-117879779D01*
X129746296Y-117844137D01*
X129734565Y-117805466D01*
X129730000Y-117759112D01*
X129730000Y-116682888D01*
X129734565Y-116636534D01*
X129746296Y-116597863D01*
X129765348Y-116562221D01*
X129790983Y-116530983D01*
X129822221Y-116505348D01*
X129857863Y-116486296D01*
X129896534Y-116474565D01*
X129942888Y-116470000D01*
X130594112Y-116470000D01*
X130640466Y-116474565D01*
X130640466Y-116474565D01*
G37*
G36*
X132515466Y-116474565D02*
X132554137Y-116486296D01*
X132589779Y-116505348D01*
X132621017Y-116530983D01*
X132646652Y-116562221D01*
X132665704Y-116597863D01*
X132677435Y-116636534D01*
X132682000Y-116682888D01*
X132682000Y-117759112D01*
X132677435Y-117805466D01*
X132665704Y-117844137D01*
X132646652Y-117879779D01*
X132621017Y-117911017D01*
X132589779Y-117936652D01*
X132554137Y-117955704D01*
X132515466Y-117967435D01*
X132469112Y-117972000D01*
X131817888Y-117972000D01*
X131771534Y-117967435D01*
X131732863Y-117955704D01*
X131697221Y-117936652D01*
X131665983Y-117911017D01*
X131640348Y-117879779D01*
X131621296Y-117844137D01*
X131609565Y-117805466D01*
X131605000Y-117759112D01*
X131605000Y-116682888D01*
X131609565Y-116636534D01*
X131621296Y-116597863D01*
X131640348Y-116562221D01*
X131665983Y-116530983D01*
X131697221Y-116505348D01*
X131732863Y-116486296D01*
X131771534Y-116474565D01*
X131817888Y-116470000D01*
X132469112Y-116470000D01*
X132515466Y-116474565D01*
X132515466Y-116474565D01*
G37*
G36*
X133983591Y-116902085D02*
X134017569Y-116912393D01*
X134048887Y-116929133D01*
X134076339Y-116951661D01*
X134098867Y-116979113D01*
X134115607Y-117010431D01*
X134125915Y-117044409D01*
X134130000Y-117085890D01*
X134130000Y-117687110D01*
X134125915Y-117728591D01*
X134115607Y-117762569D01*
X134098867Y-117793887D01*
X134076339Y-117821339D01*
X134048887Y-117843867D01*
X134017569Y-117860607D01*
X133983591Y-117870915D01*
X133942110Y-117875000D01*
X133265890Y-117875000D01*
X133224409Y-117870915D01*
X133190431Y-117860607D01*
X133159113Y-117843867D01*
X133131661Y-117821339D01*
X133109133Y-117793887D01*
X133092393Y-117762569D01*
X133082085Y-117728591D01*
X133078000Y-117687110D01*
X133078000Y-117085890D01*
X133082085Y-117044409D01*
X133092393Y-117010431D01*
X133109133Y-116979113D01*
X133131661Y-116951661D01*
X133159113Y-116929133D01*
X133190431Y-116912393D01*
X133224409Y-116902085D01*
X133265890Y-116898000D01*
X133942110Y-116898000D01*
X133983591Y-116902085D01*
X133983591Y-116902085D01*
G37*
G36*
X135443591Y-116902085D02*
X135477569Y-116912393D01*
X135508887Y-116929133D01*
X135536339Y-116951661D01*
X135558867Y-116979113D01*
X135575607Y-117010431D01*
X135585915Y-117044409D01*
X135590000Y-117085890D01*
X135590000Y-117687110D01*
X135585915Y-117728591D01*
X135575607Y-117762569D01*
X135558867Y-117793887D01*
X135536339Y-117821339D01*
X135508887Y-117843867D01*
X135477569Y-117860607D01*
X135443591Y-117870915D01*
X135402110Y-117875000D01*
X134725890Y-117875000D01*
X134684409Y-117870915D01*
X134650431Y-117860607D01*
X134619113Y-117843867D01*
X134591661Y-117821339D01*
X134569133Y-117793887D01*
X134552393Y-117762569D01*
X134542085Y-117728591D01*
X134538000Y-117687110D01*
X134538000Y-117085890D01*
X134542085Y-117044409D01*
X134552393Y-117010431D01*
X134569133Y-116979113D01*
X134591661Y-116951661D01*
X134619113Y-116929133D01*
X134650431Y-116912393D01*
X134684409Y-116902085D01*
X134725890Y-116898000D01*
X135402110Y-116898000D01*
X135443591Y-116902085D01*
X135443591Y-116902085D01*
G37*
G36*
X136967591Y-116876085D02*
X137001569Y-116886393D01*
X137032887Y-116903133D01*
X137060339Y-116925661D01*
X137082867Y-116953113D01*
X137099607Y-116984431D01*
X137109915Y-117018409D01*
X137114000Y-117059890D01*
X137114000Y-117661110D01*
X137109915Y-117702591D01*
X137099607Y-117736569D01*
X137082867Y-117767887D01*
X137060339Y-117795339D01*
X137032887Y-117817867D01*
X137001569Y-117834607D01*
X136967591Y-117844915D01*
X136926110Y-117849000D01*
X136249890Y-117849000D01*
X136208409Y-117844915D01*
X136174431Y-117834607D01*
X136143113Y-117817867D01*
X136115661Y-117795339D01*
X136093133Y-117767887D01*
X136076393Y-117736569D01*
X136066085Y-117702591D01*
X136062000Y-117661110D01*
X136062000Y-117059890D01*
X136066085Y-117018409D01*
X136076393Y-116984431D01*
X136093133Y-116953113D01*
X136115661Y-116925661D01*
X136143113Y-116903133D01*
X136174431Y-116886393D01*
X136208409Y-116876085D01*
X136249890Y-116872000D01*
X136926110Y-116872000D01*
X136967591Y-116876085D01*
X136967591Y-116876085D01*
G37*
G36*
X138428591Y-116864085D02*
X138462569Y-116874393D01*
X138493887Y-116891133D01*
X138521339Y-116913661D01*
X138543867Y-116941113D01*
X138560607Y-116972431D01*
X138570915Y-117006409D01*
X138575000Y-117047890D01*
X138575000Y-117649110D01*
X138570915Y-117690591D01*
X138560607Y-117724569D01*
X138543867Y-117755887D01*
X138521339Y-117783339D01*
X138493887Y-117805867D01*
X138462569Y-117822607D01*
X138428591Y-117832915D01*
X138387110Y-117837000D01*
X137710890Y-117837000D01*
X137669409Y-117832915D01*
X137635431Y-117822607D01*
X137604113Y-117805867D01*
X137576661Y-117783339D01*
X137554133Y-117755887D01*
X137537393Y-117724569D01*
X137527085Y-117690591D01*
X137523000Y-117649110D01*
X137523000Y-117047890D01*
X137527085Y-117006409D01*
X137537393Y-116972431D01*
X137554133Y-116941113D01*
X137576661Y-116913661D01*
X137604113Y-116891133D01*
X137635431Y-116874393D01*
X137669409Y-116864085D01*
X137710890Y-116860000D01*
X138387110Y-116860000D01*
X138428591Y-116864085D01*
X138428591Y-116864085D01*
G37*
G36*
X163160442Y-115815518D02*
X163226627Y-115822037D01*
X163339853Y-115856384D01*
X163396467Y-115873557D01*
X163493816Y-115925592D01*
X163552991Y-115957222D01*
X163588729Y-115986552D01*
X163690186Y-116069814D01*
X163773448Y-116171271D01*
X163802778Y-116207009D01*
X163802779Y-116207011D01*
X163886443Y-116363533D01*
X163886443Y-116363534D01*
X163937963Y-116533373D01*
X163955359Y-116710000D01*
X163937963Y-116886627D01*
X163903616Y-116999853D01*
X163886443Y-117056467D01*
X163829803Y-117162431D01*
X163802778Y-117212991D01*
X163782344Y-117237890D01*
X163690186Y-117350186D01*
X163588729Y-117433448D01*
X163552991Y-117462778D01*
X163552989Y-117462779D01*
X163396467Y-117546443D01*
X163339853Y-117563616D01*
X163226627Y-117597963D01*
X163160442Y-117604482D01*
X163094260Y-117611000D01*
X163005740Y-117611000D01*
X162939558Y-117604482D01*
X162873373Y-117597963D01*
X162760147Y-117563616D01*
X162703533Y-117546443D01*
X162547011Y-117462779D01*
X162547009Y-117462778D01*
X162511271Y-117433448D01*
X162409814Y-117350186D01*
X162317656Y-117237890D01*
X162297222Y-117212991D01*
X162270197Y-117162431D01*
X162213557Y-117056467D01*
X162196384Y-116999853D01*
X162162037Y-116886627D01*
X162144641Y-116710000D01*
X162162037Y-116533373D01*
X162213557Y-116363534D01*
X162213557Y-116363533D01*
X162297221Y-116207011D01*
X162297222Y-116207009D01*
X162326552Y-116171271D01*
X162409814Y-116069814D01*
X162511271Y-115986552D01*
X162547009Y-115957222D01*
X162606184Y-115925592D01*
X162703533Y-115873557D01*
X162760147Y-115856384D01*
X162873373Y-115822037D01*
X162939558Y-115815518D01*
X163005740Y-115809000D01*
X163094260Y-115809000D01*
X163160442Y-115815518D01*
X163160442Y-115815518D01*
G37*
G36*
X125060442Y-115815518D02*
X125126627Y-115822037D01*
X125239853Y-115856384D01*
X125296467Y-115873557D01*
X125393816Y-115925592D01*
X125452991Y-115957222D01*
X125488729Y-115986552D01*
X125590186Y-116069814D01*
X125673448Y-116171271D01*
X125702778Y-116207009D01*
X125702779Y-116207011D01*
X125786443Y-116363533D01*
X125786443Y-116363534D01*
X125837963Y-116533373D01*
X125855359Y-116710000D01*
X125837963Y-116886627D01*
X125803616Y-116999853D01*
X125786443Y-117056467D01*
X125729803Y-117162431D01*
X125702778Y-117212991D01*
X125682344Y-117237890D01*
X125590186Y-117350186D01*
X125488729Y-117433448D01*
X125452991Y-117462778D01*
X125452989Y-117462779D01*
X125296467Y-117546443D01*
X125239853Y-117563616D01*
X125126627Y-117597963D01*
X125060442Y-117604482D01*
X124994260Y-117611000D01*
X124905740Y-117611000D01*
X124839558Y-117604482D01*
X124773373Y-117597963D01*
X124660147Y-117563616D01*
X124603533Y-117546443D01*
X124447011Y-117462779D01*
X124447009Y-117462778D01*
X124411271Y-117433448D01*
X124309814Y-117350186D01*
X124217656Y-117237890D01*
X124197222Y-117212991D01*
X124170197Y-117162431D01*
X124113557Y-117056467D01*
X124096384Y-116999853D01*
X124062037Y-116886627D01*
X124044641Y-116710000D01*
X124062037Y-116533373D01*
X124113557Y-116363534D01*
X124113557Y-116363533D01*
X124197221Y-116207011D01*
X124197222Y-116207009D01*
X124226552Y-116171271D01*
X124309814Y-116069814D01*
X124411271Y-115986552D01*
X124447009Y-115957222D01*
X124506184Y-115925592D01*
X124603533Y-115873557D01*
X124660147Y-115856384D01*
X124773373Y-115822037D01*
X124839558Y-115815518D01*
X124905740Y-115809000D01*
X124994260Y-115809000D01*
X125060442Y-115815518D01*
X125060442Y-115815518D01*
G37*
G36*
X142673000Y-117327000D02*
X141171000Y-117327000D01*
X141171000Y-116225000D01*
X142673000Y-116225000D01*
X142673000Y-117327000D01*
X142673000Y-117327000D01*
G37*
G36*
X144016591Y-115911085D02*
X144050569Y-115921393D01*
X144081887Y-115938133D01*
X144109339Y-115960661D01*
X144131867Y-115988113D01*
X144148607Y-116019431D01*
X144158915Y-116053409D01*
X144163000Y-116094890D01*
X144163000Y-116696110D01*
X144158915Y-116737591D01*
X144148607Y-116771569D01*
X144131867Y-116802887D01*
X144109339Y-116830339D01*
X144081887Y-116852867D01*
X144050569Y-116869607D01*
X144016591Y-116879915D01*
X143975110Y-116884000D01*
X143298890Y-116884000D01*
X143257409Y-116879915D01*
X143223431Y-116869607D01*
X143192113Y-116852867D01*
X143164661Y-116830339D01*
X143142133Y-116802887D01*
X143125393Y-116771569D01*
X143115085Y-116737591D01*
X143111000Y-116696110D01*
X143111000Y-116094890D01*
X143115085Y-116053409D01*
X143125393Y-116019431D01*
X143142133Y-115988113D01*
X143164661Y-115960661D01*
X143192113Y-115938133D01*
X143223431Y-115921393D01*
X143257409Y-115911085D01*
X143298890Y-115907000D01*
X143975110Y-115907000D01*
X144016591Y-115911085D01*
X144016591Y-115911085D01*
G37*
G36*
X148747000Y-116628000D02*
X147245000Y-116628000D01*
X147245000Y-115376000D01*
X148747000Y-115376000D01*
X148747000Y-116628000D01*
X148747000Y-116628000D01*
G37*
G36*
X146547000Y-116628000D02*
X145045000Y-116628000D01*
X145045000Y-115376000D01*
X146547000Y-115376000D01*
X146547000Y-116628000D01*
X146547000Y-116628000D01*
G37*
G36*
X140473000Y-116377000D02*
X138971000Y-116377000D01*
X138971000Y-115275000D01*
X140473000Y-115275000D01*
X140473000Y-116377000D01*
X140473000Y-116377000D01*
G37*
G36*
X142673000Y-115427000D02*
X141171000Y-115427000D01*
X141171000Y-114325000D01*
X142673000Y-114325000D01*
X142673000Y-115427000D01*
X142673000Y-115427000D01*
G37*
G36*
X132333000Y-115378000D02*
X129731000Y-115378000D01*
X129731000Y-113476000D01*
X132333000Y-113476000D01*
X132333000Y-115378000D01*
X132333000Y-115378000D01*
G37*
G36*
X136333000Y-115378000D02*
X133731000Y-115378000D01*
X133731000Y-113476000D01*
X136333000Y-113476000D01*
X136333000Y-115378000D01*
X136333000Y-115378000D01*
G37*
G36*
X144016591Y-114336085D02*
X144050569Y-114346393D01*
X144081887Y-114363133D01*
X144109339Y-114385661D01*
X144131867Y-114413113D01*
X144148607Y-114444431D01*
X144158915Y-114478409D01*
X144163000Y-114519890D01*
X144163000Y-115121110D01*
X144158915Y-115162591D01*
X144148607Y-115196569D01*
X144131867Y-115227887D01*
X144109339Y-115255339D01*
X144081887Y-115277867D01*
X144050569Y-115294607D01*
X144016591Y-115304915D01*
X143975110Y-115309000D01*
X143298890Y-115309000D01*
X143257409Y-115304915D01*
X143223431Y-115294607D01*
X143192113Y-115277867D01*
X143164661Y-115255339D01*
X143142133Y-115227887D01*
X143125393Y-115196569D01*
X143115085Y-115162591D01*
X143111000Y-115121110D01*
X143111000Y-114519890D01*
X143115085Y-114478409D01*
X143125393Y-114444431D01*
X143142133Y-114413113D01*
X143164661Y-114385661D01*
X143192113Y-114363133D01*
X143223431Y-114346393D01*
X143257409Y-114336085D01*
X143298890Y-114332000D01*
X143975110Y-114332000D01*
X144016591Y-114336085D01*
X144016591Y-114336085D01*
G37*
G36*
X125060443Y-113275519D02*
X125126627Y-113282037D01*
X125239853Y-113316384D01*
X125296467Y-113333557D01*
X125435087Y-113407652D01*
X125452991Y-113417222D01*
X125488729Y-113446552D01*
X125590186Y-113529814D01*
X125673448Y-113631271D01*
X125702778Y-113667009D01*
X125702779Y-113667011D01*
X125786443Y-113823533D01*
X125795282Y-113852671D01*
X125837963Y-113993373D01*
X125855359Y-114170000D01*
X125837963Y-114346627D01*
X125805107Y-114454938D01*
X125786443Y-114516467D01*
X125771726Y-114544000D01*
X125702778Y-114672991D01*
X125673448Y-114708729D01*
X125590186Y-114810186D01*
X125488729Y-114893448D01*
X125452991Y-114922778D01*
X125452989Y-114922779D01*
X125296467Y-115006443D01*
X125239853Y-115023616D01*
X125126627Y-115057963D01*
X125060443Y-115064481D01*
X124994260Y-115071000D01*
X124905740Y-115071000D01*
X124839557Y-115064481D01*
X124773373Y-115057963D01*
X124660147Y-115023616D01*
X124603533Y-115006443D01*
X124447011Y-114922779D01*
X124447009Y-114922778D01*
X124411271Y-114893448D01*
X124309814Y-114810186D01*
X124226552Y-114708729D01*
X124197222Y-114672991D01*
X124128274Y-114544000D01*
X124113557Y-114516467D01*
X124094893Y-114454938D01*
X124062037Y-114346627D01*
X124044641Y-114170000D01*
X124062037Y-113993373D01*
X124104718Y-113852671D01*
X124113557Y-113823533D01*
X124197221Y-113667011D01*
X124197222Y-113667009D01*
X124226552Y-113631271D01*
X124309814Y-113529814D01*
X124411271Y-113446552D01*
X124447009Y-113417222D01*
X124464913Y-113407652D01*
X124603533Y-113333557D01*
X124660147Y-113316384D01*
X124773373Y-113282037D01*
X124839557Y-113275519D01*
X124905740Y-113269000D01*
X124994260Y-113269000D01*
X125060443Y-113275519D01*
X125060443Y-113275519D01*
G37*
G36*
X163160443Y-113275519D02*
X163226627Y-113282037D01*
X163339853Y-113316384D01*
X163396467Y-113333557D01*
X163535087Y-113407652D01*
X163552991Y-113417222D01*
X163588729Y-113446552D01*
X163690186Y-113529814D01*
X163773448Y-113631271D01*
X163802778Y-113667009D01*
X163802779Y-113667011D01*
X163886443Y-113823533D01*
X163895282Y-113852671D01*
X163937963Y-113993373D01*
X163955359Y-114170000D01*
X163937963Y-114346627D01*
X163905107Y-114454938D01*
X163886443Y-114516467D01*
X163871726Y-114544000D01*
X163802778Y-114672991D01*
X163773448Y-114708729D01*
X163690186Y-114810186D01*
X163588729Y-114893448D01*
X163552991Y-114922778D01*
X163552989Y-114922779D01*
X163396467Y-115006443D01*
X163339853Y-115023616D01*
X163226627Y-115057963D01*
X163160443Y-115064481D01*
X163094260Y-115071000D01*
X163005740Y-115071000D01*
X162939557Y-115064481D01*
X162873373Y-115057963D01*
X162760147Y-115023616D01*
X162703533Y-115006443D01*
X162547011Y-114922779D01*
X162547009Y-114922778D01*
X162511271Y-114893448D01*
X162409814Y-114810186D01*
X162326552Y-114708729D01*
X162297222Y-114672991D01*
X162228274Y-114544000D01*
X162213557Y-114516467D01*
X162194893Y-114454938D01*
X162162037Y-114346627D01*
X162144641Y-114170000D01*
X162162037Y-113993373D01*
X162204718Y-113852671D01*
X162213557Y-113823533D01*
X162297221Y-113667011D01*
X162297222Y-113667009D01*
X162326552Y-113631271D01*
X162409814Y-113529814D01*
X162511271Y-113446552D01*
X162547009Y-113417222D01*
X162564913Y-113407652D01*
X162703533Y-113333557D01*
X162760147Y-113316384D01*
X162873373Y-113282037D01*
X162939557Y-113275519D01*
X163005740Y-113269000D01*
X163094260Y-113269000D01*
X163160443Y-113275519D01*
X163160443Y-113275519D01*
G37*
G36*
X145527938Y-114249716D02*
X145548556Y-114255970D01*
X145567556Y-114266126D01*
X145584208Y-114279792D01*
X145597874Y-114296444D01*
X145608030Y-114315444D01*
X145614284Y-114336062D01*
X145617000Y-114363640D01*
X145617000Y-114872360D01*
X145614284Y-114899938D01*
X145608030Y-114920556D01*
X145597874Y-114939556D01*
X145584208Y-114956208D01*
X145567556Y-114969874D01*
X145548556Y-114980030D01*
X145527938Y-114986284D01*
X145500360Y-114989000D01*
X145041640Y-114989000D01*
X145014062Y-114986284D01*
X144993444Y-114980030D01*
X144974444Y-114969874D01*
X144957792Y-114956208D01*
X144944126Y-114939556D01*
X144933970Y-114920556D01*
X144927716Y-114899938D01*
X144925000Y-114872360D01*
X144925000Y-114363640D01*
X144927716Y-114336062D01*
X144933970Y-114315444D01*
X144944126Y-114296444D01*
X144957792Y-114279792D01*
X144974444Y-114266126D01*
X144993444Y-114255970D01*
X145014062Y-114249716D01*
X145041640Y-114247000D01*
X145500360Y-114247000D01*
X145527938Y-114249716D01*
X145527938Y-114249716D01*
G37*
G36*
X146497938Y-114249716D02*
X146518556Y-114255970D01*
X146537556Y-114266126D01*
X146554208Y-114279792D01*
X146567874Y-114296444D01*
X146578030Y-114315444D01*
X146584284Y-114336062D01*
X146587000Y-114363640D01*
X146587000Y-114872360D01*
X146584284Y-114899938D01*
X146578030Y-114920556D01*
X146567874Y-114939556D01*
X146554208Y-114956208D01*
X146537556Y-114969874D01*
X146518556Y-114980030D01*
X146497938Y-114986284D01*
X146470360Y-114989000D01*
X146011640Y-114989000D01*
X145984062Y-114986284D01*
X145963444Y-114980030D01*
X145944444Y-114969874D01*
X145927792Y-114956208D01*
X145914126Y-114939556D01*
X145903970Y-114920556D01*
X145897716Y-114899938D01*
X145895000Y-114872360D01*
X145895000Y-114363640D01*
X145897716Y-114336062D01*
X145903970Y-114315444D01*
X145914126Y-114296444D01*
X145927792Y-114279792D01*
X145944444Y-114266126D01*
X145963444Y-114255970D01*
X145984062Y-114249716D01*
X146011640Y-114247000D01*
X146470360Y-114247000D01*
X146497938Y-114249716D01*
X146497938Y-114249716D01*
G37*
G36*
X148465938Y-114249716D02*
X148486556Y-114255970D01*
X148505556Y-114266126D01*
X148522208Y-114279792D01*
X148535874Y-114296444D01*
X148546030Y-114315444D01*
X148552284Y-114336062D01*
X148555000Y-114363640D01*
X148555000Y-114872360D01*
X148552284Y-114899938D01*
X148546030Y-114920556D01*
X148535874Y-114939556D01*
X148522208Y-114956208D01*
X148505556Y-114969874D01*
X148486556Y-114980030D01*
X148465938Y-114986284D01*
X148438360Y-114989000D01*
X147979640Y-114989000D01*
X147952062Y-114986284D01*
X147931444Y-114980030D01*
X147912444Y-114969874D01*
X147895792Y-114956208D01*
X147882126Y-114939556D01*
X147871970Y-114920556D01*
X147865716Y-114899938D01*
X147863000Y-114872360D01*
X147863000Y-114363640D01*
X147865716Y-114336062D01*
X147871970Y-114315444D01*
X147882126Y-114296444D01*
X147895792Y-114279792D01*
X147912444Y-114266126D01*
X147931444Y-114255970D01*
X147952062Y-114249716D01*
X147979640Y-114247000D01*
X148438360Y-114247000D01*
X148465938Y-114249716D01*
X148465938Y-114249716D01*
G37*
G36*
X147495938Y-114249716D02*
X147516556Y-114255970D01*
X147535556Y-114266126D01*
X147552208Y-114279792D01*
X147565874Y-114296444D01*
X147576030Y-114315444D01*
X147582284Y-114336062D01*
X147585000Y-114363640D01*
X147585000Y-114872360D01*
X147582284Y-114899938D01*
X147576030Y-114920556D01*
X147565874Y-114939556D01*
X147552208Y-114956208D01*
X147535556Y-114969874D01*
X147516556Y-114980030D01*
X147495938Y-114986284D01*
X147468360Y-114989000D01*
X147009640Y-114989000D01*
X146982062Y-114986284D01*
X146961444Y-114980030D01*
X146942444Y-114969874D01*
X146925792Y-114956208D01*
X146912126Y-114939556D01*
X146901970Y-114920556D01*
X146895716Y-114899938D01*
X146893000Y-114872360D01*
X146893000Y-114363640D01*
X146895716Y-114336062D01*
X146901970Y-114315444D01*
X146912126Y-114296444D01*
X146925792Y-114279792D01*
X146942444Y-114266126D01*
X146961444Y-114255970D01*
X146982062Y-114249716D01*
X147009640Y-114247000D01*
X147468360Y-114247000D01*
X147495938Y-114249716D01*
X147495938Y-114249716D01*
G37*
G36*
X156321938Y-113804716D02*
X156342556Y-113810970D01*
X156361556Y-113821126D01*
X156378208Y-113834792D01*
X156391874Y-113851444D01*
X156402030Y-113870444D01*
X156408284Y-113891062D01*
X156411000Y-113918640D01*
X156411000Y-114427360D01*
X156408284Y-114454938D01*
X156402030Y-114475556D01*
X156391874Y-114494556D01*
X156378208Y-114511208D01*
X156361556Y-114524874D01*
X156342556Y-114535030D01*
X156321938Y-114541284D01*
X156294360Y-114544000D01*
X155835640Y-114544000D01*
X155808062Y-114541284D01*
X155787444Y-114535030D01*
X155768444Y-114524874D01*
X155751792Y-114511208D01*
X155738126Y-114494556D01*
X155727970Y-114475556D01*
X155721716Y-114454938D01*
X155719000Y-114427360D01*
X155719000Y-113918640D01*
X155721716Y-113891062D01*
X155727970Y-113870444D01*
X155738126Y-113851444D01*
X155751792Y-113834792D01*
X155768444Y-113821126D01*
X155787444Y-113810970D01*
X155808062Y-113804716D01*
X155835640Y-113802000D01*
X156294360Y-113802000D01*
X156321938Y-113804716D01*
X156321938Y-113804716D01*
G37*
G36*
X157291938Y-113804716D02*
X157312556Y-113810970D01*
X157331556Y-113821126D01*
X157348208Y-113834792D01*
X157361874Y-113851444D01*
X157372030Y-113870444D01*
X157378284Y-113891062D01*
X157381000Y-113918640D01*
X157381000Y-114427360D01*
X157378284Y-114454938D01*
X157372030Y-114475556D01*
X157361874Y-114494556D01*
X157348208Y-114511208D01*
X157331556Y-114524874D01*
X157312556Y-114535030D01*
X157291938Y-114541284D01*
X157264360Y-114544000D01*
X156805640Y-114544000D01*
X156778062Y-114541284D01*
X156757444Y-114535030D01*
X156738444Y-114524874D01*
X156721792Y-114511208D01*
X156708126Y-114494556D01*
X156697970Y-114475556D01*
X156691716Y-114454938D01*
X156689000Y-114427360D01*
X156689000Y-113918640D01*
X156691716Y-113891062D01*
X156697970Y-113870444D01*
X156708126Y-113851444D01*
X156721792Y-113834792D01*
X156738444Y-113821126D01*
X156757444Y-113810970D01*
X156778062Y-113804716D01*
X156805640Y-113802000D01*
X157264360Y-113802000D01*
X157291938Y-113804716D01*
X157291938Y-113804716D01*
G37*
G36*
X155437000Y-113150000D02*
X154275000Y-113150000D01*
X154275000Y-110498000D01*
X155437000Y-110498000D01*
X155437000Y-113150000D01*
X155437000Y-113150000D01*
G37*
G36*
X157637000Y-113150000D02*
X156475000Y-113150000D01*
X156475000Y-112398000D01*
X157637000Y-112398000D01*
X157637000Y-113150000D01*
X157637000Y-113150000D01*
G37*
G36*
X125060443Y-110735519D02*
X125126627Y-110742037D01*
X125226328Y-110772281D01*
X125296467Y-110793557D01*
X125375450Y-110835775D01*
X125452991Y-110877222D01*
X125478309Y-110898000D01*
X125590186Y-110989814D01*
X125673364Y-111091168D01*
X125702778Y-111127009D01*
X125702779Y-111127011D01*
X125786443Y-111283533D01*
X125793207Y-111305832D01*
X125837963Y-111453373D01*
X125855359Y-111630000D01*
X125837963Y-111806627D01*
X125803616Y-111919853D01*
X125786443Y-111976467D01*
X125712348Y-112115087D01*
X125702778Y-112132991D01*
X125673448Y-112168729D01*
X125590186Y-112270186D01*
X125524612Y-112324000D01*
X125452991Y-112382778D01*
X125452989Y-112382779D01*
X125296467Y-112466443D01*
X125239853Y-112483616D01*
X125126627Y-112517963D01*
X125060443Y-112524481D01*
X124994260Y-112531000D01*
X124905740Y-112531000D01*
X124839557Y-112524481D01*
X124773373Y-112517963D01*
X124660147Y-112483616D01*
X124603533Y-112466443D01*
X124447011Y-112382779D01*
X124447009Y-112382778D01*
X124375388Y-112324000D01*
X124309814Y-112270186D01*
X124226552Y-112168729D01*
X124197222Y-112132991D01*
X124187652Y-112115087D01*
X124113557Y-111976467D01*
X124096384Y-111919853D01*
X124062037Y-111806627D01*
X124044641Y-111630000D01*
X124062037Y-111453373D01*
X124106793Y-111305832D01*
X124113557Y-111283533D01*
X124197221Y-111127011D01*
X124197222Y-111127009D01*
X124226636Y-111091168D01*
X124309814Y-110989814D01*
X124421691Y-110898000D01*
X124447009Y-110877222D01*
X124524550Y-110835775D01*
X124603533Y-110793557D01*
X124673672Y-110772281D01*
X124773373Y-110742037D01*
X124839557Y-110735519D01*
X124905740Y-110729000D01*
X124994260Y-110729000D01*
X125060443Y-110735519D01*
X125060443Y-110735519D01*
G37*
G36*
X163160443Y-110735519D02*
X163226627Y-110742037D01*
X163326328Y-110772281D01*
X163396467Y-110793557D01*
X163475450Y-110835775D01*
X163552991Y-110877222D01*
X163578309Y-110898000D01*
X163690186Y-110989814D01*
X163773364Y-111091168D01*
X163802778Y-111127009D01*
X163802779Y-111127011D01*
X163886443Y-111283533D01*
X163893207Y-111305832D01*
X163937963Y-111453373D01*
X163955359Y-111630000D01*
X163937963Y-111806627D01*
X163903616Y-111919853D01*
X163886443Y-111976467D01*
X163812348Y-112115087D01*
X163802778Y-112132991D01*
X163773448Y-112168729D01*
X163690186Y-112270186D01*
X163624612Y-112324000D01*
X163552991Y-112382778D01*
X163552989Y-112382779D01*
X163396467Y-112466443D01*
X163339853Y-112483616D01*
X163226627Y-112517963D01*
X163160443Y-112524481D01*
X163094260Y-112531000D01*
X163005740Y-112531000D01*
X162939557Y-112524481D01*
X162873373Y-112517963D01*
X162760147Y-112483616D01*
X162703533Y-112466443D01*
X162547011Y-112382779D01*
X162547009Y-112382778D01*
X162475388Y-112324000D01*
X162409814Y-112270186D01*
X162326552Y-112168729D01*
X162297222Y-112132991D01*
X162287652Y-112115087D01*
X162213557Y-111976467D01*
X162196384Y-111919853D01*
X162162037Y-111806627D01*
X162144641Y-111630000D01*
X162162037Y-111453373D01*
X162206793Y-111305832D01*
X162213557Y-111283533D01*
X162297221Y-111127011D01*
X162297222Y-111127009D01*
X162326636Y-111091168D01*
X162409814Y-110989814D01*
X162521691Y-110898000D01*
X162547009Y-110877222D01*
X162624550Y-110835775D01*
X162703533Y-110793557D01*
X162773672Y-110772281D01*
X162873373Y-110742037D01*
X162939557Y-110735519D01*
X163005740Y-110729000D01*
X163094260Y-110729000D01*
X163160443Y-110735519D01*
X163160443Y-110735519D01*
G37*
G36*
X144941357Y-104561083D02*
X144946028Y-104562500D01*
X144950330Y-104564800D01*
X144956705Y-104570031D01*
X144977080Y-104583644D01*
X144999719Y-104593020D01*
X145023753Y-104597800D01*
X145048257Y-104597799D01*
X145072291Y-104593017D01*
X145094929Y-104583639D01*
X145115295Y-104570031D01*
X145121670Y-104564800D01*
X145125972Y-104562500D01*
X145130643Y-104561083D01*
X145141641Y-104560000D01*
X145430359Y-104560000D01*
X145441357Y-104561083D01*
X145446028Y-104562500D01*
X145450330Y-104564800D01*
X145456705Y-104570031D01*
X145477080Y-104583644D01*
X145499719Y-104593020D01*
X145523753Y-104597800D01*
X145548257Y-104597799D01*
X145572291Y-104593017D01*
X145594929Y-104583639D01*
X145615295Y-104570031D01*
X145621670Y-104564800D01*
X145625972Y-104562500D01*
X145630643Y-104561083D01*
X145641641Y-104560000D01*
X145930359Y-104560000D01*
X145941357Y-104561083D01*
X145946028Y-104562500D01*
X145950330Y-104564800D01*
X145956705Y-104570031D01*
X145977080Y-104583644D01*
X145999719Y-104593020D01*
X146023753Y-104597800D01*
X146048257Y-104597799D01*
X146072291Y-104593017D01*
X146094929Y-104583639D01*
X146115295Y-104570031D01*
X146121670Y-104564800D01*
X146125972Y-104562500D01*
X146130643Y-104561083D01*
X146141641Y-104560000D01*
X146430359Y-104560000D01*
X146441357Y-104561083D01*
X146446028Y-104562500D01*
X146450330Y-104564800D01*
X146456705Y-104570031D01*
X146477080Y-104583644D01*
X146499719Y-104593020D01*
X146523753Y-104597800D01*
X146548257Y-104597799D01*
X146572291Y-104593017D01*
X146594929Y-104583639D01*
X146615295Y-104570031D01*
X146621670Y-104564800D01*
X146625972Y-104562500D01*
X146630643Y-104561083D01*
X146641641Y-104560000D01*
X146930359Y-104560000D01*
X146941357Y-104561083D01*
X146946028Y-104562500D01*
X146950330Y-104564800D01*
X146956705Y-104570031D01*
X146977080Y-104583644D01*
X146999719Y-104593020D01*
X147023753Y-104597800D01*
X147048257Y-104597799D01*
X147072291Y-104593017D01*
X147094929Y-104583639D01*
X147115295Y-104570031D01*
X147121670Y-104564800D01*
X147125972Y-104562500D01*
X147130643Y-104561083D01*
X147141641Y-104560000D01*
X147430359Y-104560000D01*
X147441357Y-104561083D01*
X147446028Y-104562500D01*
X147450330Y-104564800D01*
X147456705Y-104570031D01*
X147477080Y-104583644D01*
X147499719Y-104593020D01*
X147523753Y-104597800D01*
X147548257Y-104597799D01*
X147572291Y-104593017D01*
X147594929Y-104583639D01*
X147615295Y-104570031D01*
X147621670Y-104564800D01*
X147625972Y-104562500D01*
X147630643Y-104561083D01*
X147641641Y-104560000D01*
X147930359Y-104560000D01*
X147941357Y-104561083D01*
X147946028Y-104562500D01*
X147950330Y-104564800D01*
X147956705Y-104570031D01*
X147977080Y-104583644D01*
X147999719Y-104593020D01*
X148023753Y-104597800D01*
X148048257Y-104597799D01*
X148072291Y-104593017D01*
X148094929Y-104583639D01*
X148115295Y-104570031D01*
X148121670Y-104564800D01*
X148125972Y-104562500D01*
X148130643Y-104561083D01*
X148141641Y-104560000D01*
X148430359Y-104560000D01*
X148441357Y-104561083D01*
X148446028Y-104562500D01*
X148450330Y-104564800D01*
X148456705Y-104570031D01*
X148477080Y-104583644D01*
X148499719Y-104593020D01*
X148523753Y-104597800D01*
X148548257Y-104597799D01*
X148572291Y-104593017D01*
X148594929Y-104583639D01*
X148615295Y-104570031D01*
X148621670Y-104564800D01*
X148625972Y-104562500D01*
X148630643Y-104561083D01*
X148641641Y-104560000D01*
X148930359Y-104560000D01*
X148941357Y-104561083D01*
X148946028Y-104562500D01*
X148950330Y-104564800D01*
X148956705Y-104570031D01*
X148977080Y-104583644D01*
X148999719Y-104593020D01*
X149023753Y-104597800D01*
X149048257Y-104597799D01*
X149072291Y-104593017D01*
X149094929Y-104583639D01*
X149115295Y-104570031D01*
X149121670Y-104564800D01*
X149125972Y-104562500D01*
X149130643Y-104561083D01*
X149141641Y-104560000D01*
X149430359Y-104560000D01*
X149441357Y-104561083D01*
X149446028Y-104562500D01*
X149450330Y-104564800D01*
X149456705Y-104570031D01*
X149477080Y-104583644D01*
X149499719Y-104593020D01*
X149523753Y-104597800D01*
X149548257Y-104597799D01*
X149572291Y-104593017D01*
X149594929Y-104583639D01*
X149615295Y-104570031D01*
X149621670Y-104564800D01*
X149625972Y-104562500D01*
X149630643Y-104561083D01*
X149641641Y-104560000D01*
X149930359Y-104560000D01*
X149941357Y-104561083D01*
X149946028Y-104562500D01*
X149950330Y-104564800D01*
X149954104Y-104567896D01*
X149957200Y-104571670D01*
X149959500Y-104575972D01*
X149960917Y-104580643D01*
X149962000Y-104591641D01*
X149962000Y-105685000D01*
X149964402Y-105709386D01*
X149971515Y-105732835D01*
X149983066Y-105754446D01*
X149998612Y-105773388D01*
X150017554Y-105788934D01*
X150039165Y-105800485D01*
X150062614Y-105807598D01*
X150087000Y-105810000D01*
X151180359Y-105810000D01*
X151191357Y-105811083D01*
X151196028Y-105812500D01*
X151200330Y-105814800D01*
X151204104Y-105817896D01*
X151207200Y-105821670D01*
X151209500Y-105825972D01*
X151210917Y-105830643D01*
X151212000Y-105841641D01*
X151212000Y-106130359D01*
X151210917Y-106141357D01*
X151209500Y-106146028D01*
X151207200Y-106150330D01*
X151201969Y-106156705D01*
X151188356Y-106177080D01*
X151178980Y-106199719D01*
X151174200Y-106223753D01*
X151174201Y-106248257D01*
X151178983Y-106272291D01*
X151188361Y-106294929D01*
X151201969Y-106315295D01*
X151207200Y-106321670D01*
X151209500Y-106325972D01*
X151210917Y-106330643D01*
X151212000Y-106341641D01*
X151212000Y-106630359D01*
X151210917Y-106641357D01*
X151209500Y-106646028D01*
X151207200Y-106650330D01*
X151201969Y-106656705D01*
X151188356Y-106677080D01*
X151178980Y-106699719D01*
X151174200Y-106723753D01*
X151174201Y-106748257D01*
X151178983Y-106772291D01*
X151188361Y-106794929D01*
X151201969Y-106815295D01*
X151207200Y-106821670D01*
X151209500Y-106825972D01*
X151210917Y-106830643D01*
X151212000Y-106841641D01*
X151212000Y-107130359D01*
X151210917Y-107141357D01*
X151209500Y-107146028D01*
X151207200Y-107150330D01*
X151201969Y-107156705D01*
X151188356Y-107177080D01*
X151178980Y-107199719D01*
X151174200Y-107223753D01*
X151174201Y-107248257D01*
X151178983Y-107272291D01*
X151188361Y-107294929D01*
X151201969Y-107315295D01*
X151207200Y-107321670D01*
X151209500Y-107325972D01*
X151210917Y-107330643D01*
X151212000Y-107341641D01*
X151212000Y-107630359D01*
X151210917Y-107641357D01*
X151209500Y-107646028D01*
X151207200Y-107650330D01*
X151201969Y-107656705D01*
X151188356Y-107677080D01*
X151178980Y-107699719D01*
X151174200Y-107723753D01*
X151174201Y-107748257D01*
X151178983Y-107772291D01*
X151188361Y-107794929D01*
X151201969Y-107815295D01*
X151207200Y-107821670D01*
X151209500Y-107825972D01*
X151210917Y-107830643D01*
X151212000Y-107841641D01*
X151212000Y-108130359D01*
X151210917Y-108141357D01*
X151209500Y-108146028D01*
X151207200Y-108150330D01*
X151201969Y-108156705D01*
X151188356Y-108177080D01*
X151178980Y-108199719D01*
X151174200Y-108223753D01*
X151174201Y-108248257D01*
X151178983Y-108272291D01*
X151188361Y-108294929D01*
X151201969Y-108315295D01*
X151207200Y-108321670D01*
X151209500Y-108325972D01*
X151210917Y-108330643D01*
X151212000Y-108341641D01*
X151212000Y-108630359D01*
X151210917Y-108641357D01*
X151209500Y-108646028D01*
X151207200Y-108650330D01*
X151201969Y-108656705D01*
X151188356Y-108677080D01*
X151178980Y-108699719D01*
X151174200Y-108723753D01*
X151174201Y-108748257D01*
X151178983Y-108772291D01*
X151188361Y-108794929D01*
X151201969Y-108815295D01*
X151207200Y-108821670D01*
X151209500Y-108825972D01*
X151210917Y-108830643D01*
X151212000Y-108841641D01*
X151212000Y-109130359D01*
X151210917Y-109141357D01*
X151209500Y-109146028D01*
X151207200Y-109150330D01*
X151201969Y-109156705D01*
X151188356Y-109177080D01*
X151178980Y-109199719D01*
X151174200Y-109223753D01*
X151174201Y-109248257D01*
X151178983Y-109272291D01*
X151188361Y-109294929D01*
X151201969Y-109315295D01*
X151207200Y-109321670D01*
X151209500Y-109325972D01*
X151210917Y-109330643D01*
X151212000Y-109341641D01*
X151212000Y-109630359D01*
X151210917Y-109641357D01*
X151209500Y-109646028D01*
X151207200Y-109650330D01*
X151201969Y-109656705D01*
X151188356Y-109677080D01*
X151178980Y-109699719D01*
X151174200Y-109723753D01*
X151174201Y-109748257D01*
X151178983Y-109772291D01*
X151188361Y-109794929D01*
X151201969Y-109815295D01*
X151207200Y-109821670D01*
X151209500Y-109825972D01*
X151210917Y-109830643D01*
X151212000Y-109841641D01*
X151212000Y-110130359D01*
X151210917Y-110141357D01*
X151209500Y-110146028D01*
X151207200Y-110150330D01*
X151201969Y-110156705D01*
X151188356Y-110177080D01*
X151178980Y-110199719D01*
X151174200Y-110223753D01*
X151174201Y-110248257D01*
X151178983Y-110272291D01*
X151188361Y-110294929D01*
X151201969Y-110315295D01*
X151207200Y-110321670D01*
X151209500Y-110325972D01*
X151210917Y-110330643D01*
X151212000Y-110341641D01*
X151212000Y-110630359D01*
X151210917Y-110641357D01*
X151209500Y-110646028D01*
X151207200Y-110650330D01*
X151201969Y-110656705D01*
X151188356Y-110677080D01*
X151178980Y-110699719D01*
X151174200Y-110723753D01*
X151174201Y-110748257D01*
X151178983Y-110772291D01*
X151188361Y-110794929D01*
X151201969Y-110815295D01*
X151207200Y-110821670D01*
X151209500Y-110825972D01*
X151210917Y-110830643D01*
X151212000Y-110841641D01*
X151212000Y-111130359D01*
X151210917Y-111141357D01*
X151209500Y-111146028D01*
X151207200Y-111150330D01*
X151204104Y-111154104D01*
X151200330Y-111157200D01*
X151196028Y-111159500D01*
X151191357Y-111160917D01*
X151180359Y-111162000D01*
X150087000Y-111162000D01*
X150062614Y-111164402D01*
X150039165Y-111171515D01*
X150017554Y-111183066D01*
X149998612Y-111198612D01*
X149983066Y-111217554D01*
X149971515Y-111239165D01*
X149964402Y-111262614D01*
X149962000Y-111287000D01*
X149962000Y-112380359D01*
X149960917Y-112391357D01*
X149959500Y-112396028D01*
X149957200Y-112400330D01*
X149954104Y-112404104D01*
X149950330Y-112407200D01*
X149946028Y-112409500D01*
X149941357Y-112410917D01*
X149930359Y-112412000D01*
X149641641Y-112412000D01*
X149630643Y-112410917D01*
X149625972Y-112409500D01*
X149621670Y-112407200D01*
X149615295Y-112401969D01*
X149594920Y-112388356D01*
X149572281Y-112378980D01*
X149548247Y-112374200D01*
X149523743Y-112374201D01*
X149499709Y-112378983D01*
X149477071Y-112388361D01*
X149456705Y-112401969D01*
X149450330Y-112407200D01*
X149446028Y-112409500D01*
X149441357Y-112410917D01*
X149430359Y-112412000D01*
X149141641Y-112412000D01*
X149130643Y-112410917D01*
X149125972Y-112409500D01*
X149121670Y-112407200D01*
X149115295Y-112401969D01*
X149094920Y-112388356D01*
X149072281Y-112378980D01*
X149048247Y-112374200D01*
X149023743Y-112374201D01*
X148999709Y-112378983D01*
X148977071Y-112388361D01*
X148956705Y-112401969D01*
X148950330Y-112407200D01*
X148946028Y-112409500D01*
X148941357Y-112410917D01*
X148930359Y-112412000D01*
X148641641Y-112412000D01*
X148630643Y-112410917D01*
X148625972Y-112409500D01*
X148621670Y-112407200D01*
X148615295Y-112401969D01*
X148594920Y-112388356D01*
X148572281Y-112378980D01*
X148548247Y-112374200D01*
X148523743Y-112374201D01*
X148499709Y-112378983D01*
X148477071Y-112388361D01*
X148456705Y-112401969D01*
X148450330Y-112407200D01*
X148446028Y-112409500D01*
X148441357Y-112410917D01*
X148430359Y-112412000D01*
X148141641Y-112412000D01*
X148130643Y-112410917D01*
X148125972Y-112409500D01*
X148121670Y-112407200D01*
X148115295Y-112401969D01*
X148094920Y-112388356D01*
X148072281Y-112378980D01*
X148048247Y-112374200D01*
X148023743Y-112374201D01*
X147999709Y-112378983D01*
X147977071Y-112388361D01*
X147956705Y-112401969D01*
X147950330Y-112407200D01*
X147946028Y-112409500D01*
X147941357Y-112410917D01*
X147930359Y-112412000D01*
X147641641Y-112412000D01*
X147630643Y-112410917D01*
X147625972Y-112409500D01*
X147621670Y-112407200D01*
X147615295Y-112401969D01*
X147594920Y-112388356D01*
X147572281Y-112378980D01*
X147548247Y-112374200D01*
X147523743Y-112374201D01*
X147499709Y-112378983D01*
X147477071Y-112388361D01*
X147456705Y-112401969D01*
X147450330Y-112407200D01*
X147446028Y-112409500D01*
X147441357Y-112410917D01*
X147430359Y-112412000D01*
X147141641Y-112412000D01*
X147130643Y-112410917D01*
X147125972Y-112409500D01*
X147121670Y-112407200D01*
X147115295Y-112401969D01*
X147094920Y-112388356D01*
X147072281Y-112378980D01*
X147048247Y-112374200D01*
X147023743Y-112374201D01*
X146999709Y-112378983D01*
X146977071Y-112388361D01*
X146956705Y-112401969D01*
X146950330Y-112407200D01*
X146946028Y-112409500D01*
X146941357Y-112410917D01*
X146930359Y-112412000D01*
X146641641Y-112412000D01*
X146630643Y-112410917D01*
X146625972Y-112409500D01*
X146621670Y-112407200D01*
X146615295Y-112401969D01*
X146594920Y-112388356D01*
X146572281Y-112378980D01*
X146548247Y-112374200D01*
X146523743Y-112374201D01*
X146499709Y-112378983D01*
X146477071Y-112388361D01*
X146456705Y-112401969D01*
X146450330Y-112407200D01*
X146446028Y-112409500D01*
X146441357Y-112410917D01*
X146430359Y-112412000D01*
X146141641Y-112412000D01*
X146130643Y-112410917D01*
X146125972Y-112409500D01*
X146121670Y-112407200D01*
X146115295Y-112401969D01*
X146094920Y-112388356D01*
X146072281Y-112378980D01*
X146048247Y-112374200D01*
X146023743Y-112374201D01*
X145999709Y-112378983D01*
X145977071Y-112388361D01*
X145956705Y-112401969D01*
X145950330Y-112407200D01*
X145946028Y-112409500D01*
X145941357Y-112410917D01*
X145930359Y-112412000D01*
X145641641Y-112412000D01*
X145630643Y-112410917D01*
X145625972Y-112409500D01*
X145621670Y-112407200D01*
X145615295Y-112401969D01*
X145594920Y-112388356D01*
X145572281Y-112378980D01*
X145548247Y-112374200D01*
X145523743Y-112374201D01*
X145499709Y-112378983D01*
X145477071Y-112388361D01*
X145456705Y-112401969D01*
X145450330Y-112407200D01*
X145446028Y-112409500D01*
X145441357Y-112410917D01*
X145430359Y-112412000D01*
X145141641Y-112412000D01*
X145130643Y-112410917D01*
X145125972Y-112409500D01*
X145121670Y-112407200D01*
X145115295Y-112401969D01*
X145094920Y-112388356D01*
X145072281Y-112378980D01*
X145048247Y-112374200D01*
X145023743Y-112374201D01*
X144999709Y-112378983D01*
X144977071Y-112388361D01*
X144956705Y-112401969D01*
X144950330Y-112407200D01*
X144946028Y-112409500D01*
X144941357Y-112410917D01*
X144930359Y-112412000D01*
X144641641Y-112412000D01*
X144630643Y-112410917D01*
X144625972Y-112409500D01*
X144621670Y-112407200D01*
X144617896Y-112404104D01*
X144614800Y-112400330D01*
X144612500Y-112396028D01*
X144611083Y-112391357D01*
X144610000Y-112380359D01*
X144610000Y-111287000D01*
X144607598Y-111262614D01*
X144600485Y-111239165D01*
X144588934Y-111217554D01*
X144573388Y-111198612D01*
X144554446Y-111183066D01*
X144532835Y-111171515D01*
X144509386Y-111164402D01*
X144485000Y-111162000D01*
X143391641Y-111162000D01*
X143380643Y-111160917D01*
X143375972Y-111159500D01*
X143371670Y-111157200D01*
X143367896Y-111154104D01*
X143364800Y-111150330D01*
X143362500Y-111146028D01*
X143361083Y-111141357D01*
X143360000Y-111130359D01*
X143360000Y-110841641D01*
X143361083Y-110830643D01*
X143362500Y-110825972D01*
X143364800Y-110821670D01*
X143370031Y-110815295D01*
X143383644Y-110794920D01*
X143393020Y-110772281D01*
X143397800Y-110748247D01*
X143397799Y-110723743D01*
X143393017Y-110699709D01*
X143383639Y-110677071D01*
X143370031Y-110656705D01*
X143364800Y-110650330D01*
X143362500Y-110646028D01*
X143361083Y-110641357D01*
X143360000Y-110630359D01*
X143360000Y-110341641D01*
X143361083Y-110330643D01*
X143362500Y-110325972D01*
X143364800Y-110321670D01*
X143370031Y-110315295D01*
X143383644Y-110294920D01*
X143393020Y-110272281D01*
X143397800Y-110248247D01*
X143397799Y-110223743D01*
X143393017Y-110199709D01*
X143383639Y-110177071D01*
X143370031Y-110156705D01*
X143364800Y-110150330D01*
X143362500Y-110146028D01*
X143361083Y-110141357D01*
X143360000Y-110130359D01*
X143360000Y-109841641D01*
X143361083Y-109830643D01*
X143362500Y-109825972D01*
X143364800Y-109821670D01*
X143370031Y-109815295D01*
X143383644Y-109794920D01*
X143393020Y-109772281D01*
X143397800Y-109748247D01*
X143397799Y-109723743D01*
X143393017Y-109699709D01*
X143383639Y-109677071D01*
X143370031Y-109656705D01*
X143364800Y-109650330D01*
X143362500Y-109646028D01*
X143361083Y-109641357D01*
X143360000Y-109630359D01*
X143360000Y-109341641D01*
X143361083Y-109330643D01*
X143362500Y-109325972D01*
X143364800Y-109321670D01*
X143370031Y-109315295D01*
X143383644Y-109294920D01*
X143393020Y-109272281D01*
X143397800Y-109248247D01*
X143397799Y-109223743D01*
X143393017Y-109199709D01*
X143383639Y-109177071D01*
X143370031Y-109156705D01*
X143364800Y-109150330D01*
X143362500Y-109146028D01*
X143361083Y-109141357D01*
X143360000Y-109130359D01*
X143360000Y-108841641D01*
X143361083Y-108830643D01*
X143362500Y-108825972D01*
X143364800Y-108821670D01*
X143370031Y-108815295D01*
X143383644Y-108794920D01*
X143393020Y-108772281D01*
X143397800Y-108748247D01*
X143397799Y-108723743D01*
X143393017Y-108699709D01*
X143383639Y-108677071D01*
X143370031Y-108656705D01*
X143364800Y-108650330D01*
X143362500Y-108646028D01*
X143361083Y-108641357D01*
X143360000Y-108630359D01*
X143360000Y-108341641D01*
X143361083Y-108330643D01*
X143362500Y-108325972D01*
X143364800Y-108321670D01*
X143370031Y-108315295D01*
X143383644Y-108294920D01*
X143393020Y-108272281D01*
X143397800Y-108248247D01*
X143397799Y-108223743D01*
X143393017Y-108199709D01*
X143383639Y-108177071D01*
X143370031Y-108156705D01*
X143364800Y-108150330D01*
X143362500Y-108146028D01*
X143361083Y-108141357D01*
X143360000Y-108130359D01*
X143360000Y-107841641D01*
X143361083Y-107830643D01*
X143362500Y-107825972D01*
X143364800Y-107821670D01*
X143370031Y-107815295D01*
X143383644Y-107794920D01*
X143393020Y-107772281D01*
X143397800Y-107748247D01*
X143397799Y-107723743D01*
X143393017Y-107699709D01*
X143383639Y-107677071D01*
X143370031Y-107656705D01*
X143364800Y-107650330D01*
X143362500Y-107646028D01*
X143361083Y-107641357D01*
X143360000Y-107630359D01*
X143360000Y-107341641D01*
X143361083Y-107330643D01*
X143362500Y-107325972D01*
X143364800Y-107321670D01*
X143370031Y-107315295D01*
X143383644Y-107294920D01*
X143393020Y-107272281D01*
X143397800Y-107248247D01*
X143397799Y-107223743D01*
X143393017Y-107199709D01*
X143383639Y-107177071D01*
X143370031Y-107156705D01*
X143364800Y-107150330D01*
X143362500Y-107146028D01*
X143361083Y-107141357D01*
X143360000Y-107130359D01*
X143360000Y-106841641D01*
X143361083Y-106830643D01*
X143362500Y-106825972D01*
X143364800Y-106821670D01*
X143370031Y-106815295D01*
X143383644Y-106794920D01*
X143393020Y-106772281D01*
X143397800Y-106748247D01*
X143397799Y-106723743D01*
X143393017Y-106699709D01*
X143383639Y-106677071D01*
X143370031Y-106656705D01*
X143364800Y-106650330D01*
X143362500Y-106646028D01*
X143361083Y-106641357D01*
X143360000Y-106630359D01*
X143360000Y-106341641D01*
X143361083Y-106330643D01*
X143362500Y-106325972D01*
X143364800Y-106321670D01*
X143370031Y-106315295D01*
X143383644Y-106294920D01*
X143393020Y-106272281D01*
X143397800Y-106248247D01*
X143397799Y-106223743D01*
X143393017Y-106199709D01*
X143383639Y-106177071D01*
X143370031Y-106156705D01*
X143364800Y-106150330D01*
X143362500Y-106146028D01*
X143361083Y-106141357D01*
X143360000Y-106130359D01*
X143360000Y-105841641D01*
X143361083Y-105830643D01*
X143362500Y-105825972D01*
X143364800Y-105821670D01*
X143367896Y-105817896D01*
X143371670Y-105814800D01*
X143375972Y-105812500D01*
X143380643Y-105811083D01*
X143391641Y-105810000D01*
X144485000Y-105810000D01*
X144509386Y-105807598D01*
X144532835Y-105800485D01*
X144554446Y-105788934D01*
X144573388Y-105773388D01*
X144588934Y-105754446D01*
X144600485Y-105732835D01*
X144607598Y-105709386D01*
X144610000Y-105685000D01*
X144610000Y-104591641D01*
X144611083Y-104580643D01*
X144612500Y-104575972D01*
X144614800Y-104571670D01*
X144617896Y-104567896D01*
X144621670Y-104564800D01*
X144625972Y-104562500D01*
X144630643Y-104561083D01*
X144641641Y-104560000D01*
X144930359Y-104560000D01*
X144941357Y-104561083D01*
X144941357Y-104561083D01*
G37*
G36*
X131823000Y-112131000D02*
X129721000Y-112131000D01*
X129721000Y-110529000D01*
X131823000Y-110529000D01*
X131823000Y-112131000D01*
X131823000Y-112131000D01*
G37*
G36*
X157637000Y-111250000D02*
X156475000Y-111250000D01*
X156475000Y-110498000D01*
X157637000Y-110498000D01*
X157637000Y-111250000D01*
X157637000Y-111250000D01*
G37*
G36*
X138123000Y-110981000D02*
X136021000Y-110981000D01*
X136021000Y-107079000D01*
X138123000Y-107079000D01*
X138123000Y-110981000D01*
X138123000Y-110981000D01*
G37*
G36*
X163160443Y-108195519D02*
X163226627Y-108202037D01*
X163306443Y-108226249D01*
X163396467Y-108253557D01*
X163529809Y-108324831D01*
X163552991Y-108337222D01*
X163567476Y-108349110D01*
X163690186Y-108449814D01*
X163773448Y-108551271D01*
X163802778Y-108587009D01*
X163802779Y-108587011D01*
X163886443Y-108743533D01*
X163902421Y-108796208D01*
X163937963Y-108913373D01*
X163955359Y-109090000D01*
X163937963Y-109266627D01*
X163922774Y-109316699D01*
X163886443Y-109436467D01*
X163844064Y-109515751D01*
X163802778Y-109592991D01*
X163793473Y-109604329D01*
X163690186Y-109730186D01*
X163611306Y-109794920D01*
X163552991Y-109842778D01*
X163552989Y-109842779D01*
X163396467Y-109926443D01*
X163339853Y-109943616D01*
X163226627Y-109977963D01*
X163160443Y-109984481D01*
X163094260Y-109991000D01*
X163005740Y-109991000D01*
X162939557Y-109984481D01*
X162873373Y-109977963D01*
X162760147Y-109943616D01*
X162703533Y-109926443D01*
X162547011Y-109842779D01*
X162547009Y-109842778D01*
X162488694Y-109794920D01*
X162409814Y-109730186D01*
X162306527Y-109604329D01*
X162297222Y-109592991D01*
X162255936Y-109515751D01*
X162213557Y-109436467D01*
X162177226Y-109316699D01*
X162162037Y-109266627D01*
X162144641Y-109090000D01*
X162162037Y-108913373D01*
X162197579Y-108796208D01*
X162213557Y-108743533D01*
X162297221Y-108587011D01*
X162297222Y-108587009D01*
X162326552Y-108551271D01*
X162409814Y-108449814D01*
X162532524Y-108349110D01*
X162547009Y-108337222D01*
X162570191Y-108324831D01*
X162703533Y-108253557D01*
X162793557Y-108226249D01*
X162873373Y-108202037D01*
X162939557Y-108195519D01*
X163005740Y-108189000D01*
X163094260Y-108189000D01*
X163160443Y-108195519D01*
X163160443Y-108195519D01*
G37*
G36*
X125060443Y-108195519D02*
X125126627Y-108202037D01*
X125206443Y-108226249D01*
X125296467Y-108253557D01*
X125429809Y-108324831D01*
X125452991Y-108337222D01*
X125467476Y-108349110D01*
X125590186Y-108449814D01*
X125673448Y-108551271D01*
X125702778Y-108587009D01*
X125702779Y-108587011D01*
X125786443Y-108743533D01*
X125802421Y-108796208D01*
X125837963Y-108913373D01*
X125855359Y-109090000D01*
X125837963Y-109266627D01*
X125822774Y-109316699D01*
X125786443Y-109436467D01*
X125744064Y-109515751D01*
X125702778Y-109592991D01*
X125693473Y-109604329D01*
X125590186Y-109730186D01*
X125511306Y-109794920D01*
X125452991Y-109842778D01*
X125452989Y-109842779D01*
X125296467Y-109926443D01*
X125239853Y-109943616D01*
X125126627Y-109977963D01*
X125060443Y-109984481D01*
X124994260Y-109991000D01*
X124905740Y-109991000D01*
X124839557Y-109984481D01*
X124773373Y-109977963D01*
X124660147Y-109943616D01*
X124603533Y-109926443D01*
X124447011Y-109842779D01*
X124447009Y-109842778D01*
X124388694Y-109794920D01*
X124309814Y-109730186D01*
X124206527Y-109604329D01*
X124197222Y-109592991D01*
X124155936Y-109515751D01*
X124113557Y-109436467D01*
X124077226Y-109316699D01*
X124062037Y-109266627D01*
X124044641Y-109090000D01*
X124062037Y-108913373D01*
X124097579Y-108796208D01*
X124113557Y-108743533D01*
X124197221Y-108587011D01*
X124197222Y-108587009D01*
X124226552Y-108551271D01*
X124309814Y-108449814D01*
X124432524Y-108349110D01*
X124447009Y-108337222D01*
X124470191Y-108324831D01*
X124603533Y-108253557D01*
X124693557Y-108226249D01*
X124773373Y-108202037D01*
X124839557Y-108195519D01*
X124905740Y-108189000D01*
X124994260Y-108189000D01*
X125060443Y-108195519D01*
X125060443Y-108195519D01*
G37*
G36*
X131823000Y-109831000D02*
X129721000Y-109831000D01*
X129721000Y-108229000D01*
X131823000Y-108229000D01*
X131823000Y-109831000D01*
X131823000Y-109831000D01*
G37*
G36*
X157309938Y-108915716D02*
X157330556Y-108921970D01*
X157349556Y-108932126D01*
X157366208Y-108945792D01*
X157379874Y-108962444D01*
X157390030Y-108981444D01*
X157396284Y-109002062D01*
X157399000Y-109029640D01*
X157399000Y-109538360D01*
X157396284Y-109565938D01*
X157390030Y-109586556D01*
X157379874Y-109605556D01*
X157366208Y-109622208D01*
X157349556Y-109635874D01*
X157330556Y-109646030D01*
X157309938Y-109652284D01*
X157282360Y-109655000D01*
X156823640Y-109655000D01*
X156796062Y-109652284D01*
X156775444Y-109646030D01*
X156756444Y-109635874D01*
X156739792Y-109622208D01*
X156726126Y-109605556D01*
X156715970Y-109586556D01*
X156709716Y-109565938D01*
X156707000Y-109538360D01*
X156707000Y-109029640D01*
X156709716Y-109002062D01*
X156715970Y-108981444D01*
X156726126Y-108962444D01*
X156739792Y-108945792D01*
X156756444Y-108932126D01*
X156775444Y-108921970D01*
X156796062Y-108915716D01*
X156823640Y-108913000D01*
X157282360Y-108913000D01*
X157309938Y-108915716D01*
X157309938Y-108915716D01*
G37*
G36*
X156339938Y-108915716D02*
X156360556Y-108921970D01*
X156379556Y-108932126D01*
X156396208Y-108945792D01*
X156409874Y-108962444D01*
X156420030Y-108981444D01*
X156426284Y-109002062D01*
X156429000Y-109029640D01*
X156429000Y-109538360D01*
X156426284Y-109565938D01*
X156420030Y-109586556D01*
X156409874Y-109605556D01*
X156396208Y-109622208D01*
X156379556Y-109635874D01*
X156360556Y-109646030D01*
X156339938Y-109652284D01*
X156312360Y-109655000D01*
X155853640Y-109655000D01*
X155826062Y-109652284D01*
X155805444Y-109646030D01*
X155786444Y-109635874D01*
X155769792Y-109622208D01*
X155756126Y-109605556D01*
X155745970Y-109586556D01*
X155739716Y-109565938D01*
X155737000Y-109538360D01*
X155737000Y-109029640D01*
X155739716Y-109002062D01*
X155745970Y-108981444D01*
X155756126Y-108962444D01*
X155769792Y-108945792D01*
X155786444Y-108932126D01*
X155805444Y-108921970D01*
X155826062Y-108915716D01*
X155853640Y-108913000D01*
X156312360Y-108913000D01*
X156339938Y-108915716D01*
X156339938Y-108915716D01*
G37*
G36*
X141734938Y-108089716D02*
X141755556Y-108095970D01*
X141774556Y-108106126D01*
X141791208Y-108119792D01*
X141804874Y-108136444D01*
X141815030Y-108155444D01*
X141821284Y-108176062D01*
X141824000Y-108203640D01*
X141824000Y-108712360D01*
X141821284Y-108739938D01*
X141815030Y-108760556D01*
X141804874Y-108779556D01*
X141791208Y-108796208D01*
X141774556Y-108809874D01*
X141755556Y-108820030D01*
X141734938Y-108826284D01*
X141707360Y-108829000D01*
X141248640Y-108829000D01*
X141221062Y-108826284D01*
X141200444Y-108820030D01*
X141181444Y-108809874D01*
X141164792Y-108796208D01*
X141151126Y-108779556D01*
X141140970Y-108760556D01*
X141134716Y-108739938D01*
X141132000Y-108712360D01*
X141132000Y-108203640D01*
X141134716Y-108176062D01*
X141140970Y-108155444D01*
X141151126Y-108136444D01*
X141164792Y-108119792D01*
X141181444Y-108106126D01*
X141200444Y-108095970D01*
X141221062Y-108089716D01*
X141248640Y-108087000D01*
X141707360Y-108087000D01*
X141734938Y-108089716D01*
X141734938Y-108089716D01*
G37*
G36*
X142704938Y-108089716D02*
X142725556Y-108095970D01*
X142744556Y-108106126D01*
X142761208Y-108119792D01*
X142774874Y-108136444D01*
X142785030Y-108155444D01*
X142791284Y-108176062D01*
X142794000Y-108203640D01*
X142794000Y-108712360D01*
X142791284Y-108739938D01*
X142785030Y-108760556D01*
X142774874Y-108779556D01*
X142761208Y-108796208D01*
X142744556Y-108809874D01*
X142725556Y-108820030D01*
X142704938Y-108826284D01*
X142677360Y-108829000D01*
X142218640Y-108829000D01*
X142191062Y-108826284D01*
X142170444Y-108820030D01*
X142151444Y-108809874D01*
X142134792Y-108796208D01*
X142121126Y-108779556D01*
X142110970Y-108760556D01*
X142104716Y-108739938D01*
X142102000Y-108712360D01*
X142102000Y-108203640D01*
X142104716Y-108176062D01*
X142110970Y-108155444D01*
X142121126Y-108136444D01*
X142134792Y-108119792D01*
X142151444Y-108106126D01*
X142170444Y-108095970D01*
X142191062Y-108089716D01*
X142218640Y-108087000D01*
X142677360Y-108087000D01*
X142704938Y-108089716D01*
X142704938Y-108089716D01*
G37*
G36*
X131823000Y-107531000D02*
X129721000Y-107531000D01*
X129721000Y-105929000D01*
X131823000Y-105929000D01*
X131823000Y-107531000D01*
X131823000Y-107531000D01*
G37*
G36*
X125060443Y-105655519D02*
X125126627Y-105662037D01*
X125206443Y-105686249D01*
X125296467Y-105713557D01*
X125408401Y-105773388D01*
X125452991Y-105797222D01*
X125478182Y-105817896D01*
X125590186Y-105909814D01*
X125657719Y-105992105D01*
X125702778Y-106047009D01*
X125702779Y-106047011D01*
X125786443Y-106203533D01*
X125796998Y-106238329D01*
X125837963Y-106373373D01*
X125855359Y-106550000D01*
X125837963Y-106726627D01*
X125817244Y-106794929D01*
X125786443Y-106896467D01*
X125712348Y-107035087D01*
X125702778Y-107052991D01*
X125685536Y-107074000D01*
X125590186Y-107190186D01*
X125519437Y-107248247D01*
X125452991Y-107302778D01*
X125452989Y-107302779D01*
X125296467Y-107386443D01*
X125258368Y-107398000D01*
X125126627Y-107437963D01*
X125060443Y-107444481D01*
X124994260Y-107451000D01*
X124905740Y-107451000D01*
X124839557Y-107444481D01*
X124773373Y-107437963D01*
X124641632Y-107398000D01*
X124603533Y-107386443D01*
X124447011Y-107302779D01*
X124447009Y-107302778D01*
X124380563Y-107248247D01*
X124309814Y-107190186D01*
X124214464Y-107074000D01*
X124197222Y-107052991D01*
X124187652Y-107035087D01*
X124113557Y-106896467D01*
X124082756Y-106794929D01*
X124062037Y-106726627D01*
X124044641Y-106550000D01*
X124062037Y-106373373D01*
X124103002Y-106238329D01*
X124113557Y-106203533D01*
X124197221Y-106047011D01*
X124197222Y-106047009D01*
X124242281Y-105992105D01*
X124309814Y-105909814D01*
X124421818Y-105817896D01*
X124447009Y-105797222D01*
X124491599Y-105773388D01*
X124603533Y-105713557D01*
X124693557Y-105686249D01*
X124773373Y-105662037D01*
X124839557Y-105655519D01*
X124905740Y-105649000D01*
X124994260Y-105649000D01*
X125060443Y-105655519D01*
X125060443Y-105655519D01*
G37*
G36*
X163160443Y-105655519D02*
X163226627Y-105662037D01*
X163306443Y-105686249D01*
X163396467Y-105713557D01*
X163508401Y-105773388D01*
X163552991Y-105797222D01*
X163578182Y-105817896D01*
X163690186Y-105909814D01*
X163757719Y-105992105D01*
X163802778Y-106047009D01*
X163802779Y-106047011D01*
X163886443Y-106203533D01*
X163896998Y-106238329D01*
X163937963Y-106373373D01*
X163955359Y-106550000D01*
X163937963Y-106726627D01*
X163917244Y-106794929D01*
X163886443Y-106896467D01*
X163812348Y-107035087D01*
X163802778Y-107052991D01*
X163785536Y-107074000D01*
X163690186Y-107190186D01*
X163619437Y-107248247D01*
X163552991Y-107302778D01*
X163552989Y-107302779D01*
X163396467Y-107386443D01*
X163358368Y-107398000D01*
X163226627Y-107437963D01*
X163160443Y-107444481D01*
X163094260Y-107451000D01*
X163005740Y-107451000D01*
X162939557Y-107444481D01*
X162873373Y-107437963D01*
X162741632Y-107398000D01*
X162703533Y-107386443D01*
X162547011Y-107302779D01*
X162547009Y-107302778D01*
X162480563Y-107248247D01*
X162409814Y-107190186D01*
X162314464Y-107074000D01*
X162297222Y-107052991D01*
X162287652Y-107035087D01*
X162213557Y-106896467D01*
X162182756Y-106794929D01*
X162162037Y-106726627D01*
X162144641Y-106550000D01*
X162162037Y-106373373D01*
X162203002Y-106238329D01*
X162213557Y-106203533D01*
X162297221Y-106047011D01*
X162297222Y-106047009D01*
X162342281Y-105992105D01*
X162409814Y-105909814D01*
X162521818Y-105817896D01*
X162547009Y-105797222D01*
X162591599Y-105773388D01*
X162703533Y-105713557D01*
X162793557Y-105686249D01*
X162873373Y-105662037D01*
X162939557Y-105655519D01*
X163005740Y-105649000D01*
X163094260Y-105649000D01*
X163160443Y-105655519D01*
X163160443Y-105655519D01*
G37*
G36*
X140273938Y-105549716D02*
X140294556Y-105555970D01*
X140313556Y-105566126D01*
X140330208Y-105579792D01*
X140343874Y-105596444D01*
X140354030Y-105615444D01*
X140360284Y-105636062D01*
X140363000Y-105663640D01*
X140363000Y-106172360D01*
X140360284Y-106199938D01*
X140354030Y-106220556D01*
X140343874Y-106239556D01*
X140330208Y-106256208D01*
X140313556Y-106269874D01*
X140294556Y-106280030D01*
X140273938Y-106286284D01*
X140246360Y-106289000D01*
X139787640Y-106289000D01*
X139760062Y-106286284D01*
X139739444Y-106280030D01*
X139720444Y-106269874D01*
X139703792Y-106256208D01*
X139690126Y-106239556D01*
X139679970Y-106220556D01*
X139673716Y-106199938D01*
X139671000Y-106172360D01*
X139671000Y-105663640D01*
X139673716Y-105636062D01*
X139679970Y-105615444D01*
X139690126Y-105596444D01*
X139703792Y-105579792D01*
X139720444Y-105566126D01*
X139739444Y-105555970D01*
X139760062Y-105549716D01*
X139787640Y-105547000D01*
X140246360Y-105547000D01*
X140273938Y-105549716D01*
X140273938Y-105549716D01*
G37*
G36*
X141243938Y-105549716D02*
X141264556Y-105555970D01*
X141283556Y-105566126D01*
X141300208Y-105579792D01*
X141313874Y-105596444D01*
X141324030Y-105615444D01*
X141330284Y-105636062D01*
X141333000Y-105663640D01*
X141333000Y-106172360D01*
X141330284Y-106199938D01*
X141324030Y-106220556D01*
X141313874Y-106239556D01*
X141300208Y-106256208D01*
X141283556Y-106269874D01*
X141264556Y-106280030D01*
X141243938Y-106286284D01*
X141216360Y-106289000D01*
X140757640Y-106289000D01*
X140730062Y-106286284D01*
X140709444Y-106280030D01*
X140690444Y-106269874D01*
X140673792Y-106256208D01*
X140660126Y-106239556D01*
X140649970Y-106220556D01*
X140643716Y-106199938D01*
X140641000Y-106172360D01*
X140641000Y-105663640D01*
X140643716Y-105636062D01*
X140649970Y-105615444D01*
X140660126Y-105596444D01*
X140673792Y-105579792D01*
X140690444Y-105566126D01*
X140709444Y-105555970D01*
X140730062Y-105549716D01*
X140757640Y-105547000D01*
X141216360Y-105547000D01*
X141243938Y-105549716D01*
X141243938Y-105549716D01*
G37*
G36*
X152652591Y-104913085D02*
X152686569Y-104923393D01*
X152717887Y-104940133D01*
X152745339Y-104962661D01*
X152767867Y-104990113D01*
X152784607Y-105021431D01*
X152794915Y-105055409D01*
X152799000Y-105096890D01*
X152799000Y-105698110D01*
X152794915Y-105739591D01*
X152784607Y-105773569D01*
X152767867Y-105804887D01*
X152745339Y-105832339D01*
X152717887Y-105854867D01*
X152686569Y-105871607D01*
X152652591Y-105881915D01*
X152611110Y-105886000D01*
X151934890Y-105886000D01*
X151893409Y-105881915D01*
X151859431Y-105871607D01*
X151828113Y-105854867D01*
X151800661Y-105832339D01*
X151778133Y-105804887D01*
X151761393Y-105773569D01*
X151751085Y-105739591D01*
X151747000Y-105698110D01*
X151747000Y-105096890D01*
X151751085Y-105055409D01*
X151761393Y-105021431D01*
X151778133Y-104990113D01*
X151800661Y-104962661D01*
X151828113Y-104940133D01*
X151859431Y-104923393D01*
X151893409Y-104913085D01*
X151934890Y-104909000D01*
X152611110Y-104909000D01*
X152652591Y-104913085D01*
X152652591Y-104913085D01*
G37*
G36*
X132757938Y-104597716D02*
X132778556Y-104603970D01*
X132797556Y-104614126D01*
X132814208Y-104627792D01*
X132827874Y-104644444D01*
X132838030Y-104663444D01*
X132844284Y-104684062D01*
X132847000Y-104711640D01*
X132847000Y-105220360D01*
X132844284Y-105247938D01*
X132838030Y-105268556D01*
X132827874Y-105287556D01*
X132814208Y-105304208D01*
X132797556Y-105317874D01*
X132778556Y-105328030D01*
X132757938Y-105334284D01*
X132730360Y-105337000D01*
X132271640Y-105337000D01*
X132244062Y-105334284D01*
X132223444Y-105328030D01*
X132204444Y-105317874D01*
X132187792Y-105304208D01*
X132174126Y-105287556D01*
X132163970Y-105268556D01*
X132157716Y-105247938D01*
X132155000Y-105220360D01*
X132155000Y-104711640D01*
X132157716Y-104684062D01*
X132163970Y-104663444D01*
X132174126Y-104644444D01*
X132187792Y-104627792D01*
X132204444Y-104614126D01*
X132223444Y-104603970D01*
X132244062Y-104597716D01*
X132271640Y-104595000D01*
X132730360Y-104595000D01*
X132757938Y-104597716D01*
X132757938Y-104597716D01*
G37*
G36*
X131787938Y-104597716D02*
X131808556Y-104603970D01*
X131827556Y-104614126D01*
X131844208Y-104627792D01*
X131857874Y-104644444D01*
X131868030Y-104663444D01*
X131874284Y-104684062D01*
X131877000Y-104711640D01*
X131877000Y-105220360D01*
X131874284Y-105247938D01*
X131868030Y-105268556D01*
X131857874Y-105287556D01*
X131844208Y-105304208D01*
X131827556Y-105317874D01*
X131808556Y-105328030D01*
X131787938Y-105334284D01*
X131760360Y-105337000D01*
X131301640Y-105337000D01*
X131274062Y-105334284D01*
X131253444Y-105328030D01*
X131234444Y-105317874D01*
X131217792Y-105304208D01*
X131204126Y-105287556D01*
X131193970Y-105268556D01*
X131187716Y-105247938D01*
X131185000Y-105220360D01*
X131185000Y-104711640D01*
X131187716Y-104684062D01*
X131193970Y-104663444D01*
X131204126Y-104644444D01*
X131217792Y-104627792D01*
X131234444Y-104614126D01*
X131253444Y-104603970D01*
X131274062Y-104597716D01*
X131301640Y-104595000D01*
X131760360Y-104595000D01*
X131787938Y-104597716D01*
X131787938Y-104597716D01*
G37*
G36*
X134132466Y-103711565D02*
X134171137Y-103723296D01*
X134206779Y-103742348D01*
X134238017Y-103767983D01*
X134263652Y-103799221D01*
X134282704Y-103834863D01*
X134294435Y-103873534D01*
X134299000Y-103919888D01*
X134299000Y-104996112D01*
X134294435Y-105042466D01*
X134282704Y-105081137D01*
X134263652Y-105116779D01*
X134238017Y-105148017D01*
X134206779Y-105173652D01*
X134171137Y-105192704D01*
X134132466Y-105204435D01*
X134086112Y-105209000D01*
X133434888Y-105209000D01*
X133388534Y-105204435D01*
X133349863Y-105192704D01*
X133314221Y-105173652D01*
X133282983Y-105148017D01*
X133257348Y-105116779D01*
X133238296Y-105081137D01*
X133226565Y-105042466D01*
X133222000Y-104996112D01*
X133222000Y-103919888D01*
X133226565Y-103873534D01*
X133238296Y-103834863D01*
X133257348Y-103799221D01*
X133282983Y-103767983D01*
X133314221Y-103742348D01*
X133349863Y-103723296D01*
X133388534Y-103711565D01*
X133434888Y-103707000D01*
X134086112Y-103707000D01*
X134132466Y-103711565D01*
X134132466Y-103711565D01*
G37*
G36*
X136007466Y-103711565D02*
X136046137Y-103723296D01*
X136081779Y-103742348D01*
X136113017Y-103767983D01*
X136138652Y-103799221D01*
X136157704Y-103834863D01*
X136169435Y-103873534D01*
X136174000Y-103919888D01*
X136174000Y-104996112D01*
X136169435Y-105042466D01*
X136157704Y-105081137D01*
X136138652Y-105116779D01*
X136113017Y-105148017D01*
X136081779Y-105173652D01*
X136046137Y-105192704D01*
X136007466Y-105204435D01*
X135961112Y-105209000D01*
X135309888Y-105209000D01*
X135263534Y-105204435D01*
X135224863Y-105192704D01*
X135189221Y-105173652D01*
X135157983Y-105148017D01*
X135132348Y-105116779D01*
X135113296Y-105081137D01*
X135101565Y-105042466D01*
X135097000Y-104996112D01*
X135097000Y-103919888D01*
X135101565Y-103873534D01*
X135113296Y-103834863D01*
X135132348Y-103799221D01*
X135157983Y-103767983D01*
X135189221Y-103742348D01*
X135224863Y-103723296D01*
X135263534Y-103711565D01*
X135309888Y-103707000D01*
X135961112Y-103707000D01*
X136007466Y-103711565D01*
X136007466Y-103711565D01*
G37*
G36*
X142548466Y-103711565D02*
X142587137Y-103723296D01*
X142622779Y-103742348D01*
X142654017Y-103767983D01*
X142679652Y-103799221D01*
X142698704Y-103834863D01*
X142710435Y-103873534D01*
X142715000Y-103919888D01*
X142715000Y-104996112D01*
X142710435Y-105042466D01*
X142698704Y-105081137D01*
X142679652Y-105116779D01*
X142654017Y-105148017D01*
X142622779Y-105173652D01*
X142587137Y-105192704D01*
X142548466Y-105204435D01*
X142502112Y-105209000D01*
X141850888Y-105209000D01*
X141804534Y-105204435D01*
X141765863Y-105192704D01*
X141730221Y-105173652D01*
X141698983Y-105148017D01*
X141673348Y-105116779D01*
X141654296Y-105081137D01*
X141642565Y-105042466D01*
X141638000Y-104996112D01*
X141638000Y-103919888D01*
X141642565Y-103873534D01*
X141654296Y-103834863D01*
X141673348Y-103799221D01*
X141698983Y-103767983D01*
X141730221Y-103742348D01*
X141765863Y-103723296D01*
X141804534Y-103711565D01*
X141850888Y-103707000D01*
X142502112Y-103707000D01*
X142548466Y-103711565D01*
X142548466Y-103711565D01*
G37*
G36*
X140673466Y-103711565D02*
X140712137Y-103723296D01*
X140747779Y-103742348D01*
X140779017Y-103767983D01*
X140804652Y-103799221D01*
X140823704Y-103834863D01*
X140835435Y-103873534D01*
X140840000Y-103919888D01*
X140840000Y-104996112D01*
X140835435Y-105042466D01*
X140823704Y-105081137D01*
X140804652Y-105116779D01*
X140779017Y-105148017D01*
X140747779Y-105173652D01*
X140712137Y-105192704D01*
X140673466Y-105204435D01*
X140627112Y-105209000D01*
X139975888Y-105209000D01*
X139929534Y-105204435D01*
X139890863Y-105192704D01*
X139855221Y-105173652D01*
X139823983Y-105148017D01*
X139798348Y-105116779D01*
X139779296Y-105081137D01*
X139767565Y-105042466D01*
X139763000Y-104996112D01*
X139763000Y-103919888D01*
X139767565Y-103873534D01*
X139779296Y-103834863D01*
X139798348Y-103799221D01*
X139823983Y-103767983D01*
X139855221Y-103742348D01*
X139890863Y-103723296D01*
X139929534Y-103711565D01*
X139975888Y-103707000D01*
X140627112Y-103707000D01*
X140673466Y-103711565D01*
X140673466Y-103711565D01*
G37*
G36*
X163160443Y-103115519D02*
X163226627Y-103122037D01*
X163339853Y-103156384D01*
X163396467Y-103173557D01*
X163535087Y-103247652D01*
X163552991Y-103257222D01*
X163588729Y-103286552D01*
X163690186Y-103369814D01*
X163753063Y-103446431D01*
X163802778Y-103507009D01*
X163802779Y-103507011D01*
X163886443Y-103663533D01*
X163886443Y-103663534D01*
X163937963Y-103833373D01*
X163955359Y-104010000D01*
X163937963Y-104186627D01*
X163924840Y-104229887D01*
X163886443Y-104356467D01*
X163812348Y-104495087D01*
X163802778Y-104512991D01*
X163773448Y-104548729D01*
X163690186Y-104650186D01*
X163588729Y-104733448D01*
X163552991Y-104762778D01*
X163552989Y-104762779D01*
X163396467Y-104846443D01*
X163339853Y-104863616D01*
X163226627Y-104897963D01*
X163160442Y-104904482D01*
X163094260Y-104911000D01*
X163005740Y-104911000D01*
X162939558Y-104904482D01*
X162873373Y-104897963D01*
X162760147Y-104863616D01*
X162703533Y-104846443D01*
X162547011Y-104762779D01*
X162547009Y-104762778D01*
X162511271Y-104733448D01*
X162409814Y-104650186D01*
X162326552Y-104548729D01*
X162297222Y-104512991D01*
X162287652Y-104495087D01*
X162213557Y-104356467D01*
X162175160Y-104229887D01*
X162162037Y-104186627D01*
X162144641Y-104010000D01*
X162162037Y-103833373D01*
X162213557Y-103663534D01*
X162213557Y-103663533D01*
X162297221Y-103507011D01*
X162297222Y-103507009D01*
X162346937Y-103446431D01*
X162409814Y-103369814D01*
X162511271Y-103286552D01*
X162547009Y-103257222D01*
X162564913Y-103247652D01*
X162703533Y-103173557D01*
X162760147Y-103156384D01*
X162873373Y-103122037D01*
X162939557Y-103115519D01*
X163005740Y-103109000D01*
X163094260Y-103109000D01*
X163160443Y-103115519D01*
X163160443Y-103115519D01*
G37*
G36*
X125060443Y-103115519D02*
X125126627Y-103122037D01*
X125239853Y-103156384D01*
X125296467Y-103173557D01*
X125435087Y-103247652D01*
X125452991Y-103257222D01*
X125488729Y-103286552D01*
X125590186Y-103369814D01*
X125653063Y-103446431D01*
X125702778Y-103507009D01*
X125702779Y-103507011D01*
X125786443Y-103663533D01*
X125786443Y-103663534D01*
X125837963Y-103833373D01*
X125855359Y-104010000D01*
X125837963Y-104186627D01*
X125824840Y-104229887D01*
X125786443Y-104356467D01*
X125712348Y-104495087D01*
X125702778Y-104512991D01*
X125673448Y-104548729D01*
X125590186Y-104650186D01*
X125488729Y-104733448D01*
X125452991Y-104762778D01*
X125452989Y-104762779D01*
X125296467Y-104846443D01*
X125239853Y-104863616D01*
X125126627Y-104897963D01*
X125060442Y-104904482D01*
X124994260Y-104911000D01*
X124905740Y-104911000D01*
X124839558Y-104904482D01*
X124773373Y-104897963D01*
X124660147Y-104863616D01*
X124603533Y-104846443D01*
X124447011Y-104762779D01*
X124447009Y-104762778D01*
X124411271Y-104733448D01*
X124309814Y-104650186D01*
X124226552Y-104548729D01*
X124197222Y-104512991D01*
X124187652Y-104495087D01*
X124113557Y-104356467D01*
X124075160Y-104229887D01*
X124062037Y-104186627D01*
X124044641Y-104010000D01*
X124062037Y-103833373D01*
X124113557Y-103663534D01*
X124113557Y-103663533D01*
X124197221Y-103507011D01*
X124197222Y-103507009D01*
X124246937Y-103446431D01*
X124309814Y-103369814D01*
X124411271Y-103286552D01*
X124447009Y-103257222D01*
X124464913Y-103247652D01*
X124603533Y-103173557D01*
X124660147Y-103156384D01*
X124773373Y-103122037D01*
X124839557Y-103115519D01*
X124905740Y-103109000D01*
X124994260Y-103109000D01*
X125060443Y-103115519D01*
X125060443Y-103115519D01*
G37*
G36*
X152652591Y-103338085D02*
X152686569Y-103348393D01*
X152717887Y-103365133D01*
X152745339Y-103387661D01*
X152767867Y-103415113D01*
X152784607Y-103446431D01*
X152794915Y-103480409D01*
X152799000Y-103521890D01*
X152799000Y-104123110D01*
X152794915Y-104164591D01*
X152784607Y-104198569D01*
X152767867Y-104229887D01*
X152745339Y-104257339D01*
X152717887Y-104279867D01*
X152686569Y-104296607D01*
X152652591Y-104306915D01*
X152611110Y-104311000D01*
X151934890Y-104311000D01*
X151893409Y-104306915D01*
X151859431Y-104296607D01*
X151828113Y-104279867D01*
X151800661Y-104257339D01*
X151778133Y-104229887D01*
X151761393Y-104198569D01*
X151751085Y-104164591D01*
X151747000Y-104123110D01*
X151747000Y-103521890D01*
X151751085Y-103480409D01*
X151761393Y-103446431D01*
X151778133Y-103415113D01*
X151800661Y-103387661D01*
X151828113Y-103365133D01*
X151859431Y-103348393D01*
X151893409Y-103338085D01*
X151934890Y-103334000D01*
X152611110Y-103334000D01*
X152652591Y-103338085D01*
X152652591Y-103338085D01*
G37*
G36*
X145798938Y-103327716D02*
X145819556Y-103333970D01*
X145838556Y-103344126D01*
X145855208Y-103357792D01*
X145868874Y-103374444D01*
X145879030Y-103393444D01*
X145885284Y-103414062D01*
X145888000Y-103441640D01*
X145888000Y-103950360D01*
X145885284Y-103977938D01*
X145879030Y-103998556D01*
X145868874Y-104017556D01*
X145855208Y-104034208D01*
X145838556Y-104047874D01*
X145819556Y-104058030D01*
X145798938Y-104064284D01*
X145771360Y-104067000D01*
X145312640Y-104067000D01*
X145285062Y-104064284D01*
X145264444Y-104058030D01*
X145245444Y-104047874D01*
X145228792Y-104034208D01*
X145215126Y-104017556D01*
X145204970Y-103998556D01*
X145198716Y-103977938D01*
X145196000Y-103950360D01*
X145196000Y-103441640D01*
X145198716Y-103414062D01*
X145204970Y-103393444D01*
X145215126Y-103374444D01*
X145228792Y-103357792D01*
X145245444Y-103344126D01*
X145264444Y-103333970D01*
X145285062Y-103327716D01*
X145312640Y-103325000D01*
X145771360Y-103325000D01*
X145798938Y-103327716D01*
X145798938Y-103327716D01*
G37*
G36*
X144828938Y-103327716D02*
X144849556Y-103333970D01*
X144868556Y-103344126D01*
X144885208Y-103357792D01*
X144898874Y-103374444D01*
X144909030Y-103393444D01*
X144915284Y-103414062D01*
X144918000Y-103441640D01*
X144918000Y-103950360D01*
X144915284Y-103977938D01*
X144909030Y-103998556D01*
X144898874Y-104017556D01*
X144885208Y-104034208D01*
X144868556Y-104047874D01*
X144849556Y-104058030D01*
X144828938Y-104064284D01*
X144801360Y-104067000D01*
X144342640Y-104067000D01*
X144315062Y-104064284D01*
X144294444Y-104058030D01*
X144275444Y-104047874D01*
X144258792Y-104034208D01*
X144245126Y-104017556D01*
X144234970Y-103998556D01*
X144228716Y-103977938D01*
X144226000Y-103950360D01*
X144226000Y-103441640D01*
X144228716Y-103414062D01*
X144234970Y-103393444D01*
X144245126Y-103374444D01*
X144258792Y-103357792D01*
X144275444Y-103344126D01*
X144294444Y-103333970D01*
X144315062Y-103327716D01*
X144342640Y-103325000D01*
X144801360Y-103325000D01*
X144828938Y-103327716D01*
X144828938Y-103327716D01*
G37*
G36*
X125060442Y-100575518D02*
X125126627Y-100582037D01*
X125239853Y-100616384D01*
X125296467Y-100633557D01*
X125435087Y-100707652D01*
X125452991Y-100717222D01*
X125488729Y-100746552D01*
X125590186Y-100829814D01*
X125673448Y-100931271D01*
X125702778Y-100967009D01*
X125702779Y-100967011D01*
X125786443Y-101123533D01*
X125786443Y-101123534D01*
X125837963Y-101293373D01*
X125855359Y-101470000D01*
X125837963Y-101646627D01*
X125803616Y-101759853D01*
X125786443Y-101816467D01*
X125712348Y-101955087D01*
X125702778Y-101972991D01*
X125673448Y-102008729D01*
X125590186Y-102110186D01*
X125488729Y-102193448D01*
X125452991Y-102222778D01*
X125452989Y-102222779D01*
X125296467Y-102306443D01*
X125239853Y-102323616D01*
X125126627Y-102357963D01*
X125060443Y-102364481D01*
X124994260Y-102371000D01*
X124905740Y-102371000D01*
X124839557Y-102364481D01*
X124773373Y-102357963D01*
X124660147Y-102323616D01*
X124603533Y-102306443D01*
X124447011Y-102222779D01*
X124447009Y-102222778D01*
X124411271Y-102193448D01*
X124309814Y-102110186D01*
X124226552Y-102008729D01*
X124197222Y-101972991D01*
X124187652Y-101955087D01*
X124113557Y-101816467D01*
X124096384Y-101759853D01*
X124062037Y-101646627D01*
X124044641Y-101470000D01*
X124062037Y-101293373D01*
X124113557Y-101123534D01*
X124113557Y-101123533D01*
X124197221Y-100967011D01*
X124197222Y-100967009D01*
X124226552Y-100931271D01*
X124309814Y-100829814D01*
X124411271Y-100746552D01*
X124447009Y-100717222D01*
X124464913Y-100707652D01*
X124603533Y-100633557D01*
X124660147Y-100616384D01*
X124773373Y-100582037D01*
X124839558Y-100575518D01*
X124905740Y-100569000D01*
X124994260Y-100569000D01*
X125060442Y-100575518D01*
X125060442Y-100575518D01*
G37*
G36*
X163160442Y-100575518D02*
X163226627Y-100582037D01*
X163339853Y-100616384D01*
X163396467Y-100633557D01*
X163535087Y-100707652D01*
X163552991Y-100717222D01*
X163588729Y-100746552D01*
X163690186Y-100829814D01*
X163773448Y-100931271D01*
X163802778Y-100967009D01*
X163802779Y-100967011D01*
X163886443Y-101123533D01*
X163886443Y-101123534D01*
X163937963Y-101293373D01*
X163955359Y-101470000D01*
X163937963Y-101646627D01*
X163903616Y-101759853D01*
X163886443Y-101816467D01*
X163812348Y-101955087D01*
X163802778Y-101972991D01*
X163773448Y-102008729D01*
X163690186Y-102110186D01*
X163588729Y-102193448D01*
X163552991Y-102222778D01*
X163552989Y-102222779D01*
X163396467Y-102306443D01*
X163339853Y-102323616D01*
X163226627Y-102357963D01*
X163160443Y-102364481D01*
X163094260Y-102371000D01*
X163005740Y-102371000D01*
X162939557Y-102364481D01*
X162873373Y-102357963D01*
X162760147Y-102323616D01*
X162703533Y-102306443D01*
X162547011Y-102222779D01*
X162547009Y-102222778D01*
X162511271Y-102193448D01*
X162409814Y-102110186D01*
X162326552Y-102008729D01*
X162297222Y-101972991D01*
X162287652Y-101955087D01*
X162213557Y-101816467D01*
X162196384Y-101759853D01*
X162162037Y-101646627D01*
X162144641Y-101470000D01*
X162162037Y-101293373D01*
X162213557Y-101123534D01*
X162213557Y-101123533D01*
X162297221Y-100967011D01*
X162297222Y-100967009D01*
X162326552Y-100931271D01*
X162409814Y-100829814D01*
X162511271Y-100746552D01*
X162547009Y-100717222D01*
X162564913Y-100707652D01*
X162703533Y-100633557D01*
X162760147Y-100616384D01*
X162873373Y-100582037D01*
X162939558Y-100575518D01*
X163005740Y-100569000D01*
X163094260Y-100569000D01*
X163160442Y-100575518D01*
X163160442Y-100575518D01*
G37*
G36*
X163160442Y-98035518D02*
X163226627Y-98042037D01*
X163339853Y-98076384D01*
X163396467Y-98093557D01*
X163535087Y-98167652D01*
X163552991Y-98177222D01*
X163588729Y-98206552D01*
X163690186Y-98289814D01*
X163773448Y-98391271D01*
X163802778Y-98427009D01*
X163802779Y-98427011D01*
X163886443Y-98583533D01*
X163886443Y-98583534D01*
X163937963Y-98753373D01*
X163955359Y-98930000D01*
X163937963Y-99106627D01*
X163903616Y-99219853D01*
X163886443Y-99276467D01*
X163812348Y-99415087D01*
X163802778Y-99432991D01*
X163773448Y-99468729D01*
X163690186Y-99570186D01*
X163588729Y-99653448D01*
X163552991Y-99682778D01*
X163552989Y-99682779D01*
X163396467Y-99766443D01*
X163339853Y-99783616D01*
X163226627Y-99817963D01*
X163160443Y-99824481D01*
X163094260Y-99831000D01*
X163005740Y-99831000D01*
X162939558Y-99824482D01*
X162873373Y-99817963D01*
X162760147Y-99783616D01*
X162703533Y-99766443D01*
X162547011Y-99682779D01*
X162547009Y-99682778D01*
X162511271Y-99653448D01*
X162409814Y-99570186D01*
X162326552Y-99468729D01*
X162297222Y-99432991D01*
X162287652Y-99415087D01*
X162213557Y-99276467D01*
X162196384Y-99219853D01*
X162162037Y-99106627D01*
X162144641Y-98930000D01*
X162162037Y-98753373D01*
X162213557Y-98583534D01*
X162213557Y-98583533D01*
X162297221Y-98427011D01*
X162297222Y-98427009D01*
X162326552Y-98391271D01*
X162409814Y-98289814D01*
X162511271Y-98206552D01*
X162547009Y-98177222D01*
X162564913Y-98167652D01*
X162703533Y-98093557D01*
X162760147Y-98076384D01*
X162873373Y-98042037D01*
X162939558Y-98035518D01*
X163005740Y-98029000D01*
X163094260Y-98029000D01*
X163160442Y-98035518D01*
X163160442Y-98035518D01*
G37*
G36*
X125060442Y-98035518D02*
X125126627Y-98042037D01*
X125239853Y-98076384D01*
X125296467Y-98093557D01*
X125435087Y-98167652D01*
X125452991Y-98177222D01*
X125488729Y-98206552D01*
X125590186Y-98289814D01*
X125673448Y-98391271D01*
X125702778Y-98427009D01*
X125702779Y-98427011D01*
X125786443Y-98583533D01*
X125786443Y-98583534D01*
X125837963Y-98753373D01*
X125855359Y-98930000D01*
X125837963Y-99106627D01*
X125803616Y-99219853D01*
X125786443Y-99276467D01*
X125712348Y-99415087D01*
X125702778Y-99432991D01*
X125673448Y-99468729D01*
X125590186Y-99570186D01*
X125488729Y-99653448D01*
X125452991Y-99682778D01*
X125452989Y-99682779D01*
X125296467Y-99766443D01*
X125239853Y-99783616D01*
X125126627Y-99817963D01*
X125060443Y-99824481D01*
X124994260Y-99831000D01*
X124905740Y-99831000D01*
X124839558Y-99824482D01*
X124773373Y-99817963D01*
X124660147Y-99783616D01*
X124603533Y-99766443D01*
X124447011Y-99682779D01*
X124447009Y-99682778D01*
X124411271Y-99653448D01*
X124309814Y-99570186D01*
X124226552Y-99468729D01*
X124197222Y-99432991D01*
X124187652Y-99415087D01*
X124113557Y-99276467D01*
X124096384Y-99219853D01*
X124062037Y-99106627D01*
X124044641Y-98930000D01*
X124062037Y-98753373D01*
X124113557Y-98583534D01*
X124113557Y-98583533D01*
X124197221Y-98427011D01*
X124197222Y-98427009D01*
X124226552Y-98391271D01*
X124309814Y-98289814D01*
X124411271Y-98206552D01*
X124447009Y-98177222D01*
X124464913Y-98167652D01*
X124603533Y-98093557D01*
X124660147Y-98076384D01*
X124773373Y-98042037D01*
X124839558Y-98035518D01*
X124905740Y-98029000D01*
X124994260Y-98029000D01*
X125060442Y-98035518D01*
X125060442Y-98035518D01*
G37*
G36*
X125060443Y-95495519D02*
X125126627Y-95502037D01*
X125239853Y-95536384D01*
X125296467Y-95553557D01*
X125435087Y-95627652D01*
X125452991Y-95637222D01*
X125488729Y-95666552D01*
X125590186Y-95749814D01*
X125673448Y-95851271D01*
X125702778Y-95887009D01*
X125702779Y-95887011D01*
X125786443Y-96043533D01*
X125786443Y-96043534D01*
X125837963Y-96213373D01*
X125855359Y-96390000D01*
X125837963Y-96566627D01*
X125803616Y-96679853D01*
X125786443Y-96736467D01*
X125712348Y-96875087D01*
X125702778Y-96892991D01*
X125673448Y-96928729D01*
X125590186Y-97030186D01*
X125488729Y-97113448D01*
X125452991Y-97142778D01*
X125452989Y-97142779D01*
X125296467Y-97226443D01*
X125239853Y-97243616D01*
X125126627Y-97277963D01*
X125060443Y-97284481D01*
X124994260Y-97291000D01*
X124905740Y-97291000D01*
X124839558Y-97284482D01*
X124773373Y-97277963D01*
X124660147Y-97243616D01*
X124603533Y-97226443D01*
X124447011Y-97142779D01*
X124447009Y-97142778D01*
X124411271Y-97113448D01*
X124309814Y-97030186D01*
X124226552Y-96928729D01*
X124197222Y-96892991D01*
X124187652Y-96875087D01*
X124113557Y-96736467D01*
X124096384Y-96679853D01*
X124062037Y-96566627D01*
X124044641Y-96390000D01*
X124062037Y-96213373D01*
X124113557Y-96043534D01*
X124113557Y-96043533D01*
X124197221Y-95887011D01*
X124197222Y-95887009D01*
X124226552Y-95851271D01*
X124309814Y-95749814D01*
X124411271Y-95666552D01*
X124447009Y-95637222D01*
X124464913Y-95627652D01*
X124603533Y-95553557D01*
X124660147Y-95536384D01*
X124773373Y-95502037D01*
X124839558Y-95495518D01*
X124905740Y-95489000D01*
X124994260Y-95489000D01*
X125060443Y-95495519D01*
X125060443Y-95495519D01*
G37*
G36*
X163160443Y-95495519D02*
X163226627Y-95502037D01*
X163339853Y-95536384D01*
X163396467Y-95553557D01*
X163535087Y-95627652D01*
X163552991Y-95637222D01*
X163588729Y-95666552D01*
X163690186Y-95749814D01*
X163773448Y-95851271D01*
X163802778Y-95887009D01*
X163802779Y-95887011D01*
X163886443Y-96043533D01*
X163886443Y-96043534D01*
X163937963Y-96213373D01*
X163955359Y-96390000D01*
X163937963Y-96566627D01*
X163903616Y-96679853D01*
X163886443Y-96736467D01*
X163812348Y-96875087D01*
X163802778Y-96892991D01*
X163773448Y-96928729D01*
X163690186Y-97030186D01*
X163588729Y-97113448D01*
X163552991Y-97142778D01*
X163552989Y-97142779D01*
X163396467Y-97226443D01*
X163339853Y-97243616D01*
X163226627Y-97277963D01*
X163160443Y-97284481D01*
X163094260Y-97291000D01*
X163005740Y-97291000D01*
X162939558Y-97284482D01*
X162873373Y-97277963D01*
X162760147Y-97243616D01*
X162703533Y-97226443D01*
X162547011Y-97142779D01*
X162547009Y-97142778D01*
X162511271Y-97113448D01*
X162409814Y-97030186D01*
X162326552Y-96928729D01*
X162297222Y-96892991D01*
X162287652Y-96875087D01*
X162213557Y-96736467D01*
X162196384Y-96679853D01*
X162162037Y-96566627D01*
X162144641Y-96390000D01*
X162162037Y-96213373D01*
X162213557Y-96043534D01*
X162213557Y-96043533D01*
X162297221Y-95887011D01*
X162297222Y-95887009D01*
X162326552Y-95851271D01*
X162409814Y-95749814D01*
X162511271Y-95666552D01*
X162547009Y-95637222D01*
X162564913Y-95627652D01*
X162703533Y-95553557D01*
X162760147Y-95536384D01*
X162873373Y-95502037D01*
X162939558Y-95495518D01*
X163005740Y-95489000D01*
X163094260Y-95489000D01*
X163160443Y-95495519D01*
X163160443Y-95495519D01*
G37*
G36*
X163160442Y-92955518D02*
X163226627Y-92962037D01*
X163339853Y-92996384D01*
X163396467Y-93013557D01*
X163535087Y-93087652D01*
X163552991Y-93097222D01*
X163588729Y-93126552D01*
X163690186Y-93209814D01*
X163773448Y-93311271D01*
X163802778Y-93347009D01*
X163802779Y-93347011D01*
X163886443Y-93503533D01*
X163886443Y-93503534D01*
X163937963Y-93673373D01*
X163955359Y-93850000D01*
X163937963Y-94026627D01*
X163903616Y-94139853D01*
X163886443Y-94196467D01*
X163812348Y-94335087D01*
X163802778Y-94352991D01*
X163773448Y-94388729D01*
X163690186Y-94490186D01*
X163588729Y-94573448D01*
X163552991Y-94602778D01*
X163552989Y-94602779D01*
X163396467Y-94686443D01*
X163339853Y-94703616D01*
X163226627Y-94737963D01*
X163160442Y-94744482D01*
X163094260Y-94751000D01*
X163005740Y-94751000D01*
X162939557Y-94744481D01*
X162873373Y-94737963D01*
X162760147Y-94703616D01*
X162703533Y-94686443D01*
X162547011Y-94602779D01*
X162547009Y-94602778D01*
X162511271Y-94573448D01*
X162409814Y-94490186D01*
X162326552Y-94388729D01*
X162297222Y-94352991D01*
X162287652Y-94335087D01*
X162213557Y-94196467D01*
X162196384Y-94139853D01*
X162162037Y-94026627D01*
X162144641Y-93850000D01*
X162162037Y-93673373D01*
X162213557Y-93503534D01*
X162213557Y-93503533D01*
X162297221Y-93347011D01*
X162297222Y-93347009D01*
X162326552Y-93311271D01*
X162409814Y-93209814D01*
X162511271Y-93126552D01*
X162547009Y-93097222D01*
X162564913Y-93087652D01*
X162703533Y-93013557D01*
X162760147Y-92996384D01*
X162873373Y-92962037D01*
X162939558Y-92955518D01*
X163005740Y-92949000D01*
X163094260Y-92949000D01*
X163160442Y-92955518D01*
X163160442Y-92955518D01*
G37*
G36*
X125060442Y-92955518D02*
X125126627Y-92962037D01*
X125239853Y-92996384D01*
X125296467Y-93013557D01*
X125435087Y-93087652D01*
X125452991Y-93097222D01*
X125488729Y-93126552D01*
X125590186Y-93209814D01*
X125673448Y-93311271D01*
X125702778Y-93347009D01*
X125702779Y-93347011D01*
X125786443Y-93503533D01*
X125786443Y-93503534D01*
X125837963Y-93673373D01*
X125855359Y-93850000D01*
X125837963Y-94026627D01*
X125803616Y-94139853D01*
X125786443Y-94196467D01*
X125712348Y-94335087D01*
X125702778Y-94352991D01*
X125673448Y-94388729D01*
X125590186Y-94490186D01*
X125488729Y-94573448D01*
X125452991Y-94602778D01*
X125452989Y-94602779D01*
X125296467Y-94686443D01*
X125239853Y-94703616D01*
X125126627Y-94737963D01*
X125060442Y-94744482D01*
X124994260Y-94751000D01*
X124905740Y-94751000D01*
X124839557Y-94744481D01*
X124773373Y-94737963D01*
X124660147Y-94703616D01*
X124603533Y-94686443D01*
X124447011Y-94602779D01*
X124447009Y-94602778D01*
X124411271Y-94573448D01*
X124309814Y-94490186D01*
X124226552Y-94388729D01*
X124197222Y-94352991D01*
X124187652Y-94335087D01*
X124113557Y-94196467D01*
X124096384Y-94139853D01*
X124062037Y-94026627D01*
X124044641Y-93850000D01*
X124062037Y-93673373D01*
X124113557Y-93503534D01*
X124113557Y-93503533D01*
X124197221Y-93347011D01*
X124197222Y-93347009D01*
X124226552Y-93311271D01*
X124309814Y-93209814D01*
X124411271Y-93126552D01*
X124447009Y-93097222D01*
X124464913Y-93087652D01*
X124603533Y-93013557D01*
X124660147Y-92996384D01*
X124773373Y-92962037D01*
X124839558Y-92955518D01*
X124905740Y-92949000D01*
X124994260Y-92949000D01*
X125060442Y-92955518D01*
X125060442Y-92955518D01*
G37*
G36*
X125060442Y-90415518D02*
X125126627Y-90422037D01*
X125239853Y-90456384D01*
X125296467Y-90473557D01*
X125435087Y-90547652D01*
X125452991Y-90557222D01*
X125488729Y-90586552D01*
X125590186Y-90669814D01*
X125673448Y-90771271D01*
X125702778Y-90807009D01*
X125702779Y-90807011D01*
X125786443Y-90963533D01*
X125786443Y-90963534D01*
X125837963Y-91133373D01*
X125855359Y-91310000D01*
X125837963Y-91486627D01*
X125803616Y-91599853D01*
X125786443Y-91656467D01*
X125712348Y-91795087D01*
X125702778Y-91812991D01*
X125673448Y-91848729D01*
X125590186Y-91950186D01*
X125488729Y-92033448D01*
X125452991Y-92062778D01*
X125452989Y-92062779D01*
X125296467Y-92146443D01*
X125239853Y-92163616D01*
X125126627Y-92197963D01*
X125060442Y-92204482D01*
X124994260Y-92211000D01*
X124905740Y-92211000D01*
X124839558Y-92204482D01*
X124773373Y-92197963D01*
X124660147Y-92163616D01*
X124603533Y-92146443D01*
X124447011Y-92062779D01*
X124447009Y-92062778D01*
X124411271Y-92033448D01*
X124309814Y-91950186D01*
X124226552Y-91848729D01*
X124197222Y-91812991D01*
X124187652Y-91795087D01*
X124113557Y-91656467D01*
X124096384Y-91599853D01*
X124062037Y-91486627D01*
X124044641Y-91310000D01*
X124062037Y-91133373D01*
X124113557Y-90963534D01*
X124113557Y-90963533D01*
X124197221Y-90807011D01*
X124197222Y-90807009D01*
X124226552Y-90771271D01*
X124309814Y-90669814D01*
X124411271Y-90586552D01*
X124447009Y-90557222D01*
X124464913Y-90547652D01*
X124603533Y-90473557D01*
X124660147Y-90456384D01*
X124773373Y-90422037D01*
X124839558Y-90415518D01*
X124905740Y-90409000D01*
X124994260Y-90409000D01*
X125060442Y-90415518D01*
X125060442Y-90415518D01*
G37*
G36*
X163160442Y-90415518D02*
X163226627Y-90422037D01*
X163339853Y-90456384D01*
X163396467Y-90473557D01*
X163535087Y-90547652D01*
X163552991Y-90557222D01*
X163588729Y-90586552D01*
X163690186Y-90669814D01*
X163773448Y-90771271D01*
X163802778Y-90807009D01*
X163802779Y-90807011D01*
X163886443Y-90963533D01*
X163886443Y-90963534D01*
X163937963Y-91133373D01*
X163955359Y-91310000D01*
X163937963Y-91486627D01*
X163903616Y-91599853D01*
X163886443Y-91656467D01*
X163812348Y-91795087D01*
X163802778Y-91812991D01*
X163773448Y-91848729D01*
X163690186Y-91950186D01*
X163588729Y-92033448D01*
X163552991Y-92062778D01*
X163552989Y-92062779D01*
X163396467Y-92146443D01*
X163339853Y-92163616D01*
X163226627Y-92197963D01*
X163160443Y-92204481D01*
X163094260Y-92211000D01*
X163005740Y-92211000D01*
X162939558Y-92204482D01*
X162873373Y-92197963D01*
X162760147Y-92163616D01*
X162703533Y-92146443D01*
X162547011Y-92062779D01*
X162547009Y-92062778D01*
X162511271Y-92033448D01*
X162409814Y-91950186D01*
X162326552Y-91848729D01*
X162297222Y-91812991D01*
X162287652Y-91795087D01*
X162213557Y-91656467D01*
X162196384Y-91599853D01*
X162162037Y-91486627D01*
X162144641Y-91310000D01*
X162162037Y-91133373D01*
X162213557Y-90963534D01*
X162213557Y-90963533D01*
X162297221Y-90807011D01*
X162297222Y-90807009D01*
X162326552Y-90771271D01*
X162409814Y-90669814D01*
X162511271Y-90586552D01*
X162547009Y-90557222D01*
X162564913Y-90547652D01*
X162703533Y-90473557D01*
X162760147Y-90456384D01*
X162873373Y-90422037D01*
X162939557Y-90415519D01*
X163005740Y-90409000D01*
X163094260Y-90409000D01*
X163160442Y-90415518D01*
X163160442Y-90415518D01*
G37*
G36*
X163160442Y-87875518D02*
X163226627Y-87882037D01*
X163339853Y-87916384D01*
X163396467Y-87933557D01*
X163535087Y-88007652D01*
X163552991Y-88017222D01*
X163588729Y-88046552D01*
X163690186Y-88129814D01*
X163773448Y-88231271D01*
X163802778Y-88267009D01*
X163802779Y-88267011D01*
X163886443Y-88423533D01*
X163886443Y-88423534D01*
X163937963Y-88593373D01*
X163955359Y-88770000D01*
X163937963Y-88946627D01*
X163903616Y-89059853D01*
X163886443Y-89116467D01*
X163812348Y-89255087D01*
X163802778Y-89272991D01*
X163773448Y-89308729D01*
X163690186Y-89410186D01*
X163588729Y-89493448D01*
X163552991Y-89522778D01*
X163552989Y-89522779D01*
X163396467Y-89606443D01*
X163339853Y-89623616D01*
X163226627Y-89657963D01*
X163160442Y-89664482D01*
X163094260Y-89671000D01*
X163005740Y-89671000D01*
X162939558Y-89664482D01*
X162873373Y-89657963D01*
X162760147Y-89623616D01*
X162703533Y-89606443D01*
X162547011Y-89522779D01*
X162547009Y-89522778D01*
X162511271Y-89493448D01*
X162409814Y-89410186D01*
X162326552Y-89308729D01*
X162297222Y-89272991D01*
X162287652Y-89255087D01*
X162213557Y-89116467D01*
X162196384Y-89059853D01*
X162162037Y-88946627D01*
X162144641Y-88770000D01*
X162162037Y-88593373D01*
X162213557Y-88423534D01*
X162213557Y-88423533D01*
X162297221Y-88267011D01*
X162297222Y-88267009D01*
X162326552Y-88231271D01*
X162409814Y-88129814D01*
X162511271Y-88046552D01*
X162547009Y-88017222D01*
X162564913Y-88007652D01*
X162703533Y-87933557D01*
X162760147Y-87916384D01*
X162873373Y-87882037D01*
X162939558Y-87875518D01*
X163005740Y-87869000D01*
X163094260Y-87869000D01*
X163160442Y-87875518D01*
X163160442Y-87875518D01*
G37*
G36*
X125060442Y-87875518D02*
X125126627Y-87882037D01*
X125239853Y-87916384D01*
X125296467Y-87933557D01*
X125435087Y-88007652D01*
X125452991Y-88017222D01*
X125488729Y-88046552D01*
X125590186Y-88129814D01*
X125673448Y-88231271D01*
X125702778Y-88267009D01*
X125702779Y-88267011D01*
X125786443Y-88423533D01*
X125786443Y-88423534D01*
X125837963Y-88593373D01*
X125855359Y-88770000D01*
X125837963Y-88946627D01*
X125803616Y-89059853D01*
X125786443Y-89116467D01*
X125712348Y-89255087D01*
X125702778Y-89272991D01*
X125673448Y-89308729D01*
X125590186Y-89410186D01*
X125488729Y-89493448D01*
X125452991Y-89522778D01*
X125452989Y-89522779D01*
X125296467Y-89606443D01*
X125239853Y-89623616D01*
X125126627Y-89657963D01*
X125060442Y-89664482D01*
X124994260Y-89671000D01*
X124905740Y-89671000D01*
X124839558Y-89664482D01*
X124773373Y-89657963D01*
X124660147Y-89623616D01*
X124603533Y-89606443D01*
X124447011Y-89522779D01*
X124447009Y-89522778D01*
X124411271Y-89493448D01*
X124309814Y-89410186D01*
X124226552Y-89308729D01*
X124197222Y-89272991D01*
X124187652Y-89255087D01*
X124113557Y-89116467D01*
X124096384Y-89059853D01*
X124062037Y-88946627D01*
X124044641Y-88770000D01*
X124062037Y-88593373D01*
X124113557Y-88423534D01*
X124113557Y-88423533D01*
X124197221Y-88267011D01*
X124197222Y-88267009D01*
X124226552Y-88231271D01*
X124309814Y-88129814D01*
X124411271Y-88046552D01*
X124447009Y-88017222D01*
X124464913Y-88007652D01*
X124603533Y-87933557D01*
X124660147Y-87916384D01*
X124773373Y-87882037D01*
X124839558Y-87875518D01*
X124905740Y-87869000D01*
X124994260Y-87869000D01*
X125060442Y-87875518D01*
X125060442Y-87875518D01*
G37*
G36*
X163160443Y-85335519D02*
X163226627Y-85342037D01*
X163339853Y-85376384D01*
X163396467Y-85393557D01*
X163535087Y-85467652D01*
X163552991Y-85477222D01*
X163588729Y-85506552D01*
X163690186Y-85589814D01*
X163773448Y-85691271D01*
X163802778Y-85727009D01*
X163802779Y-85727011D01*
X163886443Y-85883533D01*
X163886443Y-85883534D01*
X163937963Y-86053373D01*
X163955359Y-86230000D01*
X163937963Y-86406627D01*
X163903616Y-86519853D01*
X163886443Y-86576467D01*
X163812348Y-86715087D01*
X163802778Y-86732991D01*
X163773448Y-86768729D01*
X163690186Y-86870186D01*
X163588729Y-86953448D01*
X163552991Y-86982778D01*
X163552989Y-86982779D01*
X163396467Y-87066443D01*
X163339853Y-87083616D01*
X163226627Y-87117963D01*
X163160443Y-87124481D01*
X163094260Y-87131000D01*
X163005740Y-87131000D01*
X162939557Y-87124481D01*
X162873373Y-87117963D01*
X162760147Y-87083616D01*
X162703533Y-87066443D01*
X162547011Y-86982779D01*
X162547009Y-86982778D01*
X162511271Y-86953448D01*
X162409814Y-86870186D01*
X162326552Y-86768729D01*
X162297222Y-86732991D01*
X162287652Y-86715087D01*
X162213557Y-86576467D01*
X162196384Y-86519853D01*
X162162037Y-86406627D01*
X162144641Y-86230000D01*
X162162037Y-86053373D01*
X162213557Y-85883534D01*
X162213557Y-85883533D01*
X162297221Y-85727011D01*
X162297222Y-85727009D01*
X162326552Y-85691271D01*
X162409814Y-85589814D01*
X162511271Y-85506552D01*
X162547009Y-85477222D01*
X162564913Y-85467652D01*
X162703533Y-85393557D01*
X162760147Y-85376384D01*
X162873373Y-85342037D01*
X162939557Y-85335519D01*
X163005740Y-85329000D01*
X163094260Y-85329000D01*
X163160443Y-85335519D01*
X163160443Y-85335519D01*
G37*
G36*
X125060443Y-85335519D02*
X125126627Y-85342037D01*
X125239853Y-85376384D01*
X125296467Y-85393557D01*
X125435087Y-85467652D01*
X125452991Y-85477222D01*
X125488729Y-85506552D01*
X125590186Y-85589814D01*
X125673448Y-85691271D01*
X125702778Y-85727009D01*
X125702779Y-85727011D01*
X125786443Y-85883533D01*
X125786443Y-85883534D01*
X125837963Y-86053373D01*
X125855359Y-86230000D01*
X125837963Y-86406627D01*
X125803616Y-86519853D01*
X125786443Y-86576467D01*
X125712348Y-86715087D01*
X125702778Y-86732991D01*
X125673448Y-86768729D01*
X125590186Y-86870186D01*
X125488729Y-86953448D01*
X125452991Y-86982778D01*
X125452989Y-86982779D01*
X125296467Y-87066443D01*
X125239853Y-87083616D01*
X125126627Y-87117963D01*
X125060443Y-87124481D01*
X124994260Y-87131000D01*
X124905740Y-87131000D01*
X124839557Y-87124481D01*
X124773373Y-87117963D01*
X124660147Y-87083616D01*
X124603533Y-87066443D01*
X124447011Y-86982779D01*
X124447009Y-86982778D01*
X124411271Y-86953448D01*
X124309814Y-86870186D01*
X124226552Y-86768729D01*
X124197222Y-86732991D01*
X124187652Y-86715087D01*
X124113557Y-86576467D01*
X124096384Y-86519853D01*
X124062037Y-86406627D01*
X124044641Y-86230000D01*
X124062037Y-86053373D01*
X124113557Y-85883534D01*
X124113557Y-85883533D01*
X124197221Y-85727011D01*
X124197222Y-85727009D01*
X124226552Y-85691271D01*
X124309814Y-85589814D01*
X124411271Y-85506552D01*
X124447009Y-85477222D01*
X124464913Y-85467652D01*
X124603533Y-85393557D01*
X124660147Y-85376384D01*
X124773373Y-85342037D01*
X124839557Y-85335519D01*
X124905740Y-85329000D01*
X124994260Y-85329000D01*
X125060443Y-85335519D01*
X125060443Y-85335519D01*
G37*
G36*
X125060442Y-82795518D02*
X125126627Y-82802037D01*
X125239853Y-82836384D01*
X125296467Y-82853557D01*
X125435087Y-82927652D01*
X125452991Y-82937222D01*
X125488729Y-82966552D01*
X125590186Y-83049814D01*
X125673448Y-83151271D01*
X125702778Y-83187009D01*
X125702779Y-83187011D01*
X125786443Y-83343533D01*
X125786443Y-83343534D01*
X125837963Y-83513373D01*
X125855359Y-83690000D01*
X125837963Y-83866627D01*
X125803616Y-83979853D01*
X125786443Y-84036467D01*
X125712348Y-84175087D01*
X125702778Y-84192991D01*
X125673448Y-84228729D01*
X125590186Y-84330186D01*
X125488729Y-84413448D01*
X125452991Y-84442778D01*
X125452989Y-84442779D01*
X125296467Y-84526443D01*
X125239853Y-84543616D01*
X125126627Y-84577963D01*
X125060443Y-84584481D01*
X124994260Y-84591000D01*
X124905740Y-84591000D01*
X124839557Y-84584481D01*
X124773373Y-84577963D01*
X124660147Y-84543616D01*
X124603533Y-84526443D01*
X124447011Y-84442779D01*
X124447009Y-84442778D01*
X124411271Y-84413448D01*
X124309814Y-84330186D01*
X124226552Y-84228729D01*
X124197222Y-84192991D01*
X124187652Y-84175087D01*
X124113557Y-84036467D01*
X124096384Y-83979853D01*
X124062037Y-83866627D01*
X124044641Y-83690000D01*
X124062037Y-83513373D01*
X124113557Y-83343534D01*
X124113557Y-83343533D01*
X124197221Y-83187011D01*
X124197222Y-83187009D01*
X124226552Y-83151271D01*
X124309814Y-83049814D01*
X124411271Y-82966552D01*
X124447009Y-82937222D01*
X124464913Y-82927652D01*
X124603533Y-82853557D01*
X124660147Y-82836384D01*
X124773373Y-82802037D01*
X124839558Y-82795518D01*
X124905740Y-82789000D01*
X124994260Y-82789000D01*
X125060442Y-82795518D01*
X125060442Y-82795518D01*
G37*
G36*
X163160442Y-82795518D02*
X163226627Y-82802037D01*
X163339853Y-82836384D01*
X163396467Y-82853557D01*
X163535087Y-82927652D01*
X163552991Y-82937222D01*
X163588729Y-82966552D01*
X163690186Y-83049814D01*
X163773448Y-83151271D01*
X163802778Y-83187009D01*
X163802779Y-83187011D01*
X163886443Y-83343533D01*
X163886443Y-83343534D01*
X163937963Y-83513373D01*
X163955359Y-83690000D01*
X163937963Y-83866627D01*
X163903616Y-83979853D01*
X163886443Y-84036467D01*
X163812348Y-84175087D01*
X163802778Y-84192991D01*
X163773448Y-84228729D01*
X163690186Y-84330186D01*
X163588729Y-84413448D01*
X163552991Y-84442778D01*
X163552989Y-84442779D01*
X163396467Y-84526443D01*
X163339853Y-84543616D01*
X163226627Y-84577963D01*
X163160443Y-84584481D01*
X163094260Y-84591000D01*
X163005740Y-84591000D01*
X162939557Y-84584481D01*
X162873373Y-84577963D01*
X162760147Y-84543616D01*
X162703533Y-84526443D01*
X162547011Y-84442779D01*
X162547009Y-84442778D01*
X162511271Y-84413448D01*
X162409814Y-84330186D01*
X162326552Y-84228729D01*
X162297222Y-84192991D01*
X162287652Y-84175087D01*
X162213557Y-84036467D01*
X162196384Y-83979853D01*
X162162037Y-83866627D01*
X162144641Y-83690000D01*
X162162037Y-83513373D01*
X162213557Y-83343534D01*
X162213557Y-83343533D01*
X162297221Y-83187011D01*
X162297222Y-83187009D01*
X162326552Y-83151271D01*
X162409814Y-83049814D01*
X162511271Y-82966552D01*
X162547009Y-82937222D01*
X162564913Y-82927652D01*
X162703533Y-82853557D01*
X162760147Y-82836384D01*
X162873373Y-82802037D01*
X162939558Y-82795518D01*
X163005740Y-82789000D01*
X163094260Y-82789000D01*
X163160442Y-82795518D01*
X163160442Y-82795518D01*
G37*
G36*
X163160443Y-80255519D02*
X163226627Y-80262037D01*
X163339853Y-80296384D01*
X163396467Y-80313557D01*
X163535087Y-80387652D01*
X163552991Y-80397222D01*
X163588729Y-80426552D01*
X163690186Y-80509814D01*
X163773448Y-80611271D01*
X163802778Y-80647009D01*
X163802779Y-80647011D01*
X163886443Y-80803533D01*
X163886443Y-80803534D01*
X163937963Y-80973373D01*
X163955359Y-81150000D01*
X163937963Y-81326627D01*
X163903616Y-81439853D01*
X163886443Y-81496467D01*
X163812348Y-81635087D01*
X163802778Y-81652991D01*
X163773448Y-81688729D01*
X163690186Y-81790186D01*
X163588729Y-81873448D01*
X163552991Y-81902778D01*
X163552989Y-81902779D01*
X163396467Y-81986443D01*
X163339853Y-82003616D01*
X163226627Y-82037963D01*
X163160442Y-82044482D01*
X163094260Y-82051000D01*
X163005740Y-82051000D01*
X162939558Y-82044482D01*
X162873373Y-82037963D01*
X162760147Y-82003616D01*
X162703533Y-81986443D01*
X162547011Y-81902779D01*
X162547009Y-81902778D01*
X162511271Y-81873448D01*
X162409814Y-81790186D01*
X162326552Y-81688729D01*
X162297222Y-81652991D01*
X162287652Y-81635087D01*
X162213557Y-81496467D01*
X162196384Y-81439853D01*
X162162037Y-81326627D01*
X162144641Y-81150000D01*
X162162037Y-80973373D01*
X162213557Y-80803534D01*
X162213557Y-80803533D01*
X162297221Y-80647011D01*
X162297222Y-80647009D01*
X162326552Y-80611271D01*
X162409814Y-80509814D01*
X162511271Y-80426552D01*
X162547009Y-80397222D01*
X162564913Y-80387652D01*
X162703533Y-80313557D01*
X162760147Y-80296384D01*
X162873373Y-80262037D01*
X162939557Y-80255519D01*
X163005740Y-80249000D01*
X163094260Y-80249000D01*
X163160443Y-80255519D01*
X163160443Y-80255519D01*
G37*
G36*
X125060443Y-80255519D02*
X125126627Y-80262037D01*
X125239853Y-80296384D01*
X125296467Y-80313557D01*
X125435087Y-80387652D01*
X125452991Y-80397222D01*
X125488729Y-80426552D01*
X125590186Y-80509814D01*
X125673448Y-80611271D01*
X125702778Y-80647009D01*
X125702779Y-80647011D01*
X125786443Y-80803533D01*
X125786443Y-80803534D01*
X125837963Y-80973373D01*
X125855359Y-81150000D01*
X125837963Y-81326627D01*
X125803616Y-81439853D01*
X125786443Y-81496467D01*
X125712348Y-81635087D01*
X125702778Y-81652991D01*
X125673448Y-81688729D01*
X125590186Y-81790186D01*
X125488729Y-81873448D01*
X125452991Y-81902778D01*
X125452989Y-81902779D01*
X125296467Y-81986443D01*
X125239853Y-82003616D01*
X125126627Y-82037963D01*
X125060442Y-82044482D01*
X124994260Y-82051000D01*
X124905740Y-82051000D01*
X124839558Y-82044482D01*
X124773373Y-82037963D01*
X124660147Y-82003616D01*
X124603533Y-81986443D01*
X124447011Y-81902779D01*
X124447009Y-81902778D01*
X124411271Y-81873448D01*
X124309814Y-81790186D01*
X124226552Y-81688729D01*
X124197222Y-81652991D01*
X124187652Y-81635087D01*
X124113557Y-81496467D01*
X124096384Y-81439853D01*
X124062037Y-81326627D01*
X124044641Y-81150000D01*
X124062037Y-80973373D01*
X124113557Y-80803534D01*
X124113557Y-80803533D01*
X124197221Y-80647011D01*
X124197222Y-80647009D01*
X124226552Y-80611271D01*
X124309814Y-80509814D01*
X124411271Y-80426552D01*
X124447009Y-80397222D01*
X124464913Y-80387652D01*
X124603533Y-80313557D01*
X124660147Y-80296384D01*
X124773373Y-80262037D01*
X124839557Y-80255519D01*
X124905740Y-80249000D01*
X124994260Y-80249000D01*
X125060443Y-80255519D01*
X125060443Y-80255519D01*
G37*
G36*
X163160442Y-77715518D02*
X163226627Y-77722037D01*
X163339853Y-77756384D01*
X163396467Y-77773557D01*
X163535087Y-77847652D01*
X163552991Y-77857222D01*
X163588729Y-77886552D01*
X163690186Y-77969814D01*
X163773448Y-78071271D01*
X163802778Y-78107009D01*
X163802779Y-78107011D01*
X163886443Y-78263533D01*
X163886443Y-78263534D01*
X163937963Y-78433373D01*
X163955359Y-78610000D01*
X163937963Y-78786627D01*
X163903616Y-78899853D01*
X163886443Y-78956467D01*
X163812348Y-79095087D01*
X163802778Y-79112991D01*
X163773448Y-79148729D01*
X163690186Y-79250186D01*
X163588729Y-79333448D01*
X163552991Y-79362778D01*
X163552989Y-79362779D01*
X163396467Y-79446443D01*
X163339853Y-79463616D01*
X163226627Y-79497963D01*
X163160442Y-79504482D01*
X163094260Y-79511000D01*
X163005740Y-79511000D01*
X162939558Y-79504482D01*
X162873373Y-79497963D01*
X162760147Y-79463616D01*
X162703533Y-79446443D01*
X162547011Y-79362779D01*
X162547009Y-79362778D01*
X162511271Y-79333448D01*
X162409814Y-79250186D01*
X162326552Y-79148729D01*
X162297222Y-79112991D01*
X162287652Y-79095087D01*
X162213557Y-78956467D01*
X162196384Y-78899853D01*
X162162037Y-78786627D01*
X162144641Y-78610000D01*
X162162037Y-78433373D01*
X162213557Y-78263534D01*
X162213557Y-78263533D01*
X162297221Y-78107011D01*
X162297222Y-78107009D01*
X162326552Y-78071271D01*
X162409814Y-77969814D01*
X162511271Y-77886552D01*
X162547009Y-77857222D01*
X162564913Y-77847652D01*
X162703533Y-77773557D01*
X162760147Y-77756384D01*
X162873373Y-77722037D01*
X162939558Y-77715518D01*
X163005740Y-77709000D01*
X163094260Y-77709000D01*
X163160442Y-77715518D01*
X163160442Y-77715518D01*
G37*
G36*
X125060442Y-77715518D02*
X125126627Y-77722037D01*
X125239853Y-77756384D01*
X125296467Y-77773557D01*
X125435087Y-77847652D01*
X125452991Y-77857222D01*
X125488729Y-77886552D01*
X125590186Y-77969814D01*
X125673448Y-78071271D01*
X125702778Y-78107009D01*
X125702779Y-78107011D01*
X125786443Y-78263533D01*
X125786443Y-78263534D01*
X125837963Y-78433373D01*
X125855359Y-78610000D01*
X125837963Y-78786627D01*
X125803616Y-78899853D01*
X125786443Y-78956467D01*
X125712348Y-79095087D01*
X125702778Y-79112991D01*
X125673448Y-79148729D01*
X125590186Y-79250186D01*
X125488729Y-79333448D01*
X125452991Y-79362778D01*
X125452989Y-79362779D01*
X125296467Y-79446443D01*
X125239853Y-79463616D01*
X125126627Y-79497963D01*
X125060442Y-79504482D01*
X124994260Y-79511000D01*
X124905740Y-79511000D01*
X124839558Y-79504482D01*
X124773373Y-79497963D01*
X124660147Y-79463616D01*
X124603533Y-79446443D01*
X124447011Y-79362779D01*
X124447009Y-79362778D01*
X124411271Y-79333448D01*
X124309814Y-79250186D01*
X124226552Y-79148729D01*
X124197222Y-79112991D01*
X124187652Y-79095087D01*
X124113557Y-78956467D01*
X124096384Y-78899853D01*
X124062037Y-78786627D01*
X124044641Y-78610000D01*
X124062037Y-78433373D01*
X124113557Y-78263534D01*
X124113557Y-78263533D01*
X124197221Y-78107011D01*
X124197222Y-78107009D01*
X124226552Y-78071271D01*
X124309814Y-77969814D01*
X124411271Y-77886552D01*
X124447009Y-77857222D01*
X124464913Y-77847652D01*
X124603533Y-77773557D01*
X124660147Y-77756384D01*
X124773373Y-77722037D01*
X124839558Y-77715518D01*
X124905740Y-77709000D01*
X124994260Y-77709000D01*
X125060442Y-77715518D01*
X125060442Y-77715518D01*
G37*
G36*
X123775256Y-71791298D02*
X123881579Y-71812447D01*
X124182042Y-71936903D01*
X124448852Y-72115180D01*
X124452454Y-72117587D01*
X124682413Y-72347546D01*
X124863098Y-72617960D01*
X124987553Y-72918422D01*
X125051000Y-73237389D01*
X125051000Y-73562611D01*
X124987553Y-73881578D01*
X124863098Y-74182040D01*
X124682413Y-74452454D01*
X124452454Y-74682413D01*
X124452451Y-74682415D01*
X124182042Y-74863097D01*
X123881579Y-74987553D01*
X123775256Y-75008702D01*
X123562611Y-75051000D01*
X123237389Y-75051000D01*
X123024744Y-75008702D01*
X122918421Y-74987553D01*
X122617958Y-74863097D01*
X122347549Y-74682415D01*
X122347546Y-74682413D01*
X122117587Y-74452454D01*
X121936902Y-74182040D01*
X121812447Y-73881578D01*
X121749000Y-73562611D01*
X121749000Y-73237389D01*
X121812447Y-72918422D01*
X121936902Y-72617960D01*
X122117587Y-72347546D01*
X122347546Y-72117587D01*
X122351148Y-72115180D01*
X122617958Y-71936903D01*
X122918421Y-71812447D01*
X123024744Y-71791298D01*
X123237389Y-71749000D01*
X123562611Y-71749000D01*
X123775256Y-71791298D01*
X123775256Y-71791298D01*
G37*
G36*
X164975256Y-71791298D02*
X165081579Y-71812447D01*
X165382042Y-71936903D01*
X165648852Y-72115180D01*
X165652454Y-72117587D01*
X165882413Y-72347546D01*
X166063098Y-72617960D01*
X166187553Y-72918422D01*
X166251000Y-73237389D01*
X166251000Y-73562611D01*
X166187553Y-73881578D01*
X166063098Y-74182040D01*
X165882413Y-74452454D01*
X165652454Y-74682413D01*
X165652451Y-74682415D01*
X165382042Y-74863097D01*
X165081579Y-74987553D01*
X164975256Y-75008702D01*
X164762611Y-75051000D01*
X164437389Y-75051000D01*
X164224744Y-75008702D01*
X164118421Y-74987553D01*
X163817958Y-74863097D01*
X163547549Y-74682415D01*
X163547546Y-74682413D01*
X163317587Y-74452454D01*
X163136902Y-74182040D01*
X163012447Y-73881578D01*
X162949000Y-73562611D01*
X162949000Y-73237389D01*
X163012447Y-72918422D01*
X163136902Y-72617960D01*
X163317587Y-72347546D01*
X163547546Y-72117587D01*
X163551148Y-72115180D01*
X163817958Y-71936903D01*
X164118421Y-71812447D01*
X164224744Y-71791298D01*
X164437389Y-71749000D01*
X164762611Y-71749000D01*
X164975256Y-71791298D01*
X164975256Y-71791298D01*
G37*
M02*
