G04 #@! TF.GenerationSoftware,KiCad,Pcbnew,5.0.2-bee76a0~70~ubuntu18.04.1*
G04 #@! TF.CreationDate,2019-02-14T01:12:15+09:00*
G04 #@! TF.ProjectId,LeonardoBB,4c656f6e-6172-4646-9f42-422e6b696361,rev?*
G04 #@! TF.SameCoordinates,Original*
G04 #@! TF.FileFunction,Legend,Bot*
G04 #@! TF.FilePolarity,Positive*
%FSLAX46Y46*%
G04 Gerber Fmt 4.6, Leading zero omitted, Abs format (unit mm)*
G04 Created by KiCad (PCBNEW 5.0.2-bee76a0~70~ubuntu18.04.1) date 2019年02月14日 01時12分15秒*
%MOMM*%
%LPD*%
G01*
G04 APERTURE LIST*
%ADD10C,0.225000*%
%ADD11C,0.200000*%
%ADD12C,0.275000*%
%ADD13C,0.120000*%
G04 APERTURE END LIST*
D10*
X167221642Y-95890714D02*
X166321642Y-95890714D01*
X166321642Y-96233571D01*
X166364500Y-96319285D01*
X166407357Y-96362142D01*
X166493071Y-96405000D01*
X166621642Y-96405000D01*
X166707357Y-96362142D01*
X166750214Y-96319285D01*
X166793071Y-96233571D01*
X166793071Y-95890714D01*
X166321642Y-96705000D02*
X167221642Y-96919285D01*
X166578785Y-97090714D01*
X167221642Y-97262142D01*
X166321642Y-97476428D01*
X167221642Y-97819285D02*
X166321642Y-97819285D01*
X166964500Y-98119285D01*
X166321642Y-98419285D01*
X167221642Y-98419285D01*
X167221642Y-92906214D02*
X166321642Y-92906214D01*
X166321642Y-93249071D01*
X166364500Y-93334785D01*
X166407357Y-93377642D01*
X166493071Y-93420500D01*
X166621642Y-93420500D01*
X166707357Y-93377642D01*
X166750214Y-93334785D01*
X166793071Y-93249071D01*
X166793071Y-92906214D01*
X166321642Y-93720500D02*
X167221642Y-93934785D01*
X166578785Y-94106214D01*
X167221642Y-94277642D01*
X166321642Y-94491928D01*
X167221642Y-94834785D02*
X166321642Y-94834785D01*
X166964500Y-95134785D01*
X166321642Y-95434785D01*
X167221642Y-95434785D01*
X167221642Y-90048714D02*
X166321642Y-90048714D01*
X166321642Y-90391571D01*
X166364500Y-90477285D01*
X166407357Y-90520142D01*
X166493071Y-90563000D01*
X166621642Y-90563000D01*
X166707357Y-90520142D01*
X166750214Y-90477285D01*
X166793071Y-90391571D01*
X166793071Y-90048714D01*
X166321642Y-90863000D02*
X167221642Y-91077285D01*
X166578785Y-91248714D01*
X167221642Y-91420142D01*
X166321642Y-91634428D01*
X167221642Y-91977285D02*
X166321642Y-91977285D01*
X166964500Y-92277285D01*
X166321642Y-92577285D01*
X167221642Y-92577285D01*
X167221642Y-85032214D02*
X166321642Y-85032214D01*
X166321642Y-85375071D01*
X166364500Y-85460785D01*
X166407357Y-85503642D01*
X166493071Y-85546500D01*
X166621642Y-85546500D01*
X166707357Y-85503642D01*
X166750214Y-85460785D01*
X166793071Y-85375071D01*
X166793071Y-85032214D01*
X166321642Y-85846500D02*
X167221642Y-86060785D01*
X166578785Y-86232214D01*
X167221642Y-86403642D01*
X166321642Y-86617928D01*
X167221642Y-86960785D02*
X166321642Y-86960785D01*
X166964500Y-87260785D01*
X166321642Y-87560785D01*
X167221642Y-87560785D01*
X167221642Y-102685214D02*
X166321642Y-102685214D01*
X166321642Y-103028071D01*
X166364500Y-103113785D01*
X166407357Y-103156642D01*
X166493071Y-103199500D01*
X166621642Y-103199500D01*
X166707357Y-103156642D01*
X166750214Y-103113785D01*
X166793071Y-103028071D01*
X166793071Y-102685214D01*
X166321642Y-103499500D02*
X167221642Y-103713785D01*
X166578785Y-103885214D01*
X167221642Y-104056642D01*
X166321642Y-104270928D01*
X167221642Y-104613785D02*
X166321642Y-104613785D01*
X166964500Y-104913785D01*
X166321642Y-105213785D01*
X167221642Y-105213785D01*
X167221642Y-105479214D02*
X166321642Y-105479214D01*
X166321642Y-105822071D01*
X166364500Y-105907785D01*
X166407357Y-105950642D01*
X166493071Y-105993500D01*
X166621642Y-105993500D01*
X166707357Y-105950642D01*
X166750214Y-105907785D01*
X166793071Y-105822071D01*
X166793071Y-105479214D01*
X166321642Y-106293500D02*
X167221642Y-106507785D01*
X166578785Y-106679214D01*
X167221642Y-106850642D01*
X166321642Y-107064928D01*
X167221642Y-107407785D02*
X166321642Y-107407785D01*
X166964500Y-107707785D01*
X166321642Y-108007785D01*
X167221642Y-108007785D01*
X167221642Y-118976000D02*
X166793071Y-118676000D01*
X167221642Y-118461714D02*
X166321642Y-118461714D01*
X166321642Y-118804571D01*
X166364500Y-118890285D01*
X166407357Y-118933142D01*
X166493071Y-118976000D01*
X166621642Y-118976000D01*
X166707357Y-118933142D01*
X166750214Y-118890285D01*
X166793071Y-118804571D01*
X166793071Y-118461714D01*
X166321642Y-119276000D02*
X167221642Y-119876000D01*
X166321642Y-119876000D02*
X167221642Y-119276000D01*
X166321642Y-116027285D02*
X166321642Y-116541571D01*
X167221642Y-116284428D02*
X166321642Y-116284428D01*
X166321642Y-116755857D02*
X167221642Y-117355857D01*
X166321642Y-117355857D02*
X167221642Y-116755857D01*
X167178785Y-110561571D02*
X167221642Y-110690142D01*
X167221642Y-110904428D01*
X167178785Y-110990142D01*
X167135928Y-111033000D01*
X167050214Y-111075857D01*
X166964500Y-111075857D01*
X166878785Y-111033000D01*
X166835928Y-110990142D01*
X166793071Y-110904428D01*
X166750214Y-110733000D01*
X166707357Y-110647285D01*
X166664500Y-110604428D01*
X166578785Y-110561571D01*
X166493071Y-110561571D01*
X166407357Y-110604428D01*
X166364500Y-110647285D01*
X166321642Y-110733000D01*
X166321642Y-110947285D01*
X166364500Y-111075857D01*
X167135928Y-111975857D02*
X167178785Y-111933000D01*
X167221642Y-111804428D01*
X167221642Y-111718714D01*
X167178785Y-111590142D01*
X167093071Y-111504428D01*
X167007357Y-111461571D01*
X166835928Y-111418714D01*
X166707357Y-111418714D01*
X166535928Y-111461571D01*
X166450214Y-111504428D01*
X166364500Y-111590142D01*
X166321642Y-111718714D01*
X166321642Y-111804428D01*
X166364500Y-111933000D01*
X166407357Y-111975857D01*
X167221642Y-112790142D02*
X167221642Y-112361571D01*
X166321642Y-112361571D01*
X167178785Y-113080142D02*
X167221642Y-113208714D01*
X167221642Y-113423000D01*
X167178785Y-113508714D01*
X167135928Y-113551571D01*
X167050214Y-113594428D01*
X166964500Y-113594428D01*
X166878785Y-113551571D01*
X166835928Y-113508714D01*
X166793071Y-113423000D01*
X166750214Y-113251571D01*
X166707357Y-113165857D01*
X166664500Y-113123000D01*
X166578785Y-113080142D01*
X166493071Y-113080142D01*
X166407357Y-113123000D01*
X166364500Y-113165857D01*
X166321642Y-113251571D01*
X166321642Y-113465857D01*
X166364500Y-113594428D01*
X167221642Y-113980142D02*
X166321642Y-113980142D01*
X166321642Y-114194428D01*
X166364500Y-114323000D01*
X166450214Y-114408714D01*
X166535928Y-114451571D01*
X166707357Y-114494428D01*
X166835928Y-114494428D01*
X167007357Y-114451571D01*
X167093071Y-114408714D01*
X167178785Y-114323000D01*
X167221642Y-114194428D01*
X167221642Y-113980142D01*
X166964500Y-114837285D02*
X166964500Y-115265857D01*
X167221642Y-114751571D02*
X166321642Y-115051571D01*
X167221642Y-115351571D01*
D11*
X137623380Y-123742404D02*
X137890047Y-123361452D01*
X138080523Y-123742404D02*
X138080523Y-122942404D01*
X137775761Y-122942404D01*
X137699571Y-122980500D01*
X137661476Y-123018595D01*
X137623380Y-123094785D01*
X137623380Y-123209071D01*
X137661476Y-123285261D01*
X137699571Y-123323357D01*
X137775761Y-123361452D01*
X138080523Y-123361452D01*
X136975761Y-123704309D02*
X137051952Y-123742404D01*
X137204333Y-123742404D01*
X137280523Y-123704309D01*
X137318619Y-123628119D01*
X137318619Y-123323357D01*
X137280523Y-123247166D01*
X137204333Y-123209071D01*
X137051952Y-123209071D01*
X136975761Y-123247166D01*
X136937666Y-123323357D01*
X136937666Y-123399547D01*
X137318619Y-123475738D01*
X136671000Y-123209071D02*
X136480523Y-123742404D01*
X136290047Y-123209071D01*
X135832904Y-122942404D02*
X135756714Y-122942404D01*
X135680523Y-122980500D01*
X135642428Y-123018595D01*
X135604333Y-123094785D01*
X135566238Y-123247166D01*
X135566238Y-123437642D01*
X135604333Y-123590023D01*
X135642428Y-123666214D01*
X135680523Y-123704309D01*
X135756714Y-123742404D01*
X135832904Y-123742404D01*
X135909095Y-123704309D01*
X135947190Y-123666214D01*
X135985285Y-123590023D01*
X136023380Y-123437642D01*
X136023380Y-123247166D01*
X135985285Y-123094785D01*
X135947190Y-123018595D01*
X135909095Y-122980500D01*
X135832904Y-122942404D01*
X135223380Y-123666214D02*
X135185285Y-123704309D01*
X135223380Y-123742404D01*
X135261476Y-123704309D01*
X135223380Y-123666214D01*
X135223380Y-123742404D01*
X134690047Y-122942404D02*
X134613857Y-122942404D01*
X134537666Y-122980500D01*
X134499571Y-123018595D01*
X134461476Y-123094785D01*
X134423380Y-123247166D01*
X134423380Y-123437642D01*
X134461476Y-123590023D01*
X134499571Y-123666214D01*
X134537666Y-123704309D01*
X134613857Y-123742404D01*
X134690047Y-123742404D01*
X134766238Y-123704309D01*
X134804333Y-123666214D01*
X134842428Y-123590023D01*
X134880523Y-123437642D01*
X134880523Y-123247166D01*
X134842428Y-123094785D01*
X134804333Y-123018595D01*
X134766238Y-122980500D01*
X134690047Y-122942404D01*
D12*
X147506023Y-123687619D02*
X148029833Y-123687619D01*
X148029833Y-122587619D01*
X146982214Y-123687619D02*
X147086976Y-123635238D01*
X147139357Y-123582857D01*
X147191738Y-123478095D01*
X147191738Y-123163809D01*
X147139357Y-123059047D01*
X147086976Y-123006666D01*
X146982214Y-122954285D01*
X146825071Y-122954285D01*
X146720309Y-123006666D01*
X146667928Y-123059047D01*
X146615547Y-123163809D01*
X146615547Y-123478095D01*
X146667928Y-123582857D01*
X146720309Y-123635238D01*
X146825071Y-123687619D01*
X146982214Y-123687619D01*
X145725071Y-123635238D02*
X145829833Y-123687619D01*
X146039357Y-123687619D01*
X146144119Y-123635238D01*
X146196500Y-123530476D01*
X146196500Y-123111428D01*
X146144119Y-123006666D01*
X146039357Y-122954285D01*
X145829833Y-122954285D01*
X145725071Y-123006666D01*
X145672690Y-123111428D01*
X145672690Y-123216190D01*
X146196500Y-123320952D01*
X145201261Y-122954285D02*
X145201261Y-123687619D01*
X145201261Y-123059047D02*
X145148880Y-123006666D01*
X145044119Y-122954285D01*
X144886976Y-122954285D01*
X144782214Y-123006666D01*
X144729833Y-123111428D01*
X144729833Y-123687619D01*
X143734595Y-123687619D02*
X143734595Y-123111428D01*
X143786976Y-123006666D01*
X143891738Y-122954285D01*
X144101261Y-122954285D01*
X144206023Y-123006666D01*
X143734595Y-123635238D02*
X143839357Y-123687619D01*
X144101261Y-123687619D01*
X144206023Y-123635238D01*
X144258404Y-123530476D01*
X144258404Y-123425714D01*
X144206023Y-123320952D01*
X144101261Y-123268571D01*
X143839357Y-123268571D01*
X143734595Y-123216190D01*
X143210785Y-123687619D02*
X143210785Y-122954285D01*
X143210785Y-123163809D02*
X143158404Y-123059047D01*
X143106023Y-123006666D01*
X143001261Y-122954285D01*
X142896500Y-122954285D01*
X142058404Y-123687619D02*
X142058404Y-122587619D01*
X142058404Y-123635238D02*
X142163166Y-123687619D01*
X142372690Y-123687619D01*
X142477452Y-123635238D01*
X142529833Y-123582857D01*
X142582214Y-123478095D01*
X142582214Y-123163809D01*
X142529833Y-123059047D01*
X142477452Y-123006666D01*
X142372690Y-122954285D01*
X142163166Y-122954285D01*
X142058404Y-123006666D01*
X141377452Y-123687619D02*
X141482214Y-123635238D01*
X141534595Y-123582857D01*
X141586976Y-123478095D01*
X141586976Y-123163809D01*
X141534595Y-123059047D01*
X141482214Y-123006666D01*
X141377452Y-122954285D01*
X141220309Y-122954285D01*
X141115547Y-123006666D01*
X141063166Y-123059047D01*
X141010785Y-123163809D01*
X141010785Y-123478095D01*
X141063166Y-123582857D01*
X141115547Y-123635238D01*
X141220309Y-123687619D01*
X141377452Y-123687619D01*
X140172690Y-123111428D02*
X140015547Y-123163809D01*
X139963166Y-123216190D01*
X139910785Y-123320952D01*
X139910785Y-123478095D01*
X139963166Y-123582857D01*
X140015547Y-123635238D01*
X140120309Y-123687619D01*
X140539357Y-123687619D01*
X140539357Y-122587619D01*
X140172690Y-122587619D01*
X140067928Y-122640000D01*
X140015547Y-122692380D01*
X139963166Y-122797142D01*
X139963166Y-122901904D01*
X140015547Y-123006666D01*
X140067928Y-123059047D01*
X140172690Y-123111428D01*
X140539357Y-123111428D01*
X139072690Y-123111428D02*
X138915547Y-123163809D01*
X138863166Y-123216190D01*
X138810785Y-123320952D01*
X138810785Y-123478095D01*
X138863166Y-123582857D01*
X138915547Y-123635238D01*
X139020309Y-123687619D01*
X139439357Y-123687619D01*
X139439357Y-122587619D01*
X139072690Y-122587619D01*
X138967928Y-122640000D01*
X138915547Y-122692380D01*
X138863166Y-122797142D01*
X138863166Y-122901904D01*
X138915547Y-123006666D01*
X138967928Y-123059047D01*
X139072690Y-123111428D01*
X139439357Y-123111428D01*
D11*
X143973452Y-125266404D02*
X143973452Y-124466404D01*
X143630595Y-124542595D02*
X143592500Y-124504500D01*
X143516309Y-124466404D01*
X143325833Y-124466404D01*
X143249642Y-124504500D01*
X143211547Y-124542595D01*
X143173452Y-124618785D01*
X143173452Y-124694976D01*
X143211547Y-124809261D01*
X143668690Y-125266404D01*
X143173452Y-125266404D01*
X142373452Y-125190214D02*
X142411547Y-125228309D01*
X142525833Y-125266404D01*
X142602023Y-125266404D01*
X142716309Y-125228309D01*
X142792500Y-125152119D01*
X142830595Y-125075928D01*
X142868690Y-124923547D01*
X142868690Y-124809261D01*
X142830595Y-124656880D01*
X142792500Y-124580690D01*
X142716309Y-124504500D01*
X142602023Y-124466404D01*
X142525833Y-124466404D01*
X142411547Y-124504500D01*
X142373452Y-124542595D01*
X146773738Y-126345904D02*
X146773738Y-125545904D01*
X146316595Y-126345904D01*
X146316595Y-125545904D01*
X145821357Y-126345904D02*
X145897547Y-126307809D01*
X145935642Y-126269714D01*
X145973738Y-126193523D01*
X145973738Y-125964952D01*
X145935642Y-125888761D01*
X145897547Y-125850666D01*
X145821357Y-125812571D01*
X145707071Y-125812571D01*
X145630880Y-125850666D01*
X145592785Y-125888761D01*
X145554690Y-125964952D01*
X145554690Y-126193523D01*
X145592785Y-126269714D01*
X145630880Y-126307809D01*
X145707071Y-126345904D01*
X145821357Y-126345904D01*
X145211833Y-125812571D02*
X145211833Y-126345904D01*
X145211833Y-125888761D02*
X145173738Y-125850666D01*
X145097547Y-125812571D01*
X144983261Y-125812571D01*
X144907071Y-125850666D01*
X144868976Y-125926857D01*
X144868976Y-126345904D01*
X144183261Y-126307809D02*
X144259452Y-126345904D01*
X144411833Y-126345904D01*
X144488023Y-126307809D01*
X144526119Y-126231619D01*
X144526119Y-125926857D01*
X144488023Y-125850666D01*
X144411833Y-125812571D01*
X144259452Y-125812571D01*
X144183261Y-125850666D01*
X144145166Y-125926857D01*
X144145166Y-126003047D01*
X144526119Y-126079238D01*
X142550928Y-126345904D02*
X142550928Y-125545904D01*
X142246166Y-125545904D01*
X142169976Y-125584000D01*
X142131880Y-125622095D01*
X142093785Y-125698285D01*
X142093785Y-125812571D01*
X142131880Y-125888761D01*
X142169976Y-125926857D01*
X142246166Y-125964952D01*
X142550928Y-125964952D01*
X141408071Y-125812571D02*
X141408071Y-126345904D01*
X141750928Y-125812571D02*
X141750928Y-126231619D01*
X141712833Y-126307809D01*
X141636642Y-126345904D01*
X141522357Y-126345904D01*
X141446166Y-126307809D01*
X141408071Y-126269714D01*
X140912833Y-126345904D02*
X140989023Y-126307809D01*
X141027119Y-126231619D01*
X141027119Y-125545904D01*
X140493785Y-126345904D02*
X140569976Y-126307809D01*
X140608071Y-126231619D01*
X140608071Y-125545904D01*
X140189023Y-125545904D02*
X140189023Y-126193523D01*
X140150928Y-126269714D01*
X140112833Y-126307809D01*
X140036642Y-126345904D01*
X139884261Y-126345904D01*
X139808071Y-126307809D01*
X139769976Y-126269714D01*
X139731880Y-126193523D01*
X139731880Y-125545904D01*
X139350928Y-125812571D02*
X139350928Y-126612571D01*
X139350928Y-125850666D02*
X139274738Y-125812571D01*
X139122357Y-125812571D01*
X139046166Y-125850666D01*
X139008071Y-125888761D01*
X138969976Y-125964952D01*
X138969976Y-126193523D01*
X139008071Y-126269714D01*
X139046166Y-126307809D01*
X139122357Y-126345904D01*
X139274738Y-126345904D01*
X139350928Y-126307809D01*
D10*
X165570642Y-118461714D02*
X164670642Y-118461714D01*
X164670642Y-118676000D01*
X164713500Y-118804571D01*
X164799214Y-118890285D01*
X164884928Y-118933142D01*
X165056357Y-118976000D01*
X165184928Y-118976000D01*
X165356357Y-118933142D01*
X165442071Y-118890285D01*
X165527785Y-118804571D01*
X165570642Y-118676000D01*
X165570642Y-118461714D01*
X164670642Y-119533142D02*
X164670642Y-119618857D01*
X164713500Y-119704571D01*
X164756357Y-119747428D01*
X164842071Y-119790285D01*
X165013500Y-119833142D01*
X165227785Y-119833142D01*
X165399214Y-119790285D01*
X165484928Y-119747428D01*
X165527785Y-119704571D01*
X165570642Y-119618857D01*
X165570642Y-119533142D01*
X165527785Y-119447428D01*
X165484928Y-119404571D01*
X165399214Y-119361714D01*
X165227785Y-119318857D01*
X165013500Y-119318857D01*
X164842071Y-119361714D01*
X164756357Y-119404571D01*
X164713500Y-119447428D01*
X164670642Y-119533142D01*
X165570642Y-115921714D02*
X164670642Y-115921714D01*
X164670642Y-116136000D01*
X164713500Y-116264571D01*
X164799214Y-116350285D01*
X164884928Y-116393142D01*
X165056357Y-116436000D01*
X165184928Y-116436000D01*
X165356357Y-116393142D01*
X165442071Y-116350285D01*
X165527785Y-116264571D01*
X165570642Y-116136000D01*
X165570642Y-115921714D01*
X165570642Y-117293142D02*
X165570642Y-116778857D01*
X165570642Y-117036000D02*
X164670642Y-117036000D01*
X164799214Y-116950285D01*
X164884928Y-116864571D01*
X164927785Y-116778857D01*
X165570642Y-113508714D02*
X164670642Y-113508714D01*
X164670642Y-113723000D01*
X164713500Y-113851571D01*
X164799214Y-113937285D01*
X164884928Y-113980142D01*
X165056357Y-114023000D01*
X165184928Y-114023000D01*
X165356357Y-113980142D01*
X165442071Y-113937285D01*
X165527785Y-113851571D01*
X165570642Y-113723000D01*
X165570642Y-113508714D01*
X164756357Y-114365857D02*
X164713500Y-114408714D01*
X164670642Y-114494428D01*
X164670642Y-114708714D01*
X164713500Y-114794428D01*
X164756357Y-114837285D01*
X164842071Y-114880142D01*
X164927785Y-114880142D01*
X165056357Y-114837285D01*
X165570642Y-114323000D01*
X165570642Y-114880142D01*
X165570642Y-110968714D02*
X164670642Y-110968714D01*
X164670642Y-111183000D01*
X164713500Y-111311571D01*
X164799214Y-111397285D01*
X164884928Y-111440142D01*
X165056357Y-111483000D01*
X165184928Y-111483000D01*
X165356357Y-111440142D01*
X165442071Y-111397285D01*
X165527785Y-111311571D01*
X165570642Y-111183000D01*
X165570642Y-110968714D01*
X164670642Y-111783000D02*
X164670642Y-112340142D01*
X165013500Y-112040142D01*
X165013500Y-112168714D01*
X165056357Y-112254428D01*
X165099214Y-112297285D01*
X165184928Y-112340142D01*
X165399214Y-112340142D01*
X165484928Y-112297285D01*
X165527785Y-112254428D01*
X165570642Y-112168714D01*
X165570642Y-111911571D01*
X165527785Y-111825857D01*
X165484928Y-111783000D01*
X165570642Y-108555714D02*
X164670642Y-108555714D01*
X164670642Y-108770000D01*
X164713500Y-108898571D01*
X164799214Y-108984285D01*
X164884928Y-109027142D01*
X165056357Y-109070000D01*
X165184928Y-109070000D01*
X165356357Y-109027142D01*
X165442071Y-108984285D01*
X165527785Y-108898571D01*
X165570642Y-108770000D01*
X165570642Y-108555714D01*
X164970642Y-109841428D02*
X165570642Y-109841428D01*
X164627785Y-109627142D02*
X165270642Y-109412857D01*
X165270642Y-109970000D01*
X165507142Y-106015714D02*
X164607142Y-106015714D01*
X164607142Y-106230000D01*
X164650000Y-106358571D01*
X164735714Y-106444285D01*
X164821428Y-106487142D01*
X164992857Y-106530000D01*
X165121428Y-106530000D01*
X165292857Y-106487142D01*
X165378571Y-106444285D01*
X165464285Y-106358571D01*
X165507142Y-106230000D01*
X165507142Y-106015714D01*
X164607142Y-107344285D02*
X164607142Y-106915714D01*
X165035714Y-106872857D01*
X164992857Y-106915714D01*
X164950000Y-107001428D01*
X164950000Y-107215714D01*
X164992857Y-107301428D01*
X165035714Y-107344285D01*
X165121428Y-107387142D01*
X165335714Y-107387142D01*
X165421428Y-107344285D01*
X165464285Y-107301428D01*
X165507142Y-107215714D01*
X165507142Y-107001428D01*
X165464285Y-106915714D01*
X165421428Y-106872857D01*
X165570642Y-103412214D02*
X164670642Y-103412214D01*
X164670642Y-103626500D01*
X164713500Y-103755071D01*
X164799214Y-103840785D01*
X164884928Y-103883642D01*
X165056357Y-103926500D01*
X165184928Y-103926500D01*
X165356357Y-103883642D01*
X165442071Y-103840785D01*
X165527785Y-103755071D01*
X165570642Y-103626500D01*
X165570642Y-103412214D01*
X164670642Y-104697928D02*
X164670642Y-104526500D01*
X164713500Y-104440785D01*
X164756357Y-104397928D01*
X164884928Y-104312214D01*
X165056357Y-104269357D01*
X165399214Y-104269357D01*
X165484928Y-104312214D01*
X165527785Y-104355071D01*
X165570642Y-104440785D01*
X165570642Y-104612214D01*
X165527785Y-104697928D01*
X165484928Y-104740785D01*
X165399214Y-104783642D01*
X165184928Y-104783642D01*
X165099214Y-104740785D01*
X165056357Y-104697928D01*
X165013500Y-104612214D01*
X165013500Y-104440785D01*
X165056357Y-104355071D01*
X165099214Y-104312214D01*
X165184928Y-104269357D01*
X165570642Y-100872214D02*
X164670642Y-100872214D01*
X164670642Y-101086500D01*
X164713500Y-101215071D01*
X164799214Y-101300785D01*
X164884928Y-101343642D01*
X165056357Y-101386500D01*
X165184928Y-101386500D01*
X165356357Y-101343642D01*
X165442071Y-101300785D01*
X165527785Y-101215071D01*
X165570642Y-101086500D01*
X165570642Y-100872214D01*
X164670642Y-101686500D02*
X164670642Y-102286500D01*
X165570642Y-101900785D01*
X165570642Y-98268714D02*
X164670642Y-98268714D01*
X164670642Y-98483000D01*
X164713500Y-98611571D01*
X164799214Y-98697285D01*
X164884928Y-98740142D01*
X165056357Y-98783000D01*
X165184928Y-98783000D01*
X165356357Y-98740142D01*
X165442071Y-98697285D01*
X165527785Y-98611571D01*
X165570642Y-98483000D01*
X165570642Y-98268714D01*
X165056357Y-99297285D02*
X165013500Y-99211571D01*
X164970642Y-99168714D01*
X164884928Y-99125857D01*
X164842071Y-99125857D01*
X164756357Y-99168714D01*
X164713500Y-99211571D01*
X164670642Y-99297285D01*
X164670642Y-99468714D01*
X164713500Y-99554428D01*
X164756357Y-99597285D01*
X164842071Y-99640142D01*
X164884928Y-99640142D01*
X164970642Y-99597285D01*
X165013500Y-99554428D01*
X165056357Y-99468714D01*
X165056357Y-99297285D01*
X165099214Y-99211571D01*
X165142071Y-99168714D01*
X165227785Y-99125857D01*
X165399214Y-99125857D01*
X165484928Y-99168714D01*
X165527785Y-99211571D01*
X165570642Y-99297285D01*
X165570642Y-99468714D01*
X165527785Y-99554428D01*
X165484928Y-99597285D01*
X165399214Y-99640142D01*
X165227785Y-99640142D01*
X165142071Y-99597285D01*
X165099214Y-99554428D01*
X165056357Y-99468714D01*
X165570642Y-95855714D02*
X164670642Y-95855714D01*
X164670642Y-96070000D01*
X164713500Y-96198571D01*
X164799214Y-96284285D01*
X164884928Y-96327142D01*
X165056357Y-96370000D01*
X165184928Y-96370000D01*
X165356357Y-96327142D01*
X165442071Y-96284285D01*
X165527785Y-96198571D01*
X165570642Y-96070000D01*
X165570642Y-95855714D01*
X165570642Y-96798571D02*
X165570642Y-96970000D01*
X165527785Y-97055714D01*
X165484928Y-97098571D01*
X165356357Y-97184285D01*
X165184928Y-97227142D01*
X164842071Y-97227142D01*
X164756357Y-97184285D01*
X164713500Y-97141428D01*
X164670642Y-97055714D01*
X164670642Y-96884285D01*
X164713500Y-96798571D01*
X164756357Y-96755714D01*
X164842071Y-96712857D01*
X165056357Y-96712857D01*
X165142071Y-96755714D01*
X165184928Y-96798571D01*
X165227785Y-96884285D01*
X165227785Y-97055714D01*
X165184928Y-97141428D01*
X165142071Y-97184285D01*
X165056357Y-97227142D01*
X165570642Y-92823642D02*
X164670642Y-92823642D01*
X164670642Y-93037928D01*
X164713500Y-93166500D01*
X164799214Y-93252214D01*
X164884928Y-93295071D01*
X165056357Y-93337928D01*
X165184928Y-93337928D01*
X165356357Y-93295071D01*
X165442071Y-93252214D01*
X165527785Y-93166500D01*
X165570642Y-93037928D01*
X165570642Y-92823642D01*
X165570642Y-94195071D02*
X165570642Y-93680785D01*
X165570642Y-93937928D02*
X164670642Y-93937928D01*
X164799214Y-93852214D01*
X164884928Y-93766500D01*
X164927785Y-93680785D01*
X164670642Y-94752214D02*
X164670642Y-94837928D01*
X164713500Y-94923642D01*
X164756357Y-94966500D01*
X164842071Y-95009357D01*
X165013500Y-95052214D01*
X165227785Y-95052214D01*
X165399214Y-95009357D01*
X165484928Y-94966500D01*
X165527785Y-94923642D01*
X165570642Y-94837928D01*
X165570642Y-94752214D01*
X165527785Y-94666500D01*
X165484928Y-94623642D01*
X165399214Y-94580785D01*
X165227785Y-94537928D01*
X165013500Y-94537928D01*
X164842071Y-94580785D01*
X164756357Y-94623642D01*
X164713500Y-94666500D01*
X164670642Y-94752214D01*
X165570642Y-90283642D02*
X164670642Y-90283642D01*
X164670642Y-90497928D01*
X164713500Y-90626500D01*
X164799214Y-90712214D01*
X164884928Y-90755071D01*
X165056357Y-90797928D01*
X165184928Y-90797928D01*
X165356357Y-90755071D01*
X165442071Y-90712214D01*
X165527785Y-90626500D01*
X165570642Y-90497928D01*
X165570642Y-90283642D01*
X165570642Y-91655071D02*
X165570642Y-91140785D01*
X165570642Y-91397928D02*
X164670642Y-91397928D01*
X164799214Y-91312214D01*
X164884928Y-91226500D01*
X164927785Y-91140785D01*
X165570642Y-92512214D02*
X165570642Y-91997928D01*
X165570642Y-92255071D02*
X164670642Y-92255071D01*
X164799214Y-92169357D01*
X164884928Y-92083642D01*
X164927785Y-91997928D01*
X165570642Y-87743642D02*
X164670642Y-87743642D01*
X164670642Y-87957928D01*
X164713500Y-88086500D01*
X164799214Y-88172214D01*
X164884928Y-88215071D01*
X165056357Y-88257928D01*
X165184928Y-88257928D01*
X165356357Y-88215071D01*
X165442071Y-88172214D01*
X165527785Y-88086500D01*
X165570642Y-87957928D01*
X165570642Y-87743642D01*
X165570642Y-89115071D02*
X165570642Y-88600785D01*
X165570642Y-88857928D02*
X164670642Y-88857928D01*
X164799214Y-88772214D01*
X164884928Y-88686500D01*
X164927785Y-88600785D01*
X164756357Y-89457928D02*
X164713500Y-89500785D01*
X164670642Y-89586500D01*
X164670642Y-89800785D01*
X164713500Y-89886500D01*
X164756357Y-89929357D01*
X164842071Y-89972214D01*
X164927785Y-89972214D01*
X165056357Y-89929357D01*
X165570642Y-89415071D01*
X165570642Y-89972214D01*
X165634142Y-85140142D02*
X164734142Y-85140142D01*
X164734142Y-85354428D01*
X164777000Y-85483000D01*
X164862714Y-85568714D01*
X164948428Y-85611571D01*
X165119857Y-85654428D01*
X165248428Y-85654428D01*
X165419857Y-85611571D01*
X165505571Y-85568714D01*
X165591285Y-85483000D01*
X165634142Y-85354428D01*
X165634142Y-85140142D01*
X165634142Y-86511571D02*
X165634142Y-85997285D01*
X165634142Y-86254428D02*
X164734142Y-86254428D01*
X164862714Y-86168714D01*
X164948428Y-86083000D01*
X164991285Y-85997285D01*
X164734142Y-86811571D02*
X164734142Y-87368714D01*
X165077000Y-87068714D01*
X165077000Y-87197285D01*
X165119857Y-87283000D01*
X165162714Y-87325857D01*
X165248428Y-87368714D01*
X165462714Y-87368714D01*
X165548428Y-87325857D01*
X165591285Y-87283000D01*
X165634142Y-87197285D01*
X165634142Y-86940142D01*
X165591285Y-86854428D01*
X165548428Y-86811571D01*
X164797642Y-82578714D02*
X164797642Y-83135857D01*
X165140500Y-82835857D01*
X165140500Y-82964428D01*
X165183357Y-83050142D01*
X165226214Y-83093000D01*
X165311928Y-83135857D01*
X165526214Y-83135857D01*
X165611928Y-83093000D01*
X165654785Y-83050142D01*
X165697642Y-82964428D01*
X165697642Y-82707285D01*
X165654785Y-82621571D01*
X165611928Y-82578714D01*
X164797642Y-83393000D02*
X165697642Y-83693000D01*
X164797642Y-83993000D01*
X164797642Y-84207285D02*
X164797642Y-84764428D01*
X165140500Y-84464428D01*
X165140500Y-84593000D01*
X165183357Y-84678714D01*
X165226214Y-84721571D01*
X165311928Y-84764428D01*
X165526214Y-84764428D01*
X165611928Y-84721571D01*
X165654785Y-84678714D01*
X165697642Y-84593000D01*
X165697642Y-84335857D01*
X165654785Y-84250142D01*
X165611928Y-84207285D01*
X164797642Y-81045071D02*
X164797642Y-80616500D01*
X165226214Y-80573642D01*
X165183357Y-80616500D01*
X165140500Y-80702214D01*
X165140500Y-80916500D01*
X165183357Y-81002214D01*
X165226214Y-81045071D01*
X165311928Y-81087928D01*
X165526214Y-81087928D01*
X165611928Y-81045071D01*
X165654785Y-81002214D01*
X165697642Y-80916500D01*
X165697642Y-80702214D01*
X165654785Y-80616500D01*
X165611928Y-80573642D01*
X164797642Y-81345071D02*
X165697642Y-81645071D01*
X164797642Y-81945071D01*
X164777000Y-77927285D02*
X164734142Y-77841571D01*
X164734142Y-77713000D01*
X164777000Y-77584428D01*
X164862714Y-77498714D01*
X164948428Y-77455857D01*
X165119857Y-77413000D01*
X165248428Y-77413000D01*
X165419857Y-77455857D01*
X165505571Y-77498714D01*
X165591285Y-77584428D01*
X165634142Y-77713000D01*
X165634142Y-77798714D01*
X165591285Y-77927285D01*
X165548428Y-77970142D01*
X165248428Y-77970142D01*
X165248428Y-77798714D01*
X165634142Y-78355857D02*
X164734142Y-78355857D01*
X165634142Y-78870142D01*
X164734142Y-78870142D01*
X165634142Y-79298714D02*
X164734142Y-79298714D01*
X164734142Y-79513000D01*
X164777000Y-79641571D01*
X164862714Y-79727285D01*
X164948428Y-79770142D01*
X165119857Y-79813000D01*
X165248428Y-79813000D01*
X165419857Y-79770142D01*
X165505571Y-79727285D01*
X165591285Y-79641571D01*
X165634142Y-79513000D01*
X165634142Y-79298714D01*
X123259000Y-119938714D02*
X123301857Y-120024428D01*
X123301857Y-120153000D01*
X123259000Y-120281571D01*
X123173285Y-120367285D01*
X123087571Y-120410142D01*
X122916142Y-120453000D01*
X122787571Y-120453000D01*
X122616142Y-120410142D01*
X122530428Y-120367285D01*
X122444714Y-120281571D01*
X122401857Y-120153000D01*
X122401857Y-120067285D01*
X122444714Y-119938714D01*
X122487571Y-119895857D01*
X122787571Y-119895857D01*
X122787571Y-120067285D01*
X122401857Y-119510142D02*
X123301857Y-119510142D01*
X122401857Y-118995857D01*
X123301857Y-118995857D01*
X122401857Y-118567285D02*
X123301857Y-118567285D01*
X123301857Y-118353000D01*
X123259000Y-118224428D01*
X123173285Y-118138714D01*
X123087571Y-118095857D01*
X122916142Y-118053000D01*
X122787571Y-118053000D01*
X122616142Y-118095857D01*
X122530428Y-118138714D01*
X122444714Y-118224428D01*
X122401857Y-118353000D01*
X122401857Y-118567285D01*
X123301857Y-116884428D02*
X123301857Y-117313000D01*
X122873285Y-117355857D01*
X122916142Y-117313000D01*
X122959000Y-117227285D01*
X122959000Y-117013000D01*
X122916142Y-116927285D01*
X122873285Y-116884428D01*
X122787571Y-116841571D01*
X122573285Y-116841571D01*
X122487571Y-116884428D01*
X122444714Y-116927285D01*
X122401857Y-117013000D01*
X122401857Y-117227285D01*
X122444714Y-117313000D01*
X122487571Y-117355857D01*
X123301857Y-116584428D02*
X122401857Y-116284428D01*
X123301857Y-115984428D01*
X123301857Y-115031714D02*
X122401857Y-114731714D01*
X123301857Y-114431714D01*
X122401857Y-114131714D02*
X123301857Y-114131714D01*
X122401857Y-113703142D02*
X123301857Y-113703142D01*
X122401857Y-113188857D01*
X123301857Y-113188857D01*
X123270785Y-112167142D02*
X123270785Y-111267142D01*
X122970785Y-111910000D01*
X122670785Y-111267142D01*
X122670785Y-112167142D01*
X122242214Y-112167142D02*
X122242214Y-111267142D01*
X121856500Y-112124285D02*
X121727928Y-112167142D01*
X121513642Y-112167142D01*
X121427928Y-112124285D01*
X121385071Y-112081428D01*
X121342214Y-111995714D01*
X121342214Y-111910000D01*
X121385071Y-111824285D01*
X121427928Y-111781428D01*
X121513642Y-111738571D01*
X121685071Y-111695714D01*
X121770785Y-111652857D01*
X121813642Y-111610000D01*
X121856500Y-111524285D01*
X121856500Y-111438571D01*
X121813642Y-111352857D01*
X121770785Y-111310000D01*
X121685071Y-111267142D01*
X121470785Y-111267142D01*
X121342214Y-111310000D01*
X120785071Y-111267142D02*
X120613642Y-111267142D01*
X120527928Y-111310000D01*
X120442214Y-111395714D01*
X120399357Y-111567142D01*
X120399357Y-111867142D01*
X120442214Y-112038571D01*
X120527928Y-112124285D01*
X120613642Y-112167142D01*
X120785071Y-112167142D01*
X120870785Y-112124285D01*
X120956500Y-112038571D01*
X120999357Y-111867142D01*
X120999357Y-111567142D01*
X120956500Y-111395714D01*
X120870785Y-111310000D01*
X120785071Y-111267142D01*
X123238357Y-109327928D02*
X123238357Y-109756500D01*
X122809785Y-109799357D01*
X122852642Y-109756500D01*
X122895500Y-109670785D01*
X122895500Y-109456500D01*
X122852642Y-109370785D01*
X122809785Y-109327928D01*
X122724071Y-109285071D01*
X122509785Y-109285071D01*
X122424071Y-109327928D01*
X122381214Y-109370785D01*
X122338357Y-109456500D01*
X122338357Y-109670785D01*
X122381214Y-109756500D01*
X122424071Y-109799357D01*
X123238357Y-109027928D02*
X122338357Y-108727928D01*
X123238357Y-108427928D01*
X123236785Y-105395857D02*
X123279642Y-105524428D01*
X123279642Y-105738714D01*
X123236785Y-105824428D01*
X123193928Y-105867285D01*
X123108214Y-105910142D01*
X123022500Y-105910142D01*
X122936785Y-105867285D01*
X122893928Y-105824428D01*
X122851071Y-105738714D01*
X122808214Y-105567285D01*
X122765357Y-105481571D01*
X122722500Y-105438714D01*
X122636785Y-105395857D01*
X122551071Y-105395857D01*
X122465357Y-105438714D01*
X122422500Y-105481571D01*
X122379642Y-105567285D01*
X122379642Y-105781571D01*
X122422500Y-105910142D01*
X123193928Y-106810142D02*
X123236785Y-106767285D01*
X123279642Y-106638714D01*
X123279642Y-106553000D01*
X123236785Y-106424428D01*
X123151071Y-106338714D01*
X123065357Y-106295857D01*
X122893928Y-106253000D01*
X122765357Y-106253000D01*
X122593928Y-106295857D01*
X122508214Y-106338714D01*
X122422500Y-106424428D01*
X122379642Y-106553000D01*
X122379642Y-106638714D01*
X122422500Y-106767285D01*
X122465357Y-106810142D01*
X123279642Y-107195857D02*
X122379642Y-107195857D01*
X123279642Y-107710142D02*
X122765357Y-107324428D01*
X122379642Y-107710142D02*
X122893928Y-107195857D01*
X123207285Y-104420142D02*
X123207285Y-103520142D01*
X122907285Y-104163000D01*
X122607285Y-103520142D01*
X122607285Y-104420142D01*
X122007285Y-103520142D02*
X121835857Y-103520142D01*
X121750142Y-103563000D01*
X121664428Y-103648714D01*
X121621571Y-103820142D01*
X121621571Y-104120142D01*
X121664428Y-104291571D01*
X121750142Y-104377285D01*
X121835857Y-104420142D01*
X122007285Y-104420142D01*
X122093000Y-104377285D01*
X122178714Y-104291571D01*
X122221571Y-104120142D01*
X122221571Y-103820142D01*
X122178714Y-103648714D01*
X122093000Y-103563000D01*
X122007285Y-103520142D01*
X121278714Y-104377285D02*
X121150142Y-104420142D01*
X120935857Y-104420142D01*
X120850142Y-104377285D01*
X120807285Y-104334428D01*
X120764428Y-104248714D01*
X120764428Y-104163000D01*
X120807285Y-104077285D01*
X120850142Y-104034428D01*
X120935857Y-103991571D01*
X121107285Y-103948714D01*
X121193000Y-103905857D01*
X121235857Y-103863000D01*
X121278714Y-103777285D01*
X121278714Y-103691571D01*
X121235857Y-103605857D01*
X121193000Y-103563000D01*
X121107285Y-103520142D01*
X120893000Y-103520142D01*
X120764428Y-103563000D01*
X120378714Y-104420142D02*
X120378714Y-103520142D01*
X122274857Y-102029357D02*
X122703428Y-102329357D01*
X122274857Y-102543642D02*
X123174857Y-102543642D01*
X123174857Y-102200785D01*
X123132000Y-102115071D01*
X123089142Y-102072214D01*
X123003428Y-102029357D01*
X122874857Y-102029357D01*
X122789142Y-102072214D01*
X122746285Y-102115071D01*
X122703428Y-102200785D01*
X122703428Y-102543642D01*
X122317714Y-101686500D02*
X122274857Y-101557928D01*
X122274857Y-101343642D01*
X122317714Y-101257928D01*
X122360571Y-101215071D01*
X122446285Y-101172214D01*
X122532000Y-101172214D01*
X122617714Y-101215071D01*
X122660571Y-101257928D01*
X122703428Y-101343642D01*
X122746285Y-101515071D01*
X122789142Y-101600785D01*
X122832000Y-101643642D01*
X122917714Y-101686500D01*
X123003428Y-101686500D01*
X123089142Y-101643642D01*
X123132000Y-101600785D01*
X123174857Y-101515071D01*
X123174857Y-101300785D01*
X123132000Y-101172214D01*
X123174857Y-100915071D02*
X123174857Y-100400785D01*
X122274857Y-100657928D02*
X123174857Y-100657928D01*
X123195500Y-99555214D02*
X123238357Y-99640928D01*
X123238357Y-99769500D01*
X123195500Y-99898071D01*
X123109785Y-99983785D01*
X123024071Y-100026642D01*
X122852642Y-100069500D01*
X122724071Y-100069500D01*
X122552642Y-100026642D01*
X122466928Y-99983785D01*
X122381214Y-99898071D01*
X122338357Y-99769500D01*
X122338357Y-99683785D01*
X122381214Y-99555214D01*
X122424071Y-99512357D01*
X122724071Y-99512357D01*
X122724071Y-99683785D01*
X122338357Y-99126642D02*
X123238357Y-99126642D01*
X122338357Y-98612357D01*
X123238357Y-98612357D01*
X122338357Y-98183785D02*
X123238357Y-98183785D01*
X123238357Y-97969500D01*
X123195500Y-97840928D01*
X123109785Y-97755214D01*
X123024071Y-97712357D01*
X122852642Y-97669500D01*
X122724071Y-97669500D01*
X122552642Y-97712357D01*
X122466928Y-97755214D01*
X122381214Y-97840928D01*
X122338357Y-97969500D01*
X122338357Y-98183785D01*
X123123142Y-96416000D02*
X122694571Y-96416000D01*
X123208857Y-96673142D02*
X122908857Y-95773142D01*
X122608857Y-96673142D01*
X121794571Y-96673142D02*
X122094571Y-96244571D01*
X122308857Y-96673142D02*
X122308857Y-95773142D01*
X121966000Y-95773142D01*
X121880285Y-95816000D01*
X121837428Y-95858857D01*
X121794571Y-95944571D01*
X121794571Y-96073142D01*
X121837428Y-96158857D01*
X121880285Y-96201714D01*
X121966000Y-96244571D01*
X122308857Y-96244571D01*
X121408857Y-96201714D02*
X121108857Y-96201714D01*
X120980285Y-96673142D02*
X121408857Y-96673142D01*
X121408857Y-95773142D01*
X120980285Y-95773142D01*
X120294571Y-96201714D02*
X120594571Y-96201714D01*
X120594571Y-96673142D02*
X120594571Y-95773142D01*
X120166000Y-95773142D01*
X122468500Y-94495857D02*
X122468500Y-94067285D01*
X122211357Y-94581571D02*
X123111357Y-94281571D01*
X122211357Y-93981571D01*
X123111357Y-93253000D02*
X123111357Y-93681571D01*
X122682785Y-93724428D01*
X122725642Y-93681571D01*
X122768500Y-93595857D01*
X122768500Y-93381571D01*
X122725642Y-93295857D01*
X122682785Y-93253000D01*
X122597071Y-93210142D01*
X122382785Y-93210142D01*
X122297071Y-93253000D01*
X122254214Y-93295857D01*
X122211357Y-93381571D01*
X122211357Y-93595857D01*
X122254214Y-93681571D01*
X122297071Y-93724428D01*
X122532000Y-91955857D02*
X122532000Y-91527285D01*
X122274857Y-92041571D02*
X123174857Y-91741571D01*
X122274857Y-91441571D01*
X122874857Y-90755857D02*
X122274857Y-90755857D01*
X123217714Y-90970142D02*
X122574857Y-91184428D01*
X122574857Y-90627285D01*
X122595500Y-89352357D02*
X122595500Y-88923785D01*
X122338357Y-89438071D02*
X123238357Y-89138071D01*
X122338357Y-88838071D01*
X123238357Y-88623785D02*
X123238357Y-88066642D01*
X122895500Y-88366642D01*
X122895500Y-88238071D01*
X122852642Y-88152357D01*
X122809785Y-88109500D01*
X122724071Y-88066642D01*
X122509785Y-88066642D01*
X122424071Y-88109500D01*
X122381214Y-88152357D01*
X122338357Y-88238071D01*
X122338357Y-88495214D01*
X122381214Y-88580928D01*
X122424071Y-88623785D01*
X122532000Y-86875857D02*
X122532000Y-86447285D01*
X122274857Y-86961571D02*
X123174857Y-86661571D01*
X122274857Y-86361571D01*
X123089142Y-86104428D02*
X123132000Y-86061571D01*
X123174857Y-85975857D01*
X123174857Y-85761571D01*
X123132000Y-85675857D01*
X123089142Y-85633000D01*
X123003428Y-85590142D01*
X122917714Y-85590142D01*
X122789142Y-85633000D01*
X122274857Y-86147285D01*
X122274857Y-85590142D01*
X122595500Y-84208857D02*
X122595500Y-83780285D01*
X122338357Y-84294571D02*
X123238357Y-83994571D01*
X122338357Y-83694571D01*
X122338357Y-82923142D02*
X122338357Y-83437428D01*
X122338357Y-83180285D02*
X123238357Y-83180285D01*
X123109785Y-83266000D01*
X123024071Y-83351714D01*
X122981214Y-83437428D01*
X122595500Y-81859357D02*
X122595500Y-81430785D01*
X122338357Y-81945071D02*
X123238357Y-81645071D01*
X122338357Y-81345071D01*
X123238357Y-80873642D02*
X123238357Y-80787928D01*
X123195500Y-80702214D01*
X123152642Y-80659357D01*
X123066928Y-80616500D01*
X122895500Y-80573642D01*
X122681214Y-80573642D01*
X122509785Y-80616500D01*
X122424071Y-80659357D01*
X122381214Y-80702214D01*
X122338357Y-80787928D01*
X122338357Y-80873642D01*
X122381214Y-80959357D01*
X122424071Y-81002214D01*
X122509785Y-81045071D01*
X122681214Y-81087928D01*
X122895500Y-81087928D01*
X123066928Y-81045071D01*
X123152642Y-81002214D01*
X123195500Y-80959357D01*
X123238357Y-80873642D01*
X123132000Y-79425714D02*
X123174857Y-79511428D01*
X123174857Y-79640000D01*
X123132000Y-79768571D01*
X123046285Y-79854285D01*
X122960571Y-79897142D01*
X122789142Y-79940000D01*
X122660571Y-79940000D01*
X122489142Y-79897142D01*
X122403428Y-79854285D01*
X122317714Y-79768571D01*
X122274857Y-79640000D01*
X122274857Y-79554285D01*
X122317714Y-79425714D01*
X122360571Y-79382857D01*
X122660571Y-79382857D01*
X122660571Y-79554285D01*
X122274857Y-78997142D02*
X123174857Y-78997142D01*
X122274857Y-78482857D01*
X123174857Y-78482857D01*
X122274857Y-78054285D02*
X123174857Y-78054285D01*
X123174857Y-77840000D01*
X123132000Y-77711428D01*
X123046285Y-77625714D01*
X122960571Y-77582857D01*
X122789142Y-77540000D01*
X122660571Y-77540000D01*
X122489142Y-77582857D01*
X122403428Y-77625714D01*
X122317714Y-77711428D01*
X122274857Y-77840000D01*
X122274857Y-78054285D01*
D13*
G04 #@! TO.C,D2*
X135458000Y-126275000D02*
X133173000Y-126275000D01*
X133173000Y-126275000D02*
X133173000Y-124805000D01*
X133173000Y-124805000D02*
X135458000Y-124805000D01*
G04 #@! TO.C,J4*
X160035000Y-121714000D02*
X157035000Y-121714000D01*
X160035000Y-124714000D02*
X160035000Y-121714000D01*
X152035000Y-128014000D02*
X151435000Y-128014000D01*
X156635000Y-128014000D02*
X156035000Y-128014000D01*
X159535000Y-122164000D02*
X148485000Y-122164000D01*
X159535000Y-128014000D02*
X159535000Y-122164000D01*
X155785000Y-128014000D02*
X152285000Y-128014000D01*
X148485000Y-128014000D02*
X148485000Y-122164000D01*
X159535000Y-128014000D02*
X156885000Y-128014000D01*
X151135000Y-128014000D02*
X148485000Y-128014000D01*
G04 #@! TD*
M02*
