G04 #@! TF.GenerationSoftware,KiCad,Pcbnew,5.0.2-bee76a0~70~ubuntu18.04.1*
G04 #@! TF.CreationDate,2019-02-14T01:12:15+09:00*
G04 #@! TF.ProjectId,LeonardoBB,4c656f6e-6172-4646-9f42-422e6b696361,rev?*
G04 #@! TF.SameCoordinates,Original*
G04 #@! TF.FileFunction,Copper,L2,Bot*
G04 #@! TF.FilePolarity,Positive*
%FSLAX46Y46*%
G04 Gerber Fmt 4.6, Leading zero omitted, Abs format (unit mm)*
G04 Created by KiCad (PCBNEW 5.0.2-bee76a0~70~ubuntu18.04.1) date 2019年02月14日 01時12分15秒*
%MOMM*%
%LPD*%
G01*
G04 APERTURE LIST*
G04 #@! TA.AperFunction,Conductor*
%ADD10C,0.100000*%
G04 #@! TD*
G04 #@! TA.AperFunction,SMDPad,CuDef*
%ADD11C,0.875000*%
G04 #@! TD*
G04 #@! TA.AperFunction,ComponentPad*
%ADD12O,1.100000X1.500000*%
G04 #@! TD*
G04 #@! TA.AperFunction,ComponentPad*
%ADD13O,1.350000X1.700000*%
G04 #@! TD*
G04 #@! TA.AperFunction,ComponentPad*
%ADD14R,1.524000X1.524000*%
G04 #@! TD*
G04 #@! TA.AperFunction,ComponentPad*
%ADD15C,1.524000*%
G04 #@! TD*
G04 #@! TA.AperFunction,ComponentPad*
%ADD16O,1.700000X1.700000*%
G04 #@! TD*
G04 #@! TA.AperFunction,ComponentPad*
%ADD17R,1.700000X1.700000*%
G04 #@! TD*
G04 #@! TA.AperFunction,ViaPad*
%ADD18C,0.800000*%
G04 #@! TD*
G04 #@! TA.AperFunction,Conductor*
%ADD19C,0.250000*%
G04 #@! TD*
G04 #@! TA.AperFunction,Conductor*
%ADD20C,0.254000*%
G04 #@! TD*
G04 APERTURE END LIST*
D10*
G04 #@! TO.N,GND*
G04 #@! TO.C,D2*
G36*
X134110691Y-125066053D02*
X134131926Y-125069203D01*
X134152750Y-125074419D01*
X134172962Y-125081651D01*
X134192368Y-125090830D01*
X134210781Y-125101866D01*
X134228024Y-125114654D01*
X134243930Y-125129070D01*
X134258346Y-125144976D01*
X134271134Y-125162219D01*
X134282170Y-125180632D01*
X134291349Y-125200038D01*
X134298581Y-125220250D01*
X134303797Y-125241074D01*
X134306947Y-125262309D01*
X134308000Y-125283750D01*
X134308000Y-125796250D01*
X134306947Y-125817691D01*
X134303797Y-125838926D01*
X134298581Y-125859750D01*
X134291349Y-125879962D01*
X134282170Y-125899368D01*
X134271134Y-125917781D01*
X134258346Y-125935024D01*
X134243930Y-125950930D01*
X134228024Y-125965346D01*
X134210781Y-125978134D01*
X134192368Y-125989170D01*
X134172962Y-125998349D01*
X134152750Y-126005581D01*
X134131926Y-126010797D01*
X134110691Y-126013947D01*
X134089250Y-126015000D01*
X133651750Y-126015000D01*
X133630309Y-126013947D01*
X133609074Y-126010797D01*
X133588250Y-126005581D01*
X133568038Y-125998349D01*
X133548632Y-125989170D01*
X133530219Y-125978134D01*
X133512976Y-125965346D01*
X133497070Y-125950930D01*
X133482654Y-125935024D01*
X133469866Y-125917781D01*
X133458830Y-125899368D01*
X133449651Y-125879962D01*
X133442419Y-125859750D01*
X133437203Y-125838926D01*
X133434053Y-125817691D01*
X133433000Y-125796250D01*
X133433000Y-125283750D01*
X133434053Y-125262309D01*
X133437203Y-125241074D01*
X133442419Y-125220250D01*
X133449651Y-125200038D01*
X133458830Y-125180632D01*
X133469866Y-125162219D01*
X133482654Y-125144976D01*
X133497070Y-125129070D01*
X133512976Y-125114654D01*
X133530219Y-125101866D01*
X133548632Y-125090830D01*
X133568038Y-125081651D01*
X133588250Y-125074419D01*
X133609074Y-125069203D01*
X133630309Y-125066053D01*
X133651750Y-125065000D01*
X134089250Y-125065000D01*
X134110691Y-125066053D01*
X134110691Y-125066053D01*
G37*
D11*
G04 #@! TD*
G04 #@! TO.P,D2,1*
G04 #@! TO.N,GND*
X133870500Y-125540000D03*
D10*
G04 #@! TO.N,Net-(D2-Pad2)*
G04 #@! TO.C,D2*
G36*
X135685691Y-125066053D02*
X135706926Y-125069203D01*
X135727750Y-125074419D01*
X135747962Y-125081651D01*
X135767368Y-125090830D01*
X135785781Y-125101866D01*
X135803024Y-125114654D01*
X135818930Y-125129070D01*
X135833346Y-125144976D01*
X135846134Y-125162219D01*
X135857170Y-125180632D01*
X135866349Y-125200038D01*
X135873581Y-125220250D01*
X135878797Y-125241074D01*
X135881947Y-125262309D01*
X135883000Y-125283750D01*
X135883000Y-125796250D01*
X135881947Y-125817691D01*
X135878797Y-125838926D01*
X135873581Y-125859750D01*
X135866349Y-125879962D01*
X135857170Y-125899368D01*
X135846134Y-125917781D01*
X135833346Y-125935024D01*
X135818930Y-125950930D01*
X135803024Y-125965346D01*
X135785781Y-125978134D01*
X135767368Y-125989170D01*
X135747962Y-125998349D01*
X135727750Y-126005581D01*
X135706926Y-126010797D01*
X135685691Y-126013947D01*
X135664250Y-126015000D01*
X135226750Y-126015000D01*
X135205309Y-126013947D01*
X135184074Y-126010797D01*
X135163250Y-126005581D01*
X135143038Y-125998349D01*
X135123632Y-125989170D01*
X135105219Y-125978134D01*
X135087976Y-125965346D01*
X135072070Y-125950930D01*
X135057654Y-125935024D01*
X135044866Y-125917781D01*
X135033830Y-125899368D01*
X135024651Y-125879962D01*
X135017419Y-125859750D01*
X135012203Y-125838926D01*
X135009053Y-125817691D01*
X135008000Y-125796250D01*
X135008000Y-125283750D01*
X135009053Y-125262309D01*
X135012203Y-125241074D01*
X135017419Y-125220250D01*
X135024651Y-125200038D01*
X135033830Y-125180632D01*
X135044866Y-125162219D01*
X135057654Y-125144976D01*
X135072070Y-125129070D01*
X135087976Y-125114654D01*
X135105219Y-125101866D01*
X135123632Y-125090830D01*
X135143038Y-125081651D01*
X135163250Y-125074419D01*
X135184074Y-125069203D01*
X135205309Y-125066053D01*
X135226750Y-125065000D01*
X135664250Y-125065000D01*
X135685691Y-125066053D01*
X135685691Y-125066053D01*
G37*
D11*
G04 #@! TD*
G04 #@! TO.P,D2,2*
G04 #@! TO.N,Net-(D2-Pad2)*
X135445500Y-125540000D03*
D12*
G04 #@! TO.P,J1,6*
G04 #@! TO.N,GND*
X132175000Y-121940000D03*
X137015000Y-121940000D03*
D13*
X131865000Y-124940000D03*
X137325000Y-124940000D03*
G04 #@! TD*
D14*
G04 #@! TO.P,J4,1*
G04 #@! TO.N,D3_SCL*
X157035000Y-124714000D03*
D15*
G04 #@! TO.P,J4,2*
G04 #@! TO.N,D2_SDA*
X155035000Y-124714000D03*
G04 #@! TO.P,J4,3*
G04 #@! TO.N,+5V*
X153035000Y-124714000D03*
G04 #@! TO.P,J4,4*
G04 #@! TO.N,GND*
X151035000Y-124714000D03*
G04 #@! TD*
D16*
G04 #@! TO.P,J2,17*
G04 #@! TO.N,GND*
X163050000Y-78610000D03*
G04 #@! TO.P,J2,16*
G04 #@! TO.N,+5V*
X163050000Y-81150000D03*
G04 #@! TO.P,J2,15*
G04 #@! TO.N,+3V3*
X163050000Y-83690000D03*
G04 #@! TO.P,J2,14*
G04 #@! TO.N,D13_PWM*
X163050000Y-86230000D03*
G04 #@! TO.P,J2,13*
G04 #@! TO.N,D12*
X163050000Y-88770000D03*
G04 #@! TO.P,J2,12*
G04 #@! TO.N,D11_PWM*
X163050000Y-91310000D03*
G04 #@! TO.P,J2,11*
G04 #@! TO.N,D10_PWM*
X163050000Y-93850000D03*
G04 #@! TO.P,J2,10*
G04 #@! TO.N,D9_PWM*
X163050000Y-96390000D03*
G04 #@! TO.P,J2,9*
G04 #@! TO.N,D8*
X163050000Y-98930000D03*
G04 #@! TO.P,J2,8*
G04 #@! TO.N,D7*
X163050000Y-101470000D03*
G04 #@! TO.P,J2,7*
G04 #@! TO.N,D6_PWM*
X163050000Y-104010000D03*
G04 #@! TO.P,J2,6*
G04 #@! TO.N,D5_PWM*
X163050000Y-106550000D03*
G04 #@! TO.P,J2,5*
G04 #@! TO.N,D4*
X163050000Y-109090000D03*
G04 #@! TO.P,J2,4*
G04 #@! TO.N,D3_SCL*
X163050000Y-111630000D03*
G04 #@! TO.P,J2,3*
G04 #@! TO.N,D2_SDA*
X163050000Y-114170000D03*
G04 #@! TO.P,J2,2*
G04 #@! TO.N,D1_TX*
X163050000Y-116710000D03*
D17*
G04 #@! TO.P,J2,1*
G04 #@! TO.N,D0_RX*
X163050000Y-119250000D03*
G04 #@! TD*
G04 #@! TO.P,J3,1*
G04 #@! TO.N,GND*
X124950000Y-119250000D03*
D16*
G04 #@! TO.P,J3,2*
G04 #@! TO.N,+5V*
X124950000Y-116710000D03*
G04 #@! TO.P,J3,3*
G04 #@! TO.N,RAW*
X124950000Y-114170000D03*
G04 #@! TO.P,J3,4*
G04 #@! TO.N,MISO*
X124950000Y-111630000D03*
G04 #@! TO.P,J3,5*
G04 #@! TO.N,+5V*
X124950000Y-109090000D03*
G04 #@! TO.P,J3,6*
G04 #@! TO.N,SCK*
X124950000Y-106550000D03*
G04 #@! TO.P,J3,7*
G04 #@! TO.N,MOSI*
X124950000Y-104010000D03*
G04 #@! TO.P,J3,8*
G04 #@! TO.N,RESET*
X124950000Y-101470000D03*
G04 #@! TO.P,J3,9*
G04 #@! TO.N,GND*
X124950000Y-98930000D03*
G04 #@! TO.P,J3,10*
G04 #@! TO.N,AREF*
X124950000Y-96390000D03*
G04 #@! TO.P,J3,11*
G04 #@! TO.N,A5*
X124950000Y-93850000D03*
G04 #@! TO.P,J3,12*
G04 #@! TO.N,A4*
X124950000Y-91310000D03*
G04 #@! TO.P,J3,13*
G04 #@! TO.N,A3*
X124950000Y-88770000D03*
G04 #@! TO.P,J3,14*
G04 #@! TO.N,A2*
X124950000Y-86230000D03*
G04 #@! TO.P,J3,15*
G04 #@! TO.N,A1*
X124950000Y-83690000D03*
G04 #@! TO.P,J3,16*
G04 #@! TO.N,A0*
X124950000Y-81150000D03*
G04 #@! TO.P,J3,17*
G04 #@! TO.N,GND*
X124950000Y-78610000D03*
G04 #@! TD*
D18*
G04 #@! TO.N,GND*
X147286000Y-108486000D03*
X150114000Y-103251000D03*
X153098500Y-122745500D03*
X149733000Y-127190500D03*
X142303500Y-102298500D03*
X133731000Y-109220000D03*
X128651000Y-106680000D03*
G04 #@! TO.N,VBUS*
X140653400Y-120142000D03*
X133343600Y-120142000D03*
G04 #@! TO.N,Net-(C6-Pad1)*
X151793000Y-110721400D03*
X143636000Y-104227700D03*
G04 #@! TO.N,+5V*
X150518700Y-105038800D03*
X148436100Y-119555400D03*
X145786000Y-113120600D03*
X155989000Y-111824000D03*
G04 #@! TO.N,+3V3*
X160334700Y-123870000D03*
X148716700Y-122398000D03*
G04 #@! TO.N,Net-(D2-Pad2)*
X142483900Y-121102700D03*
G04 #@! TO.N,D7*
X143716300Y-105244600D03*
G04 #@! TO.N,D11_PWM*
X144053000Y-111732900D03*
G04 #@! TO.N,D13_PWM*
X147348500Y-121619800D03*
G04 #@! TO.N,RESET*
X144491700Y-113244400D03*
G04 #@! TO.N,MOSI*
X142546300Y-111127000D03*
G04 #@! TO.N,SCK*
X141454100Y-111050700D03*
G04 #@! TO.N,MISO*
X142580600Y-112412500D03*
G04 #@! TO.N,Net-(Q2-Pad4)*
X154436800Y-119817600D03*
X154568800Y-116774900D03*
G04 #@! TO.N,Net-(R5-Pad2)*
X139152800Y-119195400D03*
X149894600Y-122115900D03*
G04 #@! TD*
D19*
G04 #@! TO.N,GND*
X124950000Y-78610000D02*
X124950000Y-79785300D01*
X124950000Y-98930000D02*
X124950000Y-97754700D01*
X124950000Y-97754700D02*
X124582700Y-97754700D01*
X124582700Y-97754700D02*
X123774700Y-96946700D01*
X123774700Y-96946700D02*
X123774700Y-80593200D01*
X123774700Y-80593200D02*
X124582600Y-79785300D01*
X124582600Y-79785300D02*
X124950000Y-79785300D01*
X133870500Y-125540000D02*
X133270500Y-124940000D01*
X133270500Y-124940000D02*
X131865000Y-124940000D01*
X138250000Y-124940000D02*
X140254000Y-122936000D01*
X137325000Y-124940000D02*
X138250000Y-124940000D01*
X140254000Y-122936000D02*
X145478500Y-122936000D01*
X145478500Y-122936000D02*
X149733000Y-127190500D01*
X133731000Y-109220000D02*
X131191000Y-106680000D01*
X131191000Y-106680000D02*
X128651000Y-106680000D01*
G04 #@! TO.N,VBUS*
X133343600Y-120142000D02*
X140653400Y-120142000D01*
G04 #@! TO.N,Net-(C6-Pad1)*
X151793000Y-110721400D02*
X148156300Y-110721400D01*
X148156300Y-110721400D02*
X142990900Y-105556000D01*
X142990900Y-105556000D02*
X142990900Y-104872800D01*
X142990900Y-104872800D02*
X143636000Y-104227700D01*
G04 #@! TO.N,+5V*
X150518700Y-105038800D02*
X152549800Y-107069900D01*
X152549800Y-107069900D02*
X152549800Y-111824000D01*
X152549800Y-111824000D02*
X147240400Y-111824000D01*
X147240400Y-111824000D02*
X145864900Y-113199500D01*
X155989000Y-111824000D02*
X152549800Y-111824000D01*
X145786000Y-116710000D02*
X148436100Y-119360100D01*
X148436100Y-119360100D02*
X148436100Y-119555400D01*
X148436100Y-119555400D02*
X153035000Y-124154300D01*
X153035000Y-124154300D02*
X153035000Y-124714000D01*
X145864900Y-113199500D02*
X145786000Y-113120600D01*
X145864900Y-113199500D02*
X145864900Y-116631100D01*
X145864900Y-116631100D02*
X145786000Y-116710000D01*
X126125300Y-116710000D02*
X145786000Y-116710000D01*
X124950000Y-116710000D02*
X126125300Y-116710000D01*
G04 #@! TO.N,+3V3*
X160334700Y-123870000D02*
X160334700Y-124096800D01*
X160334700Y-124096800D02*
X158155000Y-126276500D01*
X158155000Y-126276500D02*
X150980200Y-126276500D01*
X150980200Y-126276500D02*
X148716700Y-124013000D01*
X148716700Y-124013000D02*
X148716700Y-122398000D01*
G04 #@! TO.N,Net-(D2-Pad2)*
X135445500Y-125540000D02*
X135445500Y-125183200D01*
X135445500Y-125183200D02*
X139526000Y-121102700D01*
X139526000Y-121102700D02*
X142483900Y-121102700D01*
G04 #@! TO.N,D2_SDA*
X163050000Y-114170000D02*
X163050000Y-115345300D01*
X155035000Y-124714000D02*
X156122400Y-125801400D01*
X156122400Y-125801400D02*
X157993200Y-125801400D01*
X157993200Y-125801400D02*
X158865800Y-124928800D01*
X158865800Y-124928800D02*
X158865800Y-119162200D01*
X158865800Y-119162200D02*
X162682700Y-115345300D01*
X162682700Y-115345300D02*
X163050000Y-115345300D01*
G04 #@! TO.N,D3_SCL*
X157035000Y-123626700D02*
X157035000Y-116469700D01*
X157035000Y-116469700D02*
X161874700Y-111630000D01*
X157035000Y-124714000D02*
X157035000Y-123626700D01*
X163050000Y-111630000D02*
X161874700Y-111630000D01*
G04 #@! TO.N,D7*
X143716300Y-105244600D02*
X147490900Y-101470000D01*
X147490900Y-101470000D02*
X163050000Y-101470000D01*
G04 #@! TO.N,D11_PWM*
X163050000Y-91310000D02*
X155516400Y-91310000D01*
X155516400Y-91310000D02*
X142533500Y-104292900D01*
X142533500Y-104292900D02*
X142533500Y-105828600D01*
X142533500Y-105828600D02*
X144053000Y-107348100D01*
X144053000Y-107348100D02*
X144053000Y-111732900D01*
G04 #@! TO.N,D13_PWM*
X163050000Y-87405300D02*
X163417300Y-87405300D01*
X163417300Y-87405300D02*
X164676200Y-88664200D01*
X163050000Y-86230000D02*
X163050000Y-87405300D01*
X164421700Y-120587000D02*
X164676200Y-120332500D01*
X163559402Y-120587000D02*
X164421700Y-120587000D01*
X161059701Y-124218001D02*
X161059701Y-123086701D01*
X147348500Y-121619800D02*
X147348500Y-123283100D01*
X161059701Y-123086701D02*
X163559402Y-120587000D01*
X147348500Y-123283100D02*
X150805800Y-126740400D01*
X150805800Y-126740400D02*
X158537302Y-126740400D01*
X158537302Y-126740400D02*
X161059701Y-124218001D01*
X164676200Y-120332500D02*
X164676200Y-88664200D01*
G04 #@! TO.N,RESET*
X144491700Y-113244400D02*
X143271600Y-112024300D01*
X143271600Y-112024300D02*
X143271600Y-110826500D01*
X143271600Y-110826500D02*
X133915100Y-101470000D01*
X133915100Y-101470000D02*
X124950000Y-101470000D01*
G04 #@! TO.N,MOSI*
X142546300Y-111127000D02*
X142546300Y-111117100D01*
X142546300Y-111117100D02*
X135439200Y-104010000D01*
X135439200Y-104010000D02*
X124950000Y-104010000D01*
G04 #@! TO.N,SCK*
X126125300Y-106550000D02*
X130626000Y-111050700D01*
X130626000Y-111050700D02*
X141454100Y-111050700D01*
X124950000Y-106550000D02*
X126125300Y-106550000D01*
G04 #@! TO.N,MISO*
X126125300Y-111630000D02*
X126907800Y-112412500D01*
X126907800Y-112412500D02*
X142580600Y-112412500D01*
X124950000Y-111630000D02*
X126125300Y-111630000D01*
G04 #@! TO.N,Net-(Q2-Pad4)*
X154436800Y-119817600D02*
X154568800Y-119685600D01*
X154568800Y-119685600D02*
X154568800Y-116774900D01*
G04 #@! TO.N,Net-(R5-Pad2)*
X139152800Y-119195400D02*
X146974100Y-119195400D01*
X146974100Y-119195400D02*
X149894600Y-122115900D01*
G04 #@! TD*
D20*
G04 #@! TO.N,GND*
G36*
X147288699Y-120584800D02*
X147142626Y-120584800D01*
X146762220Y-120742369D01*
X146471069Y-121033520D01*
X146313500Y-121413926D01*
X146313500Y-121825674D01*
X146471069Y-122206080D01*
X146588500Y-122323511D01*
X146588501Y-123208249D01*
X146573612Y-123283100D01*
X146588501Y-123357952D01*
X146632597Y-123579637D01*
X146800572Y-123831029D01*
X146864028Y-123873429D01*
X150215471Y-127224873D01*
X150257871Y-127288329D01*
X150260372Y-127290000D01*
X148594092Y-127290000D01*
X147551494Y-126247404D01*
X147511881Y-126188119D01*
X147277028Y-126031195D01*
X147069926Y-125990000D01*
X147069924Y-125990000D01*
X147000000Y-125976091D01*
X146930076Y-125990000D01*
X138271292Y-125990000D01*
X138469018Y-125759759D01*
X138628673Y-125272883D01*
X138478571Y-125067000D01*
X137452000Y-125067000D01*
X137452000Y-125087000D01*
X137198000Y-125087000D01*
X137198000Y-125067000D01*
X137178000Y-125067000D01*
X137178000Y-124813000D01*
X137198000Y-124813000D01*
X137198000Y-124793000D01*
X137452000Y-124793000D01*
X137452000Y-124813000D01*
X138478571Y-124813000D01*
X138606026Y-124638180D01*
X140607000Y-124638180D01*
X140607000Y-125069820D01*
X140772182Y-125468603D01*
X141077397Y-125773818D01*
X141476180Y-125939000D01*
X141907820Y-125939000D01*
X142306603Y-125773818D01*
X142611818Y-125468603D01*
X142777000Y-125069820D01*
X142777000Y-124638180D01*
X143607000Y-124638180D01*
X143607000Y-125069820D01*
X143772182Y-125468603D01*
X144077397Y-125773818D01*
X144476180Y-125939000D01*
X144907820Y-125939000D01*
X145306603Y-125773818D01*
X145611818Y-125468603D01*
X145777000Y-125069820D01*
X145777000Y-124638180D01*
X145611818Y-124239397D01*
X145306603Y-123934182D01*
X144907820Y-123769000D01*
X144476180Y-123769000D01*
X144077397Y-123934182D01*
X143772182Y-124239397D01*
X143607000Y-124638180D01*
X142777000Y-124638180D01*
X142611818Y-124239397D01*
X142306603Y-123934182D01*
X141907820Y-123769000D01*
X141476180Y-123769000D01*
X141077397Y-123934182D01*
X140772182Y-124239397D01*
X140607000Y-124638180D01*
X138606026Y-124638180D01*
X138628673Y-124607117D01*
X138469018Y-124120241D01*
X138135196Y-123731524D01*
X138026826Y-123676676D01*
X139840803Y-121862700D01*
X141780189Y-121862700D01*
X141897620Y-121980131D01*
X142278026Y-122137700D01*
X142689774Y-122137700D01*
X143070180Y-121980131D01*
X143361331Y-121688980D01*
X143518900Y-121308574D01*
X143518900Y-120896826D01*
X143361331Y-120516420D01*
X143070180Y-120225269D01*
X142689774Y-120067700D01*
X142278026Y-120067700D01*
X141897620Y-120225269D01*
X141780189Y-120342700D01*
X141688400Y-120342700D01*
X141688400Y-119955400D01*
X146659299Y-119955400D01*
X147288699Y-120584800D01*
X147288699Y-120584800D01*
G37*
X147288699Y-120584800D02*
X147142626Y-120584800D01*
X146762220Y-120742369D01*
X146471069Y-121033520D01*
X146313500Y-121413926D01*
X146313500Y-121825674D01*
X146471069Y-122206080D01*
X146588500Y-122323511D01*
X146588501Y-123208249D01*
X146573612Y-123283100D01*
X146588501Y-123357952D01*
X146632597Y-123579637D01*
X146800572Y-123831029D01*
X146864028Y-123873429D01*
X150215471Y-127224873D01*
X150257871Y-127288329D01*
X150260372Y-127290000D01*
X148594092Y-127290000D01*
X147551494Y-126247404D01*
X147511881Y-126188119D01*
X147277028Y-126031195D01*
X147069926Y-125990000D01*
X147069924Y-125990000D01*
X147000000Y-125976091D01*
X146930076Y-125990000D01*
X138271292Y-125990000D01*
X138469018Y-125759759D01*
X138628673Y-125272883D01*
X138478571Y-125067000D01*
X137452000Y-125067000D01*
X137452000Y-125087000D01*
X137198000Y-125087000D01*
X137198000Y-125067000D01*
X137178000Y-125067000D01*
X137178000Y-124813000D01*
X137198000Y-124813000D01*
X137198000Y-124793000D01*
X137452000Y-124793000D01*
X137452000Y-124813000D01*
X138478571Y-124813000D01*
X138606026Y-124638180D01*
X140607000Y-124638180D01*
X140607000Y-125069820D01*
X140772182Y-125468603D01*
X141077397Y-125773818D01*
X141476180Y-125939000D01*
X141907820Y-125939000D01*
X142306603Y-125773818D01*
X142611818Y-125468603D01*
X142777000Y-125069820D01*
X142777000Y-124638180D01*
X143607000Y-124638180D01*
X143607000Y-125069820D01*
X143772182Y-125468603D01*
X144077397Y-125773818D01*
X144476180Y-125939000D01*
X144907820Y-125939000D01*
X145306603Y-125773818D01*
X145611818Y-125468603D01*
X145777000Y-125069820D01*
X145777000Y-124638180D01*
X145611818Y-124239397D01*
X145306603Y-123934182D01*
X144907820Y-123769000D01*
X144476180Y-123769000D01*
X144077397Y-123934182D01*
X143772182Y-124239397D01*
X143607000Y-124638180D01*
X142777000Y-124638180D01*
X142611818Y-124239397D01*
X142306603Y-123934182D01*
X141907820Y-123769000D01*
X141476180Y-123769000D01*
X141077397Y-123934182D01*
X140772182Y-124239397D01*
X140607000Y-124638180D01*
X138606026Y-124638180D01*
X138628673Y-124607117D01*
X138469018Y-124120241D01*
X138135196Y-123731524D01*
X138026826Y-123676676D01*
X139840803Y-121862700D01*
X141780189Y-121862700D01*
X141897620Y-121980131D01*
X142278026Y-122137700D01*
X142689774Y-122137700D01*
X143070180Y-121980131D01*
X143361331Y-121688980D01*
X143518900Y-121308574D01*
X143518900Y-120896826D01*
X143361331Y-120516420D01*
X143070180Y-120225269D01*
X142689774Y-120067700D01*
X142278026Y-120067700D01*
X141897620Y-120225269D01*
X141780189Y-120342700D01*
X141688400Y-120342700D01*
X141688400Y-119955400D01*
X146659299Y-119955400D01*
X147288699Y-120584800D01*
G36*
X164439665Y-70717298D02*
X164520621Y-70730701D01*
X165171339Y-70801391D01*
X165716030Y-70984701D01*
X166208644Y-71280693D01*
X166626208Y-71675564D01*
X166949237Y-72150888D01*
X167162663Y-72684490D01*
X167261385Y-73280823D01*
X167265287Y-73420521D01*
X167286832Y-73577811D01*
X167290001Y-73586424D01*
X167290000Y-124418227D01*
X167282702Y-124439665D01*
X167269299Y-124520621D01*
X167198609Y-125171338D01*
X167015299Y-125716030D01*
X166719310Y-126208640D01*
X166324439Y-126626205D01*
X165849112Y-126949237D01*
X165315507Y-127162664D01*
X164719177Y-127261385D01*
X164579479Y-127265287D01*
X164422189Y-127286832D01*
X164413579Y-127290000D01*
X159082730Y-127290000D01*
X159085231Y-127288329D01*
X159127633Y-127224870D01*
X161544174Y-124808330D01*
X161607630Y-124765930D01*
X161775605Y-124514538D01*
X161819701Y-124292853D01*
X161819701Y-124292848D01*
X161834589Y-124218001D01*
X161822144Y-124155431D01*
X162365000Y-124155431D01*
X162365000Y-125044569D01*
X162705259Y-125866026D01*
X163333974Y-126494741D01*
X164155431Y-126835000D01*
X165044569Y-126835000D01*
X165866026Y-126494741D01*
X166494741Y-125866026D01*
X166835000Y-125044569D01*
X166835000Y-124155431D01*
X166494741Y-123333974D01*
X165866026Y-122705259D01*
X165044569Y-122365000D01*
X164155431Y-122365000D01*
X163333974Y-122705259D01*
X162705259Y-123333974D01*
X162365000Y-124155431D01*
X161822144Y-124155431D01*
X161819701Y-124143154D01*
X161819701Y-123401502D01*
X163874204Y-121347000D01*
X164346853Y-121347000D01*
X164421700Y-121361888D01*
X164496547Y-121347000D01*
X164496552Y-121347000D01*
X164718237Y-121302904D01*
X164969629Y-121134929D01*
X165012030Y-121071471D01*
X165160673Y-120922829D01*
X165224129Y-120880429D01*
X165392104Y-120629037D01*
X165436200Y-120407352D01*
X165436200Y-120407348D01*
X165451088Y-120332501D01*
X165436200Y-120257654D01*
X165436200Y-88739046D01*
X165451088Y-88664199D01*
X165436200Y-88589352D01*
X165436200Y-88589348D01*
X165392104Y-88367663D01*
X165350302Y-88305102D01*
X165266529Y-88179726D01*
X165266527Y-88179724D01*
X165224129Y-88116271D01*
X165160676Y-88073873D01*
X164227491Y-87140689D01*
X164448839Y-86809418D01*
X164564092Y-86230000D01*
X164448839Y-85650582D01*
X164120625Y-85159375D01*
X163822239Y-84960000D01*
X164120625Y-84760625D01*
X164448839Y-84269418D01*
X164564092Y-83690000D01*
X164448839Y-83110582D01*
X164120625Y-82619375D01*
X163822239Y-82420000D01*
X164120625Y-82220625D01*
X164448839Y-81729418D01*
X164564092Y-81150000D01*
X164448839Y-80570582D01*
X164120625Y-80079375D01*
X163801522Y-79866157D01*
X163931358Y-79805183D01*
X164321645Y-79376924D01*
X164491476Y-78966890D01*
X164370155Y-78737000D01*
X163177000Y-78737000D01*
X163177000Y-78757000D01*
X162923000Y-78757000D01*
X162923000Y-78737000D01*
X161729845Y-78737000D01*
X161608524Y-78966890D01*
X161778355Y-79376924D01*
X162168642Y-79805183D01*
X162298478Y-79866157D01*
X161979375Y-80079375D01*
X161651161Y-80570582D01*
X161535908Y-81150000D01*
X161651161Y-81729418D01*
X161979375Y-82220625D01*
X162277761Y-82420000D01*
X161979375Y-82619375D01*
X161651161Y-83110582D01*
X161535908Y-83690000D01*
X161651161Y-84269418D01*
X161979375Y-84760625D01*
X162277761Y-84960000D01*
X161979375Y-85159375D01*
X161651161Y-85650582D01*
X161535908Y-86230000D01*
X161651161Y-86809418D01*
X161979375Y-87300625D01*
X162277761Y-87500000D01*
X161979375Y-87699375D01*
X161651161Y-88190582D01*
X161535908Y-88770000D01*
X161651161Y-89349418D01*
X161979375Y-89840625D01*
X162277761Y-90040000D01*
X161979375Y-90239375D01*
X161771822Y-90550000D01*
X155591246Y-90550000D01*
X155516399Y-90535112D01*
X155441552Y-90550000D01*
X155441548Y-90550000D01*
X155219863Y-90594096D01*
X154968471Y-90762071D01*
X154926071Y-90825527D01*
X142049030Y-103702569D01*
X141985571Y-103744971D01*
X141817596Y-103996364D01*
X141773500Y-104218049D01*
X141773500Y-104218053D01*
X141758612Y-104292900D01*
X141773500Y-104367747D01*
X141773501Y-105753749D01*
X141758612Y-105828600D01*
X141817597Y-106125137D01*
X141915664Y-106271904D01*
X141985572Y-106376529D01*
X142049028Y-106418929D01*
X143293000Y-107662902D01*
X143293001Y-109773099D01*
X134505431Y-100985530D01*
X134463029Y-100922071D01*
X134211637Y-100754096D01*
X133989952Y-100710000D01*
X133989947Y-100710000D01*
X133915100Y-100695112D01*
X133840253Y-100710000D01*
X126228178Y-100710000D01*
X126020625Y-100399375D01*
X125701522Y-100186157D01*
X125831358Y-100125183D01*
X126221645Y-99696924D01*
X126391476Y-99286890D01*
X126270155Y-99057000D01*
X125077000Y-99057000D01*
X125077000Y-99077000D01*
X124823000Y-99077000D01*
X124823000Y-99057000D01*
X123629845Y-99057000D01*
X123508524Y-99286890D01*
X123678355Y-99696924D01*
X124068642Y-100125183D01*
X124198478Y-100186157D01*
X123879375Y-100399375D01*
X123551161Y-100890582D01*
X123435908Y-101470000D01*
X123551161Y-102049418D01*
X123879375Y-102540625D01*
X124177761Y-102740000D01*
X123879375Y-102939375D01*
X123551161Y-103430582D01*
X123435908Y-104010000D01*
X123551161Y-104589418D01*
X123879375Y-105080625D01*
X124177761Y-105280000D01*
X123879375Y-105479375D01*
X123551161Y-105970582D01*
X123435908Y-106550000D01*
X123551161Y-107129418D01*
X123879375Y-107620625D01*
X124177761Y-107820000D01*
X123879375Y-108019375D01*
X123551161Y-108510582D01*
X123435908Y-109090000D01*
X123551161Y-109669418D01*
X123879375Y-110160625D01*
X124177761Y-110360000D01*
X123879375Y-110559375D01*
X123551161Y-111050582D01*
X123435908Y-111630000D01*
X123551161Y-112209418D01*
X123879375Y-112700625D01*
X124177761Y-112900000D01*
X123879375Y-113099375D01*
X123551161Y-113590582D01*
X123435908Y-114170000D01*
X123551161Y-114749418D01*
X123879375Y-115240625D01*
X124177761Y-115440000D01*
X123879375Y-115639375D01*
X123551161Y-116130582D01*
X123435908Y-116710000D01*
X123551161Y-117289418D01*
X123879375Y-117780625D01*
X123901033Y-117795096D01*
X123740302Y-117861673D01*
X123561673Y-118040301D01*
X123465000Y-118273690D01*
X123465000Y-118964250D01*
X123623750Y-119123000D01*
X124823000Y-119123000D01*
X124823000Y-119103000D01*
X125077000Y-119103000D01*
X125077000Y-119123000D01*
X126276250Y-119123000D01*
X126435000Y-118964250D01*
X126435000Y-118273690D01*
X126338327Y-118040301D01*
X126159698Y-117861673D01*
X125998967Y-117795096D01*
X126020625Y-117780625D01*
X126228178Y-117470000D01*
X145471199Y-117470000D01*
X146436598Y-118435400D01*
X139856511Y-118435400D01*
X139739080Y-118317969D01*
X139358674Y-118160400D01*
X138946926Y-118160400D01*
X138566520Y-118317969D01*
X138275369Y-118609120D01*
X138117800Y-118989526D01*
X138117800Y-119382000D01*
X134047311Y-119382000D01*
X133929880Y-119264569D01*
X133549474Y-119107000D01*
X133137726Y-119107000D01*
X132757320Y-119264569D01*
X132466169Y-119555720D01*
X132308600Y-119936126D01*
X132308600Y-120347874D01*
X132427683Y-120635366D01*
X132302000Y-120721639D01*
X132302000Y-121813000D01*
X133205148Y-121813000D01*
X133360680Y-121626117D01*
X133226844Y-121181046D01*
X133223540Y-121177000D01*
X133549474Y-121177000D01*
X133929880Y-121019431D01*
X134047311Y-120902000D01*
X136191035Y-120902000D01*
X135963156Y-121181046D01*
X135829320Y-121626117D01*
X135984852Y-121813000D01*
X136888000Y-121813000D01*
X136888000Y-121793000D01*
X137142000Y-121793000D01*
X137142000Y-121813000D01*
X137162000Y-121813000D01*
X137162000Y-122067000D01*
X137142000Y-122067000D01*
X137142000Y-122087000D01*
X136888000Y-122087000D01*
X136888000Y-122067000D01*
X135984852Y-122067000D01*
X135829320Y-122253883D01*
X135963156Y-122698954D01*
X136257125Y-123058929D01*
X136411808Y-123142091D01*
X135113889Y-124440009D01*
X134895273Y-124483495D01*
X134732969Y-124591943D01*
X134667698Y-124526673D01*
X134434309Y-124430000D01*
X134156250Y-124430000D01*
X133997500Y-124588750D01*
X133997500Y-125413000D01*
X134017500Y-125413000D01*
X134017500Y-125667000D01*
X133997500Y-125667000D01*
X133997500Y-125687000D01*
X133743500Y-125687000D01*
X133743500Y-125667000D01*
X133723500Y-125667000D01*
X133723500Y-125413000D01*
X133743500Y-125413000D01*
X133743500Y-124588750D01*
X133584750Y-124430000D01*
X133306691Y-124430000D01*
X133134044Y-124501513D01*
X133009018Y-124120241D01*
X132675196Y-123731524D01*
X132218029Y-123500144D01*
X132194400Y-123497090D01*
X131992000Y-123620776D01*
X131992000Y-124813000D01*
X132012000Y-124813000D01*
X132012000Y-125067000D01*
X131992000Y-125067000D01*
X131992000Y-125087000D01*
X131738000Y-125087000D01*
X131738000Y-125067000D01*
X130711429Y-125067000D01*
X130561327Y-125272883D01*
X130720982Y-125759759D01*
X130918708Y-125990000D01*
X130069926Y-125990000D01*
X130000000Y-125976091D01*
X129930074Y-125990000D01*
X129756650Y-126024496D01*
X129722972Y-126031195D01*
X129547449Y-126148476D01*
X129488119Y-126188119D01*
X129448510Y-126247398D01*
X128405910Y-127290000D01*
X123581773Y-127290000D01*
X123560335Y-127282702D01*
X123479379Y-127269299D01*
X122828662Y-127198609D01*
X122283970Y-127015299D01*
X121791360Y-126719310D01*
X121373795Y-126324439D01*
X121050763Y-125849112D01*
X120837336Y-125315507D01*
X120738615Y-124719177D01*
X120734713Y-124579479D01*
X120713168Y-124422189D01*
X120710000Y-124413579D01*
X120710000Y-124155431D01*
X121165000Y-124155431D01*
X121165000Y-125044569D01*
X121505259Y-125866026D01*
X122133974Y-126494741D01*
X122955431Y-126835000D01*
X123844569Y-126835000D01*
X124666026Y-126494741D01*
X125294741Y-125866026D01*
X125635000Y-125044569D01*
X125635000Y-124607117D01*
X130561327Y-124607117D01*
X130711429Y-124813000D01*
X131738000Y-124813000D01*
X131738000Y-123620776D01*
X131535600Y-123497090D01*
X131511971Y-123500144D01*
X131054804Y-123731524D01*
X130720982Y-124120241D01*
X130561327Y-124607117D01*
X125635000Y-124607117D01*
X125635000Y-124155431D01*
X125294741Y-123333974D01*
X124666026Y-122705259D01*
X123844569Y-122365000D01*
X122955431Y-122365000D01*
X122133974Y-122705259D01*
X121505259Y-123333974D01*
X121165000Y-124155431D01*
X120710000Y-124155431D01*
X120710000Y-122253883D01*
X130989320Y-122253883D01*
X131123156Y-122698954D01*
X131417125Y-123058929D01*
X131826474Y-123279006D01*
X131865256Y-123283803D01*
X132048000Y-123158361D01*
X132048000Y-122067000D01*
X132302000Y-122067000D01*
X132302000Y-123158361D01*
X132484744Y-123283803D01*
X132523526Y-123279006D01*
X132932875Y-123058929D01*
X133226844Y-122698954D01*
X133360680Y-122253883D01*
X133205148Y-122067000D01*
X132302000Y-122067000D01*
X132048000Y-122067000D01*
X131144852Y-122067000D01*
X130989320Y-122253883D01*
X120710000Y-122253883D01*
X120710000Y-121626117D01*
X130989320Y-121626117D01*
X131144852Y-121813000D01*
X132048000Y-121813000D01*
X132048000Y-120721639D01*
X131865256Y-120596197D01*
X131826474Y-120600994D01*
X131417125Y-120821071D01*
X131123156Y-121181046D01*
X130989320Y-121626117D01*
X120710000Y-121626117D01*
X120710000Y-119535750D01*
X123465000Y-119535750D01*
X123465000Y-120226310D01*
X123561673Y-120459699D01*
X123740302Y-120638327D01*
X123973691Y-120735000D01*
X124664250Y-120735000D01*
X124823000Y-120576250D01*
X124823000Y-119377000D01*
X125077000Y-119377000D01*
X125077000Y-120576250D01*
X125235750Y-120735000D01*
X125926309Y-120735000D01*
X126159698Y-120638327D01*
X126338327Y-120459699D01*
X126435000Y-120226310D01*
X126435000Y-119535750D01*
X126276250Y-119377000D01*
X125077000Y-119377000D01*
X124823000Y-119377000D01*
X123623750Y-119377000D01*
X123465000Y-119535750D01*
X120710000Y-119535750D01*
X120710000Y-81150000D01*
X123435908Y-81150000D01*
X123551161Y-81729418D01*
X123879375Y-82220625D01*
X124177761Y-82420000D01*
X123879375Y-82619375D01*
X123551161Y-83110582D01*
X123435908Y-83690000D01*
X123551161Y-84269418D01*
X123879375Y-84760625D01*
X124177761Y-84960000D01*
X123879375Y-85159375D01*
X123551161Y-85650582D01*
X123435908Y-86230000D01*
X123551161Y-86809418D01*
X123879375Y-87300625D01*
X124177761Y-87500000D01*
X123879375Y-87699375D01*
X123551161Y-88190582D01*
X123435908Y-88770000D01*
X123551161Y-89349418D01*
X123879375Y-89840625D01*
X124177761Y-90040000D01*
X123879375Y-90239375D01*
X123551161Y-90730582D01*
X123435908Y-91310000D01*
X123551161Y-91889418D01*
X123879375Y-92380625D01*
X124177761Y-92580000D01*
X123879375Y-92779375D01*
X123551161Y-93270582D01*
X123435908Y-93850000D01*
X123551161Y-94429418D01*
X123879375Y-94920625D01*
X124177761Y-95120000D01*
X123879375Y-95319375D01*
X123551161Y-95810582D01*
X123435908Y-96390000D01*
X123551161Y-96969418D01*
X123879375Y-97460625D01*
X124198478Y-97673843D01*
X124068642Y-97734817D01*
X123678355Y-98163076D01*
X123508524Y-98573110D01*
X123629845Y-98803000D01*
X124823000Y-98803000D01*
X124823000Y-98783000D01*
X125077000Y-98783000D01*
X125077000Y-98803000D01*
X126270155Y-98803000D01*
X126391476Y-98573110D01*
X126221645Y-98163076D01*
X125831358Y-97734817D01*
X125701522Y-97673843D01*
X126020625Y-97460625D01*
X126348839Y-96969418D01*
X126464092Y-96390000D01*
X126348839Y-95810582D01*
X126020625Y-95319375D01*
X125722239Y-95120000D01*
X126020625Y-94920625D01*
X126348839Y-94429418D01*
X126464092Y-93850000D01*
X126348839Y-93270582D01*
X126020625Y-92779375D01*
X125722239Y-92580000D01*
X126020625Y-92380625D01*
X126348839Y-91889418D01*
X126464092Y-91310000D01*
X126348839Y-90730582D01*
X126020625Y-90239375D01*
X125722239Y-90040000D01*
X126020625Y-89840625D01*
X126348839Y-89349418D01*
X126464092Y-88770000D01*
X126348839Y-88190582D01*
X126020625Y-87699375D01*
X125722239Y-87500000D01*
X126020625Y-87300625D01*
X126348839Y-86809418D01*
X126464092Y-86230000D01*
X126348839Y-85650582D01*
X126020625Y-85159375D01*
X125722239Y-84960000D01*
X126020625Y-84760625D01*
X126348839Y-84269418D01*
X126464092Y-83690000D01*
X126348839Y-83110582D01*
X126020625Y-82619375D01*
X125722239Y-82420000D01*
X126020625Y-82220625D01*
X126348839Y-81729418D01*
X126464092Y-81150000D01*
X126348839Y-80570582D01*
X126020625Y-80079375D01*
X125701522Y-79866157D01*
X125831358Y-79805183D01*
X126221645Y-79376924D01*
X126391476Y-78966890D01*
X126270155Y-78737000D01*
X125077000Y-78737000D01*
X125077000Y-78757000D01*
X124823000Y-78757000D01*
X124823000Y-78737000D01*
X123629845Y-78737000D01*
X123508524Y-78966890D01*
X123678355Y-79376924D01*
X124068642Y-79805183D01*
X124198478Y-79866157D01*
X123879375Y-80079375D01*
X123551161Y-80570582D01*
X123435908Y-81150000D01*
X120710000Y-81150000D01*
X120710000Y-78253110D01*
X123508524Y-78253110D01*
X123629845Y-78483000D01*
X124823000Y-78483000D01*
X124823000Y-77289181D01*
X125077000Y-77289181D01*
X125077000Y-78483000D01*
X126270155Y-78483000D01*
X126391476Y-78253110D01*
X161608524Y-78253110D01*
X161729845Y-78483000D01*
X162923000Y-78483000D01*
X162923000Y-77289181D01*
X163177000Y-77289181D01*
X163177000Y-78483000D01*
X164370155Y-78483000D01*
X164491476Y-78253110D01*
X164321645Y-77843076D01*
X163931358Y-77414817D01*
X163406892Y-77168514D01*
X163177000Y-77289181D01*
X162923000Y-77289181D01*
X162693108Y-77168514D01*
X162168642Y-77414817D01*
X161778355Y-77843076D01*
X161608524Y-78253110D01*
X126391476Y-78253110D01*
X126221645Y-77843076D01*
X125831358Y-77414817D01*
X125306892Y-77168514D01*
X125077000Y-77289181D01*
X124823000Y-77289181D01*
X124593108Y-77168514D01*
X124068642Y-77414817D01*
X123678355Y-77843076D01*
X123508524Y-78253110D01*
X120710000Y-78253110D01*
X120710000Y-73581773D01*
X120717298Y-73560335D01*
X120730701Y-73479379D01*
X120787619Y-72955431D01*
X121165000Y-72955431D01*
X121165000Y-73844569D01*
X121505259Y-74666026D01*
X122133974Y-75294741D01*
X122955431Y-75635000D01*
X123844569Y-75635000D01*
X124666026Y-75294741D01*
X125294741Y-74666026D01*
X125635000Y-73844569D01*
X125635000Y-72955431D01*
X162365000Y-72955431D01*
X162365000Y-73844569D01*
X162705259Y-74666026D01*
X163333974Y-75294741D01*
X164155431Y-75635000D01*
X165044569Y-75635000D01*
X165866026Y-75294741D01*
X166494741Y-74666026D01*
X166835000Y-73844569D01*
X166835000Y-72955431D01*
X166494741Y-72133974D01*
X165866026Y-71505259D01*
X165044569Y-71165000D01*
X164155431Y-71165000D01*
X163333974Y-71505259D01*
X162705259Y-72133974D01*
X162365000Y-72955431D01*
X125635000Y-72955431D01*
X125294741Y-72133974D01*
X124666026Y-71505259D01*
X123844569Y-71165000D01*
X122955431Y-71165000D01*
X122133974Y-71505259D01*
X121505259Y-72133974D01*
X121165000Y-72955431D01*
X120787619Y-72955431D01*
X120801391Y-72828661D01*
X120984701Y-72283970D01*
X121280693Y-71791356D01*
X121675564Y-71373792D01*
X122150888Y-71050763D01*
X122684490Y-70837337D01*
X123280823Y-70738615D01*
X123420521Y-70734713D01*
X123577811Y-70713168D01*
X123586421Y-70710000D01*
X164418227Y-70710000D01*
X164439665Y-70717298D01*
X164439665Y-70717298D01*
G37*
X164439665Y-70717298D02*
X164520621Y-70730701D01*
X165171339Y-70801391D01*
X165716030Y-70984701D01*
X166208644Y-71280693D01*
X166626208Y-71675564D01*
X166949237Y-72150888D01*
X167162663Y-72684490D01*
X167261385Y-73280823D01*
X167265287Y-73420521D01*
X167286832Y-73577811D01*
X167290001Y-73586424D01*
X167290000Y-124418227D01*
X167282702Y-124439665D01*
X167269299Y-124520621D01*
X167198609Y-125171338D01*
X167015299Y-125716030D01*
X166719310Y-126208640D01*
X166324439Y-126626205D01*
X165849112Y-126949237D01*
X165315507Y-127162664D01*
X164719177Y-127261385D01*
X164579479Y-127265287D01*
X164422189Y-127286832D01*
X164413579Y-127290000D01*
X159082730Y-127290000D01*
X159085231Y-127288329D01*
X159127633Y-127224870D01*
X161544174Y-124808330D01*
X161607630Y-124765930D01*
X161775605Y-124514538D01*
X161819701Y-124292853D01*
X161819701Y-124292848D01*
X161834589Y-124218001D01*
X161822144Y-124155431D01*
X162365000Y-124155431D01*
X162365000Y-125044569D01*
X162705259Y-125866026D01*
X163333974Y-126494741D01*
X164155431Y-126835000D01*
X165044569Y-126835000D01*
X165866026Y-126494741D01*
X166494741Y-125866026D01*
X166835000Y-125044569D01*
X166835000Y-124155431D01*
X166494741Y-123333974D01*
X165866026Y-122705259D01*
X165044569Y-122365000D01*
X164155431Y-122365000D01*
X163333974Y-122705259D01*
X162705259Y-123333974D01*
X162365000Y-124155431D01*
X161822144Y-124155431D01*
X161819701Y-124143154D01*
X161819701Y-123401502D01*
X163874204Y-121347000D01*
X164346853Y-121347000D01*
X164421700Y-121361888D01*
X164496547Y-121347000D01*
X164496552Y-121347000D01*
X164718237Y-121302904D01*
X164969629Y-121134929D01*
X165012030Y-121071471D01*
X165160673Y-120922829D01*
X165224129Y-120880429D01*
X165392104Y-120629037D01*
X165436200Y-120407352D01*
X165436200Y-120407348D01*
X165451088Y-120332501D01*
X165436200Y-120257654D01*
X165436200Y-88739046D01*
X165451088Y-88664199D01*
X165436200Y-88589352D01*
X165436200Y-88589348D01*
X165392104Y-88367663D01*
X165350302Y-88305102D01*
X165266529Y-88179726D01*
X165266527Y-88179724D01*
X165224129Y-88116271D01*
X165160676Y-88073873D01*
X164227491Y-87140689D01*
X164448839Y-86809418D01*
X164564092Y-86230000D01*
X164448839Y-85650582D01*
X164120625Y-85159375D01*
X163822239Y-84960000D01*
X164120625Y-84760625D01*
X164448839Y-84269418D01*
X164564092Y-83690000D01*
X164448839Y-83110582D01*
X164120625Y-82619375D01*
X163822239Y-82420000D01*
X164120625Y-82220625D01*
X164448839Y-81729418D01*
X164564092Y-81150000D01*
X164448839Y-80570582D01*
X164120625Y-80079375D01*
X163801522Y-79866157D01*
X163931358Y-79805183D01*
X164321645Y-79376924D01*
X164491476Y-78966890D01*
X164370155Y-78737000D01*
X163177000Y-78737000D01*
X163177000Y-78757000D01*
X162923000Y-78757000D01*
X162923000Y-78737000D01*
X161729845Y-78737000D01*
X161608524Y-78966890D01*
X161778355Y-79376924D01*
X162168642Y-79805183D01*
X162298478Y-79866157D01*
X161979375Y-80079375D01*
X161651161Y-80570582D01*
X161535908Y-81150000D01*
X161651161Y-81729418D01*
X161979375Y-82220625D01*
X162277761Y-82420000D01*
X161979375Y-82619375D01*
X161651161Y-83110582D01*
X161535908Y-83690000D01*
X161651161Y-84269418D01*
X161979375Y-84760625D01*
X162277761Y-84960000D01*
X161979375Y-85159375D01*
X161651161Y-85650582D01*
X161535908Y-86230000D01*
X161651161Y-86809418D01*
X161979375Y-87300625D01*
X162277761Y-87500000D01*
X161979375Y-87699375D01*
X161651161Y-88190582D01*
X161535908Y-88770000D01*
X161651161Y-89349418D01*
X161979375Y-89840625D01*
X162277761Y-90040000D01*
X161979375Y-90239375D01*
X161771822Y-90550000D01*
X155591246Y-90550000D01*
X155516399Y-90535112D01*
X155441552Y-90550000D01*
X155441548Y-90550000D01*
X155219863Y-90594096D01*
X154968471Y-90762071D01*
X154926071Y-90825527D01*
X142049030Y-103702569D01*
X141985571Y-103744971D01*
X141817596Y-103996364D01*
X141773500Y-104218049D01*
X141773500Y-104218053D01*
X141758612Y-104292900D01*
X141773500Y-104367747D01*
X141773501Y-105753749D01*
X141758612Y-105828600D01*
X141817597Y-106125137D01*
X141915664Y-106271904D01*
X141985572Y-106376529D01*
X142049028Y-106418929D01*
X143293000Y-107662902D01*
X143293001Y-109773099D01*
X134505431Y-100985530D01*
X134463029Y-100922071D01*
X134211637Y-100754096D01*
X133989952Y-100710000D01*
X133989947Y-100710000D01*
X133915100Y-100695112D01*
X133840253Y-100710000D01*
X126228178Y-100710000D01*
X126020625Y-100399375D01*
X125701522Y-100186157D01*
X125831358Y-100125183D01*
X126221645Y-99696924D01*
X126391476Y-99286890D01*
X126270155Y-99057000D01*
X125077000Y-99057000D01*
X125077000Y-99077000D01*
X124823000Y-99077000D01*
X124823000Y-99057000D01*
X123629845Y-99057000D01*
X123508524Y-99286890D01*
X123678355Y-99696924D01*
X124068642Y-100125183D01*
X124198478Y-100186157D01*
X123879375Y-100399375D01*
X123551161Y-100890582D01*
X123435908Y-101470000D01*
X123551161Y-102049418D01*
X123879375Y-102540625D01*
X124177761Y-102740000D01*
X123879375Y-102939375D01*
X123551161Y-103430582D01*
X123435908Y-104010000D01*
X123551161Y-104589418D01*
X123879375Y-105080625D01*
X124177761Y-105280000D01*
X123879375Y-105479375D01*
X123551161Y-105970582D01*
X123435908Y-106550000D01*
X123551161Y-107129418D01*
X123879375Y-107620625D01*
X124177761Y-107820000D01*
X123879375Y-108019375D01*
X123551161Y-108510582D01*
X123435908Y-109090000D01*
X123551161Y-109669418D01*
X123879375Y-110160625D01*
X124177761Y-110360000D01*
X123879375Y-110559375D01*
X123551161Y-111050582D01*
X123435908Y-111630000D01*
X123551161Y-112209418D01*
X123879375Y-112700625D01*
X124177761Y-112900000D01*
X123879375Y-113099375D01*
X123551161Y-113590582D01*
X123435908Y-114170000D01*
X123551161Y-114749418D01*
X123879375Y-115240625D01*
X124177761Y-115440000D01*
X123879375Y-115639375D01*
X123551161Y-116130582D01*
X123435908Y-116710000D01*
X123551161Y-117289418D01*
X123879375Y-117780625D01*
X123901033Y-117795096D01*
X123740302Y-117861673D01*
X123561673Y-118040301D01*
X123465000Y-118273690D01*
X123465000Y-118964250D01*
X123623750Y-119123000D01*
X124823000Y-119123000D01*
X124823000Y-119103000D01*
X125077000Y-119103000D01*
X125077000Y-119123000D01*
X126276250Y-119123000D01*
X126435000Y-118964250D01*
X126435000Y-118273690D01*
X126338327Y-118040301D01*
X126159698Y-117861673D01*
X125998967Y-117795096D01*
X126020625Y-117780625D01*
X126228178Y-117470000D01*
X145471199Y-117470000D01*
X146436598Y-118435400D01*
X139856511Y-118435400D01*
X139739080Y-118317969D01*
X139358674Y-118160400D01*
X138946926Y-118160400D01*
X138566520Y-118317969D01*
X138275369Y-118609120D01*
X138117800Y-118989526D01*
X138117800Y-119382000D01*
X134047311Y-119382000D01*
X133929880Y-119264569D01*
X133549474Y-119107000D01*
X133137726Y-119107000D01*
X132757320Y-119264569D01*
X132466169Y-119555720D01*
X132308600Y-119936126D01*
X132308600Y-120347874D01*
X132427683Y-120635366D01*
X132302000Y-120721639D01*
X132302000Y-121813000D01*
X133205148Y-121813000D01*
X133360680Y-121626117D01*
X133226844Y-121181046D01*
X133223540Y-121177000D01*
X133549474Y-121177000D01*
X133929880Y-121019431D01*
X134047311Y-120902000D01*
X136191035Y-120902000D01*
X135963156Y-121181046D01*
X135829320Y-121626117D01*
X135984852Y-121813000D01*
X136888000Y-121813000D01*
X136888000Y-121793000D01*
X137142000Y-121793000D01*
X137142000Y-121813000D01*
X137162000Y-121813000D01*
X137162000Y-122067000D01*
X137142000Y-122067000D01*
X137142000Y-122087000D01*
X136888000Y-122087000D01*
X136888000Y-122067000D01*
X135984852Y-122067000D01*
X135829320Y-122253883D01*
X135963156Y-122698954D01*
X136257125Y-123058929D01*
X136411808Y-123142091D01*
X135113889Y-124440009D01*
X134895273Y-124483495D01*
X134732969Y-124591943D01*
X134667698Y-124526673D01*
X134434309Y-124430000D01*
X134156250Y-124430000D01*
X133997500Y-124588750D01*
X133997500Y-125413000D01*
X134017500Y-125413000D01*
X134017500Y-125667000D01*
X133997500Y-125667000D01*
X133997500Y-125687000D01*
X133743500Y-125687000D01*
X133743500Y-125667000D01*
X133723500Y-125667000D01*
X133723500Y-125413000D01*
X133743500Y-125413000D01*
X133743500Y-124588750D01*
X133584750Y-124430000D01*
X133306691Y-124430000D01*
X133134044Y-124501513D01*
X133009018Y-124120241D01*
X132675196Y-123731524D01*
X132218029Y-123500144D01*
X132194400Y-123497090D01*
X131992000Y-123620776D01*
X131992000Y-124813000D01*
X132012000Y-124813000D01*
X132012000Y-125067000D01*
X131992000Y-125067000D01*
X131992000Y-125087000D01*
X131738000Y-125087000D01*
X131738000Y-125067000D01*
X130711429Y-125067000D01*
X130561327Y-125272883D01*
X130720982Y-125759759D01*
X130918708Y-125990000D01*
X130069926Y-125990000D01*
X130000000Y-125976091D01*
X129930074Y-125990000D01*
X129756650Y-126024496D01*
X129722972Y-126031195D01*
X129547449Y-126148476D01*
X129488119Y-126188119D01*
X129448510Y-126247398D01*
X128405910Y-127290000D01*
X123581773Y-127290000D01*
X123560335Y-127282702D01*
X123479379Y-127269299D01*
X122828662Y-127198609D01*
X122283970Y-127015299D01*
X121791360Y-126719310D01*
X121373795Y-126324439D01*
X121050763Y-125849112D01*
X120837336Y-125315507D01*
X120738615Y-124719177D01*
X120734713Y-124579479D01*
X120713168Y-124422189D01*
X120710000Y-124413579D01*
X120710000Y-124155431D01*
X121165000Y-124155431D01*
X121165000Y-125044569D01*
X121505259Y-125866026D01*
X122133974Y-126494741D01*
X122955431Y-126835000D01*
X123844569Y-126835000D01*
X124666026Y-126494741D01*
X125294741Y-125866026D01*
X125635000Y-125044569D01*
X125635000Y-124607117D01*
X130561327Y-124607117D01*
X130711429Y-124813000D01*
X131738000Y-124813000D01*
X131738000Y-123620776D01*
X131535600Y-123497090D01*
X131511971Y-123500144D01*
X131054804Y-123731524D01*
X130720982Y-124120241D01*
X130561327Y-124607117D01*
X125635000Y-124607117D01*
X125635000Y-124155431D01*
X125294741Y-123333974D01*
X124666026Y-122705259D01*
X123844569Y-122365000D01*
X122955431Y-122365000D01*
X122133974Y-122705259D01*
X121505259Y-123333974D01*
X121165000Y-124155431D01*
X120710000Y-124155431D01*
X120710000Y-122253883D01*
X130989320Y-122253883D01*
X131123156Y-122698954D01*
X131417125Y-123058929D01*
X131826474Y-123279006D01*
X131865256Y-123283803D01*
X132048000Y-123158361D01*
X132048000Y-122067000D01*
X132302000Y-122067000D01*
X132302000Y-123158361D01*
X132484744Y-123283803D01*
X132523526Y-123279006D01*
X132932875Y-123058929D01*
X133226844Y-122698954D01*
X133360680Y-122253883D01*
X133205148Y-122067000D01*
X132302000Y-122067000D01*
X132048000Y-122067000D01*
X131144852Y-122067000D01*
X130989320Y-122253883D01*
X120710000Y-122253883D01*
X120710000Y-121626117D01*
X130989320Y-121626117D01*
X131144852Y-121813000D01*
X132048000Y-121813000D01*
X132048000Y-120721639D01*
X131865256Y-120596197D01*
X131826474Y-120600994D01*
X131417125Y-120821071D01*
X131123156Y-121181046D01*
X130989320Y-121626117D01*
X120710000Y-121626117D01*
X120710000Y-119535750D01*
X123465000Y-119535750D01*
X123465000Y-120226310D01*
X123561673Y-120459699D01*
X123740302Y-120638327D01*
X123973691Y-120735000D01*
X124664250Y-120735000D01*
X124823000Y-120576250D01*
X124823000Y-119377000D01*
X125077000Y-119377000D01*
X125077000Y-120576250D01*
X125235750Y-120735000D01*
X125926309Y-120735000D01*
X126159698Y-120638327D01*
X126338327Y-120459699D01*
X126435000Y-120226310D01*
X126435000Y-119535750D01*
X126276250Y-119377000D01*
X125077000Y-119377000D01*
X124823000Y-119377000D01*
X123623750Y-119377000D01*
X123465000Y-119535750D01*
X120710000Y-119535750D01*
X120710000Y-81150000D01*
X123435908Y-81150000D01*
X123551161Y-81729418D01*
X123879375Y-82220625D01*
X124177761Y-82420000D01*
X123879375Y-82619375D01*
X123551161Y-83110582D01*
X123435908Y-83690000D01*
X123551161Y-84269418D01*
X123879375Y-84760625D01*
X124177761Y-84960000D01*
X123879375Y-85159375D01*
X123551161Y-85650582D01*
X123435908Y-86230000D01*
X123551161Y-86809418D01*
X123879375Y-87300625D01*
X124177761Y-87500000D01*
X123879375Y-87699375D01*
X123551161Y-88190582D01*
X123435908Y-88770000D01*
X123551161Y-89349418D01*
X123879375Y-89840625D01*
X124177761Y-90040000D01*
X123879375Y-90239375D01*
X123551161Y-90730582D01*
X123435908Y-91310000D01*
X123551161Y-91889418D01*
X123879375Y-92380625D01*
X124177761Y-92580000D01*
X123879375Y-92779375D01*
X123551161Y-93270582D01*
X123435908Y-93850000D01*
X123551161Y-94429418D01*
X123879375Y-94920625D01*
X124177761Y-95120000D01*
X123879375Y-95319375D01*
X123551161Y-95810582D01*
X123435908Y-96390000D01*
X123551161Y-96969418D01*
X123879375Y-97460625D01*
X124198478Y-97673843D01*
X124068642Y-97734817D01*
X123678355Y-98163076D01*
X123508524Y-98573110D01*
X123629845Y-98803000D01*
X124823000Y-98803000D01*
X124823000Y-98783000D01*
X125077000Y-98783000D01*
X125077000Y-98803000D01*
X126270155Y-98803000D01*
X126391476Y-98573110D01*
X126221645Y-98163076D01*
X125831358Y-97734817D01*
X125701522Y-97673843D01*
X126020625Y-97460625D01*
X126348839Y-96969418D01*
X126464092Y-96390000D01*
X126348839Y-95810582D01*
X126020625Y-95319375D01*
X125722239Y-95120000D01*
X126020625Y-94920625D01*
X126348839Y-94429418D01*
X126464092Y-93850000D01*
X126348839Y-93270582D01*
X126020625Y-92779375D01*
X125722239Y-92580000D01*
X126020625Y-92380625D01*
X126348839Y-91889418D01*
X126464092Y-91310000D01*
X126348839Y-90730582D01*
X126020625Y-90239375D01*
X125722239Y-90040000D01*
X126020625Y-89840625D01*
X126348839Y-89349418D01*
X126464092Y-88770000D01*
X126348839Y-88190582D01*
X126020625Y-87699375D01*
X125722239Y-87500000D01*
X126020625Y-87300625D01*
X126348839Y-86809418D01*
X126464092Y-86230000D01*
X126348839Y-85650582D01*
X126020625Y-85159375D01*
X125722239Y-84960000D01*
X126020625Y-84760625D01*
X126348839Y-84269418D01*
X126464092Y-83690000D01*
X126348839Y-83110582D01*
X126020625Y-82619375D01*
X125722239Y-82420000D01*
X126020625Y-82220625D01*
X126348839Y-81729418D01*
X126464092Y-81150000D01*
X126348839Y-80570582D01*
X126020625Y-80079375D01*
X125701522Y-79866157D01*
X125831358Y-79805183D01*
X126221645Y-79376924D01*
X126391476Y-78966890D01*
X126270155Y-78737000D01*
X125077000Y-78737000D01*
X125077000Y-78757000D01*
X124823000Y-78757000D01*
X124823000Y-78737000D01*
X123629845Y-78737000D01*
X123508524Y-78966890D01*
X123678355Y-79376924D01*
X124068642Y-79805183D01*
X124198478Y-79866157D01*
X123879375Y-80079375D01*
X123551161Y-80570582D01*
X123435908Y-81150000D01*
X120710000Y-81150000D01*
X120710000Y-78253110D01*
X123508524Y-78253110D01*
X123629845Y-78483000D01*
X124823000Y-78483000D01*
X124823000Y-77289181D01*
X125077000Y-77289181D01*
X125077000Y-78483000D01*
X126270155Y-78483000D01*
X126391476Y-78253110D01*
X161608524Y-78253110D01*
X161729845Y-78483000D01*
X162923000Y-78483000D01*
X162923000Y-77289181D01*
X163177000Y-77289181D01*
X163177000Y-78483000D01*
X164370155Y-78483000D01*
X164491476Y-78253110D01*
X164321645Y-77843076D01*
X163931358Y-77414817D01*
X163406892Y-77168514D01*
X163177000Y-77289181D01*
X162923000Y-77289181D01*
X162693108Y-77168514D01*
X162168642Y-77414817D01*
X161778355Y-77843076D01*
X161608524Y-78253110D01*
X126391476Y-78253110D01*
X126221645Y-77843076D01*
X125831358Y-77414817D01*
X125306892Y-77168514D01*
X125077000Y-77289181D01*
X124823000Y-77289181D01*
X124593108Y-77168514D01*
X124068642Y-77414817D01*
X123678355Y-77843076D01*
X123508524Y-78253110D01*
X120710000Y-78253110D01*
X120710000Y-73581773D01*
X120717298Y-73560335D01*
X120730701Y-73479379D01*
X120787619Y-72955431D01*
X121165000Y-72955431D01*
X121165000Y-73844569D01*
X121505259Y-74666026D01*
X122133974Y-75294741D01*
X122955431Y-75635000D01*
X123844569Y-75635000D01*
X124666026Y-75294741D01*
X125294741Y-74666026D01*
X125635000Y-73844569D01*
X125635000Y-72955431D01*
X162365000Y-72955431D01*
X162365000Y-73844569D01*
X162705259Y-74666026D01*
X163333974Y-75294741D01*
X164155431Y-75635000D01*
X165044569Y-75635000D01*
X165866026Y-75294741D01*
X166494741Y-74666026D01*
X166835000Y-73844569D01*
X166835000Y-72955431D01*
X166494741Y-72133974D01*
X165866026Y-71505259D01*
X165044569Y-71165000D01*
X164155431Y-71165000D01*
X163333974Y-71505259D01*
X162705259Y-72133974D01*
X162365000Y-72955431D01*
X125635000Y-72955431D01*
X125294741Y-72133974D01*
X124666026Y-71505259D01*
X123844569Y-71165000D01*
X122955431Y-71165000D01*
X122133974Y-71505259D01*
X121505259Y-72133974D01*
X121165000Y-72955431D01*
X120787619Y-72955431D01*
X120801391Y-72828661D01*
X120984701Y-72283970D01*
X121280693Y-71791356D01*
X121675564Y-71373792D01*
X122150888Y-71050763D01*
X122684490Y-70837337D01*
X123280823Y-70738615D01*
X123420521Y-70734713D01*
X123577811Y-70713168D01*
X123586421Y-70710000D01*
X164418227Y-70710000D01*
X164439665Y-70717298D01*
G36*
X151117044Y-123311145D02*
X150687632Y-123332638D01*
X150303857Y-123491603D01*
X150234392Y-123733787D01*
X151035000Y-124534395D01*
X151049143Y-124520253D01*
X151228748Y-124699858D01*
X151214605Y-124714000D01*
X151228748Y-124728143D01*
X151049143Y-124907748D01*
X151035000Y-124893605D01*
X151020858Y-124907748D01*
X150841253Y-124728143D01*
X150855395Y-124714000D01*
X150054787Y-123913392D01*
X149812603Y-123982857D01*
X149799128Y-124020627D01*
X149476700Y-123698199D01*
X149476700Y-123101711D01*
X149504019Y-123074392D01*
X149688726Y-123150900D01*
X150100474Y-123150900D01*
X150480880Y-122993331D01*
X150640055Y-122834156D01*
X151117044Y-123311145D01*
X151117044Y-123311145D01*
G37*
X151117044Y-123311145D02*
X150687632Y-123332638D01*
X150303857Y-123491603D01*
X150234392Y-123733787D01*
X151035000Y-124534395D01*
X151049143Y-124520253D01*
X151228748Y-124699858D01*
X151214605Y-124714000D01*
X151228748Y-124728143D01*
X151049143Y-124907748D01*
X151035000Y-124893605D01*
X151020858Y-124907748D01*
X150841253Y-124728143D01*
X150855395Y-124714000D01*
X150054787Y-123913392D01*
X149812603Y-123982857D01*
X149799128Y-124020627D01*
X149476700Y-123698199D01*
X149476700Y-123101711D01*
X149504019Y-123074392D01*
X149688726Y-123150900D01*
X150100474Y-123150900D01*
X150480880Y-122993331D01*
X150640055Y-122834156D01*
X151117044Y-123311145D01*
G36*
X161979375Y-102540625D02*
X162277761Y-102740000D01*
X161979375Y-102939375D01*
X161651161Y-103430582D01*
X161535908Y-104010000D01*
X161651161Y-104589418D01*
X161979375Y-105080625D01*
X162277761Y-105280000D01*
X161979375Y-105479375D01*
X161651161Y-105970582D01*
X161535908Y-106550000D01*
X161651161Y-107129418D01*
X161979375Y-107620625D01*
X162277761Y-107820000D01*
X161979375Y-108019375D01*
X161651161Y-108510582D01*
X161535908Y-109090000D01*
X161651161Y-109669418D01*
X161979375Y-110160625D01*
X162277761Y-110360000D01*
X161979375Y-110559375D01*
X161767526Y-110876429D01*
X161578163Y-110914096D01*
X161578161Y-110914097D01*
X161578162Y-110914097D01*
X161390226Y-111039671D01*
X161390224Y-111039673D01*
X161326771Y-111082071D01*
X161284373Y-111145524D01*
X156550528Y-115879371D01*
X156487072Y-115921771D01*
X156444672Y-115985227D01*
X156444671Y-115985228D01*
X156319097Y-116173163D01*
X156260112Y-116469700D01*
X156275001Y-116544552D01*
X156275000Y-123304560D01*
X156273000Y-123304560D01*
X156025235Y-123353843D01*
X155815191Y-123494191D01*
X155799034Y-123518371D01*
X155312881Y-123317000D01*
X154757119Y-123317000D01*
X154243663Y-123529680D01*
X154035000Y-123738343D01*
X153826337Y-123529680D01*
X153312881Y-123317000D01*
X153272502Y-123317000D01*
X149567228Y-119611726D01*
X153401800Y-119611726D01*
X153401800Y-120023474D01*
X153559369Y-120403880D01*
X153850520Y-120695031D01*
X154230926Y-120852600D01*
X154642674Y-120852600D01*
X155023080Y-120695031D01*
X155314231Y-120403880D01*
X155471800Y-120023474D01*
X155471800Y-119611726D01*
X155328800Y-119266493D01*
X155328800Y-117478611D01*
X155446231Y-117361180D01*
X155603800Y-116980774D01*
X155603800Y-116569026D01*
X155446231Y-116188620D01*
X155155080Y-115897469D01*
X154774674Y-115739900D01*
X154362926Y-115739900D01*
X153982520Y-115897469D01*
X153691369Y-116188620D01*
X153533800Y-116569026D01*
X153533800Y-116980774D01*
X153691369Y-117361180D01*
X153808801Y-117478612D01*
X153808800Y-118981889D01*
X153559369Y-119231320D01*
X153401800Y-119611726D01*
X149567228Y-119611726D01*
X149471100Y-119515599D01*
X149471100Y-119349526D01*
X149313531Y-118969120D01*
X149022380Y-118677969D01*
X148691871Y-118541068D01*
X146624900Y-116474099D01*
X146624900Y-113745411D01*
X146663431Y-113706880D01*
X146821000Y-113326474D01*
X146821000Y-113318201D01*
X147555202Y-112584000D01*
X152474948Y-112584000D01*
X152549800Y-112598889D01*
X152624652Y-112584000D01*
X155285289Y-112584000D01*
X155402720Y-112701431D01*
X155783126Y-112859000D01*
X156194874Y-112859000D01*
X156575280Y-112701431D01*
X156866431Y-112410280D01*
X157024000Y-112029874D01*
X157024000Y-111618126D01*
X156866431Y-111237720D01*
X156575280Y-110946569D01*
X156194874Y-110789000D01*
X155783126Y-110789000D01*
X155402720Y-110946569D01*
X155285289Y-111064000D01*
X153309800Y-111064000D01*
X153309800Y-107144746D01*
X153324688Y-107069899D01*
X153309800Y-106995052D01*
X153309800Y-106995048D01*
X153265704Y-106773363D01*
X153097729Y-106521971D01*
X153034273Y-106479571D01*
X151553700Y-104998999D01*
X151553700Y-104832926D01*
X151396131Y-104452520D01*
X151104980Y-104161369D01*
X150724574Y-104003800D01*
X150312826Y-104003800D01*
X149932420Y-104161369D01*
X149641269Y-104452520D01*
X149483700Y-104832926D01*
X149483700Y-105244674D01*
X149641269Y-105625080D01*
X149932420Y-105916231D01*
X150312826Y-106073800D01*
X150478899Y-106073800D01*
X151789800Y-107384702D01*
X151789801Y-109686400D01*
X151587126Y-109686400D01*
X151206720Y-109843969D01*
X151089289Y-109961400D01*
X148471102Y-109961400D01*
X144467156Y-105957455D01*
X144593731Y-105830880D01*
X144751300Y-105450474D01*
X144751300Y-105284401D01*
X147805702Y-102230000D01*
X161771822Y-102230000D01*
X161979375Y-102540625D01*
X161979375Y-102540625D01*
G37*
X161979375Y-102540625D02*
X162277761Y-102740000D01*
X161979375Y-102939375D01*
X161651161Y-103430582D01*
X161535908Y-104010000D01*
X161651161Y-104589418D01*
X161979375Y-105080625D01*
X162277761Y-105280000D01*
X161979375Y-105479375D01*
X161651161Y-105970582D01*
X161535908Y-106550000D01*
X161651161Y-107129418D01*
X161979375Y-107620625D01*
X162277761Y-107820000D01*
X161979375Y-108019375D01*
X161651161Y-108510582D01*
X161535908Y-109090000D01*
X161651161Y-109669418D01*
X161979375Y-110160625D01*
X162277761Y-110360000D01*
X161979375Y-110559375D01*
X161767526Y-110876429D01*
X161578163Y-110914096D01*
X161578161Y-110914097D01*
X161578162Y-110914097D01*
X161390226Y-111039671D01*
X161390224Y-111039673D01*
X161326771Y-111082071D01*
X161284373Y-111145524D01*
X156550528Y-115879371D01*
X156487072Y-115921771D01*
X156444672Y-115985227D01*
X156444671Y-115985228D01*
X156319097Y-116173163D01*
X156260112Y-116469700D01*
X156275001Y-116544552D01*
X156275000Y-123304560D01*
X156273000Y-123304560D01*
X156025235Y-123353843D01*
X155815191Y-123494191D01*
X155799034Y-123518371D01*
X155312881Y-123317000D01*
X154757119Y-123317000D01*
X154243663Y-123529680D01*
X154035000Y-123738343D01*
X153826337Y-123529680D01*
X153312881Y-123317000D01*
X153272502Y-123317000D01*
X149567228Y-119611726D01*
X153401800Y-119611726D01*
X153401800Y-120023474D01*
X153559369Y-120403880D01*
X153850520Y-120695031D01*
X154230926Y-120852600D01*
X154642674Y-120852600D01*
X155023080Y-120695031D01*
X155314231Y-120403880D01*
X155471800Y-120023474D01*
X155471800Y-119611726D01*
X155328800Y-119266493D01*
X155328800Y-117478611D01*
X155446231Y-117361180D01*
X155603800Y-116980774D01*
X155603800Y-116569026D01*
X155446231Y-116188620D01*
X155155080Y-115897469D01*
X154774674Y-115739900D01*
X154362926Y-115739900D01*
X153982520Y-115897469D01*
X153691369Y-116188620D01*
X153533800Y-116569026D01*
X153533800Y-116980774D01*
X153691369Y-117361180D01*
X153808801Y-117478612D01*
X153808800Y-118981889D01*
X153559369Y-119231320D01*
X153401800Y-119611726D01*
X149567228Y-119611726D01*
X149471100Y-119515599D01*
X149471100Y-119349526D01*
X149313531Y-118969120D01*
X149022380Y-118677969D01*
X148691871Y-118541068D01*
X146624900Y-116474099D01*
X146624900Y-113745411D01*
X146663431Y-113706880D01*
X146821000Y-113326474D01*
X146821000Y-113318201D01*
X147555202Y-112584000D01*
X152474948Y-112584000D01*
X152549800Y-112598889D01*
X152624652Y-112584000D01*
X155285289Y-112584000D01*
X155402720Y-112701431D01*
X155783126Y-112859000D01*
X156194874Y-112859000D01*
X156575280Y-112701431D01*
X156866431Y-112410280D01*
X157024000Y-112029874D01*
X157024000Y-111618126D01*
X156866431Y-111237720D01*
X156575280Y-110946569D01*
X156194874Y-110789000D01*
X155783126Y-110789000D01*
X155402720Y-110946569D01*
X155285289Y-111064000D01*
X153309800Y-111064000D01*
X153309800Y-107144746D01*
X153324688Y-107069899D01*
X153309800Y-106995052D01*
X153309800Y-106995048D01*
X153265704Y-106773363D01*
X153097729Y-106521971D01*
X153034273Y-106479571D01*
X151553700Y-104998999D01*
X151553700Y-104832926D01*
X151396131Y-104452520D01*
X151104980Y-104161369D01*
X150724574Y-104003800D01*
X150312826Y-104003800D01*
X149932420Y-104161369D01*
X149641269Y-104452520D01*
X149483700Y-104832926D01*
X149483700Y-105244674D01*
X149641269Y-105625080D01*
X149932420Y-105916231D01*
X150312826Y-106073800D01*
X150478899Y-106073800D01*
X151789800Y-107384702D01*
X151789801Y-109686400D01*
X151587126Y-109686400D01*
X151206720Y-109843969D01*
X151089289Y-109961400D01*
X148471102Y-109961400D01*
X144467156Y-105957455D01*
X144593731Y-105830880D01*
X144751300Y-105450474D01*
X144751300Y-105284401D01*
X147805702Y-102230000D01*
X161771822Y-102230000D01*
X161979375Y-102540625D01*
G36*
X140645098Y-110290700D02*
X130940802Y-110290700D01*
X126715631Y-106065530D01*
X126673229Y-106002071D01*
X126421837Y-105834096D01*
X126232474Y-105796429D01*
X126020625Y-105479375D01*
X125722239Y-105280000D01*
X126020625Y-105080625D01*
X126228178Y-104770000D01*
X135124399Y-104770000D01*
X140645098Y-110290700D01*
X140645098Y-110290700D01*
G37*
X140645098Y-110290700D02*
X130940802Y-110290700D01*
X126715631Y-106065530D01*
X126673229Y-106002071D01*
X126421837Y-105834096D01*
X126232474Y-105796429D01*
X126020625Y-105479375D01*
X125722239Y-105280000D01*
X126020625Y-105080625D01*
X126228178Y-104770000D01*
X135124399Y-104770000D01*
X140645098Y-110290700D01*
G04 #@! TD*
M02*
