G04 #@! TF.GenerationSoftware,KiCad,Pcbnew,5.0.2-bee76a0~70~ubuntu18.04.1*
G04 #@! TF.CreationDate,2019-02-14T01:12:15+09:00*
G04 #@! TF.ProjectId,LeonardoBB,4c656f6e-6172-4646-9f42-422e6b696361,rev?*
G04 #@! TF.SameCoordinates,Original*
G04 #@! TF.FileFunction,Legend,Top*
G04 #@! TF.FilePolarity,Positive*
%FSLAX46Y46*%
G04 Gerber Fmt 4.6, Leading zero omitted, Abs format (unit mm)*
G04 Created by KiCad (PCBNEW 5.0.2-bee76a0~70~ubuntu18.04.1) date 2019年02月14日 01時12分15秒*
%MOMM*%
%LPD*%
G01*
G04 APERTURE LIST*
%ADD10C,0.250000*%
%ADD11C,0.300000*%
%ADD12C,0.120000*%
%ADD13C,0.150000*%
G04 APERTURE END LIST*
D10*
X128271976Y-100655380D02*
X128271976Y-99655380D01*
X128700547Y-100655380D02*
X128700547Y-100131571D01*
X128652928Y-100036333D01*
X128557690Y-99988714D01*
X128414833Y-99988714D01*
X128319595Y-100036333D01*
X128271976Y-100083952D01*
X129033880Y-99988714D02*
X129414833Y-99988714D01*
X129176738Y-99655380D02*
X129176738Y-100512523D01*
X129224357Y-100607761D01*
X129319595Y-100655380D01*
X129414833Y-100655380D01*
X129605309Y-99988714D02*
X129986261Y-99988714D01*
X129748166Y-99655380D02*
X129748166Y-100512523D01*
X129795785Y-100607761D01*
X129891023Y-100655380D01*
X129986261Y-100655380D01*
X130319595Y-99988714D02*
X130319595Y-100988714D01*
X130319595Y-100036333D02*
X130414833Y-99988714D01*
X130605309Y-99988714D01*
X130700547Y-100036333D01*
X130748166Y-100083952D01*
X130795785Y-100179190D01*
X130795785Y-100464904D01*
X130748166Y-100560142D01*
X130700547Y-100607761D01*
X130605309Y-100655380D01*
X130414833Y-100655380D01*
X130319595Y-100607761D01*
X131176738Y-100607761D02*
X131271976Y-100655380D01*
X131462452Y-100655380D01*
X131557690Y-100607761D01*
X131605309Y-100512523D01*
X131605309Y-100464904D01*
X131557690Y-100369666D01*
X131462452Y-100322047D01*
X131319595Y-100322047D01*
X131224357Y-100274428D01*
X131176738Y-100179190D01*
X131176738Y-100131571D01*
X131224357Y-100036333D01*
X131319595Y-99988714D01*
X131462452Y-99988714D01*
X131557690Y-100036333D01*
X132033880Y-100560142D02*
X132081500Y-100607761D01*
X132033880Y-100655380D01*
X131986261Y-100607761D01*
X132033880Y-100560142D01*
X132033880Y-100655380D01*
X132033880Y-100036333D02*
X132081500Y-100083952D01*
X132033880Y-100131571D01*
X131986261Y-100083952D01*
X132033880Y-100036333D01*
X132033880Y-100131571D01*
X133224357Y-99607761D02*
X132367214Y-100893476D01*
X134271976Y-99607761D02*
X133414833Y-100893476D01*
X135033880Y-99988714D02*
X135033880Y-100798238D01*
X134986261Y-100893476D01*
X134938642Y-100941095D01*
X134843404Y-100988714D01*
X134700547Y-100988714D01*
X134605309Y-100941095D01*
X135033880Y-100607761D02*
X134938642Y-100655380D01*
X134748166Y-100655380D01*
X134652928Y-100607761D01*
X134605309Y-100560142D01*
X134557690Y-100464904D01*
X134557690Y-100179190D01*
X134605309Y-100083952D01*
X134652928Y-100036333D01*
X134748166Y-99988714D01*
X134938642Y-99988714D01*
X135033880Y-100036333D01*
X135510071Y-100655380D02*
X135510071Y-99988714D01*
X135510071Y-99655380D02*
X135462452Y-99703000D01*
X135510071Y-99750619D01*
X135557690Y-99703000D01*
X135510071Y-99655380D01*
X135510071Y-99750619D01*
X135843404Y-99988714D02*
X136224357Y-99988714D01*
X135986261Y-99655380D02*
X135986261Y-100512523D01*
X136033880Y-100607761D01*
X136129119Y-100655380D01*
X136224357Y-100655380D01*
X136557690Y-100655380D02*
X136557690Y-99655380D01*
X136986261Y-100655380D02*
X136986261Y-100131571D01*
X136938642Y-100036333D01*
X136843404Y-99988714D01*
X136700547Y-99988714D01*
X136605309Y-100036333D01*
X136557690Y-100083952D01*
X137891023Y-99988714D02*
X137891023Y-100655380D01*
X137462452Y-99988714D02*
X137462452Y-100512523D01*
X137510071Y-100607761D01*
X137605309Y-100655380D01*
X137748166Y-100655380D01*
X137843404Y-100607761D01*
X137891023Y-100560142D01*
X138367214Y-100655380D02*
X138367214Y-99655380D01*
X138367214Y-100036333D02*
X138462452Y-99988714D01*
X138652928Y-99988714D01*
X138748166Y-100036333D01*
X138795785Y-100083952D01*
X138843404Y-100179190D01*
X138843404Y-100464904D01*
X138795785Y-100560142D01*
X138748166Y-100607761D01*
X138652928Y-100655380D01*
X138462452Y-100655380D01*
X138367214Y-100607761D01*
X139271976Y-100560142D02*
X139319595Y-100607761D01*
X139271976Y-100655380D01*
X139224357Y-100607761D01*
X139271976Y-100560142D01*
X139271976Y-100655380D01*
X140176738Y-100607761D02*
X140081500Y-100655380D01*
X139891023Y-100655380D01*
X139795785Y-100607761D01*
X139748166Y-100560142D01*
X139700547Y-100464904D01*
X139700547Y-100179190D01*
X139748166Y-100083952D01*
X139795785Y-100036333D01*
X139891023Y-99988714D01*
X140081500Y-99988714D01*
X140176738Y-100036333D01*
X140748166Y-100655380D02*
X140652928Y-100607761D01*
X140605309Y-100560142D01*
X140557690Y-100464904D01*
X140557690Y-100179190D01*
X140605309Y-100083952D01*
X140652928Y-100036333D01*
X140748166Y-99988714D01*
X140891023Y-99988714D01*
X140986261Y-100036333D01*
X141033880Y-100083952D01*
X141081500Y-100179190D01*
X141081500Y-100464904D01*
X141033880Y-100560142D01*
X140986261Y-100607761D01*
X140891023Y-100655380D01*
X140748166Y-100655380D01*
X141510071Y-100655380D02*
X141510071Y-99988714D01*
X141510071Y-100083952D02*
X141557690Y-100036333D01*
X141652928Y-99988714D01*
X141795785Y-99988714D01*
X141891023Y-100036333D01*
X141938642Y-100131571D01*
X141938642Y-100655380D01*
X141938642Y-100131571D02*
X141986261Y-100036333D01*
X142081500Y-99988714D01*
X142224357Y-99988714D01*
X142319595Y-100036333D01*
X142367214Y-100131571D01*
X142367214Y-100655380D01*
X143557690Y-99607761D02*
X142700547Y-100893476D01*
X144319595Y-100655380D02*
X144319595Y-100131571D01*
X144271976Y-100036333D01*
X144176738Y-99988714D01*
X143986261Y-99988714D01*
X143891023Y-100036333D01*
X144319595Y-100607761D02*
X144224357Y-100655380D01*
X143986261Y-100655380D01*
X143891023Y-100607761D01*
X143843404Y-100512523D01*
X143843404Y-100417285D01*
X143891023Y-100322047D01*
X143986261Y-100274428D01*
X144224357Y-100274428D01*
X144319595Y-100226809D01*
X144748166Y-100607761D02*
X144843404Y-100655380D01*
X145033880Y-100655380D01*
X145129119Y-100607761D01*
X145176738Y-100512523D01*
X145176738Y-100464904D01*
X145129119Y-100369666D01*
X145033880Y-100322047D01*
X144891023Y-100322047D01*
X144795785Y-100274428D01*
X144748166Y-100179190D01*
X144748166Y-100131571D01*
X144795785Y-100036333D01*
X144891023Y-99988714D01*
X145033880Y-99988714D01*
X145129119Y-100036333D01*
X146033880Y-99988714D02*
X146033880Y-100655380D01*
X145605309Y-99988714D02*
X145605309Y-100512523D01*
X145652928Y-100607761D01*
X145748166Y-100655380D01*
X145891023Y-100655380D01*
X145986261Y-100607761D01*
X146033880Y-100560142D01*
X146510071Y-100655380D02*
X146510071Y-99655380D01*
X146605309Y-100274428D02*
X146891023Y-100655380D01*
X146891023Y-99988714D02*
X146510071Y-100369666D01*
X147319595Y-100655380D02*
X147319595Y-99988714D01*
X147319595Y-99655380D02*
X147271976Y-99703000D01*
X147319595Y-99750619D01*
X147367214Y-99703000D01*
X147319595Y-99655380D01*
X147319595Y-99750619D01*
X148224357Y-100655380D02*
X148224357Y-100131571D01*
X148176738Y-100036333D01*
X148081500Y-99988714D01*
X147891023Y-99988714D01*
X147795785Y-100036333D01*
X148224357Y-100607761D02*
X148129119Y-100655380D01*
X147891023Y-100655380D01*
X147795785Y-100607761D01*
X147748166Y-100512523D01*
X147748166Y-100417285D01*
X147795785Y-100322047D01*
X147891023Y-100274428D01*
X148129119Y-100274428D01*
X148224357Y-100226809D01*
X149129119Y-100655380D02*
X149129119Y-100131571D01*
X149081500Y-100036333D01*
X148986261Y-99988714D01*
X148795785Y-99988714D01*
X148700547Y-100036333D01*
X149129119Y-100607761D02*
X149033880Y-100655380D01*
X148795785Y-100655380D01*
X148700547Y-100607761D01*
X148652928Y-100512523D01*
X148652928Y-100417285D01*
X148700547Y-100322047D01*
X148795785Y-100274428D01*
X149033880Y-100274428D01*
X149129119Y-100226809D01*
X150033880Y-100655380D02*
X150033880Y-100131571D01*
X149986261Y-100036333D01*
X149891023Y-99988714D01*
X149700547Y-99988714D01*
X149605309Y-100036333D01*
X150033880Y-100607761D02*
X149938642Y-100655380D01*
X149700547Y-100655380D01*
X149605309Y-100607761D01*
X149557690Y-100512523D01*
X149557690Y-100417285D01*
X149605309Y-100322047D01*
X149700547Y-100274428D01*
X149938642Y-100274428D01*
X150033880Y-100226809D01*
X151224357Y-99607761D02*
X150367214Y-100893476D01*
X152033880Y-100655380D02*
X151557690Y-100655380D01*
X151557690Y-99655380D01*
X152748166Y-100607761D02*
X152652928Y-100655380D01*
X152462452Y-100655380D01*
X152367214Y-100607761D01*
X152319595Y-100512523D01*
X152319595Y-100131571D01*
X152367214Y-100036333D01*
X152462452Y-99988714D01*
X152652928Y-99988714D01*
X152748166Y-100036333D01*
X152795785Y-100131571D01*
X152795785Y-100226809D01*
X152319595Y-100322047D01*
X153367214Y-100655380D02*
X153271976Y-100607761D01*
X153224357Y-100560142D01*
X153176738Y-100464904D01*
X153176738Y-100179190D01*
X153224357Y-100083952D01*
X153271976Y-100036333D01*
X153367214Y-99988714D01*
X153510071Y-99988714D01*
X153605309Y-100036333D01*
X153652928Y-100083952D01*
X153700547Y-100179190D01*
X153700547Y-100464904D01*
X153652928Y-100560142D01*
X153605309Y-100607761D01*
X153510071Y-100655380D01*
X153367214Y-100655380D01*
X154129119Y-99988714D02*
X154129119Y-100655380D01*
X154129119Y-100083952D02*
X154176738Y-100036333D01*
X154271976Y-99988714D01*
X154414833Y-99988714D01*
X154510071Y-100036333D01*
X154557690Y-100131571D01*
X154557690Y-100655380D01*
X155462452Y-100655380D02*
X155462452Y-100131571D01*
X155414833Y-100036333D01*
X155319595Y-99988714D01*
X155129119Y-99988714D01*
X155033880Y-100036333D01*
X155462452Y-100607761D02*
X155367214Y-100655380D01*
X155129119Y-100655380D01*
X155033880Y-100607761D01*
X154986261Y-100512523D01*
X154986261Y-100417285D01*
X155033880Y-100322047D01*
X155129119Y-100274428D01*
X155367214Y-100274428D01*
X155462452Y-100226809D01*
X155938642Y-100655380D02*
X155938642Y-99988714D01*
X155938642Y-100179190D02*
X155986261Y-100083952D01*
X156033880Y-100036333D01*
X156129119Y-99988714D01*
X156224357Y-99988714D01*
X156986261Y-100655380D02*
X156986261Y-99655380D01*
X156986261Y-100607761D02*
X156891023Y-100655380D01*
X156700547Y-100655380D01*
X156605309Y-100607761D01*
X156557690Y-100560142D01*
X156510071Y-100464904D01*
X156510071Y-100179190D01*
X156557690Y-100083952D01*
X156605309Y-100036333D01*
X156700547Y-99988714D01*
X156891023Y-99988714D01*
X156986261Y-100036333D01*
X157605309Y-100655380D02*
X157510071Y-100607761D01*
X157462452Y-100560142D01*
X157414833Y-100464904D01*
X157414833Y-100179190D01*
X157462452Y-100083952D01*
X157510071Y-100036333D01*
X157605309Y-99988714D01*
X157748166Y-99988714D01*
X157843404Y-100036333D01*
X157891023Y-100083952D01*
X157938642Y-100179190D01*
X157938642Y-100464904D01*
X157891023Y-100560142D01*
X157843404Y-100607761D01*
X157748166Y-100655380D01*
X157605309Y-100655380D01*
X158700547Y-100131571D02*
X158843404Y-100179190D01*
X158891023Y-100226809D01*
X158938642Y-100322047D01*
X158938642Y-100464904D01*
X158891023Y-100560142D01*
X158843404Y-100607761D01*
X158748166Y-100655380D01*
X158367214Y-100655380D01*
X158367214Y-99655380D01*
X158700547Y-99655380D01*
X158795785Y-99703000D01*
X158843404Y-99750619D01*
X158891023Y-99845857D01*
X158891023Y-99941095D01*
X158843404Y-100036333D01*
X158795785Y-100083952D01*
X158700547Y-100131571D01*
X158367214Y-100131571D01*
X159700547Y-100131571D02*
X159843404Y-100179190D01*
X159891023Y-100226809D01*
X159938642Y-100322047D01*
X159938642Y-100464904D01*
X159891023Y-100560142D01*
X159843404Y-100607761D01*
X159748166Y-100655380D01*
X159367214Y-100655380D01*
X159367214Y-99655380D01*
X159700547Y-99655380D01*
X159795785Y-99703000D01*
X159843404Y-99750619D01*
X159891023Y-99845857D01*
X159891023Y-99941095D01*
X159843404Y-100036333D01*
X159795785Y-100083952D01*
X159700547Y-100131571D01*
X159367214Y-100131571D01*
X142962571Y-98305880D02*
X142629238Y-97829690D01*
X142391142Y-98305880D02*
X142391142Y-97305880D01*
X142772095Y-97305880D01*
X142867333Y-97353500D01*
X142914952Y-97401119D01*
X142962571Y-97496357D01*
X142962571Y-97639214D01*
X142914952Y-97734452D01*
X142867333Y-97782071D01*
X142772095Y-97829690D01*
X142391142Y-97829690D01*
X143772095Y-98258261D02*
X143676857Y-98305880D01*
X143486380Y-98305880D01*
X143391142Y-98258261D01*
X143343523Y-98163023D01*
X143343523Y-97782071D01*
X143391142Y-97686833D01*
X143486380Y-97639214D01*
X143676857Y-97639214D01*
X143772095Y-97686833D01*
X143819714Y-97782071D01*
X143819714Y-97877309D01*
X143343523Y-97972547D01*
X144153047Y-97639214D02*
X144391142Y-98305880D01*
X144629238Y-97639214D01*
X145962571Y-97305880D02*
X146057809Y-97305880D01*
X146153047Y-97353500D01*
X146200666Y-97401119D01*
X146248285Y-97496357D01*
X146295904Y-97686833D01*
X146295904Y-97924928D01*
X146248285Y-98115404D01*
X146200666Y-98210642D01*
X146153047Y-98258261D01*
X146057809Y-98305880D01*
X145962571Y-98305880D01*
X145867333Y-98258261D01*
X145819714Y-98210642D01*
X145772095Y-98115404D01*
X145724476Y-97924928D01*
X145724476Y-97686833D01*
X145772095Y-97496357D01*
X145819714Y-97401119D01*
X145867333Y-97353500D01*
X145962571Y-97305880D01*
X146724476Y-98210642D02*
X146772095Y-98258261D01*
X146724476Y-98305880D01*
X146676857Y-98258261D01*
X146724476Y-98210642D01*
X146724476Y-98305880D01*
X147391142Y-97305880D02*
X147486380Y-97305880D01*
X147581619Y-97353500D01*
X147629238Y-97401119D01*
X147676857Y-97496357D01*
X147724476Y-97686833D01*
X147724476Y-97924928D01*
X147676857Y-98115404D01*
X147629238Y-98210642D01*
X147581619Y-98258261D01*
X147486380Y-98305880D01*
X147391142Y-98305880D01*
X147295904Y-98258261D01*
X147248285Y-98210642D01*
X147200666Y-98115404D01*
X147153047Y-97924928D01*
X147153047Y-97686833D01*
X147200666Y-97496357D01*
X147248285Y-97401119D01*
X147295904Y-97353500D01*
X147391142Y-97305880D01*
D11*
X129147785Y-98341571D02*
X128433500Y-98341571D01*
X128433500Y-96841571D01*
X130219214Y-98270142D02*
X130076357Y-98341571D01*
X129790642Y-98341571D01*
X129647785Y-98270142D01*
X129576357Y-98127285D01*
X129576357Y-97555857D01*
X129647785Y-97413000D01*
X129790642Y-97341571D01*
X130076357Y-97341571D01*
X130219214Y-97413000D01*
X130290642Y-97555857D01*
X130290642Y-97698714D01*
X129576357Y-97841571D01*
X131147785Y-98341571D02*
X131004928Y-98270142D01*
X130933500Y-98198714D01*
X130862071Y-98055857D01*
X130862071Y-97627285D01*
X130933500Y-97484428D01*
X131004928Y-97413000D01*
X131147785Y-97341571D01*
X131362071Y-97341571D01*
X131504928Y-97413000D01*
X131576357Y-97484428D01*
X131647785Y-97627285D01*
X131647785Y-98055857D01*
X131576357Y-98198714D01*
X131504928Y-98270142D01*
X131362071Y-98341571D01*
X131147785Y-98341571D01*
X132290642Y-97341571D02*
X132290642Y-98341571D01*
X132290642Y-97484428D02*
X132362071Y-97413000D01*
X132504928Y-97341571D01*
X132719214Y-97341571D01*
X132862071Y-97413000D01*
X132933500Y-97555857D01*
X132933500Y-98341571D01*
X134290642Y-98341571D02*
X134290642Y-97555857D01*
X134219214Y-97413000D01*
X134076357Y-97341571D01*
X133790642Y-97341571D01*
X133647785Y-97413000D01*
X134290642Y-98270142D02*
X134147785Y-98341571D01*
X133790642Y-98341571D01*
X133647785Y-98270142D01*
X133576357Y-98127285D01*
X133576357Y-97984428D01*
X133647785Y-97841571D01*
X133790642Y-97770142D01*
X134147785Y-97770142D01*
X134290642Y-97698714D01*
X135004928Y-98341571D02*
X135004928Y-97341571D01*
X135004928Y-97627285D02*
X135076357Y-97484428D01*
X135147785Y-97413000D01*
X135290642Y-97341571D01*
X135433500Y-97341571D01*
X136576357Y-98341571D02*
X136576357Y-96841571D01*
X136576357Y-98270142D02*
X136433500Y-98341571D01*
X136147785Y-98341571D01*
X136004928Y-98270142D01*
X135933500Y-98198714D01*
X135862071Y-98055857D01*
X135862071Y-97627285D01*
X135933500Y-97484428D01*
X136004928Y-97413000D01*
X136147785Y-97341571D01*
X136433500Y-97341571D01*
X136576357Y-97413000D01*
X137504928Y-98341571D02*
X137362071Y-98270142D01*
X137290642Y-98198714D01*
X137219214Y-98055857D01*
X137219214Y-97627285D01*
X137290642Y-97484428D01*
X137362071Y-97413000D01*
X137504928Y-97341571D01*
X137719214Y-97341571D01*
X137862071Y-97413000D01*
X137933500Y-97484428D01*
X138004928Y-97627285D01*
X138004928Y-98055857D01*
X137933500Y-98198714D01*
X137862071Y-98270142D01*
X137719214Y-98341571D01*
X137504928Y-98341571D01*
X139147785Y-97555857D02*
X139362071Y-97627285D01*
X139433500Y-97698714D01*
X139504928Y-97841571D01*
X139504928Y-98055857D01*
X139433500Y-98198714D01*
X139362071Y-98270142D01*
X139219214Y-98341571D01*
X138647785Y-98341571D01*
X138647785Y-96841571D01*
X139147785Y-96841571D01*
X139290642Y-96913000D01*
X139362071Y-96984428D01*
X139433500Y-97127285D01*
X139433500Y-97270142D01*
X139362071Y-97413000D01*
X139290642Y-97484428D01*
X139147785Y-97555857D01*
X138647785Y-97555857D01*
X140647785Y-97555857D02*
X140862071Y-97627285D01*
X140933500Y-97698714D01*
X141004928Y-97841571D01*
X141004928Y-98055857D01*
X140933500Y-98198714D01*
X140862071Y-98270142D01*
X140719214Y-98341571D01*
X140147785Y-98341571D01*
X140147785Y-96841571D01*
X140647785Y-96841571D01*
X140790642Y-96913000D01*
X140862071Y-96984428D01*
X140933500Y-97127285D01*
X140933500Y-97270142D01*
X140862071Y-97413000D01*
X140790642Y-97484428D01*
X140647785Y-97555857D01*
X140147785Y-97555857D01*
D12*
G04 #@! TO.C,C9*
X134439422Y-103748000D02*
X134956578Y-103748000D01*
X134439422Y-105168000D02*
X134956578Y-105168000D01*
G04 #@! TO.C,C8*
X130947422Y-117931000D02*
X131464578Y-117931000D01*
X130947422Y-116511000D02*
X131464578Y-116511000D01*
G04 #@! TO.C,D1*
X129632000Y-112777000D02*
X129632000Y-116077000D01*
X129632000Y-116077000D02*
X135032000Y-116077000D01*
X129632000Y-112777000D02*
X135032000Y-112777000D01*
G04 #@! TO.C,DZ1*
X132869000Y-117374000D02*
X132869000Y-119659000D01*
X132869000Y-119659000D02*
X134339000Y-119659000D01*
X134339000Y-119659000D02*
X134339000Y-117374000D01*
G04 #@! TO.C,DZ2*
X138784000Y-119621000D02*
X138784000Y-117336000D01*
X137314000Y-119621000D02*
X138784000Y-119621000D01*
X137314000Y-117336000D02*
X137314000Y-119621000D01*
G04 #@! TO.C,FB1*
X141497578Y-103748000D02*
X140980422Y-103748000D01*
X141497578Y-105168000D02*
X140980422Y-105168000D01*
G04 #@! TO.C,J1*
X130445000Y-123760000D02*
X130445000Y-122210000D01*
X130445000Y-123760000D02*
X130745000Y-123760000D01*
X130745000Y-126560000D02*
X130745000Y-123760000D01*
X138745000Y-123760000D02*
X138745000Y-122210000D01*
X138445000Y-123760000D02*
X138745000Y-123760000D01*
X138445000Y-126560000D02*
X138445000Y-123760000D01*
X133695000Y-120510000D02*
X133295000Y-120960000D01*
X132895000Y-120510000D02*
X133695000Y-120510000D01*
X133295000Y-120960000D02*
X132895000Y-120510000D01*
G04 #@! TO.C,Q1*
X139972000Y-117426000D02*
X139972000Y-116476000D01*
X142572000Y-117426000D02*
X139972000Y-117426000D01*
X139972000Y-115176000D02*
X139972000Y-114376000D01*
G04 #@! TO.C,Q2*
X157161000Y-119588000D02*
X159061000Y-119588000D01*
X158561000Y-117268000D02*
X157161000Y-117268000D01*
G04 #@! TO.C,R1*
X144147000Y-115770779D02*
X144147000Y-115445221D01*
X143127000Y-115770779D02*
X143127000Y-115445221D01*
G04 #@! TO.C,R2*
X136078000Y-117985221D02*
X136078000Y-118310779D01*
X137098000Y-117985221D02*
X137098000Y-118310779D01*
G04 #@! TO.C,R3*
X135574000Y-118336779D02*
X135574000Y-118011221D01*
X134554000Y-118336779D02*
X134554000Y-118011221D01*
G04 #@! TO.C,R4*
X151763000Y-104772779D02*
X151763000Y-104447221D01*
X152783000Y-104772779D02*
X152783000Y-104447221D01*
G04 #@! TO.C,R5*
X130799221Y-118426000D02*
X131124779Y-118426000D01*
X130799221Y-119446000D02*
X131124779Y-119446000D01*
G04 #@! TO.C,R6*
X150493000Y-122176221D02*
X150493000Y-122501779D01*
X151513000Y-122176221D02*
X151513000Y-122501779D01*
G04 #@! TO.C,R7*
X144282779Y-120525000D02*
X143957221Y-120525000D01*
X144282779Y-119505000D02*
X143957221Y-119505000D01*
G04 #@! TO.C,R8*
X154938000Y-118488779D02*
X154938000Y-118163221D01*
X155958000Y-118488779D02*
X155958000Y-118163221D01*
G04 #@! TO.C,R9*
X156335000Y-121510779D02*
X156335000Y-121185221D01*
X157355000Y-121510779D02*
X157355000Y-121185221D01*
G04 #@! TO.C,R10*
X155831000Y-121536779D02*
X155831000Y-121211221D01*
X154811000Y-121536779D02*
X154811000Y-121211221D01*
G04 #@! TO.C,SW1*
X144592000Y-123404000D02*
X144792000Y-123404000D01*
X141792000Y-127544000D02*
X141992000Y-127754000D01*
X143092000Y-127544000D02*
X142892000Y-127754000D01*
X141792000Y-126254000D02*
X141792000Y-127544000D01*
X141992000Y-127754000D02*
X142892000Y-127754000D01*
X143092000Y-127544000D02*
X143092000Y-126254000D01*
X140342000Y-126254000D02*
X146042000Y-126254000D01*
X141592000Y-123404000D02*
X143292000Y-123404000D01*
X139742000Y-124454000D02*
X139742000Y-125244000D01*
X146642000Y-125244000D02*
X146642000Y-124454000D01*
G04 #@! TO.C,U1*
X150171000Y-104876000D02*
X150896000Y-104876000D01*
X150896000Y-104876000D02*
X150896000Y-105601000D01*
X144401000Y-112096000D02*
X143676000Y-112096000D01*
X143676000Y-112096000D02*
X143676000Y-111371000D01*
X150171000Y-112096000D02*
X150896000Y-112096000D01*
X150896000Y-112096000D02*
X150896000Y-111371000D01*
X144401000Y-104876000D02*
X143676000Y-104876000D01*
G04 #@! TO.C,U2*
X148992000Y-121686000D02*
X146792000Y-121686000D01*
X148992000Y-119486000D02*
X145992000Y-119486000D01*
G04 #@! TO.C,U3*
X135832000Y-112440000D02*
X135832000Y-111180000D01*
X135832000Y-105620000D02*
X135832000Y-106880000D01*
X132072000Y-112440000D02*
X135832000Y-112440000D01*
X129822000Y-105620000D02*
X135832000Y-105620000D01*
G04 #@! TO.C,U4*
X155056000Y-113434000D02*
X156856000Y-113434000D01*
X156856000Y-110214000D02*
X154406000Y-110214000D01*
G04 #@! TO.C,Y1*
X148896000Y-118377000D02*
X148896000Y-115227000D01*
X148896000Y-115227000D02*
X144896000Y-115227000D01*
G04 #@! TO.C,C9*
D13*
X134531333Y-103165142D02*
X134483714Y-103212761D01*
X134340857Y-103260380D01*
X134245619Y-103260380D01*
X134102761Y-103212761D01*
X134007523Y-103117523D01*
X133959904Y-103022285D01*
X133912285Y-102831809D01*
X133912285Y-102688952D01*
X133959904Y-102498476D01*
X134007523Y-102403238D01*
X134102761Y-102308000D01*
X134245619Y-102260380D01*
X134340857Y-102260380D01*
X134483714Y-102308000D01*
X134531333Y-102355619D01*
X135007523Y-103260380D02*
X135198000Y-103260380D01*
X135293238Y-103212761D01*
X135340857Y-103165142D01*
X135436095Y-103022285D01*
X135483714Y-102831809D01*
X135483714Y-102450857D01*
X135436095Y-102355619D01*
X135388476Y-102308000D01*
X135293238Y-102260380D01*
X135102761Y-102260380D01*
X135007523Y-102308000D01*
X134959904Y-102355619D01*
X134912285Y-102450857D01*
X134912285Y-102688952D01*
X134959904Y-102784190D01*
X135007523Y-102831809D01*
X135102761Y-102879428D01*
X135293238Y-102879428D01*
X135388476Y-102831809D01*
X135436095Y-102784190D01*
X135483714Y-102688952D01*
G04 #@! TO.C,C1*
X147557333Y-113805142D02*
X147509714Y-113852761D01*
X147366857Y-113900380D01*
X147271619Y-113900380D01*
X147128761Y-113852761D01*
X147033523Y-113757523D01*
X146985904Y-113662285D01*
X146938285Y-113471809D01*
X146938285Y-113328952D01*
X146985904Y-113138476D01*
X147033523Y-113043238D01*
X147128761Y-112948000D01*
X147271619Y-112900380D01*
X147366857Y-112900380D01*
X147509714Y-112948000D01*
X147557333Y-112995619D01*
X148509714Y-113900380D02*
X147938285Y-113900380D01*
X148224000Y-113900380D02*
X148224000Y-112900380D01*
X148128761Y-113043238D01*
X148033523Y-113138476D01*
X147938285Y-113186095D01*
G04 #@! TO.C,C2*
X145589333Y-116145142D02*
X145541714Y-116192761D01*
X145398857Y-116240380D01*
X145303619Y-116240380D01*
X145160761Y-116192761D01*
X145065523Y-116097523D01*
X145017904Y-116002285D01*
X144970285Y-115811809D01*
X144970285Y-115668952D01*
X145017904Y-115478476D01*
X145065523Y-115383238D01*
X145160761Y-115288000D01*
X145303619Y-115240380D01*
X145398857Y-115240380D01*
X145541714Y-115288000D01*
X145589333Y-115335619D01*
X145970285Y-115335619D02*
X146017904Y-115288000D01*
X146113142Y-115240380D01*
X146351238Y-115240380D01*
X146446476Y-115288000D01*
X146494095Y-115335619D01*
X146541714Y-115430857D01*
X146541714Y-115526095D01*
X146494095Y-115668952D01*
X145922666Y-116240380D01*
X146541714Y-116240380D01*
G04 #@! TO.C,C3*
X144890333Y-105223142D02*
X144842714Y-105270761D01*
X144699857Y-105318380D01*
X144604619Y-105318380D01*
X144461761Y-105270761D01*
X144366523Y-105175523D01*
X144318904Y-105080285D01*
X144271285Y-104889809D01*
X144271285Y-104746952D01*
X144318904Y-104556476D01*
X144366523Y-104461238D01*
X144461761Y-104366000D01*
X144604619Y-104318380D01*
X144699857Y-104318380D01*
X144842714Y-104366000D01*
X144890333Y-104413619D01*
X145223666Y-104318380D02*
X145842714Y-104318380D01*
X145509380Y-104699333D01*
X145652238Y-104699333D01*
X145747476Y-104746952D01*
X145795095Y-104794571D01*
X145842714Y-104889809D01*
X145842714Y-105127904D01*
X145795095Y-105223142D01*
X145747476Y-105270761D01*
X145652238Y-105318380D01*
X145366523Y-105318380D01*
X145271285Y-105270761D01*
X145223666Y-105223142D01*
G04 #@! TO.C,C4*
X141796333Y-109985142D02*
X141748714Y-110032761D01*
X141605857Y-110080380D01*
X141510619Y-110080380D01*
X141367761Y-110032761D01*
X141272523Y-109937523D01*
X141224904Y-109842285D01*
X141177285Y-109651809D01*
X141177285Y-109508952D01*
X141224904Y-109318476D01*
X141272523Y-109223238D01*
X141367761Y-109128000D01*
X141510619Y-109080380D01*
X141605857Y-109080380D01*
X141748714Y-109128000D01*
X141796333Y-109175619D01*
X142653476Y-109413714D02*
X142653476Y-110080380D01*
X142415380Y-109032761D02*
X142177285Y-109747047D01*
X142796333Y-109747047D01*
G04 #@! TO.C,C5*
X131763333Y-121669142D02*
X131715714Y-121716761D01*
X131572857Y-121764380D01*
X131477619Y-121764380D01*
X131334761Y-121716761D01*
X131239523Y-121621523D01*
X131191904Y-121526285D01*
X131144285Y-121335809D01*
X131144285Y-121192952D01*
X131191904Y-121002476D01*
X131239523Y-120907238D01*
X131334761Y-120812000D01*
X131477619Y-120764380D01*
X131572857Y-120764380D01*
X131715714Y-120812000D01*
X131763333Y-120859619D01*
X132668095Y-120764380D02*
X132191904Y-120764380D01*
X132144285Y-121240571D01*
X132191904Y-121192952D01*
X132287142Y-121145333D01*
X132525238Y-121145333D01*
X132620476Y-121192952D01*
X132668095Y-121240571D01*
X132715714Y-121335809D01*
X132715714Y-121573904D01*
X132668095Y-121669142D01*
X132620476Y-121716761D01*
X132525238Y-121764380D01*
X132287142Y-121764380D01*
X132191904Y-121716761D01*
X132144285Y-121669142D01*
G04 #@! TO.C,C6*
X140335333Y-107445142D02*
X140287714Y-107492761D01*
X140144857Y-107540380D01*
X140049619Y-107540380D01*
X139906761Y-107492761D01*
X139811523Y-107397523D01*
X139763904Y-107302285D01*
X139716285Y-107111809D01*
X139716285Y-106968952D01*
X139763904Y-106778476D01*
X139811523Y-106683238D01*
X139906761Y-106588000D01*
X140049619Y-106540380D01*
X140144857Y-106540380D01*
X140287714Y-106588000D01*
X140335333Y-106635619D01*
X141192476Y-106540380D02*
X141002000Y-106540380D01*
X140906761Y-106588000D01*
X140859142Y-106635619D01*
X140763904Y-106778476D01*
X140716285Y-106968952D01*
X140716285Y-107349904D01*
X140763904Y-107445142D01*
X140811523Y-107492761D01*
X140906761Y-107540380D01*
X141097238Y-107540380D01*
X141192476Y-107492761D01*
X141240095Y-107445142D01*
X141287714Y-107349904D01*
X141287714Y-107111809D01*
X141240095Y-107016571D01*
X141192476Y-106968952D01*
X141097238Y-106921333D01*
X140906761Y-106921333D01*
X140811523Y-106968952D01*
X140763904Y-107016571D01*
X140716285Y-107111809D01*
G04 #@! TO.C,C7*
X149936142Y-119460666D02*
X149983761Y-119508285D01*
X150031380Y-119651142D01*
X150031380Y-119746380D01*
X149983761Y-119889238D01*
X149888523Y-119984476D01*
X149793285Y-120032095D01*
X149602809Y-120079714D01*
X149459952Y-120079714D01*
X149269476Y-120032095D01*
X149174238Y-119984476D01*
X149079000Y-119889238D01*
X149031380Y-119746380D01*
X149031380Y-119651142D01*
X149079000Y-119508285D01*
X149126619Y-119460666D01*
X149031380Y-119127333D02*
X149031380Y-118460666D01*
X150031380Y-118889238D01*
G04 #@! TO.C,C8*
X131039333Y-115928142D02*
X130991714Y-115975761D01*
X130848857Y-116023380D01*
X130753619Y-116023380D01*
X130610761Y-115975761D01*
X130515523Y-115880523D01*
X130467904Y-115785285D01*
X130420285Y-115594809D01*
X130420285Y-115451952D01*
X130467904Y-115261476D01*
X130515523Y-115166238D01*
X130610761Y-115071000D01*
X130753619Y-115023380D01*
X130848857Y-115023380D01*
X130991714Y-115071000D01*
X131039333Y-115118619D01*
X131610761Y-115451952D02*
X131515523Y-115404333D01*
X131467904Y-115356714D01*
X131420285Y-115261476D01*
X131420285Y-115213857D01*
X131467904Y-115118619D01*
X131515523Y-115071000D01*
X131610761Y-115023380D01*
X131801238Y-115023380D01*
X131896476Y-115071000D01*
X131944095Y-115118619D01*
X131991714Y-115213857D01*
X131991714Y-115261476D01*
X131944095Y-115356714D01*
X131896476Y-115404333D01*
X131801238Y-115451952D01*
X131610761Y-115451952D01*
X131515523Y-115499571D01*
X131467904Y-115547190D01*
X131420285Y-115642428D01*
X131420285Y-115832904D01*
X131467904Y-115928142D01*
X131515523Y-115975761D01*
X131610761Y-116023380D01*
X131801238Y-116023380D01*
X131896476Y-115975761D01*
X131944095Y-115928142D01*
X131991714Y-115832904D01*
X131991714Y-115642428D01*
X131944095Y-115547190D01*
X131896476Y-115499571D01*
X131801238Y-115451952D01*
G04 #@! TO.C,C10*
X131373142Y-106493142D02*
X131325523Y-106540761D01*
X131182666Y-106588380D01*
X131087428Y-106588380D01*
X130944571Y-106540761D01*
X130849333Y-106445523D01*
X130801714Y-106350285D01*
X130754095Y-106159809D01*
X130754095Y-106016952D01*
X130801714Y-105826476D01*
X130849333Y-105731238D01*
X130944571Y-105636000D01*
X131087428Y-105588380D01*
X131182666Y-105588380D01*
X131325523Y-105636000D01*
X131373142Y-105683619D01*
X132325523Y-106588380D02*
X131754095Y-106588380D01*
X132039809Y-106588380D02*
X132039809Y-105588380D01*
X131944571Y-105731238D01*
X131849333Y-105826476D01*
X131754095Y-105874095D01*
X132944571Y-105588380D02*
X133039809Y-105588380D01*
X133135047Y-105636000D01*
X133182666Y-105683619D01*
X133230285Y-105778857D01*
X133277904Y-105969333D01*
X133277904Y-106207428D01*
X133230285Y-106397904D01*
X133182666Y-106493142D01*
X133135047Y-106540761D01*
X133039809Y-106588380D01*
X132944571Y-106588380D01*
X132849333Y-106540761D01*
X132801714Y-106493142D01*
X132754095Y-106397904D01*
X132706476Y-106207428D01*
X132706476Y-105969333D01*
X132754095Y-105778857D01*
X132801714Y-105683619D01*
X132849333Y-105636000D01*
X132944571Y-105588380D01*
G04 #@! TO.C,C12*
X155907142Y-115700142D02*
X155859523Y-115747761D01*
X155716666Y-115795380D01*
X155621428Y-115795380D01*
X155478571Y-115747761D01*
X155383333Y-115652523D01*
X155335714Y-115557285D01*
X155288095Y-115366809D01*
X155288095Y-115223952D01*
X155335714Y-115033476D01*
X155383333Y-114938238D01*
X155478571Y-114843000D01*
X155621428Y-114795380D01*
X155716666Y-114795380D01*
X155859523Y-114843000D01*
X155907142Y-114890619D01*
X156859523Y-115795380D02*
X156288095Y-115795380D01*
X156573809Y-115795380D02*
X156573809Y-114795380D01*
X156478571Y-114938238D01*
X156383333Y-115033476D01*
X156288095Y-115081095D01*
X157240476Y-114890619D02*
X157288095Y-114843000D01*
X157383333Y-114795380D01*
X157621428Y-114795380D01*
X157716666Y-114843000D01*
X157764285Y-114890619D01*
X157811904Y-114985857D01*
X157811904Y-115081095D01*
X157764285Y-115223952D01*
X157192857Y-115795380D01*
X157811904Y-115795380D01*
G04 #@! TO.C,C13*
X155925142Y-110811142D02*
X155877523Y-110858761D01*
X155734666Y-110906380D01*
X155639428Y-110906380D01*
X155496571Y-110858761D01*
X155401333Y-110763523D01*
X155353714Y-110668285D01*
X155306095Y-110477809D01*
X155306095Y-110334952D01*
X155353714Y-110144476D01*
X155401333Y-110049238D01*
X155496571Y-109954000D01*
X155639428Y-109906380D01*
X155734666Y-109906380D01*
X155877523Y-109954000D01*
X155925142Y-110001619D01*
X156877523Y-110906380D02*
X156306095Y-110906380D01*
X156591809Y-110906380D02*
X156591809Y-109906380D01*
X156496571Y-110049238D01*
X156401333Y-110144476D01*
X156306095Y-110192095D01*
X157210857Y-109906380D02*
X157829904Y-109906380D01*
X157496571Y-110287333D01*
X157639428Y-110287333D01*
X157734666Y-110334952D01*
X157782285Y-110382571D01*
X157829904Y-110477809D01*
X157829904Y-110715904D01*
X157782285Y-110811142D01*
X157734666Y-110858761D01*
X157639428Y-110906380D01*
X157353714Y-110906380D01*
X157258476Y-110858761D01*
X157210857Y-110811142D01*
G04 #@! TO.C,D1*
X132293904Y-112379380D02*
X132293904Y-111379380D01*
X132532000Y-111379380D01*
X132674857Y-111427000D01*
X132770095Y-111522238D01*
X132817714Y-111617476D01*
X132865333Y-111807952D01*
X132865333Y-111950809D01*
X132817714Y-112141285D01*
X132770095Y-112236523D01*
X132674857Y-112331761D01*
X132532000Y-112379380D01*
X132293904Y-112379380D01*
X133817714Y-112379380D02*
X133246285Y-112379380D01*
X133532000Y-112379380D02*
X133532000Y-111379380D01*
X133436761Y-111522238D01*
X133341523Y-111617476D01*
X133246285Y-111665095D01*
G04 #@! TO.C,DZ1*
X132626380Y-119388285D02*
X131626380Y-119388285D01*
X131626380Y-119150190D01*
X131674000Y-119007333D01*
X131769238Y-118912095D01*
X131864476Y-118864476D01*
X132054952Y-118816857D01*
X132197809Y-118816857D01*
X132388285Y-118864476D01*
X132483523Y-118912095D01*
X132578761Y-119007333D01*
X132626380Y-119150190D01*
X132626380Y-119388285D01*
X131626380Y-118483523D02*
X131626380Y-117816857D01*
X132626380Y-118483523D01*
X132626380Y-117816857D01*
X132626380Y-116912095D02*
X132626380Y-117483523D01*
X132626380Y-117197809D02*
X131626380Y-117197809D01*
X131769238Y-117293047D01*
X131864476Y-117388285D01*
X131912095Y-117483523D01*
G04 #@! TO.C,DZ2*
X137071380Y-119350285D02*
X136071380Y-119350285D01*
X136071380Y-119112190D01*
X136119000Y-118969333D01*
X136214238Y-118874095D01*
X136309476Y-118826476D01*
X136499952Y-118778857D01*
X136642809Y-118778857D01*
X136833285Y-118826476D01*
X136928523Y-118874095D01*
X137023761Y-118969333D01*
X137071380Y-119112190D01*
X137071380Y-119350285D01*
X136071380Y-118445523D02*
X136071380Y-117778857D01*
X137071380Y-118445523D01*
X137071380Y-117778857D01*
X136166619Y-117445523D02*
X136119000Y-117397904D01*
X136071380Y-117302666D01*
X136071380Y-117064571D01*
X136119000Y-116969333D01*
X136166619Y-116921714D01*
X136261857Y-116874095D01*
X136357095Y-116874095D01*
X136499952Y-116921714D01*
X137071380Y-117493142D01*
X137071380Y-116874095D01*
G04 #@! TO.C,FB1*
X140405666Y-106036571D02*
X140072333Y-106036571D01*
X140072333Y-106560380D02*
X140072333Y-105560380D01*
X140548523Y-105560380D01*
X141262809Y-106036571D02*
X141405666Y-106084190D01*
X141453285Y-106131809D01*
X141500904Y-106227047D01*
X141500904Y-106369904D01*
X141453285Y-106465142D01*
X141405666Y-106512761D01*
X141310428Y-106560380D01*
X140929476Y-106560380D01*
X140929476Y-105560380D01*
X141262809Y-105560380D01*
X141358047Y-105608000D01*
X141405666Y-105655619D01*
X141453285Y-105750857D01*
X141453285Y-105846095D01*
X141405666Y-105941333D01*
X141358047Y-105988952D01*
X141262809Y-106036571D01*
X140929476Y-106036571D01*
X142453285Y-106560380D02*
X141881857Y-106560380D01*
X142167571Y-106560380D02*
X142167571Y-105560380D01*
X142072333Y-105703238D01*
X141977095Y-105798476D01*
X141881857Y-105846095D01*
G04 #@! TO.C,J1*
X136211666Y-119912380D02*
X136211666Y-120626666D01*
X136164047Y-120769523D01*
X136068809Y-120864761D01*
X135925952Y-120912380D01*
X135830714Y-120912380D01*
X137211666Y-120912380D02*
X136640238Y-120912380D01*
X136925952Y-120912380D02*
X136925952Y-119912380D01*
X136830714Y-120055238D01*
X136735476Y-120150476D01*
X136640238Y-120198095D01*
G04 #@! TO.C,Q1*
X140726761Y-118723619D02*
X140631523Y-118676000D01*
X140536285Y-118580761D01*
X140393428Y-118437904D01*
X140298190Y-118390285D01*
X140202952Y-118390285D01*
X140250571Y-118628380D02*
X140155333Y-118580761D01*
X140060095Y-118485523D01*
X140012476Y-118295047D01*
X140012476Y-117961714D01*
X140060095Y-117771238D01*
X140155333Y-117676000D01*
X140250571Y-117628380D01*
X140441047Y-117628380D01*
X140536285Y-117676000D01*
X140631523Y-117771238D01*
X140679142Y-117961714D01*
X140679142Y-118295047D01*
X140631523Y-118485523D01*
X140536285Y-118580761D01*
X140441047Y-118628380D01*
X140250571Y-118628380D01*
X141631523Y-118628380D02*
X141060095Y-118628380D01*
X141345809Y-118628380D02*
X141345809Y-117628380D01*
X141250571Y-117771238D01*
X141155333Y-117866476D01*
X141060095Y-117914095D01*
G04 #@! TO.C,Q2*
X157765761Y-120975619D02*
X157670523Y-120928000D01*
X157575285Y-120832761D01*
X157432428Y-120689904D01*
X157337190Y-120642285D01*
X157241952Y-120642285D01*
X157289571Y-120880380D02*
X157194333Y-120832761D01*
X157099095Y-120737523D01*
X157051476Y-120547047D01*
X157051476Y-120213714D01*
X157099095Y-120023238D01*
X157194333Y-119928000D01*
X157289571Y-119880380D01*
X157480047Y-119880380D01*
X157575285Y-119928000D01*
X157670523Y-120023238D01*
X157718142Y-120213714D01*
X157718142Y-120547047D01*
X157670523Y-120737523D01*
X157575285Y-120832761D01*
X157480047Y-120880380D01*
X157289571Y-120880380D01*
X158099095Y-119975619D02*
X158146714Y-119928000D01*
X158241952Y-119880380D01*
X158480047Y-119880380D01*
X158575285Y-119928000D01*
X158622904Y-119975619D01*
X158670523Y-120070857D01*
X158670523Y-120166095D01*
X158622904Y-120308952D01*
X158051476Y-120880380D01*
X158670523Y-120880380D01*
G04 #@! TO.C,R1*
X142659380Y-115774666D02*
X142183190Y-116108000D01*
X142659380Y-116346095D02*
X141659380Y-116346095D01*
X141659380Y-115965142D01*
X141707000Y-115869904D01*
X141754619Y-115822285D01*
X141849857Y-115774666D01*
X141992714Y-115774666D01*
X142087952Y-115822285D01*
X142135571Y-115869904D01*
X142183190Y-115965142D01*
X142183190Y-116346095D01*
X142659380Y-114822285D02*
X142659380Y-115393714D01*
X142659380Y-115108000D02*
X141659380Y-115108000D01*
X141802238Y-115203238D01*
X141897476Y-115298476D01*
X141945095Y-115393714D01*
G04 #@! TO.C,R2*
X138470380Y-118314666D02*
X137994190Y-118648000D01*
X138470380Y-118886095D02*
X137470380Y-118886095D01*
X137470380Y-118505142D01*
X137518000Y-118409904D01*
X137565619Y-118362285D01*
X137660857Y-118314666D01*
X137803714Y-118314666D01*
X137898952Y-118362285D01*
X137946571Y-118409904D01*
X137994190Y-118505142D01*
X137994190Y-118886095D01*
X137565619Y-117933714D02*
X137518000Y-117886095D01*
X137470380Y-117790857D01*
X137470380Y-117552761D01*
X137518000Y-117457523D01*
X137565619Y-117409904D01*
X137660857Y-117362285D01*
X137756095Y-117362285D01*
X137898952Y-117409904D01*
X138470380Y-117981333D01*
X138470380Y-117362285D01*
G04 #@! TO.C,R3*
X134086380Y-118340666D02*
X133610190Y-118674000D01*
X134086380Y-118912095D02*
X133086380Y-118912095D01*
X133086380Y-118531142D01*
X133134000Y-118435904D01*
X133181619Y-118388285D01*
X133276857Y-118340666D01*
X133419714Y-118340666D01*
X133514952Y-118388285D01*
X133562571Y-118435904D01*
X133610190Y-118531142D01*
X133610190Y-118912095D01*
X133086380Y-118007333D02*
X133086380Y-117388285D01*
X133467333Y-117721619D01*
X133467333Y-117578761D01*
X133514952Y-117483523D01*
X133562571Y-117435904D01*
X133657809Y-117388285D01*
X133895904Y-117388285D01*
X133991142Y-117435904D01*
X134038761Y-117483523D01*
X134086380Y-117578761D01*
X134086380Y-117864476D01*
X134038761Y-117959714D01*
X133991142Y-118007333D01*
G04 #@! TO.C,R4*
X151295380Y-104776666D02*
X150819190Y-105110000D01*
X151295380Y-105348095D02*
X150295380Y-105348095D01*
X150295380Y-104967142D01*
X150343000Y-104871904D01*
X150390619Y-104824285D01*
X150485857Y-104776666D01*
X150628714Y-104776666D01*
X150723952Y-104824285D01*
X150771571Y-104871904D01*
X150819190Y-104967142D01*
X150819190Y-105348095D01*
X150628714Y-103919523D02*
X151295380Y-103919523D01*
X150247761Y-104157619D02*
X150962047Y-104395714D01*
X150962047Y-103776666D01*
G04 #@! TO.C,R5*
X130795333Y-117958380D02*
X130462000Y-117482190D01*
X130223904Y-117958380D02*
X130223904Y-116958380D01*
X130604857Y-116958380D01*
X130700095Y-117006000D01*
X130747714Y-117053619D01*
X130795333Y-117148857D01*
X130795333Y-117291714D01*
X130747714Y-117386952D01*
X130700095Y-117434571D01*
X130604857Y-117482190D01*
X130223904Y-117482190D01*
X131700095Y-116958380D02*
X131223904Y-116958380D01*
X131176285Y-117434571D01*
X131223904Y-117386952D01*
X131319142Y-117339333D01*
X131557238Y-117339333D01*
X131652476Y-117386952D01*
X131700095Y-117434571D01*
X131747714Y-117529809D01*
X131747714Y-117767904D01*
X131700095Y-117863142D01*
X131652476Y-117910761D01*
X131557238Y-117958380D01*
X131319142Y-117958380D01*
X131223904Y-117910761D01*
X131176285Y-117863142D01*
G04 #@! TO.C,R6*
X152885380Y-122505666D02*
X152409190Y-122839000D01*
X152885380Y-123077095D02*
X151885380Y-123077095D01*
X151885380Y-122696142D01*
X151933000Y-122600904D01*
X151980619Y-122553285D01*
X152075857Y-122505666D01*
X152218714Y-122505666D01*
X152313952Y-122553285D01*
X152361571Y-122600904D01*
X152409190Y-122696142D01*
X152409190Y-123077095D01*
X151885380Y-121648523D02*
X151885380Y-121839000D01*
X151933000Y-121934238D01*
X151980619Y-121981857D01*
X152123476Y-122077095D01*
X152313952Y-122124714D01*
X152694904Y-122124714D01*
X152790142Y-122077095D01*
X152837761Y-122029476D01*
X152885380Y-121934238D01*
X152885380Y-121743761D01*
X152837761Y-121648523D01*
X152790142Y-121600904D01*
X152694904Y-121553285D01*
X152456809Y-121553285D01*
X152361571Y-121600904D01*
X152313952Y-121648523D01*
X152266333Y-121743761D01*
X152266333Y-121934238D01*
X152313952Y-122029476D01*
X152361571Y-122077095D01*
X152456809Y-122124714D01*
G04 #@! TO.C,R7*
X143953333Y-121897380D02*
X143620000Y-121421190D01*
X143381904Y-121897380D02*
X143381904Y-120897380D01*
X143762857Y-120897380D01*
X143858095Y-120945000D01*
X143905714Y-120992619D01*
X143953333Y-121087857D01*
X143953333Y-121230714D01*
X143905714Y-121325952D01*
X143858095Y-121373571D01*
X143762857Y-121421190D01*
X143381904Y-121421190D01*
X144286666Y-120897380D02*
X144953333Y-120897380D01*
X144524761Y-121897380D01*
G04 #@! TO.C,R8*
X154470380Y-118492666D02*
X153994190Y-118826000D01*
X154470380Y-119064095D02*
X153470380Y-119064095D01*
X153470380Y-118683142D01*
X153518000Y-118587904D01*
X153565619Y-118540285D01*
X153660857Y-118492666D01*
X153803714Y-118492666D01*
X153898952Y-118540285D01*
X153946571Y-118587904D01*
X153994190Y-118683142D01*
X153994190Y-119064095D01*
X153898952Y-117921238D02*
X153851333Y-118016476D01*
X153803714Y-118064095D01*
X153708476Y-118111714D01*
X153660857Y-118111714D01*
X153565619Y-118064095D01*
X153518000Y-118016476D01*
X153470380Y-117921238D01*
X153470380Y-117730761D01*
X153518000Y-117635523D01*
X153565619Y-117587904D01*
X153660857Y-117540285D01*
X153708476Y-117540285D01*
X153803714Y-117587904D01*
X153851333Y-117635523D01*
X153898952Y-117730761D01*
X153898952Y-117921238D01*
X153946571Y-118016476D01*
X153994190Y-118064095D01*
X154089428Y-118111714D01*
X154279904Y-118111714D01*
X154375142Y-118064095D01*
X154422761Y-118016476D01*
X154470380Y-117921238D01*
X154470380Y-117730761D01*
X154422761Y-117635523D01*
X154375142Y-117587904D01*
X154279904Y-117540285D01*
X154089428Y-117540285D01*
X153994190Y-117587904D01*
X153946571Y-117635523D01*
X153898952Y-117730761D01*
G04 #@! TO.C,R9*
X155867380Y-121514666D02*
X155391190Y-121848000D01*
X155867380Y-122086095D02*
X154867380Y-122086095D01*
X154867380Y-121705142D01*
X154915000Y-121609904D01*
X154962619Y-121562285D01*
X155057857Y-121514666D01*
X155200714Y-121514666D01*
X155295952Y-121562285D01*
X155343571Y-121609904D01*
X155391190Y-121705142D01*
X155391190Y-122086095D01*
X155867380Y-121038476D02*
X155867380Y-120848000D01*
X155819761Y-120752761D01*
X155772142Y-120705142D01*
X155629285Y-120609904D01*
X155438809Y-120562285D01*
X155057857Y-120562285D01*
X154962619Y-120609904D01*
X154915000Y-120657523D01*
X154867380Y-120752761D01*
X154867380Y-120943238D01*
X154915000Y-121038476D01*
X154962619Y-121086095D01*
X155057857Y-121133714D01*
X155295952Y-121133714D01*
X155391190Y-121086095D01*
X155438809Y-121038476D01*
X155486428Y-120943238D01*
X155486428Y-120752761D01*
X155438809Y-120657523D01*
X155391190Y-120609904D01*
X155295952Y-120562285D01*
G04 #@! TO.C,R10*
X154343380Y-122016857D02*
X153867190Y-122350190D01*
X154343380Y-122588285D02*
X153343380Y-122588285D01*
X153343380Y-122207333D01*
X153391000Y-122112095D01*
X153438619Y-122064476D01*
X153533857Y-122016857D01*
X153676714Y-122016857D01*
X153771952Y-122064476D01*
X153819571Y-122112095D01*
X153867190Y-122207333D01*
X153867190Y-122588285D01*
X154343380Y-121064476D02*
X154343380Y-121635904D01*
X154343380Y-121350190D02*
X153343380Y-121350190D01*
X153486238Y-121445428D01*
X153581476Y-121540666D01*
X153629095Y-121635904D01*
X153343380Y-120445428D02*
X153343380Y-120350190D01*
X153391000Y-120254952D01*
X153438619Y-120207333D01*
X153533857Y-120159714D01*
X153724333Y-120112095D01*
X153962428Y-120112095D01*
X154152904Y-120159714D01*
X154248142Y-120207333D01*
X154295761Y-120254952D01*
X154343380Y-120350190D01*
X154343380Y-120445428D01*
X154295761Y-120540666D01*
X154248142Y-120588285D01*
X154152904Y-120635904D01*
X153962428Y-120683523D01*
X153724333Y-120683523D01*
X153533857Y-120635904D01*
X153438619Y-120588285D01*
X153391000Y-120540666D01*
X153343380Y-120445428D01*
G04 #@! TO.C,SW1*
X141858666Y-121728761D02*
X142001523Y-121776380D01*
X142239619Y-121776380D01*
X142334857Y-121728761D01*
X142382476Y-121681142D01*
X142430095Y-121585904D01*
X142430095Y-121490666D01*
X142382476Y-121395428D01*
X142334857Y-121347809D01*
X142239619Y-121300190D01*
X142049142Y-121252571D01*
X141953904Y-121204952D01*
X141906285Y-121157333D01*
X141858666Y-121062095D01*
X141858666Y-120966857D01*
X141906285Y-120871619D01*
X141953904Y-120824000D01*
X142049142Y-120776380D01*
X142287238Y-120776380D01*
X142430095Y-120824000D01*
X142763428Y-120776380D02*
X143001523Y-121776380D01*
X143192000Y-121062095D01*
X143382476Y-121776380D01*
X143620571Y-120776380D01*
X144525333Y-121776380D02*
X143953904Y-121776380D01*
X144239619Y-121776380D02*
X144239619Y-120776380D01*
X144144380Y-120919238D01*
X144049142Y-121014476D01*
X143953904Y-121062095D01*
G04 #@! TO.C,U1*
X146524095Y-103118380D02*
X146524095Y-103927904D01*
X146571714Y-104023142D01*
X146619333Y-104070761D01*
X146714571Y-104118380D01*
X146905047Y-104118380D01*
X147000285Y-104070761D01*
X147047904Y-104023142D01*
X147095523Y-103927904D01*
X147095523Y-103118380D01*
X148095523Y-104118380D02*
X147524095Y-104118380D01*
X147809809Y-104118380D02*
X147809809Y-103118380D01*
X147714571Y-103261238D01*
X147619333Y-103356476D01*
X147524095Y-103404095D01*
G04 #@! TO.C,U2*
X147130095Y-118038380D02*
X147130095Y-118847904D01*
X147177714Y-118943142D01*
X147225333Y-118990761D01*
X147320571Y-119038380D01*
X147511047Y-119038380D01*
X147606285Y-118990761D01*
X147653904Y-118943142D01*
X147701523Y-118847904D01*
X147701523Y-118038380D01*
X148130095Y-118133619D02*
X148177714Y-118086000D01*
X148272952Y-118038380D01*
X148511047Y-118038380D01*
X148606285Y-118086000D01*
X148653904Y-118133619D01*
X148701523Y-118228857D01*
X148701523Y-118324095D01*
X148653904Y-118466952D01*
X148082476Y-119038380D01*
X148701523Y-119038380D01*
G04 #@! TO.C,U3*
X133160095Y-108291880D02*
X133160095Y-109101404D01*
X133207714Y-109196642D01*
X133255333Y-109244261D01*
X133350571Y-109291880D01*
X133541047Y-109291880D01*
X133636285Y-109244261D01*
X133683904Y-109196642D01*
X133731523Y-109101404D01*
X133731523Y-108291880D01*
X134112476Y-108291880D02*
X134731523Y-108291880D01*
X134398190Y-108672833D01*
X134541047Y-108672833D01*
X134636285Y-108720452D01*
X134683904Y-108768071D01*
X134731523Y-108863309D01*
X134731523Y-109101404D01*
X134683904Y-109196642D01*
X134636285Y-109244261D01*
X134541047Y-109291880D01*
X134255333Y-109291880D01*
X134160095Y-109244261D01*
X134112476Y-109196642D01*
G04 #@! TO.C,U4*
X155194095Y-108376380D02*
X155194095Y-109185904D01*
X155241714Y-109281142D01*
X155289333Y-109328761D01*
X155384571Y-109376380D01*
X155575047Y-109376380D01*
X155670285Y-109328761D01*
X155717904Y-109281142D01*
X155765523Y-109185904D01*
X155765523Y-108376380D01*
X156670285Y-108709714D02*
X156670285Y-109376380D01*
X156432190Y-108328761D02*
X156194095Y-109043047D01*
X156813142Y-109043047D01*
G04 #@! TO.C,Y1*
X146419809Y-119228190D02*
X146419809Y-119704380D01*
X146086476Y-118704380D02*
X146419809Y-119228190D01*
X146753142Y-118704380D01*
X147610285Y-119704380D02*
X147038857Y-119704380D01*
X147324571Y-119704380D02*
X147324571Y-118704380D01*
X147229333Y-118847238D01*
X147134095Y-118942476D01*
X147038857Y-118990095D01*
G04 #@! TD*
M02*
